<?xml version="1.0" encoding="utf-8"?>
<!-- Generator: Adobe Illustrator 15.1.0, SVG Export Plug-In  -->
<!DOCTYPE svg PUBLIC "-//W3C//DTD SVG 1.1//EN" "http://www.w3.org/Graphics/SVG/1.1/DTD/svg11.dtd" [
	<!ENTITY ns_flows "http://ns.adobe.com/Flows/1.0/">
]>
<svg version="1.1"
	 xmlns="http://www.w3.org/2000/svg" xmlns:xlink="http://www.w3.org/1999/xlink" xmlns:a="http://ns.adobe.com/AdobeSVGViewerExtensions/3.0/"
	 x="0px" y="0px" width="100%" height="100%" viewBox="0 0 612 345"
	 overflow="visible" enable-background="new 0 223.6 612 345" xml:space="preserve">
<defs>
</defs>
<g>
	<defs>
		<rect id="SVGID_1_" x="0" width="612" height="344.9"/>
	</defs>
	<clipPath id="SVGID_2_">
		<use xlink:href="#SVGID_1_"  overflow="visible"/>
	</clipPath>
	<path clip-path="url(#SVGID_2_)" fill="#0054A6" d="M608.6,290.8c-0.9-2-1.7-3.9-2.5-5.9c-3.9-9.3-7.1-16.7-13-22.2
		c-8.7-8-15.9-16.8-22.8-25.4c-4-4.9-7.8-9.6-11.8-14c-1.5-1.7-3.6-3.5-5.7-5.4c-6.2-5.4-14.5-12.6-18.7-24.3l-2.1-2.1
		c-3.2-3.2-6.2-6.1-9.2-8.7c-6.8-5.9-13.7-11.7-20.6-17.5c-10.8-9.1-22-18.5-32.9-28.1c-11.9-10.5-23.8-21.2-35.6-31.9
		c-11.3-10.3-22.7-20.5-34.1-30.6c-3.3-2.9-7.2-5.8-11.3-8.7c-4.2-3.1-8.5-6.2-12.8-9.9c-7.6-6.5-15.1-13.3-22.3-19.8l-3.6-3.3
		c-9.6-7-18.7-14.9-27-23.8L322.2,9c-2.5-2.2-4.6-4.5-6.5-6.7c-3.6-0.7-6.9-1.5-9.9-2.2c-0.1,0-0.2-0.1-0.4-0.1
		c-5.8,1.3-11.4,2.3-16.9,3.1c-20.4,19.1-38.6,33.4-56.5,44.8c-3.1,4.2-6.7,8.4-11.3,11.9c-3,2.3-6.3,5.6-9.7,9.1
		c-5.6,5.6-11.9,12.1-19.6,16.9c-2.5,1.9-11.4,11.3-15.1,15.3c-2.3,2.5-4.3,4.6-5.5,5.8c-5.4,5.3-10.3,11.3-15.5,17.6
		c-2.5,3.1-5.1,6.1-7.7,9.2c-6.3,7.4-12.3,11.8-17.2,15.4c-5.3,3.9-8.2,6.1-11.4,11.7c-5,8.9-13.4,14.2-17.9,16.5
		c-6.7,3.4-12.8,10.8-19.2,18.7c-3,3.7-6.1,7.4-9.2,10.8c-2.8,3.1-5.8,5.6-8.3,7.7c-2.1,1.7-4,3.4-5,4.7l-3.4,7l-1.4,1.7
		c-4.5,5.7-10.4,12.5-16.1,19c-5.3,6-10.7,12.3-14.8,17.4l-5.4,11.4l-4.5,3c-4,2.7-7,6.6-10.8,13.8c-3,5.8-3.2,9.3-3,11.5
		c0.5,5.7,1.3,11.5,2.3,17.7c0.7,4.7,1.4,9.4,2,14.1c16.1,7.4,32.5,10.3,48.9,8.6c3.4-0.4,8.1-4.5,13.1-9c0.6-0.6,1.6-1.9,2.8-3.3
		c5-6,11.6-14,19.7-17.9c9.5-12.1,21.5-23.5,36.3-34.8c6.6-9,15.6-15.5,26.6-19.2c9.7-8.3,20.2-14.8,28.1-19.4
		c9.3-8.8,19.7-19.3,27.5-31.4c2.8-4.4,6.2-8.3,10-11.9c4.9-13.2,14.3-23.6,26.8-29.5c3.6-3.2,7.6-6,11.9-8.2l8.3-8.7
		c1.5-1.5,2.9-3.1,4.3-4.6c3.8-4.2,7.8-8.5,12.4-12.6c18.3-16.4,37.3,3.8,43.5,10.5c1.1,1.2,2.2,2.4,3.3,3.4
		c11.2,11.1,22.1,22.3,33.1,33.5l0.9,0.9c7.1,5.2,13.9,10.9,20.3,17.2c22.9,11.5,43.9,29.8,62.5,54.5c10.2,6.7,21,13,31.5,19.3
		c11.9,7.1,24.3,14.4,36.2,22.3c0.7,0.5,1.3,0.9,1.9,1.4c7.3,4,13.4,8.9,18.2,14.5c5,3.5,9.2,8.4,13.2,13.3c0.9,1.1,1.7,2.1,2.4,2.9
		c11.1,7.2,20.9,11.6,31.4,14.1c14.1,3.3,23.5-0.9,27.8-12.6C613.1,313.3,613.5,301.8,608.6,290.8L608.6,290.8z"/>
</g>
</svg>
