<?xml version="1.0" encoding="UTF-8"?>
<svg id="Ebene_1" data-name="Ebene 1" xmlns="http://www.w3.org/2000/svg" version="1.1" viewBox="0 0 19 25">
  <defs>
    <style>
      .cls-1 {
        fill: #2a5eec;
        stroke-width: 0px;
      }
    </style>
  </defs>
  <path class="cls-1" d="M9.5,20.6l-6.5,2.7c-.2,0-.4.1-.6.1-.4,0-.8-.2-1.1-.5-.5-.5-.6-1.2-.3-1.8l2.7-6.5,5.9,5.9h0ZM12.5,16.4l-4.7-4.7c-.5-.5-1.1-.7-1.8-.5-.6.1-1.2.6-1.4,1.2l-.4.9,6.7,6.7.9-.4c.6-.3,1-.8,1.2-1.4.1-.6,0-1.3-.5-1.8h0ZM12.2,11.6c.5-.7.8-1.4.9-2.2.1-2-1.3-3.1-1.4-3.1-.3-.2-.8-.2-1,.1-.2.3-.2.8.1,1,0,0,.9.7.8,1.9,0,.5-.2,1-.6,1.4-.2.3-.2.8.1,1,.1,0,.3.1.4.1.2,0,.4,0,.6-.3h0ZM17.8,16.1c.3-.2.4-.7.2-1-.3-.4-1-1-2-1s-1.1.2-1.5.5c-.3.2-.4.7-.1,1,.2.3.7.4,1,.1.2-.1.4-.2.7-.2.5,0,.8.4.9.4.1.2.4.3.6.3s.3,0,.4-.1h0ZM16,7.1c0,.6.5,1.1,1.1,1.1s1.1-.5,1.1-1.1-.5-1.1-1.1-1.1-1.1.5-1.1,1.1ZM14.5,10.8c0,.6.5,1.1,1.1,1.1s1.1-.5,1.1-1.1-.5-1.1-1.1-1.1-1.1.5-1.1,1.1ZM6.6,7.9c0,.6.5,1.1,1.1,1.1s1.1-.5,1.1-1.1-.5-1.1-1.1-1.1-1.1.5-1.1,1.1ZM15.3,19.4c0,.6.5,1.1,1.1,1.1s1.1-.5,1.1-1.1-.5-1.1-1.1-1.1-1.1.5-1.1,1.1ZM1.5,8.6c0,.6.5,1.1,1.1,1.1s1.1-.5,1.1-1.1-.5-1.1-1.1-1.1-1.1.5-1.1,1.1ZM11.6,22.3c0,.6.5,1.1,1.1,1.1s1.1-.5,1.1-1.1-.5-1.1-1.1-1.1-1.1.5-1.1,1.1Z"/>
</svg>