<?xml version="1.0" encoding="utf-8"?>
<!-- Generator: Adobe Illustrator 15.1.0, SVG Export Plug-In . SVG Version: 6.00 Build 0)  -->
<!DOCTYPE svg PUBLIC "-//W3C//DTD SVG 1.1//EN" "http://www.w3.org/Graphics/SVG/1.1/DTD/svg11.dtd">
<svg version="1.1" id="Ebene_1" xmlns="http://www.w3.org/2000/svg" xmlns:xlink="http://www.w3.org/1999/xlink" x="0px" y="0px"
	 viewBox="0 0 18.971 24.95" enable-background="new 0 0 18.971 24.95" xml:space="preserve">
<g>
	<defs>
		<rect id="SVGID_1_" y="0" width="18.971" height="24.95"/>
	</defs>
	<clipPath id="SVGID_2_">
		<use xlink:href="#SVGID_1_"  overflow="visible"/>
	</clipPath>
	<path clip-path="url(#SVGID_2_)" fill="#EBB800" d="M1.904,24.183c1.424,0.449,2.986,0.643,4.276,0.729
		c2.405,0.161,4.812-0.217,7.13-0.839c1.172-0.313,2.324-0.692,3.465-1.106c0.251-0.091,0.504-0.193,0.76-0.29
		c0.531-0.912,0.859-1.907,0.57-2.486c-0.652-1.303-1.854-2.542-3.395-2.73c-0.917-0.113-1.68,0.188-2.547,0.42
		c-1.908,0.51-3.218,0.105-5.073-0.287c-0.35-0.074-0.662-0.109-0.951-0.117c-0.01-0.886-1.387-1.469-2.008-0.516
		c-0.861,1.318-3.508,3.667-3.528,5.378C0.594,23.235,1.166,23.787,1.904,24.183"/>
	<path clip-path="url(#SVGID_2_)" fill="#EBB800" d="M9.715,12.573c0.14,0.623,0.285,1.409,1.05,1.438
		c0.652,0.024,1.413-0.458,1.67-1.063C11.564,12.638,10.611,12.785,9.715,12.573"/>
	<path clip-path="url(#SVGID_2_)" fill="#4E4C4C" d="M14.605,23.691c0.338-0.104,0.674-0.212,1.008-0.325
		c-0.013-0.143-0.026-0.281-0.036-0.408l-0.018-0.03c-0.161-0.487-0.32-0.975-0.452-1.47c-0.136-0.501-0.309-1.533-0.859-1.352
		c0.056,0.539,0.065,2.026,0.182,2.562C14.504,23.007,14.557,23.349,14.605,23.691"/>
	<path clip-path="url(#SVGID_2_)" fill="#4E4C4C" d="M2.858,13.549c-0.268-0.158-0.474-0.45-0.572-0.817
		c-0.183-0.676-0.274-1.362-0.207-2.062c0.04-0.417,0.192-0.554,0.604-0.555c0.336-0.001,0.654,0.066,0.951,0.237
		c0.205,0.118,0.424,0.212,0.661,0.328c0.16-0.337,0.148-0.635,0.017-0.894C4.161,9.484,3.98,9.179,3.676,8.998
		C3.456,8.867,3.371,8.676,3.35,8.445C3.308,7.996,3.275,7.548,3.241,7.099C3.18,6.279,3.413,5.528,3.787,4.812
		C3.86,4.673,3.865,4.675,3.883,4.441l0.218-0.097c0.243-0.406,0.675-0.587,1.033-0.843c0.442-0.318,0.913-0.621,1.415-0.82
		c0.522-0.205,1.094-0.283,1.646-0.409C8.377,2.23,8.564,2.186,8.748,2.191c0.379,0.012,0.763,0.022,1.134,0.09
		c0.527,0.097,1.041,0.253,1.565,0.368c0.246,0.053,0.434,0.166,0.612,0.347c0.486,0.491,1.006,0.953,1.377,1.543
		c0.118,0.186,0.199,0.395,0.294,0.596c0.11,0.238,0.289,0.437,0.315,0.721c0.026,0.274,0.135,0.539,0.168,0.812
		c0.089,0.718,0.126,1.445,0.242,2.158c0.077,0.476,0.244,0.94,0.391,1.401c0.146,0.457,0.314,0.905,0.472,1.357l0.014,0.049
		c-0.026,0.307-0.098,0.615-0.07,0.915c0.029,0.304,0.014,0.566-0.104,0.856c-0.111,0.275-0.212,0.516-0.439,0.733
		c-0.229,0.22-0.43,0.521-0.524,0.823c-0.155,0.496-0.561,0.765-0.879,1.104c-0.104,0.11-0.252,0.209-0.362,0.336
		c-0.462,0.539-1.05,0.89-1.73,1.064c-0.443,0.112-0.858,0.366-1.42,0.278c-0.616-0.227-1.307-0.481-1.997-0.735l0.025-0.047
		c-0.275-0.177-0.532-0.396-0.827-0.524c-0.512-0.226-0.943-0.542-1.353-0.913c-0.415-0.379-0.864-0.722-1.332-1.107
		c0.188-0.479,0.393-0.914,0.352-1.404c-0.007-0.079-0.069-0.155-0.14-0.305C4.392,12.87,4.285,13,4.173,13.126
		C3.84,13.502,3.451,13.727,2.858,13.549 M10.192,21.141C9.673,20.98,9.403,19.7,9.21,19.235c0.475,0.064,0.902,0.121,1.378,0.185
		C10.459,19.677,10.334,20.858,10.192,21.141 M2.21,17.434c-0.225,0.32-0.408,0.669-0.609,1.007c-0.3,0.5-0.599,1.002-0.898,1.503
		c-0.087,0.146-0.173,1.22-0.261,1.366C0.296,21.554,0.149,21.8,0,22.047l0.04,0.174c0.334,0.411,0.643,0.966,1.011,1.347h0.295
		c0.132-0.405,0.295-0.963,0.44-1.363l0.03-0.05c0.61-1.764,1.601-4.187,3.238-5.203c0.874,0.575,1.738,1.143,2.662,1.749
		c0.17,0.938,0.702,2.692,1.467,3.378c-0.221,0.473-0.552,0.79-0.982,1.029c-0.436,0.244-0.835,0.552-1.276,0.779
		c-0.562,0.288-1.139,0.556-1.77,0.662v0.273c0.355,0.038,0.7,0.067,1.026,0.089c0.091,0.007,0.182,0.007,0.273,0.012
		c0.115-0.041,0.229-0.082,0.345-0.117c0.292-0.087,0.605-0.118,0.879-0.229c0.513-0.208,1.003-0.478,1.485-0.752
		c0.203-0.116,0.35-0.329,0.547-0.462c0.43-0.291,0.781-0.661,1.097-1.062c0.276-0.353,0.53-0.723,0.77-1.099
		c0.106-0.169,0.192-1.299,0.219-1.495c0.032-0.236,0.13-0.383,0.337-0.482c0.248-0.12,0.526-0.208,0.729-0.382
		c0.536-0.459,1.252-0.663,1.706-1.232l0.166-0.072c0.345,0.335,0.912,0.295,1.219,0.767c0.277,0.428,0.643,0.799,0.871,1.265
		c0.117,0.241,0.186,1.416,0.225,1.677c0.383,0.318,0.556,0.836,0.624,1.378c0.139-0.051,0.28-0.096,0.421-0.139
		c0.302-0.287,0.599-0.581,0.874-0.896l0.005-0.007c-0.021-0.099-0.041-0.198-0.051-0.302c-0.032-0.354-0.22-1.524-0.445-1.758
		c-0.07-0.074-0.155-0.134-0.248-0.21c0.01-0.091,0.029-0.176,0.023-0.258l-0.065-0.242c-0.476-0.837-0.933-1.682-1.721-2.293
		c-0.227-0.176-0.504-0.388-0.479-0.739c0.09-0.095,0.183-0.172,0.249-0.267c0.279-0.407,0.571-0.808,0.819-1.233
		c0.198-0.343,0.44-0.71,0.48-1.085c0.051-0.482-0.038-0.995-0.149-1.475c-0.1-0.433-0.262-0.871-0.482-1.257
		c-0.631-1.103-0.733-2.104-0.938-3.341c-0.103-0.632-0.133-2.068-0.354-2.675c-0.153-0.423-0.301-0.848-0.458-1.27
		c-0.055-0.145-0.111-0.296-0.202-0.417c-0.213-0.285-0.432-0.567-0.675-0.825c-0.495-0.521-0.78-0.745-1.443-1.078
		c-0.352-0.175-0.665-0.427-1.082-0.474c-0.895-0.1-2.31-0.52-3.211-0.339C8.151,0.124,7.747,0.118,7.352,0.171
		c-0.727,0.096-1.617,0.294-2.24,0.677C4.394,1.29,3.706,1.784,3.086,2.366c-0.447,0.42-0.803,0.907-1.143,1.413
		C1.607,4.277,1.449,4.844,1.251,5.397C1.178,5.603,1.157,5.834,1.153,6.054C1.14,6.643,1.42,7.783,1.42,8.427
		c-0.145,0.154-0.346,0.346-0.522,0.56c-0.224,0.27-0.42,0.569-0.429,0.932c-0.022,0.789-0.336,1.716,0.119,2.443
		c0.051,0.081,0.019,0.209,0.058,0.302c0.239,0.551,0.445,1.125,0.748,1.639c0.214,0.364,0.571,0.643,0.851,0.97
		c0.202,0.237,0.667,0.172,0.952,0.158c0.114-0.006,0.226-0.059,0.354-0.095c0.122,0.163,0.232,0.311,0.372,0.495
		C3.145,16.196,2.656,16.797,2.21,17.434"/>
	<path clip-path="url(#SVGID_2_)" fill="#4E4C4C" d="M3.545,23.461l0.052,0.188c-0.037,0.23-0.09,0.625-0.118,0.927
		c0.415,0.08,0.828,0.144,1.232,0.194v-0.792l0.012-0.06c-0.087-1.106-0.021-3.127-0.283-4.215
		c-0.092-0.032-0.201-0.071-0.354-0.127c-0.067,0.131-0.157,0.243-0.18,0.366c-0.141,0.73-0.271,2.389-0.391,3.122
		C3.5,23.155,3.57,23.259,3.612,23.391L3.545,23.461z"/>
	<path clip-path="url(#SVGID_2_)" fill="#4E4C4C" d="M9.294,12.12c0.062-0.1,0.113-0.187,0.191-0.313
		c0.679,0.25,1.313,0.679,2.109,0.532c0.471-0.258,0.598-0.5,0.515-1.029c-0.027-0.166-0.058-0.332-0.103-0.587
		c0.521,0.329,0.799,0.714,0.896,1.221c0.079,0.403-0.021,0.752-0.366,1.015c-0.358,0.275-0.757,0.428-1.21,0.399
		c-0.242-0.014-0.483-0.053-0.725-0.088c-0.438-0.062-0.781-0.275-1.014-0.657C9.491,12.452,9.396,12.289,9.294,12.12"/>
	<path clip-path="url(#SVGID_2_)" fill="#4E4C4C" d="M7.342,9.239C7.301,8.991,7.403,8.75,7.524,8.53l0.221-0.168
		c0.114-0.055,0.232-0.107,0.352-0.123c0.242-0.032,0.494-0.08,0.708,0.147c0.167,0.256,0.25,0.567,0.248,0.933
		c-0.03,0.15-0.085,0.291-0.137,0.432L8.823,9.917c-0.102,0.118-0.203,0.244-0.317,0.334c-0.115,0.09-0.244,0.095-0.377,0.038
		c-0.145-0.062-0.297-0.092-0.444-0.143l-0.1-0.084L7.433,9.865C7.333,9.682,7.303,9.473,7.342,9.239
		C7.301,8.991,7.342,9.406,7.342,9.239"/>
	<path clip-path="url(#SVGID_2_)" fill="#4E4C4C" d="M12.901,8.46c0.167,0.153,0.229,0.382,0.265,0.604l-0.063,0.243
		c-0.051,0.102-0.106,0.204-0.183,0.282c-0.154,0.158-0.305,0.332-0.583,0.289c-0.262-0.088-0.493-0.263-0.694-0.524
		c-0.062-0.124-0.102-0.255-0.144-0.383l-0.026-0.17c0.008-0.14,0.009-0.286,0.04-0.413c0.031-0.128,0.12-0.203,0.246-0.237
		c0.139-0.036,0.263-0.099,0.396-0.145l0.117,0.005l0.218,0.055C12.662,8.141,12.799,8.272,12.901,8.46
		C13.068,8.613,12.808,8.341,12.901,8.46"/>
	<path clip-path="url(#SVGID_2_)" fill="#FFFFFF" d="M6.18,24.913c0.091,0.006,0.182,0.006,0.273,0.011
		c0.115-0.041,0.229-0.082,0.344-0.117c0.293-0.087,0.606-0.118,0.88-0.229c0.513-0.208,1.002-0.479,1.485-0.752l0.547-0.461
		c0.431-0.291,0.78-0.662,1.098-1.063c0.275-0.352,0.529-0.721,0.769-1.097c0.107-0.169,0.193-1.301,0.219-1.496
		c0.032-0.236,0.13-0.383,0.336-0.482l-1.543,0.195c-0.128,0.257-0.253,1.437-0.395,1.721C9.673,20.98,9.403,19.7,9.21,19.235
		l-1.494-0.533c0.17,0.938,0.702,2.691,1.467,3.377C8.962,22.55,8.631,22.87,8.2,23.108c-0.436,0.243-0.835,0.553-1.277,0.778
		c-0.606,0.312-1.51,0.624-2.2,0.708L4.71,24.771C5.222,24.835,5.719,24.881,6.18,24.913"/>
</g>
</svg>
