<?xml version="1.0" encoding="utf-8"?>
<!-- Generator: Adobe Illustrator 15.1.0, SVG Export Plug-In . SVG Version: 6.00 Build 0)  -->
<!DOCTYPE svg PUBLIC "-//W3C//DTD SVG 1.1//EN" "http://www.w3.org/Graphics/SVG/1.1/DTD/svg11.dtd">
<svg version="1.1" id="Ebene_1" xmlns="http://www.w3.org/2000/svg" xmlns:xlink="http://www.w3.org/1999/xlink" x="0px" y="0px"
	 viewBox="0 0 31.886 37.246" enable-background="new 0 0 31.886 37.246" xml:space="preserve">
<g>
	<defs>
		<rect id="SVGID_1_" y="0" width="31.885" height="37.245"/>
	</defs>
	<clipPath id="SVGID_2_">
		<use xlink:href="#SVGID_1_"  overflow="visible"/>
	</clipPath>
	<path clip-path="url(#SVGID_2_)" fill="#E6B414" d="M25.237,24.43c0.453,0.505,0.316,1.558-0.07,1.806
		c-0.217,0.139-1.143,0.017-1.385,0.005c-1.332-0.069-2.681-0.191-4.052-0.111c-2.829,0.166-5.674,0.133-8.495,0.215
		c-0.722,0.022-1.466-0.01-2.19,0.03c-1.175,0.065-2.541,0.659-2.123-1.122c0.302-1.284,1.418-0.848,2.627-0.849
		c0.914,0,1.78-0.033,2.705,0.005c2.521,0.103,4.986-0.19,7.479-0.191C21.484,24.216,23.563,23.978,25.237,24.43
		C25.262,24.458,25.127,24.401,25.237,24.43"/>
	<path clip-path="url(#SVGID_2_)" fill="#E6B414" d="M25.237,31.068c0.453-0.505,0.316-1.557-0.07-1.805
		c-0.217-0.14-1.143-0.018-1.385-0.006c-1.332,0.069-2.681,0.191-4.052,0.111c-2.829-0.166-5.674-0.133-8.495-0.215
		c-0.722-0.022-1.466,0.01-2.19-0.03c-1.175-0.065-2.541-0.659-2.123,1.122c0.302,1.284,1.418,0.849,2.627,0.85
		c0.914,0,1.78,0.032,2.705-0.006c2.521-0.103,4.986,0.19,7.479,0.191C21.484,31.282,23.563,31.52,25.237,31.068
		C25.262,31.04,25.127,31.098,25.237,31.068"/>
	<path clip-path="url(#SVGID_2_)" fill="#E6B414" d="M9.299,20.73c-0.133-0.198-0.395-1.565-0.12-1.8
		c0.142-0.121,0.844-0.016,1.048-0.004c0.914,0.054,1.777,0.126,2.734,0.08c2.226-0.107,4.466-0.042,6.662-0.211
		c0.705-0.054,3.142-0.316,3.418,0.136c0.174,0.285,0.092,1.354-0.165,1.629c-0.416,0.444-0.213,0.084-0.653,0.198
		c-0.724,0.187-1.86,0.074-2.639,0.057c-1.932-0.041-3.827,0.072-5.727,0.076C12.455,20.894,10.596,21.198,9.299,20.73"/>
	<path clip-path="url(#SVGID_2_)" fill="#E6B414" d="M12.183,15.94c-0.234-0.605-0.193-1.627,0.207-1.804
		c0.201-0.089,0.591,0.048,0.775,0.065c0.849,0.078,1.74,0.014,2.646-0.065c0.827-0.071,1.417-0.05,2.226-0.097
		c0.392-0.022,0.842-0.084,1.247-0.069c0.211,0.008,0.598-0.238,0.791-0.097c0.414,0.301-0.107,1.782-0.185,2.187
		c-0.395-0.521-3.948-0.032-4.461,0.012C14.638,16.139,12.837,16.35,12.183,15.94"/>
	<path clip-path="url(#SVGID_2_)" fill="#4D4C4C" d="M16.742,34.075l0.002,0.009c0.146-0.024,0.303-0.023,0.435-0.081
		c0.104-0.046,0.515-0.156,0.53-0.255c0.047-0.278,0.053-0.564,0.053-0.849c0-0.321-0.032-0.645-0.032-0.967
		c-0.002-0.672,0.007-1.343,0.014-2.014c0.004-0.414,0.019-0.828,0.016-1.241c-0.004-0.476-0.013-0.952-0.04-1.427
		c-0.021-0.369-0.064-0.736-0.115-1.103c-0.042-0.299-0.042-0.299-0.003-0.812c-0.148-0.232-0.313-0.558-0.464-0.787
		c-0.16-0.246-0.83-0.432-1.182-0.35c-0.241,0.057-0.488,0.088-0.733,0.129c-0.292,0.049-0.491,0.223-0.594,0.488
		c-0.106,0.271-0.481,0.55-0.539,0.832c-0.075,0.361-0.145,0.731-0.148,1.099c-0.006,0.503,0.059,1.007,0.082,1.511
		c0.013,0.3,0.013,0.602,0.003,0.903c-0.011,0.313-0.076,0.626,0.031,0.938c0.039,0.114,0.039,0.244,0.048,0.367
		c0.006,0.095-0.004,0.191,0,0.286c0.013,0.319,0.04,0.637,0.043,0.955c0.002,0.311-0.017,0.621-0.03,0.932
		c-0.007,0.169-0.036,0.338-0.032,0.506c0.006,0.233,0.031,0.465,0.052,0.697l0.044,0.12c0.094,0.185,0.563,0.187,0.72,0.188
		c0.449,0.002,0.896-0.025,1.345-0.045C16.412,34.098,16.577,34.084,16.742,34.075 M7.138,32.245
		c0.056,0.353,0.118,0.752,0.184,1.15c0.024,0.147,0.065,0.291,0.085,0.438c0.022,0.169,0.165,0.332,0.334,0.343
		c0.232,0.014,0.465,0.026,0.697,0.024c0.288-0.002,1.383,0.074,1.667,0.038c0.118-0.015,0.281-0.095,0.321-0.188
		c0.073-0.17,0.078-0.373,0.094-0.562c0.01-0.122-0.036-0.253-0.012-0.37c0.1-0.493-0.003-0.981-0.009-1.471
		c-0.004-0.281,0.011-0.562,0.025-0.845c0.019-0.37,0.048-0.739,0.067-1.109c0.006-0.099-0.02-0.199-0.015-0.299
		c0.018-0.374,0.045-0.747,0.063-1.121c0.008-0.171-0.011-0.344,0.011-0.512c0.047-0.355,0.104-0.71,0.172-1.062
		c0.091-0.471,0.19-0.938,0.296-1.405c0.104-0.457,0.255-0.897,0.499-1.3c0.093-0.155,0.163-0.342,0.295-0.451
		c0.229-0.19,0.495-0.337,0.751-0.493l0.286-0.121c0.182-0.113,0.353-0.242,0.53-0.364c0.086-0.06,0.167-0.141,0.263-0.172
		c0.225-0.071,0.457-0.123,0.688-0.176c0.285-0.066,0.579-0.101,0.855-0.192c0.33-0.107,0.656-0.115,0.987-0.052
		c0.33,0.063,0.657,0.131,0.981,0.217c0.265,0.069,0.533,0.141,0.776,0.26c0.301,0.147,0.583,0.338,0.862,0.524
		c0.162,0.109,0.505,0.243,0.648,0.377l0.164,0.226c0.078,0.116,0.164,0.229,0.226,0.354c0.059,0.118,0.093,0.249,0.134,0.375
		c0.166,0.511,0.345,1.019,0.49,1.535c0.095,0.334,0.184,0.679,0.239,1.022c0.081,0.505,0.142,1.011,0.178,1.52
		c0.047,0.641-0.01,1.284,0.06,1.929c0.064,0.606,0.031,1.223,0.038,1.833l-0.017,0.265c0.005,0.35,0.021,0.699,0.019,1.049
		c-0.001,0.254-0.051,0.445,0.193,0.445c0.416-0.001,0.834,0,1.247-0.038c0.367-0.035,1.563,0.162,1.926,0.089
		c0.185-0.037,0.309-0.166,0.323-0.357c0.016-0.195,0.014-0.394-0.003-0.589c-0.059-0.712-0.135-1.423-0.071-2.139
		c0.023-0.271,0.049-0.542,0.048-0.813c0-0.233-0.062-0.469-0.053-0.702c0.019-0.469-0.099-0.931-0.039-1.403
		c0.042-0.331,0.007-0.673,0.022-1.009c0.025-0.546-0.197-0.875-0.168-1.421c0.011-0.212,0.007-0.435-0.146-0.598
		c-0.306-0.327-1.188-1.142-1.516-1.447c-0.204-0.19-0.446-0.341-0.659-0.523c-0.336-0.286-0.646-0.604-0.994-0.873
		c-0.523-0.404-0.974-0.876-1.394-1.384c-0.184-0.222-0.374-0.455-0.669-0.555l-0.11-0.073c-0.202-0.193-0.404-0.388-0.601-0.589
		c-0.098-0.1-0.228-0.198-0.264-0.323c-0.062-0.21-0.12-0.451-0.074-0.657c0.044-0.201,0.006-0.376-0.019-0.56
		c-0.073-0.548-0.029-1.098-0.045-1.647c-0.009-0.385-0.018-0.77-0.048-1.153c-0.028-0.343-0.133-0.678-0.099-1.029
		c0.024-0.254,0.027-0.508-0.126-0.731c-0.11-0.159-0.211-0.328-0.345-0.466c-0.477-0.498-0.963-0.987-1.451-1.472
		c-0.162-0.16-0.376-0.443-0.498-0.333c-0.14,0.125-0.262,0.269-0.391,0.405c-0.318,0.337-0.625,0.683-0.956,1.007
		c-0.224,0.22-0.471,0.674-0.453,1.019c0.034,0.668-0.116,1.076-0.094,1.745c0.004,0.104,0.017,0.219-0.019,0.31
		c-0.13,0.325-0.051,0.637,0.01,0.958c0.049,0.252,0.07,0.51,0.08,0.767c0.013,0.307-0.013,0.616,0.007,0.922
		c0.019,0.299-0.008,0.573-0.202,0.815l-0.106,0.204c-0.06,0.206,0.027,0.644-0.226,0.658l-0.073,0.061
		c-0.075,0.115-0.132,0.244-0.219,0.348c-0.146,0.173-0.314,0.325-0.467,0.492c-0.324,0.354-0.632,0.723-0.969,1.063
		c-0.204,0.207-0.444,0.379-0.677,0.556c-0.25,0.191-0.505,0.37-0.689,0.638C9.87,23.26,9.72,23.441,9.544,23.581
		c-0.35,0.277-1.499,1.11-1.78,1.465C7.545,25.32,7.424,25.6,7.468,25.96c0.039,0.312-0.09,0.725-0.097,1.041
		c-0.01,0.461-0.052,0.288-0.067,0.749c-0.013,0.412,0.006,0.824-0.013,1.235c-0.019,0.423,0.071,0.75,0.036,1.173l-0.01,0.083
		c-0.042,0.238-0.1,0.476-0.124,0.717c-0.015,0.166,0.032,0.337,0.024,0.504C7.206,31.706,7.17,31.949,7.138,32.245 M25.509,36.845
		c-0.248,0.021-0.497,0.035-0.745,0.062c-0.34,0.034-0.679,0.086-1.02,0.115c-0.119,0.012-0.242-0.019-0.364-0.03l-0.131-0.022
		c-0.266,0.002-0.533,0.012-0.799,0.009c-0.194-0.002-0.388-0.02-0.581-0.031l-0.116-0.014c-0.295-0.004-0.591-0.015-0.885-0.008
		c-0.244,0.006-0.487,0.046-0.73,0.049c-0.201,0.003-0.403-0.025-0.604-0.041l-0.093-0.016c-0.078,0.067-0.137,0.063-0.237,0.02
		c-0.102-0.044-0.238-0.003-0.359-0.005c-0.323-0.005-0.649,0.004-0.973-0.022c-0.391-0.032-0.767-0.003-1.14,0.128
		c-0.152,0.054-0.326,0.066-0.489,0.063c-0.318-0.005-0.636-0.043-0.954-0.049c-0.243-0.005-0.486,0.02-0.729,0.028
		c-0.224,0.008-0.449,0.013-0.673,0.017c-0.281,0.005-0.573-0.039-0.841,0.022c-0.431,0.099-0.857-0.075-1.276,0.018
		c-0.488,0.107-0.974-0.036-1.459,0.026c-0.24,0.029-0.48,0.069-0.72,0.076c-0.439,0.011-0.879,0.006-1.319-0.005
		c-0.37-0.008-0.744-0.009-1.11-0.057c-0.454-0.059-0.902-0.007-1.354-0.001c-0.43,0.005-0.43,0.005-0.84-0.115
		c-0.1-0.168-0.425-0.28-0.466-0.479c-0.02-0.095,0.013-0.101,0.006-0.198l-0.064-0.241c-0.241-0.199-0.233-0.991-0.237-1.262
		c-0.01-0.538,0.038-1.078,0.066-1.617c0.027-0.529,0.061-1.057,0.088-1.586c0.029-0.549,0.065-1.098,0.076-1.647
		c0.008-0.355,0-0.964-0.028-1.317L4.28,28.483c-0.105,0.021-0.462,0.354-0.53,0.434c-0.355,0.409-0.529,0.731-1.035,0.939
		c-0.242,0.099-0.492,0.181-0.742,0.257l-0.204-0.03c-0.103-0.026-0.203-0.084-0.306-0.086c-0.273-0.008-0.545-0.018-0.786-0.158
		c-0.116-0.067-0.232-0.157-0.31-0.265c-0.119-0.164-0.23-0.343-0.301-0.531c-0.142-0.38-0.041-0.745,0.168-1.068
		c0.199-0.308,0.432-0.596,0.666-0.879c0.262-0.318,0.527-0.635,0.817-0.926c0.568-0.569,1.149-1.126,1.735-1.678
		c0.475-0.448,0.963-0.882,1.447-1.32c0.476-0.432,0.961-0.854,1.427-1.294c0.481-0.456,0.935-0.94,1.417-1.396
		c0.623-0.588,1.264-1.156,1.894-1.738c0.248-0.23,0.496-0.461,0.725-0.709c0.162-0.175,0.223-0.398,0.212-0.643
		c-0.016-0.341-0.013-0.683-0.024-1.025c-0.004-0.113,0.152-0.609,0.014-0.659c-0.136-0.05-0.412,0.365-0.514,0.457
		c-0.179,0.16-0.362,0.325-0.609,0.352c-0.528,0.056-1.038-0.045-1.516-0.271c-0.121-0.057-0.233-0.171-0.251-0.339
		c-0.031-0.286-0.088-0.569-0.112-0.855c-0.016-0.194,0.034-0.377,0.129-0.558c0.11-0.211,0.233-0.393,0.433-0.528l0.101-0.215
		c0.22-0.282,0.59-0.679,0.812-0.959l0.075-0.157c0.102-0.168,0.271-0.258,0.402-0.401c0.266-0.289,0.494-0.662,0.851-0.845
		c0.095-0.049,0.195-0.127,0.246-0.218c0.226-0.401,0.479-0.418,0.773-0.76c0.202-0.234,0.389-0.482,0.608-0.698
		c0.113-0.113,0.468-0.514,0.609-0.602c0.255-0.158,0.459-0.442,0.696-0.625c0.254-0.196,0.402-0.603,0.657-0.797
		c0.198-0.15,0.188-0.352,0.216-0.551c0.05-0.338,0.022-0.108,0.051-0.449c0.01-0.119,0.004-0.24,0.003-0.36
		c-0.001-0.323-0.003-0.647-0.004-0.971c0.002-0.469-0.159-0.304-0.324-0.319c-0.354-0.032-0.712-0.057-1.057-0.134
		c-0.237-0.053-0.527-0.006-0.708-0.16c-0.144-0.122-0.22-0.353-0.273-0.55c-0.098-0.358-0.009-1.079,0.288-1.303
		c0.452-0.343,1.116-0.117,1.636-0.217c0.291-0.055,0.445,0.129,0.419-0.538c-0.037-0.31-0.044-0.864,0.022-1.161
		c0.097-0.436,0.532-0.93,1.022-0.971c0.3-0.025,0.64,0.04,0.909,0.172c0.221,0.108,0.38,0.364,0.535,0.577
		c0.064,0.09,0.055,0.238,0.066,0.361c0.024,0.245,0.092,0.749,0.119,0.995c0.021,0.198-0.155,0.496,0.342,0.327
		c0.168-0.057,0.354-0.015,0.531-0.017c0.287-0.003,0.575-0.001,0.862,0l0.063,0.015c0.214,0.181,0.446,0.347,0.629,0.556
		c0.07,0.078,0.041,0.258,0.031,0.389c-0.016,0.191-0.013,0.401-0.094,0.566c-0.118,0.238-0.238,0.497-0.521,0.612
		c-0.162,0.065-0.317,0.15-0.465,0.244c-0.2,0.128-0.413,0.087-0.625,0.079c-0.1-0.003-0.2-0.001-0.3,0.005
		c-0.312,0.018-0.66-0.193-0.511,0.436c-0.095,0.326-0.047,0.64-0.009,0.963c0.019,0.165-0.049,0.339-0.039,0.507
		c0.012,0.218,0.004,0.483,0.031,0.7l0.049,0.064c0.316,0.284,0.63,0.574,0.953,0.851c0.195,0.167,0.419,0.302,0.611,0.472
		c0.588,0.519,1.163,1.052,1.752,1.571c0.44,0.388,0.895,0.76,1.339,1.142c0.113,0.097,0.217,0.204,0.324,0.309l0.082,0.103
		c0.075,0.305,0.348,0.44,0.537,0.649c0.286,0.315,0.53,0.672,0.841,0.959c0.268,0.248,0.37,0.558,0.507,0.869
		c0.202,0.456,0.138,0.898-0.025,1.334c-0.207,0.553-0.702,0.761-1.276,0.625c-0.363-0.086-0.675-0.241-0.98-0.442
		c-0.082-0.054-0.327-0.434-0.443-0.429l0.072,0.515c-0.003,0.231,0.003,0.462,0,0.692c-0.003,0.207,0.016,0.397,0.152,0.575
		c0.171,0.223,0.314,0.457,0.56,0.622c0.144,0.097,0.216,0.295,0.347,0.42c0.211,0.202,0.45,0.375,0.665,0.574
		c0.3,0.278,0.585,0.573,0.882,0.855c0.426,0.401,0.856,0.801,1.289,1.195c0.174,0.16,0.364,0.301,0.542,0.457
		c0.488,0.425,0.973,0.854,1.458,1.281c0.224,0.196,0.458,0.382,0.666,0.594c0.327,0.332,0.629,0.688,0.954,1.021
		c0.188,0.192,0.392,0.376,0.606,0.538c0.504,0.381,0.993,0.77,1.382,1.275c0.131,0.17,0.292,0.317,0.436,0.478
		c0.229,0.255,0.368,0.557,0.467,0.882c0.042,0.136,0.085,0.277,0.162,0.395c0.228,0.353,0.2,0.719,0.102,1.098
		c-0.053,0.201-0.103,0.404-0.139,0.609c-0.027,0.154-0.12,0.22-0.259,0.264c-0.197,0.062-0.387,0.148-0.584,0.216
		c-0.261,0.088-0.501,0.007-0.727-0.122c-0.568-0.323-1.079-0.727-1.578-1.144c-0.215-0.179-0.428-0.362-0.625-0.56
		c-0.11-0.11-0.298-0.321-0.402-0.287l-0.086,0.238c0.015,0.695,0.106,1.629,0.125,2.323c0.012,0.428,0.013,0.854,0.026,1.282
		c0.003,0.112,0.044,0.224,0.047,0.335c0.007,0.278-0.004,0.557,0.005,0.834c0.013,0.351,0.041,0.7,0.057,1.052
		c0.012,0.252,0.009,0.505,0.022,0.757c0.007,0.151,0.045,0.302,0.043,0.453c-0.002,0.219,0.013,0.451-0.051,0.654
		c-0.089,0.285-0.232,0.532-0.604,0.572c-0.257,0.028-0.499,0.175-0.755,0.238c-0.266,0.064-0.542,0.094-0.813,0.14L25.509,36.845z"
		/>
	<path clip-path="url(#SVGID_2_)" fill="#E6B414" d="M16.742,34.074l0.001,0.01c0.147-0.024,0.304-0.022,0.436-0.081
		c0.104-0.046,0.514-0.156,0.53-0.254c0.047-0.278,0.053-0.565,0.054-0.849c0-0.322-0.033-0.646-0.034-0.968
		c-0.001-0.671,0.008-1.343,0.014-2.014c0.005-0.414,0.021-0.827,0.018-1.241c-0.006-0.476-0.014-0.952-0.04-1.427
		c-0.022-0.368-0.065-0.736-0.116-1.103c-0.042-0.298-0.042-0.298-0.003-0.812c-0.148-0.231-0.313-0.558-0.463-0.787
		c-0.161-0.246-0.83-0.433-1.183-0.35c-0.241,0.057-0.487,0.088-0.732,0.129c-0.292,0.049-0.491,0.223-0.594,0.488
		c-0.106,0.271-0.481,0.549-0.539,0.832c-0.075,0.362-0.145,0.731-0.149,1.099c-0.005,0.503,0.06,1.007,0.082,1.511
		c0.014,0.301,0.014,0.602,0.003,0.903c-0.01,0.313-0.075,0.626,0.032,0.938c0.039,0.115,0.038,0.244,0.047,0.367
		c0.007,0.095-0.004,0.19,0,0.286c0.014,0.318,0.041,0.637,0.043,0.956c0.003,0.31-0.016,0.621-0.029,0.931
		c-0.008,0.169-0.036,0.338-0.032,0.506c0.006,0.233,0.031,0.465,0.052,0.697l0.044,0.12c0.094,0.185,0.563,0.187,0.72,0.188
		c0.448,0.002,0.896-0.025,1.345-0.045C16.412,34.098,16.577,34.085,16.742,34.074"/>
</g>
</svg>
