<?xml version="1.0" encoding="utf-8"?>
<!-- Generator: Adobe Illustrator 21.0.0, SVG Export Plug-In . SVG Version: 6.00 Build 0)  -->
<svg version="1.1" id="Ebene_1" xmlns="http://www.w3.org/2000/svg" xmlns:xlink="http://www.w3.org/1999/xlink" x="0px" y="0px"
	 viewBox="0 0 142.9 54.1" style="enable-background:new 0 0 142.9 54.1;" xml:space="preserve">
<style type="text/css">
	.st0{fill:#FFFFFF;}
</style>
<g>
	
		<ellipse transform="matrix(4.681007e-02 -0.9989 0.9989 4.681007e-02 22.5748 33.0754)" class="st0" cx="28.6" cy="4.7" rx="3.5" ry="3.8"/>
	<path class="st0" d="M38.8,1.2"/>
	<path class="st0" d="M38.8,1.3c0,0-2,3.5-6.4,6c-4.4,2.5-8.4,4-12.1,9.8c0,0,1.1-0.5,0.3,0.7c0,0,0.6-0.5,1.1-0.7
		c0,0,0.3-0.1,0.2,0.3c0,0,2-1.5,1.5-0.8c-0.3,0.4,1.6-1.4,1.8-1.2c0,0,0.1,0.1-0.2,0.5c0,0,4.5-2.7,6.2-3.4
		c7.3-3.1,8.8-8.2,8.1-11.1C39.2,1.5,39.2,0.9,38.8,1.3z"/>
	<path class="st0" d="M23.6,26.1c0,0,0.3-7.6,5-11.4c4.7-3.9,9.2-3.2,11.1-3.3c0,0,3.8,0.1,5.7-0.5c0,0,0.3,3.4-9.1,5
		c0,0-3.1,0-5.7,3.5c0,0-2.6,2.9-5.1,9c0,0,0-0.9-0.4-0.3l-0.9,2l0-1.9c0,0-0.2-0.5-0.4,0.2c0,0-0.2,0.2,0.1-2.3
		C24,26.1,23.9,25.5,23.6,26.1z"/>
	<path class="st0" d="M20.4,29.2c-1.1-3-3.8-4.9-7.3-4.9c-5.4,0-8.7,3.9-8.7,9.3c0,5.8,4.2,10.1,9.1,10.1c2.5,0,5.6-0.9,7.8-4.8h0.6
		c-0.4,1.4-1.3,3.4-2.1,4.7c-2.1-0.3-3.5,0.9-7.3,0.9C6,44.4,1.3,40.1,1.3,34.2c0-6.2,4.8-10.7,11.5-10.7c4,0,5.8,1.3,6.8,1.3
		c0.4,0,0.5-0.1,0.6-0.2h0.5l0.3,4.7H20.4z"/>
	<path class="st0" d="M29.9,30.8c3.9,0,6.9,2.9,6.9,6.7c0,3.8-3,6.7-6.8,6.7c-4,0-7-2.9-7-6.6C22.9,33.2,26.5,30.8,29.9,30.8z
		 M30.3,43.5c1.9,0,4-1.9,4-5.1c0-3.7-2.2-6.8-4.9-6.8c-2.1,0-4.1,2.2-4.1,4.9C25.3,40.4,27.5,43.5,30.3,43.5z"/>
	<path class="st0" d="M41.2,41.3c0,1.7,0.4,2,2.2,2v0.6h-6.7v-0.6c1.9,0,2.3-0.8,2.3-2.5v-6.3c0-1.3-0.2-1.5-0.9-1.6l-1.3-0.2v-0.5
		l3.9-1.3h0.5v2.6c2.3-1.6,4.4-2.6,5.7-2.6c1.6,0,2.7,1,3,2.6c2.2-1.3,4.1-2.6,5.7-2.6c2.3,0,3.2,1.8,3.2,4.8c0,2.1,0,4.2-0.1,6.2
		c0,0.7,0.4,1.4,1.7,1.4h1v0.6h-7.2v-0.6h0.3c0.9,0,1.3-0.2,1.6-0.4c0.5-0.5,0.5-2.3,0.5-4.6v-2.5c0-2.5-0.8-3.7-2.4-3.7
		c-1,0-2.3,0.5-4.3,1.8v7.4c0,1.6,0.4,2,2,2v0.6h-6.6v-0.6c1.8,0,2.4-0.6,2.4-2.5v-5.9c0-2-1.3-2.8-2.4-2.8c-0.9,0-2.1,0.4-4.3,1.9
		V41.3z"/>
	<path class="st0" d="M64.3,49.3c0,1.6,0.8,2.1,2.2,2.1h0.8V52h-7.6v-0.6H60c1.6,0,2.2-0.5,2.2-2.4V34.2c0-0.6-0.1-0.9-0.9-1.1
		l-1-0.3v-0.6l3.4-2.1h0.6v3.1c2-1.5,3.7-2.3,5-2.3c2.5,0,4.8,2.8,4.8,6c0,3.9-3.1,7.2-6.8,7.2c-0.9,0-1.7-0.2-2.9-0.6V49.3z
		 M64.3,41.4c1.2,1,2.6,1.7,3.8,1.7c2.2,0,3.8-2.2,3.8-4.8c0-4.2-2.5-5.8-4.2-5.8c-1,0-2.2,0.6-3.4,1.6V41.4z"/>
	<path class="st0" d="M75.4,35c-0.1-0.2-0.1-0.3-0.1-0.4c0-1.1,2.7-3.7,4.8-3.7c1,0,2.5,0.4,3.4,1.7c0.5,0.7,0.5,1.1,0.5,2.8v4.3
		c0,2.6,0,3.1,0.8,3.1c0.4,0,0.8,0,1.6-0.7l0.2,0.5c-1.7,1.4-2.6,1.8-3.2,1.8c-1.3,0-1.4-1.4-1.5-2c-2.2,1.8-2.9,2-3.7,2
		c-1.9,0-3-1.1-3-2.6c0-2,1.7-2.6,3.8-3.1c0.7-0.2,1.7-0.5,2.9-1.2v-2.5c0-0.9,0-1.4-0.5-2.1c-0.4-0.5-1.1-0.9-1.8-0.9
		c-1.1,0-2,0.9-2,1.6c0,0.2,0,0.3,0.2,0.6L75.4,35z M81.8,37.9c-0.6,0.4-1.1,0.6-1.9,0.9c-2,0.8-2.7,1.1-2.7,2.4
		c0,1.2,0.9,1.9,1.9,1.9c0.5,0,0.9-0.2,2.7-1.4V37.9z"/>
	<path class="st0" d="M87.9,40.7c0.4,1.9,1.6,3,3,3c1.3,0,2.3-1,2.3-2.1c0-0.7-0.2-1.1-1-2c-2.3-2.3-4.8-2.5-4.8-5.2
		c0-2.1,1.7-3.6,4.1-3.6c0.9,0,1.8,0.2,2.6,0.5l0.1,2.9h-0.5c-0.2-1.6-1.3-2.7-2.6-2.7c-1.1,0-2,0.7-2,1.8c0,2.8,6,3.3,6,7.2
		c0,2.1-1.7,3.7-4,3.7c-0.6,0-1.1-0.1-1.4-0.2c-0.4-0.1-0.6-0.2-0.9-0.2c-0.2,0-0.4,0.1-0.5,0.4h-0.5l-0.4-3.6H87.9z"/>
	<path class="st0" d="M97,40.7c0.4,1.9,1.6,3,3,3c1.3,0,2.3-1,2.3-2.1c0-0.7-0.2-1.1-1-2c-2.3-2.3-4.8-2.5-4.8-5.2
		c0-2.1,1.7-3.6,4.1-3.6c0.9,0,1.8,0.2,2.6,0.5l0.1,2.9h-0.5c-0.2-1.6-1.3-2.7-2.6-2.7c-1.1,0-2,0.7-2,1.8c0,2.8,6,3.3,6,7.2
		c0,2.1-1.7,3.7-4,3.7c-0.6,0-1.1-0.1-1.4-0.2c-0.4-0.1-0.6-0.2-0.9-0.2c-0.2,0-0.4,0.1-0.5,0.4h-0.5l-0.4-3.6H97z"/>
	<path class="st0" d="M109.9,41.5c0,1.1,0.6,1.8,2.3,1.8v0.6h-7.1v-0.6c2,0,2.7-0.6,2.7-2.3v-6.5c0-1.3-0.2-1.4-1-1.6l-1.5-0.3v-0.5
		l4.2-1.4h0.5V41.5z"/>
	<path class="st0" d="M119,30.8c3.9,0,6.9,2.9,6.9,6.7c0,3.8-3,6.7-6.8,6.7c-4,0-7-2.9-7-6.6C112,33.2,115.6,30.8,119,30.8z
		 M119.4,43.5c1.9,0,4-1.9,4-5.1c0-3.7-2.2-6.8-4.9-6.8c-2.1,0-4.1,2.2-4.1,4.9C114.4,40.4,116.7,43.5,119.4,43.5z"/>
	<path class="st0" d="M130.2,41.1c0,1.8,0.4,2.2,2.2,2.2v0.6h-6.5v-0.6c1.4,0,2.2-0.8,2.2-2v-6.7c0-1.2-0.1-1.4-1-1.6l-1.1-0.2v-0.5
		l3.7-1.3h0.5v2.5c2.2-1.3,3.9-2.5,5.5-2.5c2.2,0,3.4,1.6,3.4,4.8c0,4.3-0.2,5.1-0.3,6.4c0,0.9,0.5,1.3,1.8,1.3h0.7v0.6h-6.9v-0.6
		c0.9,0,1.5-0.3,1.8-0.6c0.6-0.6,0.7-3,0.7-7.2c0-2.6-1.3-3.4-2.5-3.4c-1,0-2.6,0.9-4.3,2.1V41.1z"/>
	<g>
		<path class="st0" d="M35.4,24.3c0-0.2,0-0.6-0.1-0.8c-0.1-0.2-0.3-0.2-0.5-0.2v-0.1c0.3,0,0.6,0,0.8,0c0.3,0,0.6,0,0.9,0v0.1
			c-0.2,0-0.4,0-0.5,0.2C36,23.7,36,24.1,36,24.3V26c0,0.7,0.1,0.9,0.9,0.9c0.3,0,0.6,0,0.8-0.1C38,26.6,38,26.4,38,26h0.1l-0.1,1
			c-0.1,0-0.2,0-0.3,0c-1,0-2,0-3,0v-0.1c0.2,0,0.4,0,0.5-0.2c0.1-0.2,0.1-0.6,0.1-0.8V24.3z"/>
		<path class="st0" d="M39.4,24.5v1.9c0,0.4-0.1,0.6,0.4,0.6v0.1c-0.2,0-0.4,0-0.6,0c-0.2,0-0.5,0-0.7,0V27c0.4,0,0.4-0.2,0.4-0.6
			v-0.8c0-0.1,0-0.6,0-0.6c0-0.1-0.3-0.1-0.4-0.1v-0.1L39.4,24.5z M38.7,23.5c0-0.2,0.1-0.3,0.3-0.3c0.2,0,0.3,0.1,0.3,0.3
			c0,0.2-0.1,0.3-0.3,0.3C38.9,23.8,38.7,23.6,38.7,23.5z"/>
		<path class="st0" d="M41,24.8c0.2-0.2,0.5-0.3,0.8-0.3c0.7,0,1.3,0.6,1.3,1.3c0,0.7-0.6,1.3-1.3,1.3c-0.3,0-0.7-0.1-0.9-0.4
			l-0.3,0.3h-0.1v-2.9c0-0.1,0-0.5-0.1-0.6c-0.1-0.1-0.2-0.1-0.4-0.2v-0.1l0.9-0.2V24.8z M41,26.4c0,0.4,0.2,0.6,0.6,0.6
			c0.7,0,0.8-0.6,0.8-1.2c0-0.5-0.2-1.1-0.8-1.1c-0.2,0-0.5,0.1-0.6,0.3C41,25.1,41,25.3,41,25.4V26.4z"/>
		<path class="st0" d="M45.8,26.6c-0.3,0.3-0.6,0.5-1,0.5c-0.7,0-1.3-0.5-1.3-1.3c0-0.7,0.6-1.4,1.3-1.4c0.6,0,1.1,0.3,1.1,1
			c0,0.1-0.1,0.1-0.1,0.1H44l0,0.3c0,0.6,0.3,1.2,0.9,1.2c0.3,0,0.6-0.2,0.7-0.4L45.8,26.6z M45,25.3c0.1,0,0.3,0,0.3-0.1
			c0-0.4-0.2-0.6-0.6-0.6c-0.4,0-0.6,0.3-0.7,0.7H45z"/>
		<path class="st0" d="M46.7,25.7c0-0.2,0-0.6,0-0.7c-0.1-0.2-0.2-0.2-0.4-0.2v-0.1c0.3,0,0.5-0.1,0.8-0.2c0.1,0.2,0.1,0.4,0.1,0.6
			h0c0.2-0.4,0.4-0.6,0.8-0.6c0.2,0,0.4,0.1,0.4,0.3c0,0.1-0.1,0.2-0.2,0.2c-0.2,0-0.2-0.3-0.4-0.3c-0.2,0-0.4,0.1-0.5,0.3
			c-0.1,0.2-0.1,0.5-0.1,0.8v0.6c0,0.4,0,0.6,0.4,0.6v0.1c-0.2,0-0.4,0-0.7,0c-0.2,0-0.4,0-0.7,0V27c0.4,0,0.4-0.2,0.4-0.6V25.7z"/>
		<path class="st0" d="M50.2,25.5c0.1,0,0-0.1,0-0.2c0-0.4,0-0.7-0.5-0.7c-0.3,0-0.5,0-0.5,0.3c0,0.1-0.1,0.3-0.2,0.3
			c-0.1,0-0.2-0.1-0.2-0.2c0-0.4,0.8-0.5,1.1-0.5c0.6,0,0.9,0.2,0.9,0.8v1c0,0.1,0,0.6,0.2,0.6c0.1,0,0.2-0.1,0.2-0.2l0.1,0.1
			c-0.1,0.2-0.3,0.4-0.5,0.4c-0.2,0-0.4-0.2-0.5-0.4c-0.3,0.2-0.6,0.4-1,0.4c-0.3,0-0.6-0.2-0.6-0.5c0-0.5,0.6-0.7,0.9-0.9
			L50.2,25.5z M50.2,25.6c-0.4,0.2-1,0.4-1,0.9c0,0.2,0.1,0.4,0.4,0.4c0.2,0,0.5-0.2,0.6-0.3V25.6z"/>
		<path class="st0" d="M51.9,25.7c0-0.2,0-0.6,0-0.7c-0.1-0.2-0.2-0.2-0.4-0.2v-0.1c0.3,0,0.5-0.1,0.8-0.2c0.1,0.2,0.1,0.4,0.1,0.6
			h0c0.2-0.4,0.4-0.6,0.8-0.6c0.2,0,0.4,0.1,0.4,0.3c0,0.1-0.1,0.2-0.2,0.2c-0.2,0-0.2-0.3-0.4-0.3c-0.2,0-0.4,0.1-0.5,0.3
			c-0.1,0.2-0.1,0.5-0.1,0.8v0.6c0,0.4,0,0.6,0.4,0.6v0.1c-0.2,0-0.4,0-0.7,0c-0.2,0-0.4,0-0.7,0V27c0.4,0,0.4-0.2,0.4-0.6V25.7z"/>
		<path class="st0" d="M56.2,26.6c-0.3,0.3-0.6,0.5-1,0.5c-0.7,0-1.3-0.5-1.3-1.3c0-0.7,0.6-1.4,1.3-1.4c0.6,0,1.1,0.3,1.1,1
			c0,0.1-0.1,0.1-0.1,0.1h-1.7l0,0.3c0,0.6,0.3,1.2,0.9,1.2c0.3,0,0.6-0.2,0.7-0.4L56.2,26.6z M55.4,25.3c0.1,0,0.3,0,0.3-0.1
			c0-0.4-0.2-0.6-0.6-0.6c-0.4,0-0.6,0.3-0.7,0.7H55.4z"/>
		<path class="st0" d="M59.1,24.5v1.9c0,0.4-0.1,0.6,0.4,0.6v0.1c-0.2,0-0.4,0-0.6,0c-0.2,0-0.5,0-0.7,0V27c0.4,0,0.4-0.2,0.4-0.6
			v-0.8c0-0.1,0-0.6,0-0.6c0-0.1-0.3-0.1-0.4-0.1v-0.1L59.1,24.5z M58.5,23.5c0-0.2,0.1-0.3,0.3-0.3c0.2,0,0.3,0.1,0.3,0.3
			c0,0.2-0.1,0.3-0.3,0.3C58.6,23.8,58.5,23.6,58.5,23.5z"/>
		<path class="st0" d="M62.2,24.8c0.2-0.2,0.5-0.3,0.8-0.3c0.7,0,1.3,0.6,1.3,1.3c0,0.7-0.6,1.3-1.3,1.3c-0.3,0-0.7-0.1-0.9-0.4
			l-0.3,0.3h-0.1v-2.9c0-0.1,0-0.5-0.1-0.6c-0.1-0.1-0.2-0.1-0.4-0.2v-0.1l0.9-0.2V24.8z M62.2,26.4c0,0.4,0.2,0.6,0.6,0.6
			c0.7,0,0.8-0.6,0.8-1.2c0-0.5-0.2-1.1-0.8-1.1c-0.2,0-0.5,0.1-0.6,0.3c-0.1,0.1-0.1,0.3-0.1,0.4V26.4z"/>
		<path class="st0" d="M66.2,25.5c0.1,0,0-0.1,0-0.2c0-0.4,0-0.7-0.5-0.7c-0.3,0-0.5,0-0.5,0.3c0,0.1-0.1,0.3-0.2,0.3
			c-0.1,0-0.2-0.1-0.2-0.2c0-0.4,0.8-0.5,1.1-0.5c0.6,0,0.9,0.2,0.9,0.8v1c0,0.1,0,0.6,0.2,0.6c0.1,0,0.2-0.1,0.2-0.2l0.1,0.1
			c-0.1,0.2-0.3,0.4-0.5,0.4c-0.2,0-0.4-0.2-0.5-0.4c-0.3,0.2-0.6,0.4-1,0.4c-0.3,0-0.6-0.2-0.6-0.5c0-0.5,0.6-0.7,0.9-0.9
			L66.2,25.5z M66.2,25.6c-0.4,0.2-1,0.4-1,0.9c0,0.2,0.1,0.4,0.4,0.4c0.2,0,0.5-0.2,0.6-0.3V25.6z"/>
		<path class="st0" d="M68.3,26.4c0,0.4-0.1,0.6,0.4,0.6v0.1c-0.2,0-0.4,0-0.6,0c-0.2,0-0.4,0-0.7,0V27c0.4,0,0.4-0.2,0.4-0.6v-0.7
			c0-0.2,0-0.6,0-0.7c0-0.2-0.2-0.2-0.4-0.2v-0.1c0.3,0,0.5-0.1,0.8-0.2l0.1,0.5c0.2-0.3,0.5-0.5,0.9-0.5c0.3,0,0.7,0.1,0.8,0.5
			c0.2-0.3,0.5-0.5,0.9-0.5c0.3,0,0.5,0.1,0.7,0.3c0.2,0.2,0.2,0.5,0.2,0.8v0.8c0,0.4-0.1,0.6,0.4,0.6v0.1c-0.2,0-0.4,0-0.6,0
			c-0.2,0-0.4,0-0.6,0V27c0.4,0,0.4-0.2,0.4-0.6v-0.7c0-0.4,0-1-0.5-1c-0.2,0-0.5,0.2-0.6,0.4C70,25.2,70,25.5,70,25.7v0.7
			c0,0.4-0.1,0.6,0.4,0.6v0.1c-0.2,0-0.4,0-0.6,0c-0.2,0-0.4,0-0.7,0V27c0.4,0,0.4-0.2,0.4-0.6v-0.7c0-0.4,0-1-0.5-1
			c-0.2,0-0.5,0.2-0.6,0.4c-0.1,0.2-0.1,0.4-0.1,0.6V26.4z"/>
		<path class="st0" d="M73.3,24.8c0.2-0.2,0.5-0.3,0.8-0.3c0.7,0,1.3,0.6,1.3,1.3c0,0.7-0.6,1.3-1.3,1.3c-0.3,0-0.7-0.1-0.9-0.4
			l-0.3,0.3h-0.1v-2.9c0-0.1,0-0.5-0.1-0.6c-0.1-0.1-0.2-0.1-0.4-0.2v-0.1l0.9-0.2V24.8z M73.3,26.4c0,0.4,0.2,0.6,0.6,0.6
			c0.7,0,0.8-0.6,0.8-1.2c0-0.5-0.2-1.1-0.8-1.1c-0.2,0-0.5,0.1-0.6,0.3c-0.1,0.1-0.1,0.3-0.1,0.4V26.4z"/>
		<path class="st0" d="M76.6,24.5v1.9c0,0.4-0.1,0.6,0.4,0.6v0.1c-0.2,0-0.4,0-0.6,0c-0.2,0-0.5,0-0.7,0V27c0.4,0,0.4-0.2,0.4-0.6
			v-0.8c0-0.1,0-0.6,0-0.6c0-0.1-0.3-0.1-0.4-0.1v-0.1L76.6,24.5z M76,23.5c0-0.2,0.1-0.3,0.3-0.3c0.2,0,0.3,0.1,0.3,0.3
			c0,0.2-0.1,0.3-0.3,0.3C76.1,23.8,76,23.6,76,23.5z"/>
		<path class="st0" d="M80.1,26.4c0,0.4,0,0.6,0.4,0.6v0.1c-0.2,0-0.4,0-0.6,0c-0.2,0-0.4,0-0.7,0V27c0.4,0,0.4-0.2,0.4-0.6v-0.7
			c0-0.4,0-1-0.5-1c-0.5,0-0.7,0.4-0.7,0.8v0.9c0,0.4-0.1,0.6,0.4,0.6v0.1c-0.2,0-0.4,0-0.6,0c-0.2,0-0.4,0-0.7,0V27
			c0.4,0,0.4-0.2,0.4-0.6v-0.7c0-0.2,0-0.6,0-0.7c0-0.2-0.2-0.2-0.4-0.2v-0.1c0.3,0,0.5-0.1,0.8-0.2l0.1,0.5h0
			c0.2-0.4,0.5-0.5,0.9-0.5c0.6,0,0.9,0.3,0.9,0.8V26.4z"/>
		<path class="st0" d="M81.8,24.5v1.9c0,0.4-0.1,0.6,0.4,0.6v0.1c-0.2,0-0.4,0-0.6,0c-0.2,0-0.5,0-0.7,0V27c0.4,0,0.4-0.2,0.4-0.6
			v-0.8c0-0.1,0-0.6,0-0.6c0-0.1-0.3-0.1-0.4-0.1v-0.1L81.8,24.5z M81.1,23.5c0-0.2,0.1-0.3,0.3-0.3c0.2,0,0.3,0.1,0.3,0.3
			c0,0.2-0.1,0.3-0.3,0.3C81.3,23.8,81.1,23.6,81.1,23.5z"/>
		<path class="st0" d="M86.3,27.1c-0.1-0.1-0.1-0.3-0.1-0.4c-0.3,0.3-0.5,0.4-0.9,0.4c-0.7,0-1.2-0.6-1.2-1.3c0-0.7,0.5-1.4,1.2-1.4
			c0.3,0,0.6,0.1,0.8,0.4v-0.9c0-0.4,0-0.5-0.4-0.5v-0.1l0.9-0.2V26c0,0.2,0,0.5,0.1,0.6c0.1,0.2,0.2,0.2,0.4,0.2v0.1L86.3,27.1z
			 M86.1,25.3c0-0.4-0.4-0.6-0.7-0.6c-0.6,0-0.8,0.7-0.8,1.2c0,0.5,0.2,1.1,0.8,1.1c0.5,0,0.7-0.4,0.7-0.9V25.3z"/>
		<path class="st0" d="M88.9,25.5c0.1,0,0-0.1,0-0.2c0-0.4,0-0.7-0.5-0.7c-0.3,0-0.5,0-0.5,0.3c0,0.1-0.1,0.3-0.2,0.3
			c-0.1,0-0.2-0.1-0.2-0.2c0-0.4,0.8-0.5,1.1-0.5c0.6,0,0.9,0.2,0.9,0.8v1c0,0.1,0,0.6,0.2,0.6c0.1,0,0.2-0.1,0.2-0.2l0.1,0.1
			c-0.1,0.2-0.3,0.4-0.5,0.4c-0.2,0-0.4-0.2-0.5-0.4c-0.3,0.2-0.6,0.4-1,0.4c-0.3,0-0.6-0.2-0.6-0.5c0-0.5,0.6-0.7,0.9-0.9
			L88.9,25.5z M89,25.6c-0.4,0.2-1,0.4-1,0.9c0,0.2,0.1,0.4,0.4,0.4c0.2,0,0.5-0.2,0.6-0.3V25.6z"/>
		<path class="st0" d="M91.1,26.4c0,0.4-0.1,0.6,0.4,0.6v0.1c-0.2,0-0.4,0-0.7,0c-0.2,0-0.4,0-0.6,0V27c0.4,0,0.4-0.2,0.4-0.6v-2.2
			c0-0.1,0-0.5-0.1-0.6c-0.1-0.1-0.2-0.1-0.4-0.2v-0.1l0.9-0.2V26.4z"/>
		<path class="st0" d="M92.7,26.4c0,0.4-0.1,0.6,0.4,0.6v0.1c-0.2,0-0.4,0-0.7,0c-0.2,0-0.4,0-0.6,0V27c0.4,0,0.4-0.2,0.4-0.6v-2.2
			c0-0.1,0-0.5-0.1-0.6c-0.1-0.1-0.2-0.1-0.4-0.2v-0.1l0.9-0.2V26.4z"/>
		<path class="st0" d="M95,25.5c0.1,0,0-0.1,0-0.2c0-0.4,0-0.7-0.5-0.7c-0.3,0-0.5,0-0.5,0.3c0,0.1-0.1,0.3-0.2,0.3
			c-0.1,0-0.2-0.1-0.2-0.2c0-0.4,0.8-0.5,1.1-0.5c0.6,0,0.9,0.2,0.9,0.8v1c0,0.1,0,0.6,0.2,0.6c0.1,0,0.2-0.1,0.2-0.2l0.1,0.1
			c-0.1,0.2-0.3,0.4-0.5,0.4c-0.2,0-0.4-0.2-0.5-0.4c-0.3,0.2-0.6,0.4-1,0.4c-0.3,0-0.6-0.2-0.6-0.5c0-0.5,0.6-0.7,0.9-0.9L95,25.5z
			 M95.1,25.6c-0.3,0.2-1,0.4-1,0.9c0,0.2,0.1,0.4,0.4,0.4c0.2,0,0.5-0.2,0.6-0.3V25.6z"/>
		<path class="st0" d="M98.6,25L98.6,25c0.2-0.3,0.5-0.5,0.9-0.5c0.8,0,1.3,0.6,1.3,1.3c0,0.7-0.5,1.3-1.3,1.3
			c-0.3,0-0.6-0.1-0.8-0.3v1.1c0,0.4,0,0.6,0.4,0.6v0.1c-0.2,0-0.4,0-0.6,0c-0.2,0-0.5,0-0.7,0v-0.1c0.4,0,0.4-0.2,0.4-0.6v-2.3
			c0-0.2,0-0.6,0-0.7c0-0.2-0.2-0.2-0.4-0.2v-0.1c0.3,0,0.6-0.1,0.8-0.2V25z M98.7,26.1c0,0.2,0,0.5,0.1,0.6
			c0.1,0.2,0.4,0.2,0.6,0.2c0.6,0,0.8-0.6,0.8-1.1c0-0.5-0.2-1.1-0.8-1.1c-0.2,0-0.5,0.1-0.6,0.3c-0.1,0.2-0.1,0.4-0.1,0.7V26.1z"/>
		<path class="st0" d="M104,25.8c0,0.8-0.6,1.3-1.4,1.3c-0.8,0-1.4-0.6-1.4-1.4c0-0.7,0.7-1.3,1.4-1.3C103.4,24.5,104,25.1,104,25.8
			z M101.8,25.8c0,0.6,0.2,1.2,0.8,1.2c0.6,0,0.8-0.6,0.8-1.2c0-0.6-0.2-1.2-0.8-1.2C102,24.6,101.8,25.3,101.8,25.8z"/>
		<path class="st0" d="M104.6,25.1c-0.1-0.2-0.1-0.4-0.4-0.4v-0.1c0.2,0,0.4,0,0.6,0c0.2,0,0.4,0,0.6,0v0.1c-0.1,0-0.3,0-0.3,0.2
			c0,0.1,0.1,0.2,0.1,0.3l0.6,1.4c0.1-0.3,0.6-1.4,0.6-1.6c0-0.2-0.2-0.2-0.3-0.2v-0.1c0.1,0,0.3,0,0.4,0c0.1,0,0.3,0,0.4,0v0.1
			c-0.1,0-0.2,0.1-0.2,0.1c-0.1,0.1-0.2,0.5-0.3,0.7l-0.7,1.7h-0.1L104.6,25.1z"/>
		<path class="st0" d="M109.3,26.6c-0.3,0.3-0.6,0.5-1,0.5c-0.7,0-1.3-0.5-1.3-1.3c0-0.7,0.6-1.4,1.3-1.4c0.6,0,1.1,0.3,1.1,1
			c0,0.1-0.1,0.1-0.1,0.1h-1.7l0,0.3c0,0.6,0.3,1.2,0.9,1.2c0.3,0,0.6-0.2,0.7-0.4L109.3,26.6z M108.6,25.3c0.1,0,0.3,0,0.3-0.1
			c0-0.4-0.2-0.6-0.6-0.6c-0.4,0-0.6,0.3-0.7,0.7H108.6z"/>
		<path class="st0" d="M110.3,25.7c0-0.2,0-0.6,0-0.7c-0.1-0.2-0.2-0.2-0.4-0.2v-0.1c0.3,0,0.5-0.1,0.8-0.2c0.1,0.2,0.1,0.4,0.1,0.6
			h0c0.2-0.4,0.4-0.6,0.8-0.6c0.2,0,0.4,0.1,0.4,0.3c0,0.1-0.1,0.2-0.2,0.2c-0.2,0-0.2-0.3-0.4-0.3c-0.2,0-0.4,0.1-0.5,0.3
			c-0.1,0.2-0.1,0.5-0.1,0.8v0.6c0,0.4,0,0.6,0.4,0.6v0.1c-0.2,0-0.4,0-0.7,0c-0.2,0-0.4,0-0.7,0V27c0.4,0,0.4-0.2,0.4-0.6V25.7z"/>
		<path class="st0" d="M112.2,24.8v-0.1c0.3-0.2,0.6-0.4,0.7-0.7h0.1v0.7h0.7v0.2H113v1.7c0,0.3,0.1,0.5,0.4,0.5
			c0.2,0,0.3-0.1,0.4-0.3l0.1,0.1c-0.1,0.3-0.4,0.4-0.7,0.4c-0.4,0-0.7-0.2-0.7-0.6v-1.8H112.2z"/>
		<path class="st0" d="M115.6,25.5c0.1,0,0-0.1,0-0.2c0-0.4,0-0.7-0.5-0.7c-0.3,0-0.5,0-0.5,0.3c0,0.1-0.1,0.3-0.2,0.3
			c-0.1,0-0.2-0.1-0.2-0.2c0-0.4,0.8-0.5,1.1-0.5c0.6,0,0.9,0.2,0.9,0.8v1c0,0.1,0,0.6,0.2,0.6c0.1,0,0.2-0.1,0.2-0.2l0.1,0.1
			c-0.1,0.2-0.3,0.4-0.5,0.4c-0.2,0-0.4-0.2-0.5-0.4c-0.3,0.2-0.6,0.4-1,0.4c-0.3,0-0.6-0.2-0.6-0.5c0-0.5,0.6-0.7,0.9-0.9
			L115.6,25.5z M115.7,24l-0.8-0.3c-0.1-0.1-0.4-0.1-0.4-0.3c0-0.1,0.1-0.2,0.2-0.2c0.1,0,0.2,0.1,0.3,0.1L116,24H115.7z
			 M115.6,25.6c-0.4,0.2-1,0.4-1,0.9c0,0.2,0.1,0.4,0.4,0.4c0.2,0,0.5-0.2,0.6-0.3V25.6z"/>
	</g>
	<g>
		<path class="st0" d="M73.4,51.1c0,0.5-0.1,0.8,0.6,0.8l0,0.2c-0.3,0-0.6,0-0.9,0c-0.3,0-0.6,0-0.9,0V52c0.6,0,0.6-0.2,0.6-0.8v-1
			c0-0.6,0-1.3-0.7-1.3c-0.6,0-1,0.5-1,1.1v1.2c0,0.5-0.1,0.8,0.6,0.8l0,0.2c-0.3,0-0.6,0-0.9,0c-0.3,0-0.6,0-0.9,0V52
			c0.6,0,0.6-0.2,0.6-0.8v-1c0-0.2,0-0.8,0-1c-0.1-0.3-0.3-0.3-0.5-0.3v-0.2c0.4,0,0.7-0.2,1.1-0.2l0.1,0.7h0
			c0.3-0.5,0.7-0.7,1.3-0.7c0.8,0,1.2,0.3,1.2,1.1V51.1z"/>
		<path class="st0" d="M77.8,51.5c-0.4,0.5-0.8,0.7-1.4,0.7c-1,0-1.8-0.7-1.8-1.7c0-1,0.8-1.9,1.8-1.9c0.8,0,1.5,0.4,1.5,1.3
			c0,0.1-0.1,0.1-0.2,0.1h-2.3l0,0.4c0,0.8,0.4,1.6,1.3,1.6c0.4,0,0.8-0.3,1-0.6L77.8,51.5z M76.7,49.7c0.1,0,0.4,0,0.4-0.2
			c0-0.5-0.3-0.8-0.8-0.8c-0.6,0-0.8,0.5-0.9,1H76.7z"/>
		<path class="st0" d="M79.7,51.1c0,0.5-0.1,0.8,0.6,0.8v0.2c-0.3,0-0.6,0-0.9,0c-0.3,0-0.6,0-0.9,0V52c0.6,0,0.6-0.2,0.6-0.8v-3.1
			c0-0.2,0-0.7-0.1-0.9c-0.1-0.2-0.3-0.2-0.5-0.2v-0.2l1.3-0.3V51.1z"/>
		<path class="st0" d="M86.5,51.1c0,0.5-0.1,0.8,0.6,0.8v0.2c-0.3,0-0.6,0-0.9,0c-0.3,0-0.6,0-0.9,0V52c0.6,0,0.6-0.2,0.6-0.8v-1
			c0-0.6,0-1.3-0.7-1.3c-0.6,0-1,0.5-1,1.1v1.2c0,0.5-0.1,0.8,0.6,0.8v0.2c-0.3,0-0.6,0-0.9,0c-0.3,0-0.6,0-0.9,0V52
			c0.6,0,0.6-0.2,0.6-0.8v-1c0-0.2,0-0.8,0-1c-0.1-0.3-0.3-0.3-0.5-0.3v-0.2c0.4,0,0.7-0.2,1.1-0.2l0.1,0.7h0
			c0.3-0.5,0.7-0.7,1.3-0.7c0.8,0,1.2,0.3,1.2,1.1V51.1z"/>
		<path class="st0" d="M91.6,50.4c0,1.1-0.9,1.8-1.9,1.8c-1,0-1.9-0.8-1.9-1.9c0-1,0.9-1.8,1.9-1.8C90.6,48.6,91.6,49.3,91.6,50.4z
			 M88.5,50.4c0,0.8,0.2,1.6,1.2,1.6c0.9,0,1.1-0.9,1.1-1.6c0-0.8-0.2-1.7-1.2-1.7C88.7,48.7,88.5,49.7,88.5,50.4z"/>
		<path class="st0" d="M93.4,51.1c0,0.5-0.1,0.8,0.5,0.8v0.2c-0.3,0-0.6,0-0.9,0c-0.3,0-0.6,0-0.9,0V52c0.6,0,0.6-0.2,0.6-0.8v-1
			c0-0.2,0-0.8,0-1c-0.1-0.3-0.3-0.3-0.5-0.3v-0.2c0.4,0,0.7-0.2,1.1-0.2l0.1,0.7c0.3-0.4,0.7-0.7,1.2-0.7c0.5,0,0.9,0.2,1.1,0.7
			c0.3-0.4,0.7-0.7,1.2-0.7c0.4,0,0.7,0.1,0.9,0.4C98,49.2,98,49.7,98,50v1.1c0,0.5-0.1,0.8,0.5,0.8v0.2c-0.3,0-0.6,0-0.9,0
			c-0.3,0-0.6,0-0.9,0V52c0.6,0,0.5-0.2,0.6-0.8v-1c0-0.6,0.1-1.4-0.7-1.4c-0.3,0-0.6,0.2-0.8,0.5c-0.1,0.2-0.1,0.5-0.1,0.8v1
			c0,0.5-0.1,0.8,0.5,0.8v0.2c-0.3,0-0.6,0-0.9,0c-0.3,0-0.6,0-0.9,0V52c0.6,0,0.5-0.2,0.6-0.8v-1c0-0.6,0.1-1.4-0.7-1.4
			c-0.3,0-0.6,0.2-0.8,0.5c-0.1,0.2-0.1,0.5-0.1,0.8V51.1z"/>
		<path class="st0" d="M102.4,51.5c-0.4,0.5-0.8,0.7-1.4,0.7c-1,0-1.8-0.7-1.8-1.7c0-1,0.8-1.9,1.8-1.9c0.8,0,1.5,0.4,1.5,1.3
			c0,0.1-0.1,0.1-0.2,0.1h-2.3l0,0.4c0,0.8,0.4,1.6,1.3,1.6c0.4,0,0.8-0.3,1-0.6L102.4,51.5z M101.3,49.7c0.1,0,0.4,0,0.4-0.2
			c0-0.5-0.3-0.8-0.8-0.8c-0.6,0-0.8,0.5-0.9,1H101.3z"/>
		<path class="st0" d="M108.3,52.2c-0.1-0.2-0.1-0.4-0.2-0.6c-0.3,0.4-0.7,0.6-1.3,0.6c-1,0-1.7-0.8-1.7-1.8c0-1,0.7-1.9,1.7-1.9
			c0.4,0,0.9,0.2,1.1,0.5v-1.3c0-0.5,0-0.7-0.6-0.8v-0.2l1.3-0.3v4.1c0,0.2,0,0.6,0.1,0.8c0.1,0.3,0.3,0.3,0.6,0.3v0.2L108.3,52.2z
			 M108.1,49.6c0-0.5-0.5-0.8-1-0.8c-0.9,0-1.1,0.9-1.1,1.6c0,0.7,0.2,1.6,1.1,1.6c0.7,0,1-0.6,1-1.2V49.6z"/>
		<path class="st0" d="M111,48.6v2.6c0,0.5-0.1,0.8,0.6,0.8v0.2c-0.3,0-0.6,0-0.9,0c-0.3,0-0.6,0-0.9,0V52c0.6,0,0.5-0.2,0.6-0.8V50
			c0-0.2,0-0.8,0-0.9c-0.1-0.2-0.4-0.2-0.6-0.2v-0.2L111,48.6z M110.2,47.1c0-0.2,0.2-0.4,0.4-0.4c0.2,0,0.4,0.2,0.4,0.4
			c0,0.2-0.2,0.4-0.4,0.4C110.4,47.6,110.2,47.4,110.2,47.1z"/>
		<path class="st0" d="M118.9,48.4h-0.2c-0.1-0.9-0.6-1.5-1.6-1.5c-1.6,0-1.9,1.4-1.9,2.7c0,1.2,0.5,2.4,1.8,2.4
			c0.8,0,1.3-0.4,1.3-1.2c0-0.5-0.2-0.6-0.7-0.7v-0.2h2.1v0.2c-0.4,0-0.5,0.2-0.5,0.6v0.9c-0.6,0-0.6,0.1-1.1,0.3
			c-0.4,0.2-0.8,0.3-1.3,0.3c-1.6,0-2.7-1-2.7-2.6c0-1.6,1.1-2.9,2.8-2.9c0.6,0,1.2,0.1,1.7,0.5l0.2-0.4h0.1L118.9,48.4z"/>
		<path class="st0" d="M123.4,51.5c-0.4,0.5-0.8,0.7-1.4,0.7c-1,0-1.8-0.7-1.8-1.7c0-1,0.8-1.9,1.8-1.9c0.8,0,1.5,0.4,1.5,1.3
			c0,0.1-0.1,0.1-0.2,0.1H121l0,0.4c0,0.8,0.4,1.6,1.3,1.6c0.4,0,0.8-0.3,1-0.6L123.4,51.5z M122.3,49.7c0.1,0,0.4,0,0.4-0.2
			c0-0.5-0.3-0.8-0.8-0.8c-0.6,0-0.8,0.5-0.9,1H122.3z"/>
		<path class="st0" d="M124.2,52.1L124.2,52.1l-0.1-1.1h0.2c0.1,0.5,0.4,1,1,1c0.4,0,0.7-0.2,0.7-0.6c0-0.5-0.5-0.6-0.8-0.8
			c-0.5-0.2-1-0.5-1-1.1c0-0.6,0.4-1,1-1c0.2,0,0.6,0.1,0.8,0.2l0.2-0.2h0.1l0,1H126c-0.1-0.4-0.3-0.8-0.8-0.8
			c-0.3,0-0.5,0.2-0.5,0.4c0,0.4,0.4,0.6,0.7,0.7c0.6,0.3,1.1,0.5,1.1,1.2c0,0.7-0.6,1.1-1.2,1.1c-0.3,0-0.6-0.1-0.9-0.3L124.2,52.1
			z"/>
		<path class="st0" d="M128.2,50.8c0,0.5,0,1.1,0.7,1.1c0.6,0,1.1-0.6,1.1-1.2v-1.1c0-0.6,0-0.8-0.6-0.9v-0.2c0.2,0,0.4,0,0.7,0
			c0.2,0,0.4,0,0.6,0v2.6c0,0.2,0,0.5,0.3,0.5c0.1,0,0.2,0,0.3,0v0.2l-1.1,0.3l-0.2-0.8c-0.3,0.4-0.8,0.8-1.3,0.8
			c-0.8,0-1.1-0.4-1.1-1.1v-1.4c0-0.6,0-0.8-0.6-0.9v-0.2c0.2,0,0.4,0,0.7,0c0.2,0,0.4,0,0.6,0V50.8z M129.7,47.8l-1.1-0.5
			c-0.2-0.1-0.5-0.2-0.5-0.4c0-0.2,0.1-0.3,0.3-0.3c0.1,0,0.3,0.1,0.4,0.2l1.3,1H129.7z"/>
	</g>
</g>
</svg>
