<?xml version="1.0" encoding="utf-8"?>
<!-- Generator: Adobe Illustrator 21.0.0, SVG Export Plug-In . SVG Version: 6.00 Build 0)  -->
<svg version="1.1" id="Ebene_1" xmlns="http://www.w3.org/2000/svg" xmlns:xlink="http://www.w3.org/1999/xlink" x="0px" y="0px"
	 viewBox="0 0 142.9 54.1" style="enable-background:new 0 0 142.9 54.1;" xml:space="preserve">
<style type="text/css">
	.st0{fill:#FFFFFF;}
</style>
<g>
	<g>
		<path class="st0" d="M38.8,0.7"/>
		
			<ellipse transform="matrix(4.679115e-02 -0.9989 0.9989 4.679115e-02 23.1149 32.581)" class="st0" cx="28.6" cy="4.2" rx="3.4" ry="3.8"/>
		<path class="st0" d="M38.7,0.8c0,0-2,3.5-6.4,6c-4.4,2.5-8.3,3.9-12,9.7c0,0,1.1-0.5,0.3,0.7c0,0,0.6-0.5,1.1-0.7
			c0,0,0.3-0.1,0.2,0.3c0,0,2-1.5,1.5-0.8c-0.3,0.4,1.6-1.4,1.8-1.2c0,0,0.1,0.1-0.2,0.5c0,0,4.4-2.7,6.1-3.4
			c7.2-3.1,8.7-8.1,8.1-11C39.1,1,39.1,0.4,38.7,0.8z"/>
		<path class="st0" d="M23.7,25.4c0,0,0.3-7.5,5-11.3c4.7-3.8,9.1-3.1,11-3.3c0,0,3.8,0.1,5.7-0.5c0,0,0.3,3.3-9,4.9
			c0,0-3.1,0-5.7,3.5c0,0-2.6,2.9-5,8.9c0,0,0-0.9-0.4-0.3l-0.9,2l0-1.9c0,0-0.2-0.5-0.4,0.2c0,0-0.2,0.2,0.1-2.3
			C24.1,25.4,24,24.8,23.7,25.4z"/>
		<path class="st0" d="M20.4,28.5c-1-3-3.8-4.9-7.3-4.9c-5.3,0-8.6,3.8-8.6,9.2c0,5.8,4.1,10,9,10c2.5,0,5.6-0.9,7.8-4.7h0.6
			c-0.4,1.4-1.3,3.4-2,4.6c-2-0.3-3.4,0.9-7.2,0.9c-6.5,0-11.1-4.3-11.1-10.1c0-6.2,4.8-10.6,11.4-10.6c4,0,5.7,1.3,6.7,1.3
			c0.3,0,0.5-0.1,0.6-0.2h0.5l0.3,4.6H20.4z"/>
		<path class="st0" d="M29.9,30.1c3.9,0,6.8,2.9,6.8,6.7c0,3.8-3,6.6-6.7,6.6c-3.9,0-7-2.9-7-6.6C23,32.4,26.5,30.1,29.9,30.1z
			 M30.3,42.6c1.9,0,4-1.9,4-5.1c0-3.6-2.2-6.7-4.9-6.7c-2.1,0-4,2.2-4,4.9C25.4,39.6,27.6,42.6,30.3,42.6z"/>
		<path class="st0" d="M41.1,40.5c0,1.7,0.4,2,2.2,2V43h-6.6v-0.6c1.8,0,2.3-0.8,2.3-2.5v-6.2c0-1.2-0.2-1.5-0.9-1.6L36.8,32v-0.5
			l3.8-1.3h0.5v2.5c2.3-1.6,4.4-2.5,5.7-2.5c1.6,0,2.7,1,3,2.5c2.1-1.3,4.1-2.5,5.6-2.5c2.3,0,3.2,1.8,3.2,4.8c0,2,0,4.2-0.1,6.1
			c0,0.7,0.4,1.4,1.7,1.4h1V43h-7.2v-0.6h0.3c0.9,0,1.3-0.2,1.6-0.4c0.5-0.5,0.5-2.3,0.5-4.5V35c0-2.4-0.8-3.6-2.4-3.6
			c-1,0-2.3,0.5-4.2,1.8v7.3c0,1.6,0.4,2,2,2V43h-6.5v-0.6c1.8,0,2.4-0.6,2.4-2.5v-5.9c0-2-1.2-2.7-2.4-2.7c-0.9,0-2.1,0.4-4.3,1.8
			V40.5z"/>
		<path class="st0" d="M64,48.4c0,1.6,0.8,2.1,2.1,2.1H67V51h-7.5v-0.6h0.3c1.6,0,2.1-0.5,2.1-2.4V33.5c0-0.6-0.1-0.9-0.9-1l-1-0.3
			v-0.6l3.4-2.1H64v3.1c2-1.5,3.7-2.3,4.9-2.3c2.5,0,4.7,2.8,4.7,5.9c0,3.8-3.1,7.2-6.7,7.2c-0.9,0-1.7-0.2-2.9-0.6V48.4z M64,40.5
			c1.1,1,2.6,1.7,3.8,1.7c2.2,0,3.8-2.1,3.8-4.7c0-4.2-2.5-5.8-4.2-5.8c-1,0-2.2,0.6-3.3,1.6V40.5z"/>
		<path class="st0" d="M75,34.2c-0.1-0.2-0.1-0.3-0.1-0.4c0-1.1,2.6-3.7,4.7-3.7c1,0,2.4,0.4,3.3,1.7c0.5,0.7,0.5,1.1,0.5,2.7v4.3
			c0,2.5,0,3.1,0.8,3.1c0.3,0,0.8,0,1.6-0.7l0.2,0.5c-1.7,1.4-2.6,1.7-3.1,1.7c-1.3,0-1.4-1.4-1.5-1.9c-2.2,1.8-2.8,1.9-3.7,1.9
			c-1.8,0-3-1-3-2.6c0-1.9,1.7-2.6,3.8-3.1c0.7-0.2,1.7-0.5,2.8-1.2V34c0-0.9,0-1.4-0.5-2C80.4,31.4,79.7,31,79,31c-1,0-2,0.9-2,1.6
			c0,0.2,0,0.3,0.2,0.6L75,34.2z M81.3,37.1c-0.6,0.4-1.1,0.6-1.9,0.9c-1.9,0.8-2.7,1.1-2.7,2.4c0,1.1,0.9,1.9,1.9,1.9
			c0.5,0,0.9-0.2,2.7-1.4V37.1z"/>
		<path class="st0" d="M87.4,39.8c0.4,1.9,1.6,3,3,3c1.3,0,2.3-1,2.3-2.1c0-0.7-0.2-1.1-1-1.9c-2.3-2.3-4.8-2.5-4.8-5.1
			c0-2.1,1.7-3.6,4.1-3.6c0.9,0,1.7,0.2,2.5,0.5l0.1,2.9H93c-0.2-1.6-1.3-2.6-2.5-2.6c-1.1,0-1.9,0.7-1.9,1.8c0,2.8,5.9,3.3,5.9,7.2
			c0,2.1-1.7,3.6-3.9,3.6c-0.6,0-1.1-0.1-1.4-0.2c-0.3-0.1-0.6-0.2-0.9-0.2c-0.2,0-0.4,0.1-0.5,0.4h-0.5l-0.3-3.6H87.4z"/>
		<path class="st0" d="M96.4,39.8c0.4,1.9,1.6,3,3,3c1.3,0,2.3-1,2.3-2.1c0-0.7-0.2-1.1-1-1.9c-2.3-2.3-4.8-2.5-4.8-5.1
			c0-2.1,1.7-3.6,4.1-3.6c0.9,0,1.7,0.2,2.5,0.5l0.1,2.9H102c-0.2-1.6-1.3-2.6-2.5-2.6c-1,0-1.9,0.7-1.9,1.8c0,2.8,5.9,3.3,5.9,7.2
			c0,2.1-1.7,3.6-3.9,3.6c-0.6,0-1-0.1-1.4-0.2c-0.3-0.1-0.6-0.2-0.9-0.2c-0.2,0-0.4,0.1-0.5,0.4h-0.5l-0.3-3.6H96.4z"/>
		<path class="st0" d="M109.2,40.6c0,1.1,0.6,1.8,2.3,1.8V43h-7.1v-0.6c1.9,0,2.6-0.6,2.6-2.3v-6.4c0-1.2-0.2-1.4-1-1.6l-1.5-0.3
			v-0.5l4.1-1.4h0.5V40.6z"/>
		<path class="st0" d="M118.2,30.1c3.9,0,6.8,2.9,6.8,6.7c0,3.8-3,6.6-6.7,6.6c-3.9,0-7-2.9-7-6.6C111.3,32.4,114.9,30.1,118.2,30.1
			z M118.6,42.6c1.9,0,4-1.9,4-5.1c0-3.6-2.2-6.7-4.9-6.7c-2.1,0-4,2.2-4,4.9C113.7,39.6,115.9,42.6,118.6,42.6z"/>
		<path class="st0" d="M129.3,40.3c0,1.7,0.4,2.2,2.1,2.2V43H125v-0.6c1.4,0,2.1-0.8,2.1-2v-6.7c0-1.2-0.1-1.4-1-1.6l-1.1-0.2v-0.5
			l3.7-1.3h0.5v2.5c2.1-1.3,3.9-2.5,5.5-2.5c2.2,0,3.4,1.6,3.4,4.8c0,4.2-0.2,5.1-0.3,6.3c0,0.9,0.5,1.3,1.8,1.3h0.7V43h-6.8v-0.6
			c0.9,0,1.5-0.3,1.8-0.6c0.6-0.6,0.7-2.9,0.7-7.2c0-2.5-1.2-3.3-2.5-3.3c-1,0-2.6,0.9-4.2,2V40.3z"/>
		<g>
			<path class="st0" d="M30.9,24.9c0-0.2,0-0.6-0.1-0.8c-0.1-0.2-0.3-0.2-0.5-0.2v-0.1c0.3,0,0.5,0,0.8,0c0.3,0,0.6,0,0.9,0v0.1
				c-0.2,0-0.4,0-0.5,0.2c-0.1,0.2-0.1,0.6-0.1,0.8v1.7c0,0.7,0.1,0.9,0.9,0.9c0.3,0,0.6,0,0.8-0.1c0.3-0.2,0.3-0.4,0.4-0.7h0.1
				l-0.1,1c-0.1,0-0.2,0-0.3,0c-1,0-2,0-3,0v-0.1c0.2,0,0.4,0,0.5-0.2c0.1-0.2,0.1-0.6,0.1-0.8V24.9z"/>
			<path class="st0" d="M34.8,25v1.9c0,0.4-0.1,0.6,0.4,0.6v0.1c-0.2,0-0.4,0-0.6,0c-0.2,0-0.5,0-0.7,0v-0.1c0.4,0,0.4-0.2,0.4-0.5
				v-0.8c0-0.1,0-0.6,0-0.6c0-0.1-0.3-0.1-0.4-0.1v-0.1L34.8,25z M34.2,24c0-0.2,0.1-0.3,0.3-0.3c0.2,0,0.3,0.1,0.3,0.3
				c0,0.2-0.1,0.3-0.3,0.3C34.3,24.3,34.2,24.2,34.2,24z"/>
			<path class="st0" d="M36.4,25.3c0.2-0.2,0.5-0.3,0.8-0.3c0.7,0,1.3,0.6,1.3,1.3c0,0.7-0.5,1.3-1.3,1.3c-0.3,0-0.7-0.1-0.9-0.4
				L36,27.6h-0.1v-2.9c0-0.1,0-0.5-0.1-0.6c-0.1-0.1-0.2-0.1-0.4-0.2v-0.1l0.9-0.2V25.3z M36.4,26.9c0,0.4,0.2,0.6,0.6,0.6
				c0.7,0,0.8-0.6,0.8-1.2c0-0.5-0.2-1.1-0.8-1.1c-0.2,0-0.5,0.1-0.6,0.3c-0.1,0.1-0.1,0.3-0.1,0.4V26.9z"/>
			<path class="st0" d="M41.2,27.2c-0.3,0.3-0.6,0.5-1,0.5c-0.7,0-1.3-0.5-1.3-1.2c0-0.7,0.5-1.4,1.3-1.4c0.6,0,1.1,0.3,1.1,0.9
				c0,0.1-0.1,0.1-0.1,0.1h-1.7l0,0.3c0,0.5,0.3,1.2,0.9,1.2c0.3,0,0.6-0.2,0.7-0.4L41.2,27.2z M40.4,25.9c0.1,0,0.3,0,0.3-0.1
				c0-0.4-0.2-0.6-0.6-0.6c-0.4,0-0.6,0.3-0.7,0.7H40.4z M39.6,24.5l0.9-0.7c0.1-0.1,0.2-0.1,0.3-0.1c0.1,0,0.2,0.1,0.2,0.2
				c0,0.2-0.2,0.2-0.4,0.3l-0.8,0.3H39.6z"/>
			<path class="st0" d="M42.1,26.2c0-0.2,0-0.6,0-0.7c-0.1-0.2-0.2-0.2-0.4-0.2v-0.1c0.3,0,0.5-0.1,0.8-0.2c0.1,0.2,0.1,0.4,0.1,0.6
				h0c0.2-0.4,0.4-0.6,0.8-0.6c0.2,0,0.4,0.1,0.4,0.3c0,0.1-0.1,0.2-0.2,0.2c-0.2,0-0.2-0.3-0.4-0.3c-0.2,0-0.4,0.1-0.5,0.3
				c-0.1,0.2-0.1,0.5-0.1,0.8v0.6c0,0.4,0,0.6,0.4,0.6v0.1c-0.2,0-0.4,0-0.7,0c-0.2,0-0.4,0-0.7,0v-0.1c0.4,0,0.4-0.2,0.4-0.5V26.2z
				"/>
			<path class="st0" d="M46.4,27.2c-0.3,0.3-0.6,0.5-1,0.5c-0.7,0-1.3-0.5-1.3-1.2c0-0.7,0.5-1.4,1.3-1.4c0.6,0,1.1,0.3,1.1,0.9
				c0,0.1-0.1,0.1-0.1,0.1h-1.7l0,0.3c0,0.5,0.3,1.2,0.9,1.2c0.3,0,0.6-0.2,0.7-0.4L46.4,27.2z M45.6,25.9c0.1,0,0.3,0,0.3-0.1
				c0-0.4-0.2-0.6-0.6-0.6c-0.4,0-0.6,0.3-0.7,0.7H45.6z"/>
			<path class="st0" d="M47.3,26.2c0-0.2,0-0.6,0-0.7c-0.1-0.2-0.2-0.2-0.4-0.2v-0.1c0.3,0,0.5-0.1,0.8-0.2c0.1,0.2,0.1,0.4,0.1,0.6
				h0c0.2-0.4,0.4-0.6,0.8-0.6c0.2,0,0.4,0.1,0.4,0.3c0,0.1-0.1,0.2-0.2,0.2c-0.2,0-0.2-0.3-0.4-0.3c-0.2,0-0.4,0.1-0.5,0.3
				c-0.1,0.2-0.1,0.5-0.1,0.8v0.6c0,0.4,0,0.6,0.4,0.6v0.1c-0.2,0-0.4,0-0.7,0c-0.2,0-0.4,0-0.7,0v-0.1c0.4,0,0.4-0.2,0.4-0.5V26.2z
				"/>
			<path class="st0" d="M51.6,26.9c0,0.4-0.1,0.6,0.4,0.6v0.1c-0.2,0-0.4,0-0.7,0c-0.2,0-0.4,0-0.6,0v-0.1c0.4,0,0.4-0.2,0.4-0.5
				v-2.2c0-0.1,0-0.5-0.1-0.6c-0.1-0.1-0.2-0.1-0.4-0.2v-0.1l0.9-0.2V26.9z"/>
			<path class="st0" d="M54.7,27.2c-0.3,0.3-0.6,0.5-1,0.5c-0.7,0-1.3-0.5-1.3-1.2c0-0.7,0.5-1.4,1.3-1.4c0.6,0,1.1,0.3,1.1,0.9
				c0,0.1-0.1,0.1-0.1,0.1H53l0,0.3c0,0.5,0.3,1.2,0.9,1.2c0.3,0,0.6-0.2,0.7-0.4L54.7,27.2z M54,25.9c0.1,0,0.3,0,0.3-0.1
				c0-0.4-0.2-0.6-0.6-0.6c-0.4,0-0.6,0.3-0.7,0.7H54z"/>
			<path class="st0" d="M55.3,27.6L55.3,27.6l-0.1-0.8h0.1c0.1,0.4,0.3,0.7,0.7,0.7c0.3,0,0.5-0.1,0.5-0.4c0-0.3-0.3-0.5-0.6-0.6
				c-0.3-0.2-0.7-0.4-0.7-0.8c0-0.4,0.3-0.7,0.7-0.7c0.2,0,0.4,0.1,0.6,0.1l0.1-0.1h0.1l0,0.7h-0.1c-0.1-0.3-0.2-0.6-0.6-0.6
				c-0.2,0-0.4,0.1-0.4,0.3c0,0.3,0.3,0.4,0.5,0.5c0.4,0.2,0.8,0.4,0.8,0.9c0,0.5-0.4,0.8-0.9,0.8c-0.2,0-0.5-0.1-0.6-0.2L55.3,27.6
				z"/>
			<path class="st0" d="M61.2,27.2c-0.3,0.3-0.6,0.5-1,0.5c-0.7,0-1.3-0.5-1.3-1.2c0-0.7,0.5-1.4,1.3-1.4c0.6,0,1.1,0.3,1.1,0.9
				c0,0.1-0.1,0.1-0.1,0.1h-1.7l0,0.3c0,0.5,0.3,1.2,0.9,1.2c0.3,0,0.6-0.2,0.7-0.4L61.2,27.2z M60.5,25.9c0.1,0,0.3,0,0.3-0.1
				c0-0.4-0.2-0.6-0.6-0.6c-0.4,0-0.6,0.3-0.7,0.7H60.5z"/>
			<path class="st0" d="M64.4,26.9c0,0.4,0,0.6,0.4,0.6v0.1c-0.2,0-0.4,0-0.6,0c-0.2,0-0.4,0-0.7,0v-0.1c0.4,0,0.4-0.2,0.4-0.5v-0.7
				c0-0.4,0-1-0.5-1c-0.5,0-0.7,0.4-0.7,0.8v0.9c0,0.4-0.1,0.6,0.4,0.6v0.1c-0.2,0-0.4,0-0.6,0c-0.2,0-0.4,0-0.7,0v-0.1
				c0.4,0,0.4-0.2,0.4-0.5v-0.7c0-0.2,0-0.6,0-0.7c0-0.2-0.2-0.2-0.4-0.2v-0.1c0.3,0,0.5-0.1,0.8-0.2l0.1,0.5h0
				c0.2-0.4,0.5-0.5,0.9-0.5c0.5,0,0.9,0.2,0.9,0.8V26.9z"/>
			<path class="st0" d="M65.1,25.4v-0.2h0.5v-0.3c0-0.7,0.3-1.2,1.1-1.2c0.2,0,0.7,0.1,0.7,0.4c0,0.1-0.1,0.2-0.2,0.2
				c-0.1,0-0.2-0.1-0.2-0.2c-0.1-0.2-0.1-0.3-0.3-0.3c-0.2,0-0.4,0.1-0.5,0.3C66,24.3,66,24.6,66,24.8v0.4h0.7v0.2H66v1.5
				c0,0.1,0,0.3,0.1,0.4c0.1,0.2,0.4,0.2,0.6,0.2v0.1c-0.3,0-0.5,0-0.8,0c-0.3,0-0.5,0-0.8,0v-0.1c0.5,0,0.5-0.2,0.5-0.6v-1.5H65.1z
				"/>
			<path class="st0" d="M68.5,26c0.1,0,0-0.1,0-0.2c0-0.4,0-0.7-0.5-0.7c-0.3,0-0.5,0-0.5,0.3c0,0.1-0.1,0.3-0.2,0.3
				c-0.1,0-0.2-0.1-0.2-0.2c0-0.4,0.8-0.5,1.1-0.5c0.6,0,0.9,0.2,0.9,0.8v1c0,0.1,0,0.6,0.2,0.6c0.1,0,0.2-0.1,0.2-0.2l0.1,0.1
				c-0.1,0.2-0.3,0.4-0.5,0.4c-0.2,0-0.4-0.2-0.5-0.4c-0.3,0.2-0.6,0.4-1,0.4c-0.3,0-0.6-0.2-0.6-0.5c0-0.5,0.5-0.7,0.9-0.9L68.5,26
				z M68.6,26.1c-0.3,0.2-1,0.4-1,0.9c0,0.2,0.1,0.4,0.4,0.4c0.2,0,0.5-0.2,0.6-0.3V26.1z"/>
			<path class="st0" d="M72.5,26.9c0,0.4,0,0.6,0.4,0.6v0.1c-0.2,0-0.4,0-0.6,0c-0.2,0-0.4,0-0.7,0v-0.1c0.4,0,0.4-0.2,0.4-0.5v-0.7
				c0-0.4,0-1-0.5-1c-0.5,0-0.7,0.4-0.7,0.8v0.9c0,0.4-0.1,0.6,0.4,0.6v0.1c-0.2,0-0.4,0-0.6,0c-0.2,0-0.4,0-0.7,0v-0.1
				c0.4,0,0.4-0.2,0.4-0.5v-0.7c0-0.2,0-0.6,0-0.7c0-0.2-0.2-0.2-0.4-0.2v-0.1c0.3,0,0.5-0.1,0.8-0.2l0.1,0.5h0
				c0.2-0.4,0.5-0.5,0.9-0.5c0.5,0,0.9,0.2,0.9,0.8V26.9z"/>
			<path class="st0" d="M73.4,25.3v-0.1c0.3-0.2,0.6-0.4,0.7-0.7h0.1v0.7h0.7v0.2h-0.7v1.6c0,0.3,0.1,0.5,0.4,0.5
				c0.2,0,0.3-0.1,0.4-0.3l0.1,0.1c-0.1,0.3-0.4,0.4-0.7,0.4c-0.4,0-0.7-0.2-0.7-0.6v-1.8H73.4z"/>
			<path class="st0" d="M75.2,27.6L75.2,27.6l-0.1-0.8h0.1c0.1,0.4,0.3,0.7,0.7,0.7c0.3,0,0.5-0.1,0.5-0.4c0-0.3-0.3-0.5-0.6-0.6
				c-0.3-0.2-0.7-0.4-0.7-0.8c0-0.4,0.3-0.7,0.7-0.7c0.2,0,0.4,0.1,0.6,0.1l0.1-0.1h0.1l0,0.7h-0.1c-0.1-0.3-0.2-0.6-0.6-0.6
				c-0.2,0-0.4,0.1-0.4,0.3c0,0.3,0.3,0.4,0.5,0.5c0.4,0.2,0.8,0.4,0.8,0.9c0,0.5-0.4,0.8-0.9,0.8c-0.2,0-0.5-0.1-0.6-0.2L75.2,27.6
				z"/>
			<path class="st0" d="M81,27.6c-0.1-0.1-0.1-0.3-0.1-0.4c-0.2,0.3-0.5,0.4-0.9,0.4c-0.7,0-1.2-0.6-1.2-1.3c0-0.7,0.5-1.3,1.2-1.3
				c0.3,0,0.6,0.1,0.8,0.4v-0.9c0-0.3,0-0.5-0.4-0.5v-0.1l0.9-0.2v2.9c0,0.2,0,0.5,0.1,0.6c0.1,0.2,0.2,0.2,0.4,0.2v0.1L81,27.6z
				 M80.8,25.8c0-0.4-0.4-0.6-0.7-0.6c-0.6,0-0.8,0.7-0.8,1.2c0,0.5,0.2,1.1,0.8,1.1c0.5,0,0.7-0.4,0.7-0.9V25.8z"/>
			<path class="st0" d="M84.5,27.2c-0.3,0.3-0.6,0.5-1,0.5c-0.7,0-1.3-0.5-1.3-1.2c0-0.7,0.6-1.4,1.3-1.4c0.6,0,1.1,0.3,1.1,0.9
				c0,0.1-0.1,0.1-0.1,0.1h-1.7l0,0.3c0,0.5,0.3,1.2,0.9,1.2c0.3,0,0.6-0.2,0.7-0.4L84.5,27.2z M83.7,25.9c0.1,0,0.3,0,0.3-0.1
				c0-0.4-0.2-0.6-0.6-0.6c-0.4,0-0.6,0.3-0.7,0.7H83.7z"/>
			<path class="st0" d="M87.4,26.9c0,0.4-0.1,0.6,0.4,0.6v0.1c-0.2,0-0.4,0-0.7,0c-0.2,0-0.4,0-0.6,0v-0.1c0.4,0,0.4-0.2,0.4-0.5
				v-2.2c0-0.1,0-0.5-0.1-0.6c-0.1-0.1-0.2-0.1-0.4-0.2v-0.1l0.9-0.2V26.9z"/>
			<path class="st0" d="M89.6,26c0.1,0,0-0.1,0-0.2c0-0.4,0-0.7-0.5-0.7c-0.3,0-0.5,0-0.5,0.3c0,0.1-0.1,0.3-0.2,0.3
				c-0.1,0-0.2-0.1-0.2-0.2c0-0.4,0.8-0.5,1.1-0.5c0.6,0,0.9,0.2,0.9,0.8v1c0,0.1,0,0.6,0.2,0.6c0.1,0,0.2-0.1,0.2-0.2l0.1,0.1
				c-0.1,0.2-0.3,0.4-0.5,0.4c-0.2,0-0.4-0.2-0.5-0.4c-0.3,0.2-0.6,0.4-1,0.4c-0.3,0-0.6-0.2-0.6-0.5c0-0.5,0.5-0.7,0.9-0.9L89.6,26
				z M89.7,26.1c-0.3,0.2-1,0.4-1,0.9c0,0.2,0.1,0.4,0.4,0.4c0.2,0,0.5-0.2,0.6-0.3V26.1z"/>
			<path class="st0" d="M93.2,25.5L93.2,25.5c0.2-0.3,0.5-0.5,0.9-0.5c0.8,0,1.3,0.6,1.3,1.3c0,0.7-0.5,1.3-1.2,1.3
				c-0.3,0-0.6-0.1-0.8-0.3v1.1c0,0.4,0,0.6,0.4,0.6v0.1c-0.2,0-0.4,0-0.6,0c-0.2,0-0.5,0-0.7,0V29c0.4,0,0.4-0.2,0.4-0.6v-2.3
				c0-0.2,0-0.6,0-0.7c0-0.2-0.2-0.2-0.4-0.2v-0.1c0.3,0,0.6-0.1,0.8-0.2V25.5z M93.3,26.6c0,0.2,0,0.5,0.1,0.6
				c0.1,0.2,0.4,0.2,0.6,0.2c0.6,0,0.8-0.6,0.8-1.1c0-0.5-0.2-1.1-0.8-1.1c-0.2,0-0.5,0.1-0.6,0.3c-0.1,0.2-0.1,0.4-0.1,0.6V26.6z"
				/>
			<path class="st0" d="M97.2,26c0.1,0,0-0.1,0-0.2c0-0.4,0-0.7-0.5-0.7c-0.3,0-0.5,0-0.5,0.3c0,0.1-0.1,0.3-0.2,0.3
				c-0.1,0-0.2-0.1-0.2-0.2c0-0.4,0.8-0.5,1.1-0.5c0.6,0,0.9,0.2,0.9,0.8v1c0,0.1,0,0.6,0.2,0.6c0.1,0,0.2-0.1,0.2-0.2l0.1,0.1
				c-0.1,0.2-0.3,0.4-0.5,0.4c-0.2,0-0.4-0.2-0.5-0.4c-0.3,0.2-0.6,0.4-1,0.4c-0.3,0-0.6-0.2-0.6-0.5c0-0.5,0.5-0.7,0.9-0.9L97.2,26
				z M97.3,26.1c-0.3,0.2-1,0.4-1,0.9c0,0.2,0.1,0.4,0.4,0.4c0.2,0,0.5-0.2,0.6-0.3V26.1z"/>
			<path class="st0" d="M99.4,26.7c0,0.3,0,0.8,0.5,0.8c0.5,0,0.8-0.4,0.8-0.9v-0.8c0-0.4,0-0.6-0.4-0.6v-0.1c0.2,0,0.3,0,0.5,0
				c0.2,0,0.3,0,0.5,0v1.9c0,0.2,0,0.4,0.2,0.4c0.1,0,0.1,0,0.2,0v0.1l-0.8,0.2l-0.1-0.5c-0.2,0.3-0.6,0.5-1,0.5
				c-0.6,0-0.8-0.3-0.8-0.8v-1c0-0.4,0-0.6-0.4-0.6v-0.1c0.2,0,0.3,0,0.5,0c0.2,0,0.3,0,0.5,0V26.7z"/>
			<path class="st0" d="M102,25.6c-0.1-0.2-0.1-0.4-0.4-0.4v-0.1c0.2,0,0.4,0,0.6,0c0.2,0,0.4,0,0.6,0v0.1c-0.1,0-0.3,0-0.3,0.2
				c0,0.1,0.1,0.2,0.1,0.3l0.6,1.4c0.1-0.3,0.6-1.4,0.6-1.6c0-0.2-0.2-0.2-0.3-0.2v-0.1c0.1,0,0.3,0,0.4,0c0.1,0,0.3,0,0.4,0v0.1
				c-0.1,0-0.2,0.1-0.2,0.1c-0.1,0.1-0.2,0.5-0.3,0.7l-0.7,1.7h-0.1L102,25.6z"/>
			<path class="st0" d="M104.7,26.2c0-0.2,0-0.6,0-0.7c-0.1-0.2-0.2-0.2-0.4-0.2v-0.1c0.3,0,0.5-0.1,0.8-0.2
				c0.1,0.2,0.1,0.4,0.1,0.6h0c0.2-0.4,0.4-0.6,0.8-0.6c0.2,0,0.4,0.1,0.4,0.3c0,0.1-0.1,0.2-0.2,0.2c-0.2,0-0.2-0.3-0.4-0.3
				c-0.2,0-0.4,0.1-0.5,0.3c-0.1,0.2-0.1,0.5-0.1,0.8v0.6c0,0.4,0,0.6,0.4,0.6v0.1c-0.2,0-0.4,0-0.7,0c-0.2,0-0.4,0-0.7,0v-0.1
				c0.4,0,0.4-0.2,0.4-0.5V26.2z"/>
			<path class="st0" d="M109,27.2c-0.3,0.3-0.6,0.5-1,0.5c-0.7,0-1.3-0.5-1.3-1.2c0-0.7,0.5-1.4,1.3-1.4c0.6,0,1.1,0.3,1.1,0.9
				c0,0.1-0.1,0.1-0.1,0.1h-1.7l0,0.3c0,0.5,0.3,1.2,0.9,1.2c0.3,0,0.6-0.2,0.7-0.4L109,27.2z M108.3,25.9c0.1,0,0.3,0,0.3-0.1
				c0-0.4-0.2-0.6-0.6-0.6c-0.4,0-0.6,0.3-0.7,0.7H108.3z"/>
			<path class="st0" d="M109.6,25.3v-0.1c0.3-0.2,0.6-0.4,0.7-0.7h0.1v0.7h0.7v0.2h-0.7v1.6c0,0.3,0.1,0.5,0.4,0.5
				c0.2,0,0.3-0.1,0.4-0.3l0.1,0.1c-0.1,0.3-0.4,0.4-0.7,0.4c-0.4,0-0.7-0.2-0.7-0.6v-1.8H109.6z"/>
			<path class="st0" d="M113.8,27.2c-0.3,0.3-0.6,0.5-1,0.5c-0.7,0-1.3-0.5-1.3-1.2c0-0.7,0.5-1.4,1.3-1.4c0.6,0,1.1,0.3,1.1,0.9
				c0,0.1-0.1,0.1-0.1,0.1H112l0,0.3c0,0.5,0.3,1.2,0.9,1.2c0.3,0,0.6-0.2,0.7-0.4L113.8,27.2z M113,25.9c0.1,0,0.3,0,0.3-0.1
				c0-0.4-0.2-0.6-0.6-0.6c-0.4,0-0.6,0.3-0.7,0.7H113z M112.2,24.5l0.9-0.7c0.1-0.1,0.2-0.1,0.3-0.1c0.1,0,0.2,0.1,0.2,0.2
				c0,0.2-0.2,0.2-0.4,0.3l-0.8,0.3H112.2z"/>
		</g>
		<g>
			<path class="st0" d="M72.3,48.8c0.1,0,0.1-0.1,0.1-0.2c0-0.6-0.1-1-0.7-1c-0.4,0-0.8,0-0.8,0.5c0,0.2-0.1,0.4-0.3,0.4
				c-0.2,0-0.3-0.1-0.3-0.3c0-0.6,1.1-0.7,1.5-0.7c0.9,0,1.3,0.2,1.3,1.2V50c0,0.2,0,0.8,0.3,0.8c0.2,0,0.2-0.1,0.3-0.3l0.2,0.1
				c-0.1,0.3-0.4,0.6-0.7,0.6c-0.3,0-0.6-0.3-0.7-0.6c-0.4,0.3-0.9,0.6-1.4,0.6c-0.4,0-0.9-0.3-0.9-0.7c0-0.7,0.8-1,1.3-1.2
				L72.3,48.8z M72.4,49c-0.5,0.2-1.4,0.6-1.4,1.2c0,0.3,0.2,0.6,0.5,0.6c0.3,0,0.7-0.2,0.9-0.5V49z"/>
			<path class="st0" d="M75.3,49.8c0,0.5,0,1.2,0.7,1.2c0.7,0,1.1-0.6,1.1-1.2v-1.1c0-0.6,0-0.8-0.6-0.9v-0.2c0.2,0,0.5,0,0.7,0
				c0.2,0,0.4,0,0.6,0v2.7c0,0.2,0,0.6,0.3,0.6c0.1,0,0.2,0,0.3,0v0.2l-1.2,0.3l-0.2-0.8c-0.3,0.5-0.8,0.8-1.4,0.8
				c-0.8,0-1.1-0.5-1.1-1.2v-1.4c0-0.6,0.1-0.8-0.6-0.9v-0.2c0.2,0,0.5,0,0.7,0c0.2,0,0.4,0,0.6,0V49.8z"/>
			<path class="st0" d="M84.8,50.1c0,0.5-0.1,0.8,0.6,0.8v0.2c-0.3,0-0.6,0-0.9,0c-0.3,0-0.6,0-1,0v-0.2c0.6,0,0.6-0.2,0.6-0.8v-1.1
				c0-0.6,0-1.4-0.8-1.4c-0.6,0-1.1,0.5-1.1,1.1v1.3c0,0.5-0.1,0.8,0.6,0.8v0.2c-0.3,0-0.6,0-0.9,0c-0.3,0-0.6,0-1,0v-0.2
				c0.6,0,0.6-0.2,0.6-0.8v-1c0-0.2,0-0.8,0-1c-0.1-0.3-0.3-0.3-0.6-0.3v-0.2c0.4-0.1,0.7-0.2,1.1-0.3l0.1,0.8h0
				c0.3-0.5,0.7-0.8,1.3-0.8c0.8,0,1.2,0.4,1.2,1.1V50.1z"/>
			<path class="st0" d="M89.9,49.3c0,1.1-0.9,1.9-2,1.9c-1.1,0-2-0.8-2-1.9c0-1.1,1-1.8,2-1.8C88.9,47.4,89.9,48.2,89.9,49.3z
				 M86.7,49.3c0,0.8,0.2,1.7,1.2,1.7c0.9,0,1.1-0.9,1.1-1.7c0-0.8-0.2-1.7-1.2-1.7C86.9,47.6,86.7,48.6,86.7,49.3z"/>
			<path class="st0" d="M91.7,50.1c0,0.5-0.1,0.8,0.6,0.8v0.2c-0.3,0-0.6,0-0.9,0c-0.3,0-0.6,0-0.9,0v-0.2c0.6,0,0.6-0.2,0.6-0.8v-1
				c0-0.2,0-0.8,0-1c-0.1-0.3-0.3-0.3-0.6-0.3v-0.2c0.4-0.1,0.7-0.2,1.1-0.3l0.1,0.7c0.3-0.4,0.7-0.7,1.3-0.7c0.5,0,1,0.2,1.1,0.7
				c0.3-0.4,0.7-0.7,1.3-0.7c0.4,0,0.7,0.1,1,0.4c0.2,0.3,0.2,0.8,0.2,1.1v1.2c0,0.5-0.1,0.8,0.6,0.8v0.2c-0.3,0-0.6,0-0.9,0
				c-0.3,0-0.6,0-0.9,0v-0.2c0.6,0,0.6-0.2,0.6-0.8v-1c0-0.6,0.1-1.4-0.8-1.4c-0.3,0-0.7,0.2-0.8,0.5c-0.1,0.2-0.1,0.5-0.1,0.9v1
				c0,0.5-0.1,0.8,0.6,0.8v0.2c-0.3,0-0.6,0-0.9,0c-0.3,0-0.6,0-0.9,0v-0.2c0.6,0,0.6-0.2,0.6-0.8v-1c0-0.6,0.1-1.4-0.8-1.4
				c-0.3,0-0.7,0.2-0.8,0.5c-0.1,0.2-0.1,0.5-0.1,0.9V50.1z"/>
			<path class="st0" d="M102.8,51.2c-0.1-0.2-0.1-0.4-0.2-0.6c-0.4,0.4-0.7,0.6-1.3,0.6c-1,0-1.8-0.8-1.8-1.8c0-1,0.7-1.9,1.8-1.9
				c0.5,0,0.9,0.2,1.2,0.5v-1.3c0-0.5,0-0.8-0.6-0.8v-0.2l1.3-0.3v4.2c0,0.2,0,0.6,0.1,0.9c0.1,0.3,0.3,0.3,0.6,0.3v0.2L102.8,51.2z
				 M102.5,48.5c0-0.5-0.5-0.8-1-0.8c-0.9,0-1.1,0.9-1.1,1.7c0,0.7,0.2,1.6,1.1,1.6c0.7,0,1-0.6,1-1.2V48.5z"/>
			<path class="st0" d="M107.7,50.5c-0.4,0.5-0.9,0.7-1.5,0.7c-1,0-1.9-0.7-1.9-1.8c0-1,0.8-2,1.9-2c0.8,0,1.6,0.5,1.6,1.4
				c0,0.1-0.1,0.1-0.2,0.1h-2.4l0,0.4c0,0.8,0.4,1.7,1.3,1.7c0.4,0,0.8-0.3,1-0.6L107.7,50.5z M106.6,48.6c0.1,0,0.4,0,0.4-0.2
				c0-0.5-0.3-0.8-0.8-0.8c-0.6,0-0.9,0.5-1,1H106.6z"/>
			<path class="st0" d="M112,51.4c0,0.4-0.1,0.8-0.3,1.2c-0.3,0.5-0.9,0.7-1.5,0.7c-0.4,0-1.3-0.1-1.3-0.6c0-0.2,0.1-0.3,0.3-0.3
				c0.2,0,0.3,0.2,0.4,0.3c0.1,0.3,0.2,0.4,0.6,0.4c0.5,0,0.7-0.2,0.8-0.7c0-0.1,0.1-0.3,0.1-0.5v-5.3c0-0.2,0-0.4-0.1-0.5
				c-0.1-0.3-0.4-0.3-0.7-0.3v-0.2c0.4,0,0.8,0,1.2,0c0.4,0,0.8,0,1.3,0v0.2c-0.3,0-0.6,0-0.7,0.3c-0.1,0.2-0.1,0.6-0.1,0.9V51.4z"
				/>
			<path class="st0" d="M116.6,50.5c-0.4,0.5-0.9,0.7-1.5,0.7c-1,0-1.9-0.7-1.9-1.8c0-1,0.8-2,1.9-2c0.8,0,1.6,0.5,1.6,1.4
				c0,0.1-0.1,0.1-0.2,0.1h-2.4l0,0.4c0,0.8,0.4,1.7,1.3,1.7c0.4,0,0.8-0.3,1-0.6L116.6,50.5z M115.5,48.6c0.1,0,0.4,0,0.4-0.2
				c0-0.5-0.3-0.8-0.8-0.8c-0.6,0-0.9,0.5-1,1H115.5z M114.3,46.7l1.3-1c0.1-0.1,0.2-0.2,0.4-0.2c0.2,0,0.3,0.1,0.3,0.3
				c0,0.3-0.3,0.4-0.5,0.4l-1.1,0.5H114.3z"/>
			<path class="st0" d="M117.4,51.1L117.4,51.1l-0.1-1.2h0.2c0.1,0.5,0.4,1.1,1,1.1c0.4,0,0.7-0.2,0.7-0.6c0-0.5-0.5-0.7-0.8-0.8
				c-0.5-0.3-1-0.5-1-1.1c0-0.6,0.5-1,1-1c0.3,0,0.6,0.1,0.8,0.2l0.2-0.2h0.1l0,1h-0.2c-0.1-0.4-0.3-0.9-0.9-0.9
				c-0.3,0-0.5,0.2-0.5,0.5c0,0.4,0.5,0.6,0.8,0.8c0.6,0.3,1.1,0.5,1.1,1.3c0,0.7-0.6,1.1-1.2,1.1c-0.3,0-0.7-0.1-0.9-0.3
				L117.4,51.1z"/>
			<path class="st0" d="M121.4,49.8c0,0.5,0,1.2,0.7,1.2c0.7,0,1.1-0.6,1.1-1.2v-1.1c0-0.6,0-0.8-0.6-0.9v-0.2c0.2,0,0.5,0,0.7,0
				c0.2,0,0.4,0,0.6,0v2.7c0,0.2,0,0.6,0.3,0.6c0.1,0,0.2,0,0.3,0v0.2l-1.2,0.3l-0.2-0.8c-0.3,0.5-0.8,0.8-1.4,0.8
				c-0.8,0-1.1-0.5-1.1-1.2v-1.4c0-0.6,0.1-0.8-0.6-0.9v-0.2c0.2,0,0.5,0,0.7,0c0.2,0,0.4,0,0.6,0V49.8z"/>
			<path class="st0" d="M125,51.1L125,51.1l-0.1-1.2h0.2c0.1,0.5,0.4,1.1,1,1.1c0.4,0,0.7-0.2,0.7-0.6c0-0.5-0.5-0.7-0.8-0.8
				c-0.5-0.3-1-0.5-1-1.1c0-0.6,0.5-1,1-1c0.3,0,0.6,0.1,0.8,0.2l0.2-0.2h0.1l0,1h-0.2c-0.1-0.4-0.3-0.9-0.9-0.9
				c-0.3,0-0.5,0.2-0.5,0.5c0,0.4,0.5,0.6,0.8,0.8c0.6,0.3,1.1,0.5,1.1,1.3c0,0.7-0.6,1.1-1.2,1.1c-0.3,0-0.7-0.1-0.9-0.3L125,51.1z
				"/>
		</g>
	</g>
	<g>
		<path class="st0" d="M138.8,25c1.1,0,2,0.8,2,2c0,1.1-0.9,2-2,2c-1.1,0-2-0.8-2-2C136.8,25.8,137.7,25,138.8,25z M138.8,28.6
			c0.9,0,1.6-0.7,1.6-1.7c0-0.9-0.7-1.7-1.6-1.7c-0.9,0-1.6,0.7-1.6,1.7C137.2,27.9,137.9,28.6,138.8,28.6z M138.1,25.8h0.9
			c0.5,0,0.8,0.2,0.8,0.7c0,0.4-0.3,0.6-0.6,0.6l0.7,1h-0.4l-0.6-1h-0.4v1h-0.4V25.8z M138.4,26.8h0.4c0.3,0,0.6,0,0.6-0.4
			c0-0.3-0.3-0.4-0.5-0.4h-0.5V26.8z"/>
	</g>
</g>
</svg>
