<svg id="Calque_1" data-name="Calque 1" xmlns="http://www.w3.org/2000/svg" viewBox="0 0 138.94 52.4"><title>compassion-logo-dark-fr</title><path d="M39,.9" transform="translate(-1.95 -0.84)" fill="#255faa"/><path d="M28.75,7.76a3.61,3.61,0,0,0,3.94-3.23A3.61,3.61,0,0,0,29.07,1a3.61,3.61,0,0,0-3.94,3.23A3.61,3.61,0,0,0,28.75,7.76Z" transform="translate(-1.95 -0.84)" fill="#255faa"/><path d="M38.94,1a17.76,17.76,0,0,1-6.33,5.95c-4.38,2.48-8.26,3.93-12,9.68,0,0,1.1-.51.34.72a3.63,3.63,0,0,1,1.06-.7s.29-.07.17.3c0,0,2-1.52,1.46-.79-.3.44,1.56-1.4,1.78-1.22,0,0,.06.11-.22.53,0,0,4.43-2.66,6.08-3.36C38.47,9,40,4,39.35,1.16,39.35,1.16,39.33.59,38.94,1Z" transform="translate(-1.95 -0.84)" fill="#255faa"/><path d="M24,25.52s.31-7.47,5-11.29S38,11.11,39.88,11a22,22,0,0,0,5.67-.53s.28,3.34-9,4.93c0,0-3-.05-5.66,3.43a32.52,32.52,0,0,0-5,8.92s0-.87-.36-.26l-.89,2,0-1.9s-.16-.48-.38.18c0,0-.17.22.12-2.3C24.36,25.47,24.29,24.93,24,25.52Z" transform="translate(-1.95 -0.84)" fill="#255faa"/><path d="M20.75,28.54a7.39,7.39,0,0,0-7.23-4.88c-5.29,0-8.59,3.84-8.59,9.16,0,5.74,4.12,10,8.94,10a8.38,8.38,0,0,0,7.73-4.69h.61a22,22,0,0,1-2,4.63c-2-.29-3.43.85-7.17.85C6.58,43.56,2,39.32,2,33.45c0-6.14,4.76-10.58,11.38-10.58,4,0,5.71,1.27,6.69,1.27.35,0,.51-.1.57-.19h.47l.29,4.59Z" transform="translate(-1.95 -0.84)" fill="#255faa"/><path d="M30.12,30.16a6.64,6.64,0,1,1,.1,13.28,6.64,6.64,0,1,1-.1-13.28Zm.45,12.52c1.87,0,4-1.91,4-5.07,0-3.62-2.22-6.69-4.88-6.69-2.09,0-4,2.15-4,4.88C25.66,39.63,27.84,42.68,30.57,42.68Z" transform="translate(-1.95 -0.84)" fill="#255faa"/><path d="M41.34,40.49c0,1.65.44,2,2.21,2v.61H37v-.61c1.84,0,2.25-.82,2.25-2.44V33.8c0-1.23-.19-1.52-.92-1.61L37.06,32v-.54l3.8-1.33h.48v2.53c2.28-1.61,4.37-2.53,5.64-2.53a3,3,0,0,1,3,2.53c2.12-1.33,4-2.53,5.61-2.53,2.28,0,3.17,1.74,3.17,4.78,0,2,0,4.16-.1,6.09,0,.66.38,1.42,1.68,1.42h1v.61H54.24v-.61h.28c.92,0,1.33-.15,1.62-.44.47-.47.5-2.31.5-4.5V35c0-2.44-.82-3.61-2.37-3.61-1,0-2.25.47-4.22,1.77v7.29c0,1.58.38,2,2,2v.61h-6.5v-.61c1.77,0,2.41-.63,2.41-2.44V34.15c0-2-1.24-2.72-2.35-2.72-.88,0-2.09.41-4.24,1.83Z" transform="translate(-1.95 -0.84)" fill="#255faa"/><path d="M64.17,48.38c0,1.59.79,2.06,2.12,2.06h.8V51H59.61v-.6h.31c1.62,0,2.13-.54,2.13-2.34V33.52c0-.61-.13-.86-.89-1.05l-1-.25v-.6l3.39-2.1h.63v3.05c2-1.49,3.64-2.32,4.91-2.32,2.47,0,4.69,2.79,4.69,5.9a7.07,7.07,0,0,1-6.72,7.13,8,8,0,0,1-2.88-.64Zm0-7.8a6.16,6.16,0,0,0,3.74,1.72c2.16,0,3.74-2.13,3.74-4.73,0-4.18-2.47-5.76-4.15-5.76a5.56,5.56,0,0,0-3.33,1.55Z" transform="translate(-1.95 -0.84)" fill="#255faa"/><path d="M75.14,34.28a1.36,1.36,0,0,1-.1-.45c0-1.11,2.63-3.67,4.69-3.67a4.24,4.24,0,0,1,3.33,1.68c.48.66.48,1.07.48,2.72v4.25c0,2.54,0,3.11.82,3.11a2.19,2.19,0,0,0,1.55-.7l.16.47c-1.71,1.4-2.6,1.75-3.14,1.75-1.29,0-1.42-1.43-1.45-1.94-2.19,1.81-2.82,1.94-3.68,1.94-1.84,0-3-1-3-2.6,0-1.94,1.72-2.6,3.74-3.11a10.7,10.7,0,0,0,2.82-1.2V34a2.63,2.63,0,0,0-.53-2,2.41,2.41,0,0,0-1.78-.92,2,2,0,0,0-2,1.55,1.34,1.34,0,0,0,.15.6Zm6.27,2.88a14.9,14.9,0,0,1-1.87.89c-1.93.79-2.66,1.11-2.66,2.41a1.85,1.85,0,0,0,1.87,1.87c.51,0,.89-.16,2.66-1.4Z" transform="translate(-1.95 -0.84)" fill="#255faa"/><path d="M87.44,39.86c.38,1.9,1.58,3,3,3a2.17,2.17,0,0,0,2.25-2.09c0-.66-.16-1.07-1-1.93-2.25-2.25-4.76-2.47-4.76-5.1,0-2.09,1.65-3.55,4.06-3.55a7.08,7.08,0,0,1,2.53.5l.07,2.89h-.54a2.71,2.71,0,0,0-2.54-2.63,1.83,1.83,0,0,0-1.93,1.77c0,2.79,5.9,3.27,5.9,7.13a3.72,3.72,0,0,1-3.93,3.62,3.91,3.91,0,0,1-1.4-.23A3.8,3.8,0,0,0,88.3,43a.69.69,0,0,0-.54.38h-.48l-.35-3.54Z" transform="translate(-1.95 -0.84)" fill="#255faa"/><path d="M96.4,39.86c.38,1.9,1.58,3,3,3a2.17,2.17,0,0,0,2.25-2.09c0-.66-.16-1.07-1-1.93-2.25-2.25-4.76-2.47-4.76-5.1,0-2.09,1.65-3.55,4.06-3.55a7,7,0,0,1,2.53.5l.07,2.89H102a2.71,2.71,0,0,0-2.54-2.63,1.83,1.83,0,0,0-1.93,1.77c0,2.79,5.9,3.27,5.9,7.13a3.72,3.72,0,0,1-3.93,3.62,3.91,3.91,0,0,1-1.4-.23,3.8,3.8,0,0,0-.85-.19.69.69,0,0,0-.54.38h-.48l-.35-3.54Z" transform="translate(-1.95 -0.84)" fill="#255faa"/><path d="M109.16,40.65c0,1.11.61,1.8,2.29,1.8v.61h-7v-.61c1.93,0,2.63-.63,2.63-2.31V33.77c0-1.24-.16-1.39-1-1.55l-1.49-.29v-.5L108.69,30h.47Z" transform="translate(-1.95 -0.84)" fill="#255faa"/><path d="M118.1,30.16a6.64,6.64,0,1,1-6.84,6.72A6.61,6.61,0,0,1,118.1,30.16Zm.45,12.52c1.87,0,4-1.91,4-5.07,0-3.62-2.22-6.69-4.88-6.69-2.09,0-4,2.15-4,4.88C113.64,39.63,115.82,42.68,118.55,42.68Z" transform="translate(-1.95 -0.84)" fill="#255faa"/><path d="M129.18,40.3c0,1.74.41,2.15,2.12,2.15v.61h-6.37v-.61a1.87,1.87,0,0,0,2.12-2V33.8c0-1.17-.12-1.39-1-1.55L125,32v-.51l3.65-1.33h.51v2.47c2.12-1.33,3.89-2.5,5.45-2.5,2.15,0,3.39,1.58,3.39,4.75,0,4.22-.22,5-.26,6.28,0,.85.48,1.26,1.78,1.26h.7v.61h-6.82v-.61a2.53,2.53,0,0,0,1.81-.6c.6-.6.66-2.91.66-7.13,0-2.53-1.23-3.33-2.5-3.33-1,0-2.57.89-4.21,2Z" transform="translate(-1.95 -0.84)" fill="#255faa"/><path d="M31.14,25a3.21,3.21,0,0,0-.06-.77c-.07-.2-.31-.2-.49-.2v-.13l.82,0,.88,0V24c-.19,0-.42,0-.5.2a3.84,3.84,0,0,0-.05.77v1.7c0,.74.11.86.84.86a1.52,1.52,0,0,0,.82-.14c.29-.18.32-.4.38-.72h.14l-.05,1-.3,0c-1,0-2,0-3,0v-.13c.18,0,.42,0,.49-.2a3.21,3.21,0,0,0,.06-.77Z" transform="translate(-1.95 -0.84)" fill="#255faa"/><path d="M35.07,25.12V27c0,.38,0,.55.4.58v.12l-.62,0-.67,0v-.12c.43,0,.39-.17.4-.55v-.82a4.43,4.43,0,0,0,0-.64c0-.14-.28-.13-.39-.13V25.3Zm-.62-1a.31.31,0,1,1,.61,0,.3.3,0,0,1-.29.31A.31.31,0,0,1,34.45,24.09Z" transform="translate(-1.95 -0.84)" fill="#255faa"/><path d="M36.65,25.44a1,1,0,0,1,.78-.32,1.25,1.25,0,0,1,1.25,1.29,1.29,1.29,0,0,1-1.29,1.32,1.23,1.23,0,0,1-.88-.37l-.27.34h-.08V24.79a2.14,2.14,0,0,0-.06-.62C36,24,35.86,24,35.72,24v-.11l.93-.19Zm0,1.54a.55.55,0,0,0,.62.6c.66,0,.84-.6.84-1.15s-.19-1.13-.83-1.13a.65.65,0,0,0-.56.3,1,1,0,0,0-.07.43Z" transform="translate(-1.95 -0.84)" fill="#255faa"/><path d="M41.41,27.24a1.21,1.21,0,0,1-1,.49,1.24,1.24,0,0,1-1.3-1.24,1.33,1.33,0,0,1,1.29-1.37,1,1,0,0,1,1.1.94c0,.07-.08.05-.14.05H39.69l0,.28c0,.55.29,1.16.91,1.16a1,1,0,0,0,.72-.43ZM40.67,26c.09,0,.28,0,.28-.12a.53.53,0,0,0-.56-.59c-.43,0-.61.33-.68.71Zm-.82-1.36.9-.71a.45.45,0,0,1,.25-.14.21.21,0,0,1,.2.2c0,.2-.22.25-.37.32l-.77.33Z" transform="translate(-1.95 -0.84)" fill="#255faa"/><path d="M42.34,26.3a4,4,0,0,0,0-.7c-.05-.21-.2-.19-.38-.19V25.3a5.19,5.19,0,0,0,.78-.18,2.1,2.1,0,0,1,.07.58h0a.88.88,0,0,1,.83-.58c.18,0,.41.09.41.3a.21.21,0,0,1-.2.21c-.24,0-.19-.3-.41-.3a.56.56,0,0,0-.45.29,1.47,1.47,0,0,0-.14.78V27c0,.42,0,.56.44.58v.12l-.66,0-.67,0v-.12c.43,0,.4-.17.4-.55Z" transform="translate(-1.95 -0.84)" fill="#255faa"/><path d="M46.6,27.24a1.21,1.21,0,0,1-1,.49,1.24,1.24,0,0,1-1.31-1.24,1.34,1.34,0,0,1,1.3-1.37,1,1,0,0,1,1.1.94c0,.07-.08.05-.14.05H44.87l0,.28c0,.55.29,1.16.91,1.16a1,1,0,0,0,.72-.43ZM45.85,26c.1,0,.29,0,.29-.12a.53.53,0,0,0-.56-.59c-.44,0-.61.33-.68.71Z" transform="translate(-1.95 -0.84)" fill="#255faa"/><path d="M47.53,26.3a4,4,0,0,0,0-.7c-.06-.21-.2-.19-.38-.19V25.3a4.8,4.8,0,0,0,.77-.18,1.54,1.54,0,0,1,.07.58h0a.88.88,0,0,1,.83-.58c.18,0,.41.09.41.3a.21.21,0,0,1-.2.21c-.24,0-.19-.3-.42-.3a.6.6,0,0,0-.45.29,1.57,1.57,0,0,0-.13.78V27c0,.42,0,.56.44.58v.12l-.66,0-.67,0v-.12c.43,0,.4-.17.4-.55Z" transform="translate(-1.95 -0.84)" fill="#255faa"/><path d="M51.79,27c0,.38-.06.55.4.58v.12l-.66,0-.64,0v-.12c.43,0,.41-.17.41-.55V24.79a2.14,2.14,0,0,0-.06-.62C51.17,24,51,24,50.86,24v-.11l.93-.19Z" transform="translate(-1.95 -0.84)" fill="#255faa"/><path d="M54.9,27.24a1.21,1.21,0,0,1-1,.49,1.24,1.24,0,0,1-1.3-1.24,1.33,1.33,0,0,1,1.29-1.37,1,1,0,0,1,1.1.94c0,.07-.08.05-.14.05H53.18l0,.28c0,.55.29,1.16.91,1.16a1,1,0,0,0,.72-.43ZM54.16,26c.09,0,.28,0,.28-.12a.53.53,0,0,0-.56-.59c-.43,0-.61.33-.68.71Z" transform="translate(-1.95 -0.84)" fill="#255faa"/><path d="M55.49,27.69h-.05l0-.82h.12c.09.37.29.73.71.73.26,0,.49-.13.49-.41s-.34-.46-.59-.58-.69-.37-.69-.8a.69.69,0,0,1,.72-.69,1.25,1.25,0,0,1,.56.14l.11-.13h.07v.72h-.12c-.1-.29-.23-.6-.59-.6a.33.33,0,0,0-.37.32c0,.3.32.4.54.52.4.21.76.36.76.88a.79.79,0,0,1-.85.76,1,1,0,0,1-.63-.21Z" transform="translate(-1.95 -0.84)" fill="#255faa"/><path d="M61.36,27.24a1.21,1.21,0,0,1-1,.49A1.24,1.24,0,0,1,59,26.49a1.34,1.34,0,0,1,1.3-1.37,1,1,0,0,1,1.1.94c0,.07-.09.05-.14.05H59.63l0,.28c0,.55.29,1.16.9,1.16a1,1,0,0,0,.73-.43ZM60.61,26c.09,0,.28,0,.28-.12a.52.52,0,0,0-.56-.59c-.43,0-.6.33-.67.71Z" transform="translate(-1.95 -0.84)" fill="#255faa"/><path d="M64.54,27c0,.38-.05.55.4.58v.12l-.63,0-.67,0v-.12c.44,0,.41-.17.41-.55v-.73c0-.4,0-1-.53-1a.74.74,0,0,0-.74.78V27c0,.38-.05.55.4.58v.12l-.63,0-.66,0v-.12c.43,0,.4-.17.4-.55v-.7a5.16,5.16,0,0,0,0-.7c0-.21-.2-.19-.39-.19V25.3c.3,0,.52-.13.8-.18l.07.52h0a1,1,0,0,1,.92-.52c.55,0,.86.25.86.79Z" transform="translate(-1.95 -0.84)" fill="#255faa"/><path d="M65.23,25.45V25.3h.46V25c0-.75.27-1.21,1.07-1.21.22,0,.71.07.71.37a.2.2,0,0,1-.21.18c-.11,0-.16-.08-.2-.16s-.13-.26-.33-.26a.43.43,0,0,0-.46.28,1.9,1.9,0,0,0-.09.71v.4h.71v.15h-.71V27a1.11,1.11,0,0,0,0,.36c.09.24.37.2.58.21v.12l-.83,0-.79,0v-.12c.51,0,.5-.18.5-.63V25.45Z" transform="translate(-1.95 -0.84)" fill="#255faa"/><path d="M68.67,26.09c.06,0,0-.11,0-.17,0-.39,0-.67-.51-.67-.29,0-.52,0-.54.33a.24.24,0,0,1-.23.25.2.2,0,0,1-.22-.2c0-.43.77-.51,1.06-.51.64,0,.93.17.93.83v.95c0,.15,0,.57.2.57s.18-.1.24-.18l.11.05a.65.65,0,0,1-.52.39.52.52,0,0,1-.49-.41,1.6,1.6,0,0,1-1,.41.55.55,0,0,1-.6-.51c0-.48.55-.69.92-.86Zm0,.14c-.34.17-1,.39-1,.86a.38.38,0,0,0,.37.41,1,1,0,0,0,.63-.33Z" transform="translate(-1.95 -0.84)" fill="#255faa"/><path d="M72.61,27c0,.38,0,.55.4.58v.12l-.63,0-.67,0v-.12c.44,0,.41-.17.41-.55v-.73c0-.4,0-1-.53-1a.74.74,0,0,0-.74.78V27c0,.38,0,.55.4.58v.12l-.62,0-.67,0v-.12c.43,0,.4-.17.4-.55v-.7a5.16,5.16,0,0,0,0-.7c0-.21-.2-.19-.38-.19V25.3c.29,0,.51-.13.79-.18l.08.52h0a1,1,0,0,1,.92-.52c.55,0,.86.25.86.79Z" transform="translate(-1.95 -0.84)" fill="#255faa"/><path d="M73.47,25.37v-.1a1.5,1.5,0,0,0,.7-.73h.09v.68h.65v.15h-.65V27c0,.26,0,.53.35.53a.51.51,0,0,0,.42-.26l.1.07a.65.65,0,0,1-.67.37c-.41,0-.69-.16-.69-.59V25.37Z" transform="translate(-1.95 -0.84)" fill="#255faa"/><path d="M75.32,27.69h0l0-.82h.12c.09.37.29.73.71.73.26,0,.49-.13.49-.41s-.34-.46-.58-.58-.7-.37-.7-.8a.69.69,0,0,1,.72-.69,1.22,1.22,0,0,1,.56.14l.11-.13h.07v.72h-.11c-.11-.29-.24-.6-.6-.6a.33.33,0,0,0-.37.32c0,.3.32.4.54.52.4.21.76.36.76.88a.79.79,0,0,1-.85.76,1,1,0,0,1-.63-.21Z" transform="translate(-1.95 -0.84)" fill="#255faa"/><path d="M81.09,27.73a1.5,1.5,0,0,1-.11-.44,1.07,1.07,0,0,1-.9.44,1.21,1.21,0,0,1-1.23-1.27,1.27,1.27,0,0,1,1.23-1.34,1,1,0,0,1,.82.36v-.91c0-.35,0-.53-.43-.55v-.11l.92-.19v2.92a2,2,0,0,0,.06.6c.08.2.23.19.42.19v.11Zm-.19-1.84a.64.64,0,0,0-.68-.59c-.62,0-.79.66-.79,1.16s.17,1.12.79,1.12.68-.41.68-.87Z" transform="translate(-1.95 -0.84)" fill="#255faa"/><path d="M84.54,27.24a1.31,1.31,0,0,1-2.33-.75,1.33,1.33,0,0,1,1.29-1.37,1,1,0,0,1,1.1.94c0,.07-.08.05-.14.05H82.81l0,.28c0,.55.29,1.16.91,1.16a1,1,0,0,0,.72-.43ZM83.79,26c.09,0,.28,0,.28-.12a.53.53,0,0,0-.56-.59c-.43,0-.61.33-.67.71Z" transform="translate(-1.95 -0.84)" fill="#255faa"/><path d="M87.41,27c0,.38,0,.55.41.58v.12l-.67,0-.63,0v-.12c.43,0,.4-.17.4-.55V24.79a2.14,2.14,0,0,0-.06-.62c-.06-.14-.24-.13-.37-.15v-.11l.92-.19Z" transform="translate(-1.95 -0.84)" fill="#255faa"/><path d="M89.65,26.09c.06,0,0-.11,0-.17,0-.39,0-.67-.51-.67-.28,0-.52,0-.54.33,0,.13-.08.25-.23.25a.2.2,0,0,1-.22-.2c0-.43.77-.51,1.06-.51.64,0,.94.17.94.83v.95c0,.15,0,.57.2.57s.17-.1.23-.18l.11.05a.64.64,0,0,1-.51.39.53.53,0,0,1-.5-.41,1.6,1.6,0,0,1-1,.41.54.54,0,0,1-.6-.51c0-.48.55-.69.91-.86Zm.06.14c-.35.17-1,.39-1,.86a.38.38,0,0,0,.37.41,1,1,0,0,0,.64-.33Z" transform="translate(-1.95 -0.84)" fill="#255faa"/><path d="M93.22,25.6h0a1,1,0,0,1,.85-.48,1.31,1.31,0,0,1,0,2.61,1.11,1.11,0,0,1-.83-.33v1.12c0,.42,0,.57.44.59v.11l-.64,0-.69,0v-.11c.43,0,.4-.17.4-.55V26.3a5.16,5.16,0,0,0,0-.7c0-.21-.2-.19-.39-.19V25.3c.29,0,.57-.12.84-.18Zm.07,1.09a1.12,1.12,0,0,0,.12.63.79.79,0,0,0,.57.23c.62,0,.81-.61.81-1.13s-.17-1.12-.8-1.12a.68.68,0,0,0-.58.33,1.2,1.2,0,0,0-.12.65Z" transform="translate(-1.95 -0.84)" fill="#255faa"/><path d="M97.26,26.09c.06,0,0-.11,0-.17,0-.39,0-.67-.51-.67-.28,0-.52,0-.54.33a.24.24,0,0,1-.23.25.2.2,0,0,1-.22-.2c0-.43.77-.51,1.06-.51.64,0,.94.17.94.83v.95c0,.15,0,.57.2.57s.17-.1.23-.18l.11.05a.64.64,0,0,1-.52.39.53.53,0,0,1-.49-.41,1.6,1.6,0,0,1-1,.41.54.54,0,0,1-.6-.51c0-.48.54-.69.91-.86Zm.06.14c-.35.17-1,.39-1,.86a.38.38,0,0,0,.37.41,1,1,0,0,0,.64-.33Z" transform="translate(-1.95 -0.84)" fill="#255faa"/><path d="M99.39,26.75c0,.34,0,.8.47.8a.83.83,0,0,0,.79-.86v-.77c0-.44,0-.57-.43-.64v-.11l.47,0,.45,0V27c0,.16,0,.39.22.39l.22,0v.13l-.81.21-.12-.54a1.16,1.16,0,0,1-1,.54c-.58,0-.79-.32-.79-.82v-1c0-.44,0-.57-.44-.64v-.11l.48,0,.45,0Z" transform="translate(-1.95 -0.84)" fill="#255faa"/><path d="M102,25.71c-.09-.22-.13-.41-.4-.42v-.12l.61,0,.59,0v.12c-.12,0-.33,0-.33.19a.9.9,0,0,0,.08.28l.56,1.39a12.25,12.25,0,0,0,.57-1.63c0-.19-.19-.22-.33-.23v-.12l.43,0,.42,0v.12a.31.31,0,0,0-.23.14,4,4,0,0,0-.3.66L103,27.77h-.12Z" transform="translate(-1.95 -0.84)" fill="#255faa"/><path d="M104.72,26.3a3.94,3.94,0,0,0,0-.7c-.05-.21-.19-.19-.38-.19V25.3a4.92,4.92,0,0,0,.78-.18,1.78,1.78,0,0,1,.07.58h0a.89.89,0,0,1,.84-.58c.18,0,.41.09.41.3a.21.21,0,0,1-.2.21c-.25,0-.19-.3-.42-.3a.6.6,0,0,0-.45.29,1.57,1.57,0,0,0-.13.78V27c0,.42,0,.56.44.58v.12l-.67,0-.67,0v-.12c.44,0,.41-.17.41-.55Z" transform="translate(-1.95 -0.84)" fill="#255faa"/><path d="M109,27.24a1.22,1.22,0,0,1-1,.49,1.24,1.24,0,0,1-1.3-1.24,1.34,1.34,0,0,1,1.3-1.37,1,1,0,0,1,1.1.94c0,.07-.09.05-.15.05h-1.65l0,.28c0,.55.28,1.16.9,1.16a1,1,0,0,0,.73-.43ZM108.23,26c.09,0,.28,0,.28-.12a.52.52,0,0,0-.56-.59c-.43,0-.6.33-.67.71Z" transform="translate(-1.95 -0.84)" fill="#255faa"/><path d="M109.56,25.37v-.1a1.5,1.5,0,0,0,.7-.73h.08v.68H111v.15h-.66V27c0,.26.06.53.36.53a.52.52,0,0,0,.42-.26l.1.07a.65.65,0,0,1-.67.37c-.41,0-.69-.16-.69-.59V25.37Z" transform="translate(-1.95 -0.84)" fill="#255faa"/><path d="M113.71,27.24a1.22,1.22,0,0,1-1,.49,1.24,1.24,0,0,1-1.3-1.24,1.33,1.33,0,0,1,1.29-1.37,1,1,0,0,1,1.1.94c0,.07-.08.05-.14.05H112l0,.28c0,.55.29,1.16.91,1.16a1,1,0,0,0,.72-.43ZM113,26c.09,0,.28,0,.28-.12a.53.53,0,0,0-.56-.59c-.43,0-.61.33-.67.71Zm-.82-1.36.9-.71a.45.45,0,0,1,.25-.14.2.2,0,0,1,.2.2c0,.2-.22.25-.37.32l-.77.33Z" transform="translate(-1.95 -0.84)" fill="#255faa"/><path d="M72.44,48.81c.09,0,.07-.15.07-.24,0-.56-.05-1-.73-1-.41,0-.75,0-.78.47a.35.35,0,0,1-.33.37.29.29,0,0,1-.31-.3c0-.62,1.1-.73,1.52-.73.92,0,1.34.24,1.34,1.19V50c0,.21,0,.82.29.82.17,0,.25-.15.34-.27l.16.09a1,1,0,0,1-.75.55.74.74,0,0,1-.71-.59,2.26,2.26,0,0,1-1.38.59.78.78,0,0,1-.86-.73c0-.69.78-1,1.31-1.23Zm.08.21c-.5.24-1.44.56-1.44,1.23a.55.55,0,0,0,.53.59,1.52,1.52,0,0,0,.91-.47Z" transform="translate(-1.95 -0.84)" fill="#255faa"/><path d="M75.41,49.76c0,.49,0,1.15.69,1.15a1.19,1.19,0,0,0,1.13-1.23V48.57c0-.63,0-.82-.63-.92v-.16l.69,0,.65,0v2.66c0,.23,0,.56.31.56l.31,0v.19l-1.15.3-.18-.78a1.68,1.68,0,0,1-1.38.78c-.84,0-1.14-.45-1.14-1.18V48.57c0-.63.05-.82-.63-.92v-.16l.68,0,.65,0Z" transform="translate(-1.95 -0.84)" fill="#255faa"/><path d="M84.82,50.08c0,.55-.07.79.58.84v.16l-.91,0-1,0v-.16c.62-.05.58-.24.58-.79V49.07c0-.57,0-1.39-.76-1.39a1.05,1.05,0,0,0-1.06,1.11v1.29c0,.55-.08.79.58.84v.16l-.9,0-1,0v-.16c.63-.05.58-.24.58-.79v-1a8,8,0,0,0,0-1c-.06-.3-.29-.27-.55-.27v-.16c.43,0,.74-.19,1.14-.26l.11.75h0a1.41,1.41,0,0,1,1.32-.75c.79,0,1.24.36,1.24,1.14Z" transform="translate(-1.95 -0.84)" fill="#255faa"/><path d="M89.92,49.28a1.91,1.91,0,0,1-2,1.89,1.88,1.88,0,1,1,2-1.89Zm-3.16,0c0,.79.24,1.7,1.21,1.7s1.12-.91,1.12-1.65-.22-1.72-1.2-1.72S86.76,48.56,86.76,49.28Z" transform="translate(-1.95 -0.84)" fill="#255faa"/><path d="M91.69,50.08c0,.55-.09.79.56.84v.16l-.89,0-1,0v-.16c.62-.05.58-.24.58-.79v-1a8,8,0,0,0,0-1c-.07-.3-.29-.27-.56-.27v-.16c.43,0,.74-.19,1.15-.26l.09.67a1.49,1.49,0,0,1,1.25-.67,1.07,1.07,0,0,1,1.13.67,1.45,1.45,0,0,1,1.26-.67,1.18,1.18,0,0,1,1,.4,1.77,1.77,0,0,1,.23,1.09v1.17c0,.55-.08.79.56.84v.16l-.92,0-.92,0v-.16c.61-.05.57-.24.57-.79V49.08c0-.58.07-1.4-.77-1.4a.92.92,0,0,0-.8.55,2.12,2.12,0,0,0-.11.85v1c0,.55-.09.79.57.84v.16l-.91,0-.94,0v-.16c.63-.05.57-.24.58-.79V49.08c0-.58.06-1.4-.77-1.4a.94.94,0,0,0-.81.55,2.12,2.12,0,0,0-.11.85Z" transform="translate(-1.95 -0.84)" fill="#255faa"/><path d="M102.82,51.17a1.63,1.63,0,0,1-.17-.63,1.54,1.54,0,0,1-1.29.63,1.74,1.74,0,0,1-1.77-1.83,1.83,1.83,0,0,1,1.77-1.92,1.52,1.52,0,0,1,1.18.51V46.62c0-.49,0-.76-.62-.78v-.16l1.33-.27V49.6a3.07,3.07,0,0,0,.08.86c.11.29.33.27.6.27v.17Zm-.28-2.64a.93.93,0,0,0-1-.85c-.9,0-1.14.94-1.14,1.66s.24,1.61,1.14,1.61c.74,0,1-.59,1-1.24Z" transform="translate(-1.95 -0.84)" fill="#255faa"/><path d="M107.68,50.47a1.77,1.77,0,0,1-1.48.7,1.79,1.79,0,0,1-1.87-1.78,1.93,1.93,0,0,1,1.87-2,1.42,1.42,0,0,1,1.58,1.35c0,.11-.13.07-.21.07h-2.38l0,.4c0,.79.42,1.67,1.3,1.67a1.4,1.4,0,0,0,1.05-.61Zm-1.08-1.85c.14,0,.41,0,.41-.16a.76.76,0,0,0-.81-.85c-.62,0-.87.47-1,1Z" transform="translate(-1.95 -0.84)" fill="#255faa"/><path d="M112,51.42a2.21,2.21,0,0,1-.28,1.17,1.62,1.62,0,0,1-1.47.66c-.38,0-1.3-.06-1.3-.61a.32.32,0,0,1,.34-.32c.22,0,.33.16.42.34a.51.51,0,0,0,.55.4.77.77,0,0,0,.84-.69,3.31,3.31,0,0,0,.05-.54V46.56a1.46,1.46,0,0,0-.08-.49c-.12-.28-.45-.28-.72-.28V45.6l1.2,0c.41,0,.83,0,1.25,0v.19c-.27,0-.59,0-.71.28A2.78,2.78,0,0,0,112,47Z" transform="translate(-1.95 -0.84)" fill="#255faa"/><path d="M116.55,50.47a1.89,1.89,0,0,1-3.35-1.08,1.93,1.93,0,0,1,1.86-2,1.42,1.42,0,0,1,1.59,1.35c0,.11-.13.07-.21.07h-2.38l0,.4c0,.79.41,1.67,1.3,1.67a1.38,1.38,0,0,0,1-.61Zm-1.08-1.85c.13,0,.41,0,.41-.16a.76.76,0,0,0-.81-.85c-.62,0-.87.47-1,1Zm-1.18-1.95,1.3-1a.58.58,0,0,1,.36-.19.28.28,0,0,1,.29.29c0,.27-.32.35-.53.44l-1.11.48Z" transform="translate(-1.95 -0.84)" fill="#255faa"/><path d="M117.31,51.12h-.08l0-1.19h.17c.13.53.41,1,1,1,.36,0,.69-.18.69-.58s-.48-.66-.83-.84-1-.52-1-1.15a1,1,0,0,1,1-1,1.62,1.62,0,0,1,.8.21l.17-.2h.1l0,1h-.16c-.15-.41-.34-.85-.86-.85a.48.48,0,0,0-.53.46c0,.43.46.58.77.75.57.3,1.1.51,1.1,1.26a1.13,1.13,0,0,1-1.22,1.09,1.48,1.48,0,0,1-.91-.3Z" transform="translate(-1.95 -0.84)" fill="#255faa"/><path d="M121.32,49.76c0,.49,0,1.15.69,1.15a1.19,1.19,0,0,0,1.13-1.23V48.57c0-.63,0-.82-.63-.92v-.16l.69,0,.65,0v2.66c0,.23,0,.56.3.56l.32,0v.19l-1.15.3-.18-.78a1.68,1.68,0,0,1-1.38.78c-.84,0-1.14-.45-1.14-1.18V48.57c0-.63,0-.82-.63-.92v-.16l.68,0,.65,0Z" transform="translate(-1.95 -0.84)" fill="#255faa"/><path d="M124.93,51.12h-.08l0-1.19H125c.14.53.42,1,1,1,.37,0,.7-.18.7-.58s-.48-.66-.84-.84-1-.52-1-1.15a1,1,0,0,1,1-1,1.69,1.69,0,0,1,.81.21l.16-.2h.1l0,1h-.16c-.15-.41-.33-.85-.85-.85a.48.48,0,0,0-.53.46c0,.43.45.58.77.75.57.3,1.09.51,1.09,1.26a1.13,1.13,0,0,1-1.22,1.09,1.51,1.51,0,0,1-.91-.3Z" transform="translate(-1.95 -0.84)" fill="#255faa"/><path d="M138.9,29.55V30H139c.27,0,.41-.08.41-.24a.21.21,0,0,0-.13-.19,1,1,0,0,0-.28,0ZM138.51,31V29.28h.42a2.61,2.61,0,0,1,.61,0,.4.4,0,0,1,.31.41.39.39,0,0,1-.11.27.55.55,0,0,1-.3.13h0a.27.27,0,0,1,.21.18L140,31h-.43l-.24-.53a.33.33,0,0,0-.09-.14.3.3,0,0,0-.18,0h-.12V31Z" transform="translate(-1.95 -0.84)" fill="#255faa" fill-rule="evenodd"/><path d="M138,30.15a1.23,1.23,0,1,1,1.23,1.23A1.23,1.23,0,0,1,138,30.15Zm-.48,0a1.71,1.71,0,1,1,1.71,1.71,1.71,1.71,0,0,1-1.71-1.71Z" transform="translate(-1.95 -0.84)" fill="#255faa" fill-rule="evenodd"/></svg>