<svg id="Calque_1" data-name="Calque 1" xmlns="http://www.w3.org/2000/svg" viewBox="0 0 139.75 50.75"><title>compassion-logo-dark-it</title><path d="M28.81,8.17a3.64,3.64,0,0,0,4-3.25,3.63,3.63,0,0,0-3.65-3.6,3.64,3.64,0,0,0-4,3.25A3.64,3.64,0,0,0,28.81,8.17Z" transform="translate(-1.83 -1.21)" fill="#255faa"/><path d="M39.13,1.27" transform="translate(-1.83 -1.21)" fill="#255faa"/><path d="M39.07,1.35a17.88,17.88,0,0,1-6.37,6c-4.41,2.5-8.32,3.95-12.06,9.74,0,0,1.12-.51.35.73a3.8,3.8,0,0,1,1.06-.71s.3-.06.18.3c0,0,2-1.53,1.47-.79-.3.45,1.56-1.41,1.79-1.23,0,0,.06.12-.22.54,0,0,4.46-2.68,6.12-3.39,7.21-3.07,8.76-8.14,8.1-11C39.49,1.53,39.46,1,39.07,1.35Z" transform="translate(-1.83 -1.21)" fill="#255faa"/><path d="M24,26.06s.31-7.52,5-11.37,9.15-3.14,11-3.27a22.3,22.3,0,0,0,5.71-.53s.28,3.35-9.06,4.95c0,0-3.08,0-5.71,3.47a32.75,32.75,0,0,0-5,9s0-.88-.36-.26l-.9,2,0-1.91s-.16-.48-.37.18c0,0-.17.23.11-2.32C24.39,26,24.32,25.46,24,26.06Z" transform="translate(-1.83 -1.21)" fill="#255faa"/><path d="M20.76,29.1a7.45,7.45,0,0,0-7.28-4.91c-5.33,0-8.65,3.86-8.65,9.22,0,5.77,4.15,10,9,10a8.46,8.46,0,0,0,7.79-4.72h.6a21.24,21.24,0,0,1-2,4.65c-2-.28-3.45.87-7.21.87C6.49,44.23,1.83,40,1.83,34.05c0-6.19,4.79-10.66,11.46-10.66,4,0,5.74,1.27,6.73,1.27.35,0,.51-.09.58-.19h.47l.29,4.63Z" transform="translate(-1.83 -1.21)" fill="#255faa"/><path d="M30.2,30.73a6.69,6.69,0,1,1,.09,13.37,6.69,6.69,0,1,1-.09-13.37Zm.44,12.6c1.89,0,4-1.91,4-5.1,0-3.64-2.23-6.74-4.91-6.74-2.11,0-4.05,2.17-4.05,4.92C25.7,40.27,27.9,43.33,30.64,43.33Z" transform="translate(-1.83 -1.21)" fill="#255faa"/><path d="M41.49,41.13c0,1.66.44,2,2.23,2v.61H37.08v-.61c1.85,0,2.27-.83,2.27-2.46V34.4c0-1.25-.19-1.53-.93-1.63l-1.24-.16v-.54L41,30.73h.48v2.55c2.29-1.63,4.4-2.55,5.68-2.55a3,3,0,0,1,3,2.55c2.14-1.34,4.08-2.55,5.65-2.55,2.29,0,3.19,1.75,3.19,4.82,0,2,0,4.18-.1,6.12,0,.67.38,1.44,1.69,1.44h1v.61H54.47v-.61h.29a2.09,2.09,0,0,0,1.63-.45c.48-.48.51-2.33.51-4.53V35.64c0-2.46-.83-3.64-2.39-3.64-1,0-2.27.48-4.25,1.79v7.34c0,1.6.39,2,2,2v.61H45.7v-.61c1.79,0,2.42-.64,2.42-2.46v-5.9c0-2-1.24-2.75-2.36-2.75-.89,0-2.1.42-4.27,1.85Z" transform="translate(-1.83 -1.21)" fill="#255faa"/><path d="M64.48,49.08c0,1.59.8,2.07,2.14,2.07h.79v.61H59.88v-.61h.32c1.63,0,2.14-.54,2.14-2.36V34.11c0-.61-.13-.86-.89-1l-1-.26v-.6l3.41-2.11h.64v3.06c2-1.5,3.67-2.33,4.94-2.33,2.49,0,4.73,2.81,4.73,5.94a7.12,7.12,0,0,1-6.77,7.18,8,8,0,0,1-2.9-.64Zm0-7.85A6.21,6.21,0,0,0,68.24,43C70.41,43,72,40.81,72,38.19c0-4.21-2.49-5.8-4.18-5.8A5.57,5.57,0,0,0,64.48,34Z" transform="translate(-1.83 -1.21)" fill="#255faa"/><path d="M75.52,34.88a1.38,1.38,0,0,1-.09-.45c0-1.12,2.65-3.7,4.72-3.7a4.27,4.27,0,0,1,3.35,1.69c.48.67.48,1.08.48,2.74v4.28c0,2.55,0,3.13.83,3.13a2.2,2.2,0,0,0,1.56-.71l.16.48c-1.72,1.41-2.61,1.76-3.16,1.76-1.31,0-1.43-1.44-1.46-2-2.21,1.82-2.84,2-3.71,2-1.85,0-3-1.05-3-2.62,0-1.94,1.72-2.61,3.76-3.13a10.66,10.66,0,0,0,2.84-1.21V34.62a2.64,2.64,0,0,0-.54-2,2.44,2.44,0,0,0-1.79-.93,2,2,0,0,0-2,1.57,1.38,1.38,0,0,0,.16.6Zm6.32,2.9a15.07,15.07,0,0,1-1.88.89c-1.95.8-2.68,1.12-2.68,2.43A1.86,1.86,0,0,0,79.16,43c.51,0,.89-.16,2.68-1.4Z" transform="translate(-1.83 -1.21)" fill="#255faa"/><path d="M87.91,40.49c.38,1.92,1.59,3,3,3a2.19,2.19,0,0,0,2.27-2.1c0-.67-.16-1.09-1-2C89.92,37.17,87.4,37,87.4,34.3c0-2.1,1.66-3.57,4.08-3.57a7,7,0,0,1,2.56.51l.06,2.9h-.54A2.74,2.74,0,0,0,91,31.49a1.84,1.84,0,0,0-1.94,1.79c0,2.81,5.93,3.29,5.93,7.18A3.74,3.74,0,0,1,91,44.1a4,4,0,0,1-1.41-.23,3.76,3.76,0,0,0-.86-.19.68.68,0,0,0-.54.39h-.48l-.35-3.58Z" transform="translate(-1.83 -1.21)" fill="#255faa"/><path d="M96.93,40.49c.38,1.92,1.6,3,3,3a2.19,2.19,0,0,0,2.27-2.1c0-.67-.16-1.09-1-2-2.27-2.27-4.79-2.49-4.79-5.14,0-2.1,1.66-3.57,4.08-3.57a7,7,0,0,1,2.56.51l.06,2.9h-.54A2.73,2.73,0,0,0,100,31.49a1.85,1.85,0,0,0-2,1.79c0,2.81,5.94,3.29,5.94,7.18a3.75,3.75,0,0,1-4,3.64,4,4,0,0,1-1.41-.23,3.76,3.76,0,0,0-.86-.19.68.68,0,0,0-.54.39h-.48l-.35-3.58Z" transform="translate(-1.83 -1.21)" fill="#255faa"/><path d="M109.78,41.29c0,1.12.61,1.82,2.3,1.82v.61H105v-.61c1.94,0,2.65-.64,2.65-2.33V34.37c0-1.25-.16-1.41-1-1.57l-1.5-.29V32l4.14-1.43h.48Z" transform="translate(-1.83 -1.21)" fill="#255faa"/><path d="M118.79,30.73a6.69,6.69,0,1,1-6.9,6.76A6.66,6.66,0,0,1,118.79,30.73Zm.44,12.6c1.89,0,4-1.91,4-5.1,0-3.64-2.23-6.74-4.91-6.74-2.11,0-4,2.17-4,4.92C114.29,40.27,116.49,43.33,119.23,43.33Z" transform="translate(-1.83 -1.21)" fill="#255faa"/><path d="M129.93,40.94c0,1.75.42,2.17,2.14,2.17v.61h-6.41v-.61a1.89,1.89,0,0,0,2.14-2V34.4c0-1.18-.13-1.41-1-1.57l-1.09-.22V32.1l3.67-1.34h.51v2.49c2.14-1.34,3.93-2.52,5.49-2.52,2.17,0,3.42,1.59,3.42,4.78,0,4.25-.23,5.08-.26,6.32,0,.86.48,1.28,1.79,1.28h.7v.61h-6.86v-.61A2.54,2.54,0,0,0,136,42.5c.61-.6.67-2.93.67-7.18,0-2.55-1.25-3.35-2.52-3.35-1,0-2.59.9-4.25,2Z" transform="translate(-1.83 -1.21)" fill="#255faa"/><path d="M35.69,24.24a3.79,3.79,0,0,0,0-.77c-.08-.2-.32-.2-.5-.2v-.13l.83,0,.88,0v.13c-.19,0-.43,0-.5.2a3.17,3.17,0,0,0-.06.77V26c0,.74.12.86.85.86a1.56,1.56,0,0,0,.83-.14c.29-.18.32-.4.38-.73h.14l-.05,1-.3,0-3,0v-.13c.18,0,.42,0,.5-.2a3.89,3.89,0,0,0,0-.77Z" transform="translate(-1.83 -1.21)" fill="#255faa"/><path d="M39.65,24.41v1.87c0,.38-.06.55.4.58V27l-.62,0-.68,0v-.12c.43,0,.4-.17.4-.55v-.83c0-.11,0-.56,0-.64s-.28-.14-.4-.13v-.12Zm-.63-1a.31.31,0,0,1,.31-.31.31.31,0,0,1,0,.62A.31.31,0,0,1,39,23.38Z" transform="translate(-1.83 -1.21)" fill="#255faa"/><path d="M41.24,24.74a1,1,0,0,1,.79-.33,1.26,1.26,0,0,1,1.26,1.3A1.3,1.3,0,0,1,42,27a1.24,1.24,0,0,1-.89-.37l-.28.34h-.08V24.08a2.52,2.52,0,0,0-.05-.62c-.07-.14-.25-.13-.38-.15v-.12l.93-.18Zm0,1.54a.55.55,0,0,0,.62.61c.67,0,.85-.6.85-1.16s-.2-1.13-.83-1.13a.66.66,0,0,0-.57.3,1,1,0,0,0-.07.43Z" transform="translate(-1.83 -1.21)" fill="#255faa"/><path d="M46,26.55a1.32,1.32,0,0,1-2.35-.76A1.35,1.35,0,0,1,45,24.41a1,1,0,0,1,1.11.95c0,.07-.09.05-.15.05H44.3l0,.28c0,.55.29,1.17.91,1.17a1,1,0,0,0,.74-.43Zm-.76-1.3c.1,0,.29,0,.29-.11a.53.53,0,0,0-.57-.59c-.43,0-.61.33-.68.7Z" transform="translate(-1.83 -1.21)" fill="#255faa"/><path d="M47,25.6a4.13,4.13,0,0,0,0-.71c-.06-.2-.2-.18-.39-.18v-.12a4.12,4.12,0,0,0,.79-.18,2.17,2.17,0,0,1,.07.59h0a.9.9,0,0,1,.84-.59c.18,0,.41.09.41.3a.2.2,0,0,1-.2.21c-.24,0-.19-.3-.42-.3a.62.62,0,0,0-.45.29,1.63,1.63,0,0,0-.13.79v.58c0,.42,0,.56.44.58V27l-.67,0-.67,0v-.12c.43,0,.4-.17.4-.55Z" transform="translate(-1.83 -1.21)" fill="#255faa"/><path d="M50.38,25.39c.06,0,0-.11,0-.17,0-.39,0-.67-.52-.67-.29,0-.52,0-.54.33a.24.24,0,0,1-.23.25.2.2,0,0,1-.22-.21c0-.43.77-.51,1.06-.51.65,0,.94.17.94.84v1c0,.14,0,.57.21.57s.17-.1.24-.18l.11,0A.66.66,0,0,1,51,27a.54.54,0,0,1-.5-.41,1.57,1.57,0,0,1-1,.41.55.55,0,0,1-.61-.51c0-.49.55-.69.92-.86Zm0,.14c-.35.17-1,.4-1,.86a.38.38,0,0,0,.37.42,1,1,0,0,0,.64-.33Z" transform="translate(-1.83 -1.21)" fill="#255faa"/><path d="M52.08,25.6a3.31,3.31,0,0,0,0-.71c0-.2-.19-.18-.38-.18v-.12a4.3,4.3,0,0,0,.79-.18,2.17,2.17,0,0,1,.07.59h0a.9.9,0,0,1,.84-.59c.18,0,.41.09.41.3a.2.2,0,0,1-.2.21c-.25,0-.19-.3-.42-.3a.61.61,0,0,0-.45.29,1.53,1.53,0,0,0-.14.79v.58c0,.42,0,.56.44.58V27l-.66,0-.68,0v-.12c.44,0,.41-.17.41-.55Z" transform="translate(-1.83 -1.21)" fill="#255faa"/><path d="M56.37,26.55a1.22,1.22,0,0,1-1,.49A1.25,1.25,0,0,1,54,25.79a1.36,1.36,0,0,1,1.31-1.38,1,1,0,0,1,1.11.95c0,.07-.09.05-.15.05H54.63l0,.28c0,.55.3,1.17.92,1.17a1,1,0,0,0,.73-.43Zm-.76-1.3c.1,0,.29,0,.29-.11a.53.53,0,0,0-.56-.59c-.44,0-.61.33-.68.7Z" transform="translate(-1.83 -1.21)" fill="#255faa"/><path d="M59.27,24.41v1.87c0,.38-.06.55.4.58V27l-.62,0-.68,0v-.12c.43,0,.4-.17.4-.55v-.83c0-.11,0-.56,0-.64s-.28-.14-.4-.13v-.12Zm-.63-1a.31.31,0,0,1,.31-.31.31.31,0,0,1,0,.62A.31.31,0,0,1,58.64,23.38Z" transform="translate(-1.83 -1.21)" fill="#255faa"/><path d="M62.37,24.74a1,1,0,0,1,.79-.33,1.26,1.26,0,0,1,1.25,1.3A1.3,1.3,0,0,1,63.11,27a1.23,1.23,0,0,1-.88-.37L62,27h-.08V24.08a2.11,2.11,0,0,0-.06-.62c-.07-.14-.24-.13-.37-.15v-.12l.93-.18Zm0,1.54a.55.55,0,0,0,.62.61c.66,0,.84-.6.84-1.16S63.64,24.6,63,24.6a.65.65,0,0,0-.56.3,1,1,0,0,0-.07.43Z" transform="translate(-1.83 -1.21)" fill="#255faa"/><path d="M66.28,25.39c.06,0,0-.11,0-.17,0-.39,0-.67-.51-.67-.29,0-.53,0-.55.33,0,.13-.08.25-.23.25a.2.2,0,0,1-.22-.21c0-.43.77-.51,1.07-.51.64,0,.94.17.94.84v1c0,.14,0,.57.2.57s.18-.1.24-.18l.11,0a.65.65,0,0,1-.52.39.53.53,0,0,1-.5-.41,1.6,1.6,0,0,1-1,.41.54.54,0,0,1-.6-.51c0-.49.55-.69.92-.86Zm.06.14c-.35.17-1,.4-1,.86a.38.38,0,0,0,.37.42,1.08,1.08,0,0,0,.64-.33Z" transform="translate(-1.83 -1.21)" fill="#255faa"/><path d="M68.45,26.28c0,.38-.06.55.39.58V27l-.63,0-.66,0v-.12c.43,0,.41-.17.41-.55V25.6a5.39,5.39,0,0,0,0-.71c-.05-.2-.21-.18-.39-.18v-.12a7.13,7.13,0,0,0,.8-.18l.06.47a1.06,1.06,0,0,1,.88-.47.75.75,0,0,1,.79.47,1.06,1.06,0,0,1,.89-.47.84.84,0,0,1,.68.28,1.34,1.34,0,0,1,.15.77v.82c0,.38-.06.55.4.58V27l-.65,0-.64,0v-.12c.43,0,.39-.17.4-.55v-.73c0-.41,0-1-.54-1a.65.65,0,0,0-.56.38,1.43,1.43,0,0,0-.08.6v.7c0,.38-.06.55.4.58V27l-.64,0-.65,0v-.12c.43,0,.39-.17.4-.55v-.73c0-.41,0-1-.54-1a.67.67,0,0,0-.57.38,1.62,1.62,0,0,0-.07.6Z" transform="translate(-1.83 -1.21)" fill="#255faa"/><path d="M73.39,24.74a1,1,0,0,1,.79-.33,1.26,1.26,0,0,1,1.26,1.3A1.3,1.3,0,0,1,74.14,27a1.23,1.23,0,0,1-.88-.37L73,27H72.9V24.08a2.11,2.11,0,0,0-.06-.62c-.07-.14-.24-.13-.37-.15v-.12l.92-.18Zm0,1.54a.56.56,0,0,0,.63.61c.66,0,.84-.6.84-1.16S74.67,24.6,74,24.6a.68.68,0,0,0-.57.3,1.18,1.18,0,0,0-.07.43Z" transform="translate(-1.83 -1.21)" fill="#255faa"/><path d="M76.68,24.41v1.87c0,.38-.05.55.41.58V27l-.62,0-.68,0v-.12c.43,0,.39-.17.4-.55v-.83a4.36,4.36,0,0,0,0-.64c0-.15-.28-.14-.4-.13v-.12Zm-.63-1a.31.31,0,0,1,.32-.31.31.31,0,0,1,0,.62A.32.32,0,0,1,76.05,23.38Z" transform="translate(-1.83 -1.21)" fill="#255faa"/><path d="M80.12,26.28c0,.38-.05.55.4.58V27l-.63,0-.67,0v-.12c.43,0,.4-.17.4-.55v-.74c0-.4,0-1-.53-1a.74.74,0,0,0-.74.78v.9c0,.38-.06.55.4.58V27l-.63,0-.67,0v-.12c.43,0,.4-.17.4-.55V25.6a5.39,5.39,0,0,0,0-.71c0-.2-.2-.18-.39-.18v-.12a6.83,6.83,0,0,0,.81-.18l.07.53h0a1,1,0,0,1,.93-.53c.55,0,.87.25.87.8Z" transform="translate(-1.83 -1.21)" fill="#255faa"/><path d="M81.79,24.41v1.87c0,.38-.05.55.4.58V27l-.62,0-.68,0v-.12c.43,0,.4-.17.41-.55v-.83a4.36,4.36,0,0,0,0-.64c0-.15-.28-.14-.4-.13v-.12Zm-.63-1a.31.31,0,0,1,.32-.31.31.31,0,0,1,0,.62A.32.32,0,0,1,81.16,23.38Z" transform="translate(-1.83 -1.21)" fill="#255faa"/><path d="M86.34,27a1.5,1.5,0,0,1-.12-.44,1.07,1.07,0,0,1-.9.44,1.22,1.22,0,0,1-1.24-1.28,1.28,1.28,0,0,1,1.24-1.35,1.08,1.08,0,0,1,.83.36v-.91c0-.35,0-.54-.44-.55v-.12l.93-.18v2.93a2,2,0,0,0,.06.6c.07.21.23.19.42.19v.12Zm-.19-1.85a.65.65,0,0,0-.69-.59c-.63,0-.8.65-.8,1.16s.17,1.13.8,1.13.69-.42.69-.87Z" transform="translate(-1.83 -1.21)" fill="#255faa"/><path d="M88.92,25.39c.06,0,0-.11,0-.17,0-.39,0-.67-.51-.67-.29,0-.53,0-.55.33,0,.13-.08.25-.23.25a.2.2,0,0,1-.22-.21c0-.43.77-.51,1.07-.51.64,0,.94.17.94.84v1c0,.14,0,.57.2.57s.18-.1.24-.18l.11,0a.65.65,0,0,1-.52.39.53.53,0,0,1-.5-.41A1.6,1.6,0,0,1,88,27a.54.54,0,0,1-.6-.51c0-.49.55-.69.92-.86Zm0,.14c-.34.17-1,.4-1,.86a.39.39,0,0,0,.38.42,1,1,0,0,0,.63-.33Z" transform="translate(-1.83 -1.21)" fill="#255faa"/><path d="M91.08,26.28c0,.38-.06.55.4.58V27l-.66,0-.64,0v-.12c.43,0,.4-.17.4-.55V24.08a2.11,2.11,0,0,0-.06-.62c-.06-.14-.24-.13-.37-.15v-.12l.93-.18Z" transform="translate(-1.83 -1.21)" fill="#255faa"/><path d="M92.7,26.28c0,.38,0,.55.41.58V27l-.67,0-.64,0v-.12c.44,0,.41-.17.41-.55V24.08a2.11,2.11,0,0,0-.06-.62c-.07-.14-.24-.13-.38-.15v-.12L92.7,23Z" transform="translate(-1.83 -1.21)" fill="#255faa"/><path d="M95,25.39c.06,0,.05-.11.05-.17,0-.39,0-.67-.52-.67-.29,0-.52,0-.54.33a.24.24,0,0,1-.23.25.2.2,0,0,1-.22-.21c0-.43.77-.51,1.06-.51.65,0,1,.17,1,.84v1c0,.14,0,.57.2.57s.17-.1.24-.18l.11,0a.66.66,0,0,1-.53.39.54.54,0,0,1-.5-.41,1.57,1.57,0,0,1-1,.41.55.55,0,0,1-.61-.51c0-.49.55-.69.92-.86Zm.05.14c-.35.17-1,.4-1,.86a.38.38,0,0,0,.37.42,1,1,0,0,0,.64-.33Z" transform="translate(-1.83 -1.21)" fill="#255faa"/><path d="M98.55,24.89h0a1,1,0,0,1,.86-.48,1.32,1.32,0,0,1,0,2.63,1.12,1.12,0,0,1-.83-.33v1.13c0,.42,0,.57.44.59v.12l-.64,0-.7,0v-.12c.44,0,.4-.17.4-.56V25.6a5.39,5.39,0,0,0,0-.71c0-.2-.2-.18-.39-.18v-.12a7.08,7.08,0,0,0,.85-.18Zm.07,1.1a1.1,1.1,0,0,0,.12.63.76.76,0,0,0,.57.24c.63,0,.82-.61.82-1.14s-.17-1.12-.81-1.12a.66.66,0,0,0-.58.33,1.2,1.2,0,0,0-.12.65Z" transform="translate(-1.83 -1.21)" fill="#255faa"/><path d="M104,25.72a1.34,1.34,0,0,1-1.4,1.32,1.32,1.32,0,1,1,1.4-1.32Zm-2.21,0c0,.55.16,1.19.84,1.19s.79-.64.79-1.16-.16-1.2-.84-1.2S101.74,25.21,101.74,25.72Z" transform="translate(-1.83 -1.21)" fill="#255faa"/><path d="M104.5,25c-.09-.23-.14-.41-.41-.43v-.11l.62,0,.59,0v.11c-.12,0-.33,0-.33.19a1,1,0,0,0,.08.29l.56,1.4a11.59,11.59,0,0,0,.58-1.64c0-.19-.19-.22-.33-.24v-.11l.43,0,.42,0v.11a.37.37,0,0,0-.23.14,4.11,4.11,0,0,0-.3.67l-.69,1.69h-.12Z" transform="translate(-1.83 -1.21)" fill="#255faa"/><path d="M109.19,26.55a1.22,1.22,0,0,1-1,.49,1.25,1.25,0,0,1-1.31-1.25,1.35,1.35,0,0,1,1.3-1.38,1,1,0,0,1,1.11.95c0,.07-.08.05-.14.05h-1.67l0,.28c0,.55.29,1.17.91,1.17a1,1,0,0,0,.73-.43Zm-.75-1.3c.09,0,.28,0,.28-.11a.53.53,0,0,0-.56-.59c-.44,0-.61.33-.68.7Z" transform="translate(-1.83 -1.21)" fill="#255faa"/><path d="M110.13,25.6a4.11,4.11,0,0,0,0-.71c0-.2-.2-.18-.38-.18v-.12a4,4,0,0,0,.78-.18,1.6,1.6,0,0,1,.07.59h0a.92.92,0,0,1,.85-.59c.18,0,.41.09.41.3a.21.21,0,0,1-.21.21c-.24,0-.19-.3-.41-.3a.62.62,0,0,0-.46.29,1.63,1.63,0,0,0-.13.79v.58c0,.42-.05.56.44.58V27l-.67,0-.67,0v-.12c.44,0,.41-.17.41-.55Z" transform="translate(-1.83 -1.21)" fill="#255faa"/><path d="M112.1,24.67v-.11a1.46,1.46,0,0,0,.7-.73h.09v.68h.66v.16h-.66v1.65c0,.26,0,.54.36.54a.52.52,0,0,0,.42-.26l.1.07a.65.65,0,0,1-.67.37c-.42,0-.7-.16-.7-.6V24.67Z" transform="translate(-1.83 -1.21)" fill="#255faa"/><path d="M115.39,25.39c.06,0,0-.11,0-.17,0-.39,0-.67-.51-.67-.29,0-.53,0-.55.33a.24.24,0,0,1-.23.25.2.2,0,0,1-.22-.21c0-.43.77-.51,1.07-.51.64,0,.94.17.94.84v1c0,.14,0,.57.2.57s.18-.1.24-.18l.11,0A.65.65,0,0,1,116,27a.53.53,0,0,1-.5-.41,1.62,1.62,0,0,1-1,.41.55.55,0,0,1-.61-.51c0-.49.56-.69.93-.86Zm.19-1.5-.79-.34c-.14-.05-.36-.12-.36-.31a.2.2,0,0,1,.2-.2.44.44,0,0,1,.25.13l.91.72Zm-.14,1.64c-.34.17-1,.4-1,.86a.39.39,0,0,0,.38.42,1,1,0,0,0,.63-.33Z" transform="translate(-1.83 -1.21)" fill="#255faa"/><path d="M73.47,50.9c0,.53-.07.77.55.81v.16l-.87,0c-.32,0-.62,0-.93,0v-.16c.6,0,.56-.23.56-.76v-1c0-.55,0-1.33-.74-1.33a1,1,0,0,0-1,1.07V50.9c0,.53-.07.77.56.81v.16l-.87,0-.93,0v-.16c.6,0,.56-.23.56-.76V50a7.63,7.63,0,0,0,0-1c-.06-.28-.28-.25-.53-.25v-.16c.41-.05.71-.18,1.1-.25l.1.73h0a1.36,1.36,0,0,1,1.28-.73c.76,0,1.19.34,1.19,1.1Z" transform="translate(-1.83 -1.21)" fill="#255faa"/><path d="M77.85,51.28a1.82,1.82,0,0,1-3.23-1,1.85,1.85,0,0,1,1.8-1.9,1.37,1.37,0,0,1,1.52,1.3c0,.11-.12.07-.2.07H75.45l0,.39c0,.75.4,1.6,1.26,1.6a1.33,1.33,0,0,0,1-.59Zm-1-1.78c.13,0,.39,0,.39-.16a.73.73,0,0,0-.77-.82c-.6,0-.84.46-.94,1Z" transform="translate(-1.83 -1.21)" fill="#255faa"/><path d="M79.76,50.9c0,.53-.08.77.55.81v.16l-.91,0c-.3,0-.59,0-.88,0v-.16c.6,0,.56-.23.56-.76V47.89A3,3,0,0,0,79,47c-.1-.2-.34-.18-.52-.21v-.16l1.28-.25Z" transform="translate(-1.83 -1.21)" fill="#255faa"/><path d="M86.56,50.9c0,.53-.07.77.55.81v.16l-.87,0c-.31,0-.61,0-.92,0v-.16c.6,0,.56-.23.56-.76v-1c0-.55,0-1.33-.74-1.33a1,1,0,0,0-1,1.07V50.9c0,.53-.07.77.56.81v.16l-.87,0-.93,0v-.16c.6,0,.56-.23.56-.76V50a7.63,7.63,0,0,0,0-1c-.06-.28-.28-.25-.53-.25v-.16c.41-.05.71-.18,1.1-.25l.1.73h0a1.36,1.36,0,0,1,1.28-.73c.76,0,1.19.34,1.19,1.1Z" transform="translate(-1.83 -1.21)" fill="#255faa"/><path d="M91.55,50.14A1.84,1.84,0,0,1,89.63,52a1.81,1.81,0,1,1,1.92-1.82Zm-3,0c0,.75.22,1.63,1.16,1.63s1.08-.88,1.08-1.59-.21-1.66-1.15-1.66S88.51,49.44,88.51,50.14Z" transform="translate(-1.83 -1.21)" fill="#255faa"/><path d="M93.34,50.9c0,.53-.09.77.54.81v.16l-.87,0-.91,0v-.16c.6,0,.56-.23.56-.76V50a7.63,7.63,0,0,0,0-1c-.06-.28-.28-.25-.53-.25v-.16c.41-.05.71-.18,1.1-.25l.09.65a1.42,1.42,0,0,1,1.2-.65,1.06,1.06,0,0,1,1.1.65,1.37,1.37,0,0,1,1.21-.65,1.16,1.16,0,0,1,.93.38,1.76,1.76,0,0,1,.22,1.06V50.9c0,.53-.08.77.54.81v.16c-.29,0-.59,0-.89,0l-.88,0v-.16c.59,0,.54-.23.55-.76v-1c0-.55.06-1.34-.74-1.34a.91.91,0,0,0-.78.52,2.15,2.15,0,0,0-.1.82v1c0,.53-.09.77.54.81v.16l-.87,0-.9,0v-.16c.6,0,.54-.23.55-.76v-1c0-.55.06-1.34-.74-1.34a.91.91,0,0,0-.78.52,2.15,2.15,0,0,0-.1.82Z" transform="translate(-1.83 -1.21)" fill="#255faa"/><path d="M102.27,51.28a1.81,1.81,0,0,1-3.22-1,1.85,1.85,0,0,1,1.79-1.9,1.37,1.37,0,0,1,1.53,1.3c0,.11-.12.07-.2.07H99.88l0,.39c0,.75.39,1.6,1.25,1.6a1.31,1.31,0,0,0,1-.59Zm-1-1.78c.13,0,.4,0,.4-.16a.74.74,0,0,0-.78-.82c-.6,0-.84.46-.93,1Z" transform="translate(-1.83 -1.21)" fill="#255faa"/><path d="M108.2,52a2,2,0,0,1-.16-.61,1.48,1.48,0,0,1-1.24.61,1.68,1.68,0,0,1-1.7-1.77,1.76,1.76,0,0,1,1.7-1.85,1.46,1.46,0,0,1,1.14.5V47.57c0-.47,0-.73-.6-.75v-.16l1.28-.25v4a2.89,2.89,0,0,0,.08.83c.1.28.32.26.57.26v.16Zm-.26-2.55a.89.89,0,0,0-1-.81c-.86,0-1.09.9-1.09,1.59s.23,1.55,1.09,1.55,1-.57,1-1.2Z" transform="translate(-1.83 -1.21)" fill="#255faa"/><path d="M110.88,48.34V50.9c0,.53-.07.77.56.81v.16c-.27,0-.56,0-.85,0l-.94,0v-.16c.59,0,.55-.23.56-.76V49.81a6.41,6.41,0,0,0,0-.89c0-.2-.39-.18-.55-.17v-.16ZM110,46.92a.43.43,0,0,1,.86,0,.42.42,0,0,1-.41.42A.43.43,0,0,1,110,46.92Z" transform="translate(-1.83 -1.21)" fill="#255faa"/><path d="M118.73,48.21h-.17A1.52,1.52,0,0,0,117,46.67c-1.56,0-1.89,1.44-1.89,2.7s.46,2.37,1.82,2.37c.79,0,1.33-.37,1.33-1.2,0-.53-.2-.64-.69-.67v-.19h2.09v.19c-.43,0-.49.2-.49.6v.85a1.69,1.69,0,0,0-1.13.33,2.6,2.6,0,0,1-1.25.31,2.52,2.52,0,0,1-2.68-2.61A2.84,2.84,0,0,1,118.56,47l.17-.36h.09Z" transform="translate(-1.83 -1.21)" fill="#255faa"/><path d="M123.18,51.28a1.81,1.81,0,0,1-3.22-1,1.85,1.85,0,0,1,1.79-1.9,1.37,1.37,0,0,1,1.53,1.3c0,.11-.12.07-.2.07h-2.29l0,.39c0,.75.4,1.6,1.25,1.6a1.33,1.33,0,0,0,1-.59Zm-1-1.78c.12,0,.39,0,.39-.16a.73.73,0,0,0-.78-.82c-.6,0-.84.46-.93,1Z" transform="translate(-1.83 -1.21)" fill="#255faa"/><path d="M124,51.9h-.08l0-1.14h.16c.12.51.39,1,1,1,.36,0,.68-.17.68-.56s-.47-.63-.81-.81-1-.5-1-1.1a1,1,0,0,1,1-1,1.68,1.68,0,0,1,.78.2l.15-.19h.1l0,1h-.15c-.15-.4-.32-.83-.83-.83a.47.47,0,0,0-.51.44c0,.42.44.56.74.73.56.29,1.06.49,1.06,1.21A1.1,1.1,0,0,1,125.07,52a1.44,1.44,0,0,1-.87-.29Z" transform="translate(-1.83 -1.21)" fill="#255faa"/><path d="M127.94,50.59c0,.47,0,1.11.66,1.11a1.15,1.15,0,0,0,1.1-1.18V49.45c0-.61,0-.79-.61-.89V48.4l.66,0,.62,0V51c0,.22,0,.54.3.54l.3,0v.18l-1.11.29-.16-.75a1.67,1.67,0,0,1-1.34.75c-.8,0-1.1-.44-1.1-1.15V49.45c0-.61,0-.79-.61-.89v-.15c.23,0,.44,0,.67,0s.42,0,.62,0Zm1.55-3-1.08-.46c-.19-.08-.5-.17-.5-.43a.28.28,0,0,1,.27-.28.62.62,0,0,1,.35.18l1.25,1Z" transform="translate(-1.83 -1.21)" fill="#255faa"/><path d="M139.57,30.1v.46h.13c.28,0,.41-.08.41-.24a.17.17,0,0,0-.13-.18.66.66,0,0,0-.28,0Zm-.39,1.45V29.83h.42a2.72,2.72,0,0,1,.62.05.41.41,0,0,1,.3.41.33.33,0,0,1-.11.27.46.46,0,0,1-.29.13h0a.25.25,0,0,1,.21.18l.31.67h-.44L140,31a.24.24,0,0,0-.1-.13.26.26,0,0,0-.17-.05h-.13v.72Z" transform="translate(-1.83 -1.21)" fill="#255faa" fill-rule="evenodd"/><path d="M138.63,30.71a1.24,1.24,0,1,1,1.23,1.23,1.23,1.23,0,0,1-1.23-1.23Zm-.48,0a1.72,1.72,0,1,1,1.71,1.71,1.72,1.72,0,0,1-1.71-1.71Z" transform="translate(-1.83 -1.21)" fill="#255faa" fill-rule="evenodd"/></svg>