<?xml version="1.0" encoding="UTF-8"?>
<svg id="Calque_1" xmlns="http://www.w3.org/2000/svg" version="1.1" viewBox="0 0 138.9 52.4">
  <!-- Generator: Adobe Illustrator 29.3.0, SVG Export Plug-In . SVG Version: 2.1.0 Build 146)  -->
  <defs>
    <style>
      .st0 {
        fill-rule: evenodd;
      }

      .st0, .st1 {
        fill: #2a5eec;
      }
    </style>
  </defs>
  <path class="st1" d="M37.352.75"/>
  <path class="st1" d="M27.267,7.496c2.055.096,3.792-1.326,3.879-3.177.087-1.851-1.51-3.43-3.565-3.526-2.055-.096-3.792,1.326-3.879,3.177-.087,1.851,1.509,3.43,3.565,3.526Z"/>
  <path class="st1" d="M37.297.823s-1.929,3.415-6.232,5.859c-4.303,2.444-8.125,3.864-11.781,9.525,0,0,1.086-.501.334.713,0,0,.564-.533,1.044-.692,0,0,.293-.063.167.293,0,0,1.93-1.495,1.441-.773-.295.436,1.53-1.378,1.749-1.201,0,0,.063.11-.211.525,0,0,4.354-2.621,5.982-3.313,7.051-2.999,8.564-7.958,7.916-10.757,0,0-.026-.561-.41-.177Z"/>
  <path class="st1" d="M22.595,24.979s.303-7.352,4.877-11.112c4.574-3.76,8.94-3.07,10.757-3.196,0,0,3.718.104,5.577-.522,0,0,.272,3.279-8.856,4.846,0,0-3.008-.042-5.577,3.384,0,0-2.548,2.862-4.909,8.773,0,0-.021-.857-.355-.251l-.877,1.985-.031-1.87s-.157-.47-.366.178c0,0-.167.219.115-2.267,0,0-.073-.533-.355.052Z"/>
  <path class="st1" d="M19.393,27.953c-1.03-2.901-3.712-4.804-7.113-4.804-5.209,0-8.454,3.775-8.454,9.015,0,5.647,4.055,9.796,8.797,9.796,2.464,0,5.49-.842,7.612-4.618h.593c-.406,1.404-1.248,3.338-1.997,4.555-1.997-.281-3.369.842-7.05.842-6.333,0-10.887-4.18-10.887-9.951,0-6.052,4.679-10.419,11.199-10.419,3.931,0,5.615,1.248,6.582,1.248.343,0,.499-.094.562-.187h.468l.281,4.523h-.593Z"/>
  <path class="st1" d="M28.622,29.544c3.806,0,6.707,2.839,6.707,6.551,0,3.681-2.901,6.52-6.613,6.52-3.868,0-6.832-2.808-6.832-6.458,0-4.305,3.494-6.613,6.738-6.613ZM29.059,41.866c1.841,0,3.931-1.872,3.931-4.991,0-3.556-2.184-6.582-4.804-6.582-2.059,0-3.962,2.121-3.962,4.804,0,3.774,2.152,6.769,4.835,6.769Z"/>
  <path class="st1" d="M39.658,39.714c0,1.622.437,1.934,2.184,1.934v.593h-6.489v-.593c1.809,0,2.215-.811,2.215-2.403v-6.113c0-1.217-.187-1.498-.905-1.591l-1.217-.156v-.531l3.744-1.31h.468v2.495c2.246-1.591,4.305-2.495,5.553-2.495,1.529,0,2.652.967,2.964,2.495,2.09-1.31,3.993-2.495,5.522-2.495,2.246,0,3.12,1.716,3.12,4.71,0,1.996,0,4.087-.094,5.99,0,.654.375,1.403,1.653,1.403h.998v.593h-7.019v-.593h.281c.905,0,1.31-.156,1.591-.437.468-.468.499-2.277.499-4.43v-2.434c0-2.402-.811-3.556-2.34-3.556-.967,0-2.215.468-4.149,1.747v7.175c0,1.56.375,1.934,1.934,1.934v.593h-6.395v-.593c1.747,0,2.371-.624,2.371-2.403v-5.771c0-1.965-1.217-2.683-2.308-2.683-.873,0-2.059.406-4.18,1.809v7.113Z"/>
  <path class="st1" d="M62.135,47.483c0,1.559.78,2.028,2.09,2.028h.78v.593h-7.362v-.593h.312c1.591,0,2.09-.531,2.09-2.309v-14.351c0-.593-.125-.842-.873-1.029l-.998-.25v-.593l3.338-2.059h.624v2.995c1.934-1.466,3.587-2.277,4.835-2.277,2.433,0,4.617,2.745,4.617,5.802,0,3.775-3.057,7.019-6.613,7.019-.842,0-1.653-.187-2.839-.624v5.647ZM62.135,39.807c1.123.998,2.527,1.685,3.681,1.685,2.121,0,3.681-2.09,3.681-4.648,0-4.119-2.433-5.677-4.087-5.677-.967,0-2.153.561-3.276,1.528v7.113Z"/>
  <path class="st1" d="M72.931,33.6c-.062-.187-.093-.281-.093-.437,0-1.092,2.589-3.619,4.617-3.619.936,0,2.402.436,3.276,1.654.467.654.467,1.06.467,2.682v4.18c0,2.496,0,3.058.811,3.058.343,0,.749-.031,1.529-.686l.156.467c-1.685,1.373-2.558,1.716-3.089,1.716-1.279,0-1.404-1.404-1.435-1.903-2.153,1.778-2.776,1.903-3.618,1.903-1.809,0-2.902-1.029-2.902-2.558,0-1.903,1.685-2.557,3.681-3.057.655-.156,1.685-.531,2.777-1.185v-2.465c0-.873,0-1.373-.531-1.996-.405-.5-1.061-.905-1.747-.905-1.029,0-1.934.873-1.934,1.528,0,.187.031.312.156.593l-2.122,1.029ZM79.108,36.438c-.593.344-1.092.562-1.84.874-1.903.78-2.621,1.092-2.621,2.371,0,1.123.905,1.841,1.841,1.841.499,0,.874-.156,2.621-1.373v-3.712Z"/>
  <path class="st1" d="M85.039,39.09c.374,1.872,1.56,2.933,2.963,2.933,1.248,0,2.216-.936,2.216-2.06,0-.655-.156-1.06-.998-1.903-2.216-2.214-4.68-2.433-4.68-5.023,0-2.059,1.622-3.493,3.993-3.493.842,0,1.716.187,2.496.499l.062,2.839h-.531c-.218-1.591-1.247-2.589-2.495-2.589-1.03,0-1.903.717-1.903,1.746,0,2.745,5.803,3.213,5.803,7.019,0,2.028-1.685,3.557-3.868,3.557-.593,0-1.03-.094-1.373-.218-.343-.093-.593-.187-.842-.187-.187,0-.374.125-.53.374h-.468l-.343-3.494h.499Z"/>
  <path class="st1" d="M93.859,39.09c.374,1.872,1.56,2.933,2.964,2.933,1.247,0,2.214-.936,2.214-2.06,0-.655-.156-1.06-.998-1.903-2.214-2.214-4.679-2.433-4.679-5.023,0-2.059,1.622-3.493,3.993-3.493.842,0,1.716.187,2.496.499l.063,2.839h-.531c-.218-1.591-1.248-2.589-2.495-2.589-1.029,0-1.903.717-1.903,1.746,0,2.745,5.802,3.213,5.802,7.019,0,2.028-1.685,3.557-3.868,3.557-.593,0-1.03-.094-1.373-.218-.343-.093-.593-.187-.842-.187-.187,0-.375.125-.53.374h-.468l-.343-3.494h.499Z"/>
  <path class="st1" d="M106.422,39.87c0,1.092.593,1.778,2.247,1.778v.593h-6.926v-.593c1.903,0,2.589-.624,2.589-2.277v-6.271c0-1.217-.156-1.372-.967-1.528l-1.467-.281v-.499l4.056-1.404h.467v10.482Z"/>
  <path class="st1" d="M115.224,29.544c3.806,0,6.707,2.839,6.707,6.551,0,3.681-2.901,6.52-6.613,6.52-3.868,0-6.832-2.808-6.832-6.458,0-4.305,3.494-6.613,6.739-6.613ZM115.661,41.866c1.84,0,3.93-1.872,3.93-4.991,0-3.556-2.183-6.582-4.804-6.582-2.059,0-3.961,2.121-3.961,4.804,0,3.774,2.152,6.769,4.835,6.769Z"/>
  <path class="st1" d="M126.122,39.527c0,1.716.405,2.121,2.09,2.121v.593h-6.271v-.593c1.372,0,2.09-.749,2.09-1.966v-6.551c0-1.155-.124-1.373-.936-1.529l-1.061-.218v-.499l3.587-1.31h.5v2.433c2.09-1.31,3.837-2.464,5.365-2.464,2.121,0,3.338,1.559,3.338,4.68,0,4.149-.218,4.96-.25,6.177-.031.842.468,1.248,1.747,1.248h.686v.593h-6.707v-.593c.905-.031,1.435-.25,1.778-.592.593-.593.655-2.871.655-7.019,0-2.496-1.216-3.276-2.464-3.276-.998,0-2.527.874-4.148,1.996v6.77Z"/>
  <g>
    <path class="st1" d="M29.624,24.415c0-.181,0-.601-.057-.755-.074-.193-.306-.193-.488-.193v-.13c.272.006.539.017.811.023.289-.006.573-.017.863-.023v.13c-.181,0-.414,0-.488.193-.057.153-.057.573-.057.755v1.68c0,.726.114.845.834.845.267,0,.573.011.806-.142.284-.176.318-.392.369-.709h.142l-.051,1.004c-.096-.006-.199-.011-.295-.022-.976.017-1.958.017-2.934.022v-.13c.182,0,.414,0,.488-.193.057-.153.057-.574.057-.755v-1.601Z"/>
    <path class="st1" d="M33.488,24.585v1.822c.012.374-.051.544.397.573v.113c-.193-.006-.403-.017-.607-.022-.221.006-.442.017-.664.022v-.113c.42-.029.386-.165.392-.539v-.812c0-.108,0-.545-.023-.63-.04-.142-.278-.13-.392-.125v-.114l.896-.176ZM32.875,23.575c0-.17.136-.307.306-.307s.301.136.301.307c0,.165-.13.3-.289.3-.17,0-.318-.125-.318-.3Z"/>
    <path class="st1" d="M35.043,24.903c.215-.221.46-.318.772-.318.726,0,1.231.579,1.231,1.271,0,.715-.539,1.3-1.271,1.3-.301,0-.658-.125-.863-.363l-.273.329h-.079v-2.86c0-.142,0-.488-.057-.607-.068-.142-.238-.13-.369-.147v-.114l.908-.181v1.691ZM35.043,26.412c0,.38.21.59.613.59.647,0,.823-.585.823-1.129,0-.522-.187-1.107-.812-1.107-.199,0-.46.108-.556.295-.057.113-.068.278-.068.42v.93Z"/>
    <path class="st1" d="M39.736,26.673c-.267.329-.584.482-1.01.482-.703,0-1.282-.494-1.282-1.22,0-.709.539-1.351,1.277-1.351.556,0,1.084.312,1.084.925,0,.074-.085.051-.142.051h-1.629l-.023.272c0,.539.284,1.141.891,1.141.289,0,.545-.193.715-.42l.119.119ZM38.998,25.408c.091,0,.278.028.278-.114,0-.352-.193-.579-.551-.579-.425,0-.596.323-.664.692h.936ZM38.192,24.074l.885-.704c.068-.057.159-.131.25-.131.113,0,.198.091.198.199,0,.187-.221.244-.363.307l-.76.329h-.21Z"/>
    <path class="st1" d="M40.649,25.743c0-.153.006-.556-.034-.687-.051-.204-.193-.181-.375-.181v-.114c.267-.017.516-.119.766-.176.051.165.074.369.068.573h.011c.147-.346.431-.573.823-.573.176,0,.403.085.403.295,0,.108-.091.204-.199.204-.238,0-.187-.295-.409-.295-.17,0-.357.142-.442.284-.131.233-.131.511-.131.772v.562c0,.414-.045.55.431.573v.113c-.216-.006-.437-.017-.653-.022-.221.006-.437.017-.658.022v-.113c.425-.029.397-.165.397-.539v-.698Z"/>
    <path class="st1" d="M44.843,26.673c-.267.329-.584.482-1.01.482-.703,0-1.282-.494-1.282-1.22,0-.709.539-1.351,1.277-1.351.556,0,1.084.312,1.084.925,0,.074-.085.051-.142.051h-1.629l-.023.272c0,.539.284,1.141.891,1.141.289,0,.545-.193.715-.42l.119.119ZM44.105,25.408c.091,0,.278.028.278-.114,0-.352-.193-.579-.551-.579-.425,0-.596.323-.664.692h.937Z"/>
    <path class="st1" d="M45.756,25.743c0-.153.006-.556-.034-.687-.051-.204-.193-.181-.375-.181v-.114c.267-.017.516-.119.766-.176.051.165.074.369.068.573h.011c.148-.346.431-.573.823-.573.176,0,.403.085.403.295,0,.108-.091.204-.199.204-.238,0-.187-.295-.409-.295-.17,0-.357.142-.442.284-.13.233-.13.511-.13.772v.562c0,.414-.046.55.431.573v.113c-.216-.006-.437-.017-.653-.022-.221.006-.437.017-.658.022v-.113c.425-.029.397-.165.397-.539v-.698Z"/>
    <path class="st1" d="M49.944,26.407c.012.374-.051.544.397.573v.113c-.221-.006-.437-.017-.653-.022-.21.006-.414.017-.624.022v-.113c.426-.029.397-.165.397-.539v-2.179c0-.142,0-.488-.057-.607-.068-.142-.238-.13-.369-.147v-.114l.908-.181v3.195Z"/>
    <path class="st1" d="M53.014,26.673c-.267.329-.584.482-1.01.482-.704,0-1.283-.494-1.283-1.22,0-.709.539-1.351,1.277-1.351.556,0,1.084.312,1.084.925,0,.074-.085.051-.142.051h-1.629l-.023.272c0,.539.284,1.141.891,1.141.289,0,.545-.193.715-.42l.119.119ZM52.276,25.408c.091,0,.278.028.278-.114,0-.352-.193-.579-.55-.579-.426,0-.596.323-.664.692h.936Z"/>
    <path class="st1" d="M53.593,27.116h-.057l-.023-.811h.114c.091.363.284.72.704.72.25,0,.477-.125.477-.397,0-.323-.329-.454-.573-.579-.329-.171-.681-.358-.681-.783,0-.391.312-.681.704-.681.176,0,.392.051.55.142l.113-.136h.068l-.012.709h-.113c-.102-.284-.227-.584-.585-.584-.187,0-.363.108-.363.312,0,.295.312.397.528.516.392.204.749.352.749.863,0,.465-.397.749-.834.749-.216,0-.454-.068-.624-.205l-.142.165Z"/>
    <path class="st1" d="M59.369,26.673c-.267.329-.584.482-1.01.482-.704,0-1.282-.494-1.282-1.22,0-.709.539-1.351,1.277-1.351.556,0,1.084.312,1.084.925,0,.074-.085.051-.142.051h-1.628l-.023.272c0,.539.284,1.141.891,1.141.289,0,.545-.193.715-.42l.119.119ZM58.632,25.408c.091,0,.278.028.278-.114,0-.352-.193-.579-.55-.579-.426,0-.596.323-.664.692h.936Z"/>
    <path class="st1" d="M62.496,26.407c0,.374-.046.544.397.573v.113c-.204-.006-.414-.017-.619-.022-.221.006-.437.017-.658.022v-.113c.426-.029.397-.165.397-.539v-.726c0-.392.017-.948-.522-.948-.443,0-.726.346-.726.76v.88c0,.374-.051.544.397.573v.113c-.204-.006-.414-.017-.619-.022-.221.006-.437.017-.658.022v-.113c.426-.029.397-.165.397-.539v-.698c0-.159,0-.556-.028-.687-.045-.204-.199-.181-.38-.181v-.114c.295-.034.505-.125.783-.176l.074.516h.011c.199-.352.505-.516.908-.516.539,0,.845.244.845.783v1.039Z"/>
    <path class="st1" d="M63.177,24.914v-.153h.454v-.306c0-.732.267-1.186,1.055-1.186.21,0,.692.062.692.358,0,.102-.097.181-.199.181-.113,0-.164-.074-.199-.159-.062-.165-.131-.25-.329-.25-.216,0-.369.068-.454.272-.085.204-.085.477-.085.698v.392h.698v.153h-.698v1.504c0,.142.023.278.051.352.085.233.363.199.567.21v.113c-.273-.006-.539-.017-.811-.022-.261.006-.516.017-.777.022v-.113c.499-.029.488-.181.488-.624v-1.441h-.454Z"/>
    <path class="st1" d="M66.565,25.538c.057-.028.046-.102.046-.165,0-.386-.034-.658-.499-.658-.284,0-.516.023-.533.323-.012.125-.085.25-.227.25-.125,0-.216-.08-.216-.204,0-.42.755-.499,1.044-.499.63,0,.919.165.919.817v.936c0,.142-.023.562.199.562.114,0,.17-.102.233-.181l.108.057c-.091.187-.301.38-.511.38-.233,0-.431-.176-.488-.403-.267.216-.596.403-.948.403-.301,0-.59-.182-.59-.499,0-.477.539-.681.902-.846l.562-.272ZM66.616,25.68c-.34.165-.987.386-.987.84,0,.21.131.409.363.409.221,0,.465-.17.624-.324v-.925Z"/>
    <path class="st1" d="M70.44,26.407c0,.374-.045.544.397.573v.113c-.204-.006-.414-.017-.618-.022-.221.006-.437.017-.658.022v-.113c.426-.029.397-.165.397-.539v-.726c0-.392.017-.948-.522-.948-.442,0-.726.346-.726.76v.88c0,.374-.051.544.397.573v.113c-.204-.006-.414-.017-.618-.022-.222.006-.437.017-.658.022v-.113c.426-.029.397-.165.397-.539v-.698c0-.159,0-.556-.028-.687-.045-.204-.199-.181-.38-.181v-.114c.295-.034.505-.125.783-.176l.074.516h.011c.199-.352.505-.516.908-.516.539,0,.845.244.845.783v1.039Z"/>
    <path class="st1" d="M71.291,24.835v-.102c.284-.165.568-.392.687-.715h.085v.664h.647v.153h-.647v1.617c0,.255.051.522.352.522.199,0,.301-.113.409-.255l.102.074c-.102.272-.386.363-.658.363-.409,0-.686-.159-.686-.585v-1.736h-.29Z"/>
    <path class="st1" d="M73.113,27.116h-.057l-.023-.811h.113c.091.363.283.72.704.72.25,0,.477-.125.477-.397,0-.323-.329-.454-.573-.579-.329-.171-.681-.358-.681-.783,0-.391.313-.681.704-.681.175,0,.391.051.55.142l.114-.136h.068l-.012.709h-.113c-.102-.284-.227-.584-.585-.584-.187,0-.363.108-.363.312,0,.295.312.397.528.516.391.204.749.352.749.863,0,.465-.397.749-.835.749-.215,0-.454-.068-.624-.205l-.142.165Z"/>
    <path class="st1" d="M78.793,27.156c-.063-.131-.096-.278-.114-.431-.244.295-.499.431-.885.431-.715,0-1.209-.551-1.209-1.254,0-.692.488-1.317,1.209-1.317.312,0,.607.114.812.352v-.896c0-.34-.017-.522-.425-.534v-.114l.908-.181v2.866c0,.159,0,.442.056.59.074.199.227.187.409.187v.114l-.76.187ZM78.606,25.345c0-.357-.346-.579-.676-.579-.612,0-.777.641-.777,1.135,0,.511.165,1.101.777,1.101.511,0,.676-.403.676-.851v-.806Z"/>
    <path class="st1" d="M82.181,26.673c-.267.329-.584.482-1.01.482-.704,0-1.283-.494-1.283-1.22,0-.709.539-1.351,1.277-1.351.556,0,1.083.312,1.083.925,0,.074-.085.051-.142.051h-1.629l-.023.272c0,.539.283,1.141.891,1.141.29,0,.545-.193.715-.42l.119.119ZM81.443,25.408c.091,0,.278.028.278-.114,0-.352-.193-.579-.55-.579-.426,0-.596.323-.664.692h.937Z"/>
    <path class="st1" d="M85.013,26.407c.011.374-.052.544.397.573v.113c-.221-.006-.437-.017-.653-.022-.21.006-.414.017-.624.022v-.113c.426-.029.397-.165.397-.539v-2.179c0-.142,0-.488-.057-.607-.068-.142-.238-.13-.369-.147v-.114l.909-.181v3.195Z"/>
    <path class="st1" d="M87.219,25.538c.057-.028.046-.102.046-.165,0-.386-.035-.658-.499-.658-.284,0-.517.023-.534.323-.011.125-.085.25-.227.25-.125,0-.215-.08-.215-.204,0-.42.754-.499,1.044-.499.63,0,.919.165.919.817v.936c0,.142-.023.562.199.562.113,0,.17-.102.232-.181l.107.057c-.091.187-.301.38-.51.38-.233,0-.431-.176-.488-.403-.267.216-.596.403-.948.403-.301,0-.59-.182-.59-.499,0-.477.539-.681.902-.846l.562-.272ZM87.271,25.68c-.341.165-.987.386-.987.84,0,.21.13.409.363.409.221,0,.466-.17.624-.324v-.925Z"/>
    <path class="st1" d="M90.727,25.056h.011c.21-.301.471-.471.84-.471.749,0,1.259.562,1.259,1.299,0,.693-.51,1.271-1.225,1.271-.335,0-.574-.102-.817-.323v1.101c0,.409-.04.556.437.579v.114c-.21-.006-.421-.017-.63-.022-.227.006-.454.017-.681.022v-.114c.426-.028.392-.17.392-.545v-2.224c0-.159,0-.556-.028-.687-.046-.204-.199-.181-.38-.181v-.114c.284-.04.562-.114.823-.176v.471ZM90.795,26.129c0,.193,0,.471.125.619.131.153.352.227.556.227.613,0,.794-.596.794-1.106,0-.516-.165-1.101-.783-1.101-.238,0-.454.119-.573.323-.119.204-.119.403-.119.635v.403Z"/>
    <path class="st1" d="M94.71,25.538c.057-.028.046-.102.046-.165,0-.386-.034-.658-.5-.658-.283,0-.516.023-.533.323-.011.125-.085.25-.227.25-.124,0-.215-.08-.215-.204,0-.42.755-.499,1.044-.499.63,0,.919.165.919.817v.936c0,.142-.022.562.199.562.114,0,.17-.102.233-.181l.108.057c-.091.187-.301.38-.511.38-.232,0-.431-.176-.487-.403-.267.216-.596.403-.948.403-.301,0-.59-.182-.59-.499,0-.477.539-.681.903-.846l.561-.272ZM94.761,25.68c-.341.165-.987.386-.987.84,0,.21.13.409.363.409.221,0,.466-.17.624-.324v-.925Z"/>
    <path class="st1" d="M96.798,26.185c0,.335.028.789.471.789.448,0,.777-.403.777-.84v-.76c0-.431.034-.562-.431-.63v-.114c.159.012.312.017.471.028.147-.011.301-.017.442-.028v1.827c0,.153,0,.38.21.38.068,0,.142-.011.215-.017v.13l-.789.205-.119-.533c-.204.312-.567.533-.948.533-.573,0-.783-.312-.783-.812v-.97c0-.431.034-.562-.432-.63v-.108c.16.006.312.017.471.023.147-.006.3-.017.442-.023v1.549Z"/>
    <path class="st1" d="M99.386,25.17c-.09-.221-.136-.403-.402-.42v-.113c.204.006.402.017.607.023.193-.006.386-.011.578-.023v.113c-.119.006-.323.028-.323.187,0,.08.052.21.074.278l.55,1.367c.103-.306.567-1.333.567-1.6,0-.187-.187-.215-.323-.233v-.113c.142.006.278.017.42.023.136-.006.272-.017.409-.023v.113c-.097.023-.159.057-.222.136-.091.119-.238.499-.295.658l-.67,1.651h-.119l-.851-2.026Z"/>
    <path class="st1" d="M102.047,25.743c0-.153.006-.556-.034-.687-.051-.204-.192-.181-.374-.181v-.114c.267-.017.516-.119.765-.176.051.165.074.369.068.573h.011c.148-.346.432-.573.823-.573.176,0,.403.085.403.295,0,.108-.091.204-.199.204-.239,0-.187-.295-.409-.295-.171,0-.358.142-.443.284-.13.233-.13.511-.13.772v.562c0,.414-.046.55.432.573v.113c-.216-.006-.437-.017-.654-.022-.221.006-.437.017-.658.022v-.113c.426-.029.397-.165.397-.539v-.698Z"/>
    <path class="st1" d="M106.24,26.673c-.267.329-.585.482-1.01.482-.704,0-1.282-.494-1.282-1.22,0-.709.539-1.351,1.276-1.351.556,0,1.084.312,1.084.925,0,.074-.085.051-.142.051h-1.629l-.023.272c0,.539.284,1.141.891,1.141.29,0,.545-.193.715-.42l.119.119ZM105.503,25.408c.091,0,.278.028.278-.114,0-.352-.193-.579-.55-.579-.426,0-.596.323-.664.692h.936Z"/>
    <path class="st1" d="M106.814,24.835v-.102c.283-.165.567-.392.687-.715h.085v.664h.647v.153h-.647v1.617c0,.255.052.522.352.522.199,0,.301-.113.409-.255l.102.074c-.102.272-.386.363-.658.363-.409,0-.686-.159-.686-.585v-1.736h-.29Z"/>
    <path class="st1" d="M110.894,26.673c-.267.329-.585.482-1.01.482-.703,0-1.283-.494-1.283-1.22,0-.709.539-1.351,1.277-1.351.556,0,1.084.312,1.084.925,0,.074-.085.051-.142.051h-1.629l-.023.272c0,.539.284,1.141.891,1.141.289,0,.545-.193.715-.42l.119.119ZM110.156,25.408c.091,0,.278.028.278-.114,0-.352-.192-.579-.55-.579-.426,0-.595.323-.664.692h.937ZM109.35,24.074l.885-.704c.068-.057.159-.131.25-.131.114,0,.199.091.199.199,0,.187-.222.244-.364.307l-.761.329h-.21Z"/>
  </g>
  <g>
    <path class="st1" d="M70.278,47.906c.082-.041.066-.147.066-.237,0-.554-.049-.947-.718-.947-.408,0-.742.033-.767.465-.016.18-.122.36-.326.36-.179,0-.31-.114-.31-.294,0-.604,1.085-.718,1.501-.718.905,0,1.322.236,1.322,1.174v1.346c0,.204-.033.808.285.808.163,0,.245-.147.334-.261l.155.081c-.131.27-.432.547-.734.547-.335,0-.62-.253-.702-.579-.383.309-.856.579-1.362.579-.432,0-.848-.261-.848-.718,0-.685.775-.978,1.297-1.216l.807-.391ZM70.352,48.11c-.489.237-1.419.555-1.419,1.207,0,.302.188.587.522.587.318,0,.669-.244.897-.465v-1.33Z"/>
    <path class="st1" d="M73.199,48.835c0,.482.041,1.134.677,1.134.645,0,1.118-.579,1.118-1.207v-1.094c0-.619.049-.807-.62-.906v-.162c.228.016.449.024.677.04.213-.016.432-.025.637-.04v2.626c0,.22,0,.547.302.547.097,0,.204-.016.309-.025v.188l-1.134.294-.171-.767c-.294.449-.816.767-1.362.767-.825,0-1.126-.448-1.126-1.166v-1.395c0-.619.049-.807-.62-.906v-.154c.228.008.449.024.677.032.212-.008.432-.025.636-.032v2.226Z"/>
    <path class="st1" d="M82.457,49.154c0,.538-.066.783.571.824v.163c-.294-.008-.596-.025-.889-.033-.318.008-.628.025-.946.033v-.163c.612-.041.571-.237.571-.775v-1.044c0-.562.025-1.363-.75-1.363-.636,0-1.044.498-1.044,1.093v1.265c0,.538-.073.783.571.824v.163c-.294-.008-.596-.025-.889-.033-.319.008-.628.025-.947.033v-.163c.612-.041.571-.237.571-.775v-1.003c0-.229,0-.8-.041-.987-.065-.294-.285-.261-.547-.261v-.163c.424-.049.726-.179,1.126-.253l.106.742h.017c.285-.506.726-.742,1.305-.742.775,0,1.216.351,1.216,1.126v1.493Z"/>
    <path class="st1" d="M87.482,48.371c0,1.101-.897,1.859-1.966,1.859-1.06,0-1.958-.816-1.958-1.892,0-1.044.963-1.803,1.958-1.803,1.012,0,1.966.783,1.966,1.835ZM84.374,48.371c0,.775.228,1.672,1.183,1.672.889,0,1.109-.897,1.109-1.623,0-.784-.22-1.698-1.183-1.698-.889,0-1.109.939-1.109,1.648Z"/>
    <path class="st1" d="M89.227,49.154c.009.538-.089.783.547.824v.163c-.294-.008-.587-.025-.88-.033-.31.008-.621.025-.93.033v-.163c.612-.041.571-.237.571-.775v-1.003c0-.229,0-.8-.041-.987-.065-.294-.285-.261-.547-.261v-.163c.425-.049.727-.179,1.126-.253l.089.66c.31-.415.702-.66,1.232-.66.482,0,.954.171,1.118.66.285-.432.718-.66,1.24-.66.359,0,.718.098.954.391.22.269.22.742.22,1.077v1.15c.008.538-.081.783.554.824v.163c-.301-.008-.603-.025-.905-.033-.302.008-.603.025-.906.033v-.163c.603-.041.555-.237.562-.775v-1.028c0-.571.066-1.378-.758-1.378-.334,0-.653.237-.791.539-.106.236-.106.538-.106.84v.979c.017.538-.09.783.555.824v.163c-.294-.008-.596-.025-.89-.033-.309.008-.612.025-.922.033v-.163c.613-.041.555-.237.563-.775v-1.028c0-.571.065-1.378-.759-1.378-.335,0-.653.237-.791.539-.107.236-.107.538-.107.84v.979Z"/>
    <path class="st1" d="M100.175,50.23c-.09-.187-.139-.4-.163-.62-.351.425-.718.62-1.272.62-1.028,0-1.738-.791-1.738-1.802,0-.995.701-1.893,1.738-1.893.449,0,.872.163,1.166.506v-1.289c0-.489-.025-.75-.612-.767v-.163l1.305-.261v4.119c0,.228,0,.636.082.848.106.286.326.27.587.27v.162l-1.092.269ZM99.905,47.629c0-.514-.497-.832-.971-.832-.881,0-1.118.922-1.118,1.632,0,.734.237,1.582,1.118,1.582.734,0,.971-.579.971-1.223v-1.158Z"/>
    <path class="st1" d="M104.962,49.537c-.383.473-.841.693-1.452.693-1.011,0-1.844-.71-1.844-1.754,0-1.019.775-1.941,1.835-1.941.8,0,1.558.448,1.558,1.329,0,.106-.122.074-.203.074h-2.341l-.032.391c0,.775.408,1.64,1.281,1.64.415,0,.783-.277,1.028-.603l.171.171ZM103.902,47.718c.131,0,.4.041.4-.163,0-.506-.277-.833-.791-.833-.612,0-.856.465-.954.996h1.346Z"/>
    <path class="st1" d="M109.188,50.475c-.017.4-.058.824-.278,1.15-.342.514-.864.644-1.444.644-.375,0-1.281-.057-1.281-.595,0-.188.147-.319.335-.319.212,0,.326.163.408.343.106.269.237.391.547.391.473,0,.726-.22.824-.685.025-.114.049-.31.049-.53v-5.188c0-.196-.041-.384-.081-.482-.114-.278-.441-.278-.702-.278v-.187c.392.008.783.024,1.175.032.408-.008.816-.024,1.232-.032v.187c-.261,0-.579.009-.702.278-.081.179-.081.604-.081.905v4.364Z"/>
    <path class="st1" d="M113.69,49.537c-.383.473-.84.693-1.452.693-1.011,0-1.844-.71-1.844-1.754,0-1.019.775-1.941,1.836-1.941.799,0,1.558.448,1.558,1.329,0,.106-.122.074-.204.074h-2.341l-.033.391c0,.775.408,1.64,1.281,1.64.415,0,.783-.277,1.028-.603l.171.171ZM112.63,47.718c.131,0,.4.041.4-.163,0-.506-.277-.833-.791-.833-.612,0-.857.465-.954.996h1.346ZM111.472,45.801l1.272-1.011c.098-.082.228-.188.359-.188.163,0,.285.13.285.285,0,.269-.318.351-.521.441l-1.093.473h-.302Z"/>
    <path class="st1" d="M114.441,50.174h-.081l-.033-1.167h.163c.131.521.408,1.036,1.011,1.036.36,0,.685-.179.685-.571,0-.465-.473-.653-.824-.832-.473-.245-.979-.514-.979-1.126,0-.563.449-.979,1.011-.979.253,0,.563.074.791.204l.163-.196h.097l-.016,1.02h-.163c-.147-.408-.326-.841-.84-.841-.269,0-.521.155-.521.449,0,.425.448.571.758.742.563.293,1.077.506,1.077,1.24,0,.669-.571,1.076-1.199,1.076-.309,0-.653-.097-.897-.294l-.204.237Z"/>
    <path class="st1" d="M118.389,48.835c0,.482.041,1.134.677,1.134.645,0,1.118-.579,1.118-1.207v-1.094c0-.619.048-.807-.62-.906v-.162c.228.016.448.024.677.04.212-.016.432-.025.636-.04v2.626c0,.22,0,.547.302.547.098,0,.204-.016.31-.025v.188l-1.134.294-.171-.767c-.294.449-.816.767-1.363.767-.824,0-1.126-.448-1.126-1.166v-1.395c0-.619.049-.807-.62-.906v-.154c.228.008.449.024.677.032.213-.008.433-.025.637-.032v2.226Z"/>
    <path class="st1" d="M121.945,50.174h-.081l-.033-1.167h.163c.131.521.408,1.036,1.012,1.036.359,0,.685-.179.685-.571,0-.465-.473-.653-.824-.832-.473-.245-.978-.514-.978-1.126,0-.563.448-.979,1.011-.979.253,0,.562.074.791.204l.163-.196h.098l-.017,1.02h-.162c-.147-.408-.326-.841-.841-.841-.269,0-.522.155-.522.449,0,.425.449.571.758.742.563.293,1.077.506,1.077,1.24,0,.669-.571,1.076-1.199,1.076-.31,0-.652-.097-.897-.294l-.204.237Z"/>
  </g>
  <path class="st0" d="M135.691,28.946v.453h.127c.27,0,.405-.078.405-.234,0-.09-.044-.151-.131-.186-.059-.023-.15-.033-.274-.033h-.127ZM135.307,30.364v-1.683h.415c.294,0,.496.017.605.053.199.063.297.197.297.402,0,.101-.036.188-.107.26s-.167.116-.288.13v.005c.084.006.152.064.203.174l.307.659h-.427l-.231-.526c-.029-.066-.061-.11-.093-.133-.039-.027-.096-.041-.173-.041h-.124v.699h-.384Z"/>
  <path class="st0" d="M134.766,29.539c0-.669.543-1.211,1.212-1.211s1.211.542,1.211,1.211-.542,1.212-1.211,1.212-1.212-.543-1.212-1.212h0ZM134.299,29.539c0-.927.751-1.679,1.678-1.679s1.679.752,1.679,1.679-.752,1.679-1.679,1.679-1.678-.751-1.678-1.679h0Z"/>
</svg>