<?xml version="1.0" encoding="UTF-8"?>
<svg id="Calque_1" xmlns="http://www.w3.org/2000/svg" xmlns:xlink="http://www.w3.org/1999/xlink" version="1.1" viewBox="0 0 138.9 52.4">
  <!-- Generator: Adobe Illustrator 29.3.0, SVG Export Plug-In . SVG Version: 2.1.0 Build 146)  -->
  <defs>
    <style>
      .st0 {
        fill-rule: evenodd;
      }

      .st0, .st1, .st2 {
        fill: #2a5eec;
      }

      .st2 {
        clip-rule: evenodd;
      }

      .st3 {
        clip-path: url(#clippath);
      }
    </style>
    <clipPath id="clippath">
      <path class="st2" d="M29.417,12.829c-.712.409-1.354.854-1.923,1.353-1.05.908-1.922,2.065-2.616,3.453-.694,1.263-1.228,2.847-1.655,4.751-.196.908-.32,1.762-.356,2.581l.463-.641c-.142.854-.231,1.797-.249,2.811.214-.374.356-.622.463-.765l-.053,2.456,1.014-2.456c.071.214.124.445.196.712.623-1.441,1.157-2.634,1.637-3.577.481-1.014.979-1.904,1.459-2.669.463-.765.997-1.513,1.566-2.225.516-.641,1.174-1.406,1.975-2.242.143-.196.979-.57,1.032-.587.356-.124.801-.267,1.37-.409.267-.071.908-.213,1.887-.463.854-.196,1.548-.392,2.082-.516,1.655-.463,2.919-.961,3.826-1.495,1.157-.712,1.833-1.53,1.993-2.491-1.121.249-2.242.409-3.399.48-.623.036-1.548.053-2.812.053-1.103,0-1.958.018-2.563.089-.925.107-1.833.285-2.705.605-.979.338-1.85.73-2.633,1.192h0ZM24.433,14.573l-.516.765c.391-.338,1.121-.783,2.153-1.335.694-.374,2.385-1.264,5.072-2.634,2.029-1.05,3.702-2.616,5.001-4.698.427-.676.801-1.37,1.103-2.1.178-.427.32-.801.409-1.103.036-.124.053-.356.053-.641.018-.32,0-.641-.036-.89-.036-.32-.089-.534-.178-.641-.107-.107-.232-.053-.356.16-.943,1.299-2.065,2.527-3.382,3.648-1.406,1.175-2.954,2.189-4.663,3.061-2.136,1.05-3.88,2.153-5.25,3.292-1.353,1.103-2.599,2.474-3.755,4.093-.143.213-.267.498-.374.89.178-.125.391-.16.659-.125l-.409.819.659-.534c.213-.178.409-.303.605-.356l-.16.569c.427-.427.997-.836,1.655-1.263l-.231.569c.303-.303.605-.569.907-.783l1.032-.765h0ZM24.629,2.792c-.249.338-.427.712-.516,1.121-.124.409-.124.836-.018,1.281.089.427.285.819.534,1.174.267.356.587.623.997.872.392.231.801.374,1.264.48.481.089.943.089,1.442.018.463-.107.908-.249,1.317-.498.374-.231.712-.516.979-.872.267-.338.427-.73.516-1.121.107-.409.125-.837.018-1.264-.089-.445-.267-.836-.534-1.192-.267-.338-.605-.623-.997-.872-.391-.231-.801-.391-1.264-.498-.48-.089-.961-.089-1.442,0-.48.071-.907.249-1.317.481-.391.231-.712.534-.979.89h0Z"/>
    </clipPath>
  </defs>
  <g>
    <path class="st0" d="M29.417,12.829c-.712.409-1.354.854-1.923,1.353-1.05.908-1.922,2.065-2.616,3.453-.694,1.263-1.228,2.847-1.655,4.751-.196.908-.32,1.762-.356,2.581l.463-.641c-.142.854-.231,1.797-.249,2.811.214-.374.356-.622.463-.765l-.053,2.456,1.014-2.456c.071.214.124.445.196.712.623-1.441,1.157-2.634,1.637-3.577.481-1.014.979-1.904,1.459-2.669.463-.765.997-1.513,1.566-2.225.516-.641,1.174-1.406,1.975-2.242.143-.196.979-.57,1.032-.587.356-.124.801-.267,1.37-.409.267-.071.908-.213,1.887-.463.854-.196,1.548-.392,2.082-.516,1.655-.463,2.919-.961,3.826-1.495,1.157-.712,1.833-1.53,1.993-2.491-1.121.249-2.242.409-3.399.48-.623.036-1.548.053-2.812.053-1.103,0-1.958.018-2.563.089-.925.107-1.833.285-2.705.605-.979.338-1.85.73-2.633,1.192h0ZM24.433,14.573l-.516.765c.391-.338,1.121-.783,2.153-1.335.694-.374,2.385-1.264,5.072-2.634,2.029-1.05,3.702-2.616,5.001-4.698.427-.676.801-1.37,1.103-2.1.178-.427.32-.801.409-1.103.036-.124.053-.356.053-.641.018-.32,0-.641-.036-.89-.036-.32-.089-.534-.178-.641-.107-.107-.232-.053-.356.16-.943,1.299-2.065,2.527-3.382,3.648-1.406,1.175-2.954,2.189-4.663,3.061-2.136,1.05-3.88,2.153-5.25,3.292-1.353,1.103-2.599,2.474-3.755,4.093-.143.213-.267.498-.374.89.178-.125.391-.16.659-.125l-.409.819.659-.534c.213-.178.409-.303.605-.356l-.16.569c.427-.427.997-.836,1.655-1.263l-.231.569c.303-.303.605-.569.907-.783l1.032-.765h0ZM24.629,2.792c-.249.338-.427.712-.516,1.121-.124.409-.124.836-.018,1.281.089.427.285.819.534,1.174.267.356.587.623.997.872.392.231.801.374,1.264.48.481.089.943.089,1.442.018.463-.107.908-.249,1.317-.498.374-.231.712-.516.979-.872.267-.338.427-.73.516-1.121.107-.409.125-.837.018-1.264-.089-.445-.267-.836-.534-1.192-.267-.338-.605-.623-.997-.872-.391-.231-.801-.391-1.264-.498-.48-.089-.961-.089-1.442,0-.48.071-.907.249-1.317.481-.391.231-.712.534-.979.89h0Z"/>
    <g class="st3">
      <rect class="st1" x="34.575" y="-7.492" width="3.705" height="20.386" transform="translate(15.875 32.898) rotate(-60)"/>
      <rect class="st1" x="32.708" y="-4.257" width="3.705" height="20.386" transform="translate(12.14 32.898) rotate(-60)"/>
      <rect class="st1" x="33.392" y="-2.673" width=".524" height="20.415" transform="translate(10.302 32.912) rotate(-59.999)"/>
      <rect class="st1" x="33.143" y="-2.242" width=".524" height="20.415" transform="translate(9.804 32.912) rotate(-60)"/>
      <rect class="st1" x="32.895" y="-1.811" width=".524" height="20.415" transform="translate(9.307 32.913) rotate(-60)"/>
      <rect class="st1" x="32.646" y="-1.38" width=".524" height="20.415" transform="translate(8.809 32.913) rotate(-60)"/>
      <rect class="st1" x="32.397" y="-.949" width=".524" height="20.415" transform="translate(8.312 32.913) rotate(-60)"/>
      <rect class="st1" x="32.148" y="-.518" width=".524" height="20.415" transform="translate(7.814 32.912) rotate(-60)"/>
      <rect class="st1" x="31.899" y="-.087" width=".524" height="20.415" transform="translate(7.316 32.912) rotate(-60)"/>
      <rect class="st1" x="31.65" y=".344" width=".524" height="20.415" transform="translate(6.819 32.912) rotate(-60)"/>
      <rect class="st1" x="31.402" y=".775" width=".524" height="20.415" transform="translate(6.321 32.912) rotate(-60)"/>
      <rect class="st1" x="31.153" y="1.205" width=".524" height="20.415" transform="translate(5.824 32.912) rotate(-60)"/>
      <rect class="st1" x="30.904" y="1.636" width=".524" height="20.415" transform="translate(5.326 32.912) rotate(-60)"/>
      <rect class="st1" x="30.655" y="2.067" width=".524" height="20.415" transform="translate(4.828 32.912) rotate(-60)"/>
      <rect class="st1" x="30.406" y="2.498" width=".524" height="20.415" transform="translate(4.331 32.913) rotate(-60)"/>
      <rect class="st1" x="30.158" y="2.929" width=".524" height="20.415" transform="translate(3.833 32.913) rotate(-60)"/>
      <rect class="st1" x="29.909" y="3.36" width=".524" height="20.415" transform="translate(3.335 32.912) rotate(-60)"/>
      <rect class="st1" x="29.66" y="3.791" width=".524" height="20.415" transform="translate(2.838 32.912) rotate(-60)"/>
      <rect class="st1" x="29.411" y="4.222" width=".524" height="20.415" transform="translate(2.34 32.912) rotate(-60)"/>
      <rect class="st1" x="29.162" y="4.653" width=".524" height="20.415" transform="translate(1.843 32.912) rotate(-60)"/>
      <rect class="st1" x="28.914" y="5.084" width=".524" height="20.415" transform="translate(1.345 32.912) rotate(-60)"/>
      <rect class="st1" x="28.665" y="5.515" width=".524" height="20.415" transform="translate(.847 32.912) rotate(-60)"/>
      <rect class="st1" x="28.416" y="5.946" width=".524" height="20.415" transform="translate(.35 32.913) rotate(-60)"/>
      <rect class="st1" x="28.167" y="6.377" width=".524" height="20.415" transform="translate(-.148 32.913) rotate(-60)"/>
      <rect class="st1" x="27.918" y="6.808" width=".524" height="20.415" transform="translate(-.646 32.912) rotate(-59.999)"/>
      <rect class="st1" x="27.669" y="7.239" width=".524" height="20.415" transform="translate(-1.143 32.912) rotate(-60)"/>
      <rect class="st1" x="27.421" y="7.67" width=".524" height="20.415" transform="translate(-1.641 32.912) rotate(-60)"/>
      <rect class="st1" x="27.172" y="8.101" width=".524" height="20.415" transform="translate(-2.139 32.912) rotate(-60)"/>
      <rect class="st1" x="26.923" y="8.532" width=".524" height="20.415" transform="translate(-2.636 32.912) rotate(-60)"/>
      <rect class="st1" x="26.674" y="8.963" width=".524" height="20.415" transform="translate(-3.134 32.912) rotate(-60)"/>
      <rect class="st1" x="26.425" y="9.394" width=".524" height="20.415" transform="translate(-3.631 32.913) rotate(-60)"/>
      <rect class="st1" x="26.177" y="9.825" width=".524" height="20.415" transform="translate(-4.129 32.913) rotate(-60)"/>
      <rect class="st1" x="25.928" y="10.256" width=".524" height="20.415" transform="translate(-4.626 32.913) rotate(-60)"/>
      <rect class="st1" x="25.679" y="10.686" width=".524" height="20.415" transform="translate(-5.124 32.913) rotate(-60)"/>
      <rect class="st1" x="25.43" y="11.117" width=".524" height="20.415" transform="translate(-5.622 32.912) rotate(-60)"/>
      <rect class="st1" x="25.181" y="11.548" width=".524" height="20.415" transform="translate(-6.119 32.912) rotate(-60)"/>
      <rect class="st1" x="24.933" y="11.979" width=".524" height="20.415" transform="translate(-6.617 32.913) rotate(-60.001)"/>
      <rect class="st1" x="24.684" y="12.41" width=".524" height="20.415" transform="translate(-7.114 32.913) rotate(-60)"/>
      <rect class="st1" x="24.435" y="12.841" width=".524" height="20.415" transform="translate(-7.612 32.913) rotate(-60)"/>
      <rect class="st1" x="24.186" y="13.272" width=".524" height="20.415" transform="translate(-8.11 32.913) rotate(-60.001)"/>
      <rect class="st1" x="23.937" y="13.703" width=".524" height="20.415" transform="translate(-8.607 32.913) rotate(-60)"/>
      <rect class="st1" x="23.688" y="14.134" width=".524" height="20.415" transform="translate(-9.105 32.913) rotate(-60.001)"/>
      <rect class="st1" x="23.44" y="14.565" width=".524" height="20.415" transform="translate(-9.603 32.913) rotate(-60)"/>
      <rect class="st1" x="23.191" y="14.996" width=".524" height="20.415" transform="translate(-10.1 32.913) rotate(-60.001)"/>
      <rect class="st1" x="22.942" y="15.427" width=".524" height="20.415" transform="translate(-10.598 32.913) rotate(-60)"/>
      <rect class="st1" x="22.693" y="15.858" width=".524" height="20.415" transform="translate(-11.095 32.913) rotate(-60.001)"/>
      <rect class="st1" x="22.444" y="16.289" width=".524" height="20.415" transform="translate(-11.593 32.913) rotate(-60)"/>
      <rect class="st1" x="22.196" y="16.72" width=".524" height="20.415" transform="translate(-12.091 32.912) rotate(-60)"/>
      <rect class="st1" x="21.947" y="17.151" width=".524" height="20.415" transform="translate(-12.588 32.913) rotate(-60.001)"/>
      <rect class="st1" x="21.698" y="17.582" width=".524" height="20.415" transform="translate(-13.086 32.913) rotate(-60)"/>
    </g>
  </g>
  <path class="st1" d="M6.461,26.039c1.511-1.669,3.549-2.512,6.096-2.512,1.669,0,3.127.439,4.374,1.3,1.247.878,2.143,2.02,2.652,3.478h.597l-.281-4.479h-.457c-.088.123-.281.176-.562.193-.088-.017-.791-.211-2.161-.615-1.353-.422-2.793-.632-4.339-.632-3.232,0-5.885.966-7.958,2.916-2.09,1.915-3.144,4.374-3.144,7.377,0,2.881,1.019,5.234,3.057,7.096,2.02,1.844,4.585,2.775,7.729,2.775,1.212,0,2.459-.158,3.759-.439,1.3-.298,2.143-.439,2.565-.421.211,0,.439,0,.65.018.369-.58.703-1.195,1.001-1.845.369-.826.703-1.721.966-2.652h-.58c-.123.228-.246.439-.386.667-1.704,2.6-4.076,3.9-7.15,3.9-2.371,0-4.427-.913-6.131-2.775-1.704-1.845-2.565-4.163-2.565-6.921,0-2.635.756-4.778,2.266-6.429h0Z"/>
  <path class="st1" d="M59.127,32.116c.562.158.826.492.826,1.019v13.613c0,.228,0,.439-.018.614h.018v.615h-.018c-.07.562-.211.966-.439,1.195-.281.316-.808.457-1.599.457h-.316v.633h7.273v-.633h-.755c-.65,0-1.142-.123-1.493-.404-.334-.299-.51-.72-.562-1.247v-1.229h-.018v-4.725c.193.071.387.141.58.211.861.281,1.616.404,2.231.422.843-.018,1.616-.158,2.354-.457.808-.351,1.546-.878,2.231-1.599,1.3-1.405,1.95-3.021,1.95-4.883,0-1.528-.457-2.863-1.37-4.005-.931-1.177-2.003-1.739-3.197-1.739-1.23,0-2.828.756-4.778,2.248v-2.898h-.703l-3.215,1.967v.58l1.019.246h0ZM65.293,31.484c.966,0,1.844.422,2.6,1.265.931,1.036,1.405,2.494,1.405,4.356,0,1.265-.334,2.354-1.037,3.232-.703.896-1.563,1.335-2.582,1.335-1.195,0-2.407-.544-3.654-1.634v-7.061c1.177-1.001,2.266-1.493,3.268-1.493h0Z"/>
  <path class="st1" d="M56.597,34.522c0-3.091-1.019-4.655-3.092-4.637-1.001,0-2.828.826-5.446,2.477-.334-1.651-1.317-2.477-2.934-2.477-.369-.018-.773.035-1.195.158-1.177.316-2.617,1.089-4.304,2.319v-2.477h-.457l-3.724,1.282v.527l1.212.141c.404.071.685.246.808.527.07.193.105.527.105,1.072v6.042c0,.826-.158,1.458-.457,1.827-.316.369-.913.545-1.757.545v.597h6.429v-.597c-.843,0-1.388-.088-1.651-.281-.351-.264-.51-.79-.51-1.634v-7.044c1.809-1.195,3.18-1.774,4.128-1.774h.176c.545.035,1.019.228,1.388.579.492.492.738,1.177.738,2.055v5.726c-.018.878-.193,1.493-.545,1.844-.316.316-.843.492-1.581.527h-.246v.597h6.359v-.597c-.755,0-1.265-.123-1.528-.387-.264-.246-.404-.773-.404-1.528v-7.096c1.757-1.159,3.127-1.721,4.111-1.721,1.546-.018,2.301,1.159,2.301,3.513v2.406c0,2.6-.141,4.04-.439,4.356-.316.299-.861.457-1.616.457h-.281v.597h6.939v-.597h-1.001c-1.124,0-1.651-.474-1.616-1.388.07-1.686.088-3.671.088-5.937h0Z"/>
  <path class="st1" d="M33.304,31.747c-1.282-1.265-2.846-1.88-4.708-1.862-1.757-.018-3.285.544-4.567,1.669-1.405,1.229-2.108,2.845-2.108,4.865-.017,1.809.633,3.32,1.932,4.567,1.283,1.212,2.899,1.827,4.831,1.827,1.827,0,3.355-.614,4.638-1.862,1.265-1.265,1.897-2.775,1.915-4.584-.018-1.862-.65-3.39-1.932-4.62h0ZM31.494,32.538c.931,1.282,1.405,2.81,1.423,4.602,0,1.458-.439,2.67-1.265,3.636-.756.861-1.634,1.3-2.635,1.3-1.335,0-2.477-.633-3.391-1.915-.931-1.318-1.405-2.916-1.388-4.795-.017-1.3.369-2.424,1.177-3.355.773-.949,1.704-1.405,2.74-1.405,1.282,0,2.407.65,3.338,1.932h0Z"/>
  <path class="st1" d="M136.386,42.445v-.597h-.667c-1.177,0-1.757-.404-1.722-1.23.035-.65.088-1.318.123-1.95.088-1.124.123-2.494.123-4.146,0-3.074-1.089-4.602-3.302-4.602-.685,0-1.493.245-2.424.72-.544.245-1.511.79-2.899,1.668v-2.389h-.474l-3.566,1.282v.509l1.072.211c.44.07.703.246.826.527.053.123.088.457.088.984v6.481c0,1.3-.685,1.932-2.055,1.932v.597h6.183v-.597c-.843,0-1.388-.141-1.651-.422-.281-.263-.422-.826-.422-1.686v-6.657c1.915-1.318,3.285-1.967,4.128-1.967,1.616,0,2.424,1.071,2.424,3.232,0,4.18-.194,6.464-.597,6.885-.404.404-1.001.597-1.809.615v.597h6.622Z"/>
  <path class="st1" d="M119.663,31.906c-.052-.053-.105-.105-.158-.158-1.283-1.265-2.864-1.88-4.726-1.862-1.774-.018-3.285.544-4.55,1.669-1.423,1.229-2.143,2.845-2.143,4.865,0,1.809.65,3.32,1.967,4.567.527.51,1.124.896,1.775,1.212.913.404,1.932.614,3.039.614.351,0,.668-.017.984-.052,1.405-.193,2.617-.808,3.654-1.809.052-.07.105-.123.158-.175,1.16-1.23,1.722-2.687,1.722-4.409.018-1.774-.562-3.25-1.722-4.462h0ZM114.34,30.606c1.282,0,2.389.65,3.338,1.932.931,1.282,1.388,2.81,1.405,4.602-.018,1.458-.422,2.67-1.265,3.636-.773.861-1.652,1.3-2.618,1.3-1.335,0-2.477-.633-3.39-1.915-.931-1.318-1.388-2.916-1.388-4.795,0-1.3.387-2.424,1.195-3.355.773-.949,1.704-1.405,2.723-1.405h0Z"/>
  <path class="st1" d="M105.943,29.727h-.474l-3.988,1.388v.474l1.441.281c.457.088.755.246.878.492.052.158.07.51.07,1.036v6.201c0,.826-.193,1.405-.562,1.739-.387.351-1.037.51-1.968.51v.597h6.834v-.597c-1.493,0-2.231-.597-2.231-1.756v-10.364h0Z"/>
  <path class="st1" d="M99.478,33.188l-.071-2.828c-.826-.316-1.651-.492-2.477-.474-1.177-.018-2.125.298-2.828.949-.756.615-1.124,1.458-1.124,2.494.018.755.246,1.405.72,1.932.299.316.879.773,1.792,1.37.896.597,1.616,1.159,2.125,1.686.65.65.984,1.282.984,1.862s-.211,1.054-.633,1.458c-.316.298-.667.474-1.054.562-.158.017-.316.035-.492.035s-.351-.018-.492-.035c-.509-.105-.949-.351-1.352-.738-.545-.51-.914-1.229-1.089-2.143h-.51l.369,3.495h.439c.176-.281.334-.421.51-.404.211,0,.545.07,1.019.193.474.141.86.211,1.195.211.86,0,1.581-.211,2.248-.614.158-.123.316-.246.474-.387.738-.685,1.107-1.528,1.107-2.529,0-1.054-.492-2.02-1.476-2.863-.913-.65-1.862-1.282-2.793-1.932-.966-.668-1.458-1.388-1.458-2.125,0-.51.175-.931.562-1.247.369-.351.808-.51,1.318-.51.615,0,1.142.228,1.598.685.439.474.738,1.106.861,1.897h.527Z"/>
  <path class="st1" d="M90.748,33.188l-.088-2.828c-.808-.316-1.634-.492-2.459-.474-1.159-.018-2.108.298-2.846.949-.72.615-1.089,1.458-1.089,2.494,0,.755.228,1.405.703,1.932.281.316.878.773,1.809,1.37.896.597,1.598,1.159,2.108,1.686.668.65,1.001,1.282,1.001,1.862s-.211,1.054-.633,1.458c-.316.298-.667.474-1.072.562-.158.017-.316.035-.51.035-.158,0-.316-.018-.474-.035-.509-.105-.966-.351-1.352-.738-.545-.51-.896-1.229-1.072-2.143h-.51l.334,3.495h.439c.176-.281.369-.421.545-.404.193,0,.527.07,1.019.193.457.141.861.211,1.195.211.843,0,1.581-.211,2.231-.614.175-.123.351-.246.492-.387.72-.685,1.089-1.528,1.089-2.529,0-1.054-.492-2.02-1.476-2.863-.931-.65-1.862-1.282-2.793-1.932-.984-.668-1.458-1.388-1.458-2.125,0-.51.176-.931.545-1.247.369-.351.808-.51,1.335-.51.614,0,1.142.228,1.598.685.457.474.738,1.106.843,1.897h.545Z"/>
  <path class="st1" d="M81.718,41.338c-.369,0-.597-.193-.685-.562-.071-.334-.105-1.142-.105-2.459v-4.146c0-1.335-.158-2.231-.457-2.67-.791-1.089-1.88-1.634-3.25-1.616-.949-.018-1.95.421-3.004,1.318-1.037.896-1.546,1.651-1.546,2.266,0,.106.017.228.088.422l2.108-1.019c-.123-.246-.175-.44-.175-.58,0-.368.193-.703.58-1.054.387-.316.826-.491,1.335-.474.667-.018,1.23.281,1.721.878.334.421.527,1.089.527,1.985v2.459c-.913.544-1.827.949-2.723,1.177-1.195.281-2.038.615-2.583.983-.72.492-1.072,1.177-1.072,2.02,0,.773.264,1.388.756,1.862.035.018.07.035.088.071.51.404,1.177.614,2.003.614.491,0,.931-.105,1.317-.281.194-.088.387-.211.615-.334.457-.316,1.001-.738,1.652-1.265.052.527.14.948.316,1.265.246.404.615.614,1.107.614.404,0,.949-.211,1.616-.614.44-.281.914-.633,1.458-1.072l-.158-.474c-.544.457-1.054.667-1.528.685h0ZM77.063,37.544c.756-.298,1.353-.579,1.792-.843v3.671c-1.3.914-2.143,1.37-2.582,1.37-.492,0-.914-.175-1.265-.509-.387-.351-.562-.79-.562-1.317,0-.597.193-1.054.597-1.37.281-.228.966-.562,2.02-1.001h0Z"/>
  <path class="st0" d="M135.656,29.621v.46h.129c.275,0,.412-.079.412-.238,0-.091-.045-.154-.133-.189-.06-.023-.152-.034-.279-.034h-.129ZM135.266,31.061v-1.71h.421c.299,0,.505.018.615.053.202.064.302.2.302.409,0,.103-.036.191-.109.265-.072.074-.17.118-.293.132v.005c.085.006.155.065.207.176l.312.669h-.434l-.235-.534c-.03-.067-.062-.112-.095-.135-.039-.028-.098-.042-.176-.042h-.126v.71h-.39Z"/>
  <path class="st0" d="M134.715,30.224c0-.68.552-1.232,1.232-1.232s1.231.552,1.231,1.232-.551,1.231-1.231,1.231-1.232-.551-1.232-1.231h0ZM134.241,30.224c0-.943.763-1.707,1.706-1.707s1.707.764,1.707,1.707-.764,1.707-1.707,1.707-1.706-.764-1.706-1.707h0Z"/>
  <g>
    <path class="st1" d="M30.411,27.124v-.114c.277-.006.391-.054.391-.169,0-.102-.132-.307-.74-.915-.482-.482-.626-.572-.891-.542v1.126c0,.379.109.5.482.5h.078v.114h-1.65v-.114h.108c.385,0,.482-.133.482-.44v-2.643c0-.361-.162-.433-.482-.433h-.108v-.114h1.626v.114h-.054c-.361,0-.482.114-.482.475v1.301c.235-.024.422-.133.674-.385.47-.47.837-1.012.837-1.204,0-.138-.09-.186-.415-.186v-.114h1.584v.114c-.427.006-.614.066-.795.247-.187.187-.566.939-1.198,1.421.108.018.217.109.482.373.632.632.969,1.102,1.168,1.3.102.103.259.175.668.175v.114h-1.764Z"/>
    <path class="st1" d="M33.181,26.667c0,.21.114.343.433.343v.114h-1.337v-.114c.367,0,.5-.121.5-.44v-1.21c0-.235-.03-.265-.187-.295l-.283-.054v-.096l.783-.271h.09v2.023ZM32.934,23.289c.145,0,.265.102.265.229s-.121.229-.265.229-.259-.102-.259-.229.114-.229.259-.229Z"/>
    <path class="st1" d="M34.698,26.6c0,.331.078.409.403.409v.114h-1.21v-.114c.265,0,.403-.145.403-.379v-1.264c0-.223-.024-.265-.181-.295l-.205-.042v-.096l.692-.253h.096v.47c.403-.253.741-.476,1.036-.476.409,0,.644.301.644.903,0,.801-.042.957-.048,1.192-.006.163.09.241.337.241h.132v.114h-1.295v-.114c.175-.006.277-.049.343-.114.114-.115.126-.554.126-1.355,0-.482-.235-.632-.476-.632-.193,0-.488.169-.801.385v1.306Z"/>
    <path class="st1" d="M39.027,23.62c0-.114-.042-.145-.235-.169l-.199-.024v-.102l.837-.247v3.534c0,.205.126.247.295.199l.145-.042v.127l-.771.301h-.072v-.428c-.391.283-.704.428-.933.428-.536,0-.963-.518-.963-1.162,0-.753.572-1.361,1.306-1.361.181,0,.427.048.59.114v-1.168ZM39.027,25.288c-.217-.319-.433-.452-.716-.452-.47,0-.777.427-.777.993,0,.602.349,1.108.783,1.108.187,0,.446-.115.71-.301v-1.349Z"/>
    <path class="st1" d="M40.568,25.595c-.012.09-.024.174-.024.253,0,.626.439,1.048.915,1.048.301,0,.536-.121.765-.391l.066.072c-.253.319-.632.62-1.072.62-.59,0-1.048-.536-1.048-1.234,0-.638.428-1.289,1.162-1.289.813,0,.795.584.993.783v.139h-1.758ZM41.821,25.439c-.066-.391-.307-.65-.596-.65-.199,0-.5.09-.638.65h1.234Z"/>
    <path class="st1" d="M43.482,26.685c0,.247.09.325.391.325h.229v.114h-1.427v-.114c.307-.006.403-.133.403-.452v-1.391l-.403-.145v-.102l.686-.241h.12v.638h.012c.301-.494.373-.608.572-.608.072,0,.09.006.205.054.06.024.169.048.313.09l-.145.361c-.09-.012-.205-.042-.319-.096-.066-.03-.138-.06-.211-.06-.108,0-.175.072-.235.157-.078.109-.145.211-.193.301v1.168Z"/>
    <path class="st1" d="M46.469,25.456c-.012-.036-.018-.054-.018-.084,0-.211.5-.698.891-.698.181,0,.464.085.632.319.09.126.09.205.09.518v.807c0,.482,0,.59.157.59.066,0,.144-.006.295-.132l.03.09c-.325.265-.494.331-.596.331-.247,0-.271-.271-.277-.367-.416.343-.536.367-.698.367-.349,0-.56-.199-.56-.494,0-.367.325-.494.71-.59.126-.03.325-.102.536-.229v-.476c0-.169,0-.265-.102-.385-.078-.096-.205-.175-.337-.175-.199,0-.373.169-.373.295,0,.036.006.06.03.114l-.409.199ZM47.661,26.004c-.114.066-.211.108-.355.169-.367.15-.506.211-.506.458,0,.217.174.355.355.355.096,0,.169-.03.506-.265v-.716Z"/>
    <path class="st1" d="M51.574,26.95l-.807.247v-.482c-.452.325-.783.482-1.024.482-.301,0-.638-.205-.638-.614v-1.337c0-.145-.036-.211-.162-.247l-.211-.06v-.09l.777-.169v1.686c0,.373.271.542.542.542.205,0,.469-.126.716-.331v-1.295c0-.235-.03-.283-.223-.319l-.301-.054v-.084l.927-.145v2.029c0,.168.06.199.277.157l.126-.024v.108Z"/>
    <path class="st1" d="M52.008,26.516c.072.361.301.566.572.566.241,0,.427-.18.427-.397,0-.126-.03-.205-.193-.367-.427-.427-.903-.47-.903-.969,0-.397.313-.674.771-.674.163,0,.331.036.482.097l.012.548h-.102c-.042-.307-.241-.5-.482-.5-.199,0-.367.139-.367.337,0,.53,1.12.62,1.12,1.355,0,.391-.325.686-.747.686-.114,0-.199-.018-.265-.042-.066-.018-.114-.036-.163-.036-.036,0-.072.024-.102.072h-.09l-.066-.674h.097Z"/>
    <path class="st1" d="M56.03,25.462l-.349.945c-.042.114-.121.295-.121.379,0,.162.157.223.488.223h.096v.114h-1.391v-.114c.391-.006.458-.072.65-.596l1.096-2.992-.054-.133h.524l1.258,3.342c.12.319.247.379.548.379v.114h-1.656v-.114h.157c.343,0,.47-.036.47-.205,0-.096-.042-.186-.066-.247l-.403-1.096h-1.246ZM56.644,23.795l-.512,1.403h1.042l-.53-1.403Z"/>
    <path class="st1" d="M59.769,26.685c0,.247.09.325.391.325h.229v.114h-1.427v-.114c.307-.006.403-.133.403-.452v-1.391l-.403-.145v-.102l.686-.241h.12v.638h.012c.301-.494.373-.608.572-.608.072,0,.09.006.205.054.06.024.169.048.313.09l-.145.361c-.09-.012-.205-.042-.319-.096-.066-.03-.138-.06-.211-.06-.108,0-.175.072-.235.157-.078.109-.145.211-.193.301v1.168Z"/>
    <path class="st1" d="M62.039,26.636c0,.313.084.373.421.373v.114h-1.252v-.114c.349,0,.428-.156.428-.463v-1.18c0-.235-.036-.289-.175-.307l-.235-.03v-.102l.722-.253h.09v.482c.433-.307.831-.482,1.072-.482.295,0,.512.187.572.482.403-.253.771-.482,1.066-.482.433,0,.602.331.602.909,0,.385,0,.789-.018,1.156,0,.126.072.271.319.271h.193v.114h-1.355v-.114h.054c.175,0,.253-.03.307-.084.09-.091.096-.44.096-.855v-.47c0-.463-.157-.686-.452-.686-.187,0-.428.09-.801.337v1.385c0,.301.072.373.373.373v.114h-1.234v-.114c.337,0,.457-.121.457-.463v-1.114c0-.379-.235-.518-.445-.518-.169,0-.397.078-.807.349v1.373Z"/>
    <path class="st1" d="M68.752,26.95l-.807.247v-.482c-.452.325-.783.482-1.024.482-.301,0-.638-.205-.638-.614v-1.337c0-.145-.036-.211-.162-.247l-.211-.06v-.09l.777-.169v1.686c0,.373.271.542.542.542.205,0,.469-.126.716-.331v-1.295c0-.235-.03-.283-.223-.319l-.301-.054v-.084l.927-.145v2.029c0,.168.06.199.277.157l.126-.024v.108Z"/>
    <path class="st1" d="M70.613,24.74l-.097.265h-.765v1.403c0,.379.271.506.397.506.133,0,.253-.102.367-.301l.097.09c-.145.313-.38.494-.657.494-.355,0-.608-.295-.608-.698v-1.493h-.277v-.096c.235-.114.439-.391.578-.765h.102v.596h.861Z"/>
    <path class="st1" d="M73.183,25.095c.427-.307.686-.422.909-.422.536,0,.988.53.988,1.162,0,.771-.608,1.361-1.409,1.361-.271,0-.506-.042-.891-.115v-3.263c0-.313-.018-.337-.247-.367l-.169-.024v-.102l.722-.247h.097v2.017ZM73.183,26.39c0,.301.198.632.656.632.494,0,.837-.416.837-1.018s-.355-1.054-.819-1.054c-.187,0-.403.09-.674.283v1.156Z"/>
    <path class="st1" d="M76.025,25.595c-.012.09-.024.174-.024.253,0,.626.44,1.048.915,1.048.301,0,.536-.121.765-.391l.066.072c-.253.319-.632.62-1.072.62-.59,0-1.048-.536-1.048-1.234,0-.638.427-1.289,1.162-1.289.813,0,.795.584.994.783v.139h-1.758ZM77.277,25.439c-.066-.391-.307-.65-.596-.65-.198,0-.5.09-.638.65h1.234Z"/>
    <path class="st1" d="M79.571,25.005h-.65v1.65c0,.277.108.355.446.355h.228v.114h-1.487v-.114c.349,0,.41-.078.41-.415v-1.589h-.445v-.102c.169-.036.313-.09.445-.162,0-.5.108-.879.463-1.234.295-.295.578-.427.855-.427.337,0,.62.193.62.283,0,.048-.115.289-.163.289-.084,0-.307-.295-.705-.295-.434,0-.668.343-.668.927v.458h.608l.042.265Z"/>
    <path class="st1" d="M80.571,26.685c0,.247.09.325.391.325h.229v.114h-1.427v-.114c.307-.006.404-.133.404-.452v-1.391l-.404-.145v-.102l.686-.241h.121v.638h.012c.301-.494.373-.608.572-.608.072,0,.09.006.205.054.06.024.169.048.313.09l-.145.361c-.09-.012-.205-.042-.319-.096-.067-.03-.139-.06-.211-.06-.109,0-.175.072-.235.157-.078.109-.145.211-.193.301v1.168Z"/>
    <path class="st1" d="M82.18,25.595c-.012.09-.024.174-.024.253,0,.626.44,1.048.915,1.048.301,0,.536-.121.765-.391l.066.072c-.253.319-.632.62-1.072.62-.59,0-1.048-.536-1.048-1.234,0-.638.427-1.289,1.162-1.289.813,0,.795.584.994.783v.139h-1.758ZM83.432,25.439c-.066-.391-.307-.65-.596-.65-.198,0-.5.09-.638.65h1.234Z"/>
    <path class="st1" d="M85.142,26.667c0,.21.115.343.434.343v.114h-1.337v-.114c.367,0,.5-.121.5-.44v-1.21c0-.235-.03-.265-.187-.295l-.283-.054v-.096l.782-.271h.09v2.023ZM84.895,23.289c.144,0,.265.102.265.229s-.121.229-.265.229-.259-.102-.259-.229.115-.229.259-.229Z"/>
    <path class="st1" d="M86.382,25.595c-.012.09-.024.174-.024.253,0,.626.439,1.048.915,1.048.301,0,.536-.121.765-.391l.066.072c-.253.319-.632.62-1.072.62-.59,0-1.048-.536-1.048-1.234,0-.638.427-1.289,1.162-1.289.813,0,.795.584.994.783v.139h-1.758ZM87.634,25.439c-.066-.391-.307-.65-.596-.65-.198,0-.5.09-.638.65h1.234Z"/>
    <path class="st1" d="M89.296,26.6c0,.331.078.409.403.409v.114h-1.21v-.114c.265,0,.404-.145.404-.379v-1.264c0-.223-.024-.265-.181-.295l-.205-.042v-.096l.692-.253h.096v.47c.403-.253.741-.476,1.036-.476.409,0,.644.301.644.903,0,.801-.042.957-.048,1.192-.006.163.09.241.337.241h.133v.114h-1.295v-.114c.174-.006.277-.049.343-.114.115-.115.126-.554.126-1.355,0-.482-.235-.632-.476-.632-.193,0-.487.169-.801.385v1.306Z"/>
  </g>
  <g>
    <path class="st1" d="M68.359,49.484c0,.281.153.457.578.457v.153h-1.782v-.153c.49,0,.666-.16.666-.586v-1.613c0-.314-.04-.354-.249-.394l-.377-.072v-.129l1.043-.361h.121v2.697ZM68.03,44.98c.193,0,.353.136.353.305s-.16.305-.353.305-.345-.136-.345-.305.153-.305.345-.305Z"/>
    <path class="st1" d="M70.374,49.443c0,.417.112.497.562.497v.153h-1.67v-.153c.466,0,.57-.209.57-.618v-1.573c0-.313-.048-.385-.233-.41l-.313-.04v-.136l.964-.337h.121v.642c.578-.409,1.107-.642,1.429-.642.393,0,.682.249.762.642.538-.337,1.028-.642,1.421-.642.578,0,.803.441.803,1.212,0,.513,0,1.051-.024,1.541,0,.169.096.361.425.361h.257v.153h-1.806v-.153h.072c.233,0,.338-.04.409-.112.121-.121.129-.586.129-1.14v-.626c0-.618-.209-.915-.602-.915-.249,0-.57.121-1.068.449v1.847c0,.401.096.497.498.497v.153h-1.646v-.153c.45,0,.611-.16.611-.618v-1.485c0-.506-.314-.69-.594-.69-.225,0-.53.104-1.076.466v1.83Z"/>
    <path class="st1" d="M83.138,50.149l-4.158-4.351v3.445c0,.578.128.698.81.698v.153h-1.862v-.153h.032c.498,0,.659-.169.659-.537v-3.95c-.185-.128-.393-.193-.674-.201v-.152h1.26l3.781,3.941v-3.195c0-.489-.145-.578-.787-.594v-.152h1.879v.152c-.602,0-.731.105-.731.417v4.479h-.209Z"/>
    <path class="st1" d="M84.575,47.87c-.016-.048-.024-.072-.024-.113,0-.281.666-.931,1.188-.931.241,0,.618.112.843.425.121.169.121.273.121.69v1.075c0,.643,0,.787.209.787.088,0,.193-.008.394-.176l.04.121c-.434.353-.658.441-.795.441-.329,0-.361-.361-.369-.489-.554.458-.714.489-.931.489-.466,0-.746-.265-.746-.658,0-.489.433-.658.947-.786.169-.04.434-.137.714-.305v-.635c0-.224,0-.353-.136-.513-.104-.128-.273-.233-.45-.233-.265,0-.497.225-.497.393,0,.048.008.08.04.152l-.546.265ZM86.164,48.6c-.152.089-.28.145-.473.225-.49.2-.674.281-.674.61,0,.289.233.474.473.474.128,0,.225-.04.674-.353v-.955Z"/>
    <path class="st1" d="M88.669,49.443c0,.417.113.497.562.497v.153h-1.67v-.153c.465,0,.57-.209.57-.618v-1.573c0-.313-.048-.385-.233-.41l-.314-.04v-.136l.964-.337h.12v.642c.578-.409,1.108-.642,1.429-.642.393,0,.682.249.763.642.537-.337,1.027-.642,1.42-.642.578,0,.803.441.803,1.212,0,.513,0,1.051-.024,1.541,0,.169.097.361.426.361h.257v.153h-1.806v-.153h.073c.233,0,.337-.04.41-.112.121-.121.128-.586.128-1.14v-.626c0-.618-.209-.915-.602-.915-.249,0-.57.121-1.068.449v1.847c0,.401.096.497.498.497v.153h-1.646v-.153c.449,0,.61-.16.61-.618v-1.485c0-.506-.313-.69-.594-.69-.225,0-.53.104-1.076.466v1.83Z"/>
    <path class="st1" d="M94.666,48.054c-.017.121-.032.233-.032.337,0,.835.586,1.397,1.22,1.397.401,0,.714-.161,1.02-.522l.088.097c-.337.426-.843.827-1.429.827-.786,0-1.396-.714-1.396-1.645,0-.851.57-1.718,1.549-1.718,1.084,0,1.059.779,1.325,1.044v.184h-2.344ZM96.335,47.846c-.088-.521-.409-.867-.795-.867-.265,0-.666.121-.851.867h1.646Z"/>
    <path class="st1" d="M98.551,49.395c0,.442.104.546.537.546v.153h-1.613v-.153c.353,0,.537-.192.537-.506v-1.686c0-.297-.032-.353-.241-.393l-.273-.056v-.128l.924-.337h.128v.626c.537-.337.987-.634,1.381-.634.546,0,.859.401.859,1.204,0,1.067-.056,1.276-.064,1.589-.008.217.12.32.449.32h.177v.153h-1.726v-.153c.233-.008.369-.064.458-.152.153-.153.169-.739.169-1.807,0-.642-.313-.843-.634-.843-.257,0-.65.225-1.068.514v1.741Z"/>
    <path class="st1" d="M105.246,49.267c0,1.614-.659,2.698-1.662,2.698-.441,0-.779-.185-.779-.434,0-.169.129-.32.289-.32.273,0,.49.377.827.377.385,0,.659-.289.659-1.18v-4.287c0-.707-.072-.867-.651-.867h-.088v-.152h2.031v.152c-.514.017-.626.161-.626.586v3.428Z"/>
    <path class="st1" d="M106.781,48.054c-.016.121-.032.233-.032.337,0,.835.586,1.397,1.221,1.397.401,0,.715-.161,1.02-.522l.088.097c-.337.426-.843.827-1.429.827-.787,0-1.397-.714-1.397-1.645,0-.851.57-1.718,1.549-1.718,1.083,0,1.06.779,1.324,1.044v.184h-2.344ZM108.451,47.846c-.088-.521-.41-.867-.795-.867-.265,0-.666.121-.851.867h1.645Z"/>
    <path class="st1" d="M109.767,49.283c.097.482.402.755.763.755.32,0,.569-.241.569-.53,0-.169-.04-.273-.257-.49-.569-.569-1.204-.626-1.204-1.292,0-.53.417-.899,1.028-.899.217,0,.441.048.642.128l.017.731h-.137c-.056-.409-.32-.666-.642-.666-.265,0-.49.185-.49.449,0,.707,1.493.827,1.493,1.806,0,.522-.433.915-.996.915-.152,0-.265-.024-.353-.056-.088-.024-.153-.048-.217-.048-.049,0-.097.032-.137.096h-.121l-.088-.899h.128Z"/>
    <path class="st1" d="M115.796,49.861l-1.076.329v-.642c-.602.433-1.044.642-1.365.642-.401,0-.851-.272-.851-.818v-1.782c0-.193-.048-.281-.217-.329l-.281-.08v-.12l1.036-.225v2.248c0,.498.361.722.722.722.273,0,.626-.169.955-.441v-1.726c0-.313-.04-.377-.297-.425l-.402-.072v-.112l1.237-.193v2.706c0,.224.08.265.369.209l.169-.032v.145Z"/>
  </g>
</svg>