<?xml version="1.0" encoding="utf-8"?>
<!-- Generator: Adobe Illustrator 21.0.0, SVG Export Plug-In . SVG Version: 6.00 Build 0)  -->
<svg version="1.1" id="Ebene_1" xmlns="http://www.w3.org/2000/svg" xmlns:xlink="http://www.w3.org/1999/xlink" x="0px" y="0px"
	 viewBox="0 0 142.9 54.1" style="enable-background:new 0 0 142.9 54.1;" xml:space="preserve">
<style type="text/css">
	.st0{fill:#014898;}
	.st1{fill:#1D1E1C;}
</style>
<g>
	<path d="M38.5,0.7"/>
	
		<ellipse transform="matrix(4.679115e-02 -0.9989 0.9989 4.679115e-02 22.8411 32.3346)" class="st0" cx="28.4" cy="4.2" rx="3.4" ry="3.8"/>
	<path class="st0" d="M38.5,0.8c0,0-2,3.5-6.4,6c-4.4,2.5-8.3,4-12,9.7c0,0,1.1-0.5,0.3,0.7c0,0,0.6-0.5,1.1-0.7
		c0,0,0.3-0.1,0.2,0.3c0,0,2-1.5,1.5-0.8c-0.3,0.4,1.6-1.4,1.8-1.2c0,0,0.1,0.1-0.2,0.5c0,0,4.5-2.7,6.1-3.4c7.2-3.1,8.8-8.1,8.1-11
		C38.9,1,38.9,0.4,38.5,0.8z"/>
	<path class="st0" d="M23.4,25.5c0,0,0.3-7.5,5-11.4c4.7-3.8,9.1-3.1,11-3.3c0,0,3.8,0.1,5.7-0.5c0,0,0.3,3.4-9.1,5
		c0,0-3.1,0-5.7,3.5c0,0-2.6,2.9-5,9c0,0,0-0.9-0.4-0.3l-0.9,2l0-1.9c0,0-0.2-0.5-0.4,0.2c0,0-0.2,0.2,0.1-2.3
		C23.8,25.5,23.7,24.9,23.4,25.5z"/>
	<path d="M20.2,28.5c-1.1-3-3.8-4.9-7.3-4.9c-5.3,0-8.6,3.9-8.6,9.2c0,5.8,4.1,10,9,10c2.5,0,5.6-0.9,7.8-4.7h0.6
		c-0.4,1.4-1.3,3.4-2,4.7c-2-0.3-3.4,0.9-7.2,0.9c-6.5,0-11.1-4.3-11.1-10.2c0-6.2,4.8-10.7,11.5-10.7c4,0,5.7,1.3,6.7,1.3
		c0.4,0,0.5-0.1,0.6-0.2h0.5l0.3,4.6H20.2z"/>
	<path d="M29.6,30.2c3.9,0,6.9,2.9,6.9,6.7c0,3.8-3,6.7-6.8,6.7c-4,0-7-2.9-7-6.6C22.7,32.5,26.3,30.2,29.6,30.2z M30,42.8
		c1.9,0,4-1.9,4-5.1c0-3.6-2.2-6.7-4.9-6.7c-2.1,0-4.1,2.2-4.1,4.9C25.1,39.7,27.3,42.8,30,42.8z"/>
	<path d="M40.9,40.6c0,1.7,0.4,2,2.2,2v0.6h-6.6v-0.6c1.9,0,2.3-0.8,2.3-2.5v-6.3c0-1.2-0.2-1.5-0.9-1.6l-1.2-0.2v-0.5l3.8-1.3h0.5
		v2.6c2.3-1.6,4.4-2.6,5.7-2.6c1.6,0,2.7,1,3,2.6c2.1-1.3,4.1-2.6,5.6-2.6c2.3,0,3.2,1.8,3.2,4.8c0,2,0,4.2-0.1,6.1
		c0,0.7,0.4,1.4,1.7,1.4h1v0.6h-7.2v-0.6h0.3c0.9,0,1.3-0.2,1.6-0.4c0.5-0.5,0.5-2.3,0.5-4.5v-2.5c0-2.5-0.8-3.6-2.4-3.6
		c-1,0-2.3,0.5-4.2,1.8v7.3c0,1.6,0.4,2,2,2v0.6h-6.5v-0.6c1.8,0,2.4-0.6,2.4-2.5v-5.9c0-2-1.2-2.7-2.4-2.7c-0.9,0-2.1,0.4-4.3,1.9
		V40.6z"/>
	<path d="M63.9,48.5c0,1.6,0.8,2.1,2.1,2.1h0.8v0.6h-7.5v-0.6h0.3c1.6,0,2.1-0.5,2.1-2.4V33.6c0-0.6-0.1-0.9-0.9-1.1l-1-0.3v-0.6
		l3.4-2.1h0.6v3.1c2-1.5,3.7-2.3,4.9-2.3c2.5,0,4.7,2.8,4.7,5.9c0,3.9-3.1,7.2-6.8,7.2c-0.9,0-1.7-0.2-2.9-0.6V48.5z M63.9,40.7
		c1.1,1,2.6,1.7,3.8,1.7c2.2,0,3.8-2.1,3.8-4.8c0-4.2-2.5-5.8-4.2-5.8c-1,0-2.2,0.6-3.3,1.6V40.7z"/>
	<path d="M74.9,34.3c-0.1-0.2-0.1-0.3-0.1-0.4c0-1.1,2.6-3.7,4.7-3.7c1,0,2.5,0.4,3.3,1.7c0.5,0.7,0.5,1.1,0.5,2.7v4.3
		c0,2.6,0,3.1,0.8,3.1c0.4,0,0.8,0,1.6-0.7l0.2,0.5c-1.7,1.4-2.6,1.8-3.2,1.8c-1.3,0-1.4-1.4-1.5-1.9c-2.2,1.8-2.8,1.9-3.7,1.9
		c-1.9,0-3-1.1-3-2.6c0-1.9,1.7-2.6,3.8-3.1c0.7-0.2,1.7-0.5,2.8-1.2v-2.5c0-0.9,0-1.4-0.5-2c-0.4-0.5-1.1-0.9-1.8-0.9
		c-1.1,0-2,0.9-2,1.6c0,0.2,0,0.3,0.2,0.6L74.9,34.3z M81.2,37.2c-0.6,0.4-1.1,0.6-1.9,0.9c-1.9,0.8-2.7,1.1-2.7,2.4
		c0,1.1,0.9,1.9,1.9,1.9c0.5,0,0.9-0.2,2.7-1.4V37.2z"/>
	<path d="M87.3,39.9c0.4,1.9,1.6,3,3,3c1.3,0,2.3-1,2.3-2.1c0-0.7-0.2-1.1-1-1.9c-2.3-2.3-4.8-2.5-4.8-5.1c0-2.1,1.7-3.6,4.1-3.6
		c0.9,0,1.8,0.2,2.6,0.5l0.1,2.9h-0.5c-0.2-1.6-1.3-2.6-2.6-2.6c-1.1,0-1.9,0.7-1.9,1.8c0,2.8,5.9,3.3,5.9,7.2c0,2.1-1.7,3.6-4,3.6
		c-0.6,0-1.1-0.1-1.4-0.2c-0.4-0.1-0.6-0.2-0.9-0.2c-0.2,0-0.4,0.1-0.5,0.4h-0.5l-0.4-3.6H87.3z"/>
	<path d="M96.3,39.9c0.4,1.9,1.6,3,3,3c1.3,0,2.3-1,2.3-2.1c0-0.7-0.2-1.1-1-1.9c-2.3-2.3-4.8-2.5-4.8-5.1c0-2.1,1.7-3.6,4.1-3.6
		c0.9,0,1.8,0.2,2.6,0.5l0.1,2.9h-0.5c-0.2-1.6-1.3-2.6-2.6-2.6c-1.1,0-1.9,0.7-1.9,1.8c0,2.8,5.9,3.3,5.9,7.2c0,2.1-1.7,3.6-4,3.6
		c-0.6,0-1.1-0.1-1.4-0.2c-0.4-0.1-0.6-0.2-0.9-0.2c-0.2,0-0.4,0.1-0.5,0.4h-0.5l-0.4-3.6H96.3z"/>
	<path d="M109.1,40.7c0,1.1,0.6,1.8,2.3,1.8v0.6h-7.1v-0.6c1.9,0,2.6-0.6,2.6-2.3v-6.4c0-1.2-0.2-1.4-1-1.6l-1.5-0.3v-0.5l4.1-1.4
		h0.5V40.7z"/>
	<path d="M118.1,30.2c3.9,0,6.9,2.9,6.9,6.7c0,3.8-3,6.7-6.8,6.7c-4,0-7-2.9-7-6.6C111.3,32.5,114.8,30.2,118.1,30.2z M118.6,42.8
		c1.9,0,4-1.9,4-5.1c0-3.6-2.2-6.7-4.9-6.7c-2.1,0-4.1,2.2-4.1,4.9C113.6,39.7,115.8,42.8,118.6,42.8z"/>
	<path d="M129.3,40.4c0,1.8,0.4,2.2,2.1,2.2v0.6H125v-0.6c1.4,0,2.1-0.8,2.1-2v-6.7c0-1.2-0.1-1.4-1-1.6l-1.1-0.2v-0.5l3.7-1.3h0.5
		v2.5c2.1-1.3,3.9-2.5,5.5-2.5c2.2,0,3.4,1.6,3.4,4.8c0,4.2-0.2,5.1-0.3,6.3c0,0.9,0.5,1.3,1.8,1.3h0.7v0.6h-6.9v-0.6
		c0.9,0,1.5-0.3,1.8-0.6c0.6-0.6,0.7-2.9,0.7-7.2c0-2.6-1.2-3.3-2.5-3.3c-1,0-2.6,0.9-4.2,2V40.4z"/>
	<g>
		<path class="st0" d="M30.6,24.9c0-0.2,0-0.6-0.1-0.8C30.5,24,30.2,24,30.1,24v-0.1c0.3,0,0.6,0,0.8,0c0.3,0,0.6,0,0.9,0V24
			c-0.2,0-0.4,0-0.5,0.2c-0.1,0.2-0.1,0.6-0.1,0.8v1.7c0,0.7,0.1,0.9,0.9,0.9c0.3,0,0.6,0,0.8-0.1c0.3-0.2,0.3-0.4,0.4-0.7h0.1
			l-0.1,1c-0.1,0-0.2,0-0.3,0c-1,0-2,0-3,0v-0.1c0.2,0,0.4,0,0.5-0.2c0.1-0.2,0.1-0.6,0.1-0.8V24.9z"/>
		<path class="st0" d="M34.6,25.1V27c0,0.4-0.1,0.6,0.4,0.6v0.1c-0.2,0-0.4,0-0.6,0c-0.2,0-0.5,0-0.7,0v-0.1c0.4,0,0.4-0.2,0.4-0.6
			v-0.8c0-0.1,0-0.6,0-0.6c0-0.1-0.3-0.1-0.4-0.1v-0.1L34.6,25.1z M33.9,24.1c0-0.2,0.1-0.3,0.3-0.3c0.2,0,0.3,0.1,0.3,0.3
			c0,0.2-0.1,0.3-0.3,0.3C34.1,24.4,33.9,24.2,33.9,24.1z"/>
		<path class="st0" d="M36.2,25.4c0.2-0.2,0.5-0.3,0.8-0.3c0.7,0,1.3,0.6,1.3,1.3c0,0.7-0.6,1.3-1.3,1.3c-0.3,0-0.7-0.1-0.9-0.4
			l-0.3,0.3h-0.1v-2.9c0-0.1,0-0.5-0.1-0.6C35.5,24,35.4,24,35.2,24v-0.1l0.9-0.2V25.4z M36.2,27c0,0.4,0.2,0.6,0.6,0.6
			c0.7,0,0.8-0.6,0.8-1.2c0-0.5-0.2-1.1-0.8-1.1c-0.2,0-0.5,0.1-0.6,0.3c-0.1,0.1-0.1,0.3-0.1,0.4V27z"/>
		<path class="st0" d="M41,27.2c-0.3,0.3-0.6,0.5-1,0.5c-0.7,0-1.3-0.5-1.3-1.2c0-0.7,0.6-1.4,1.3-1.4c0.6,0,1.1,0.3,1.1,0.9
			c0,0.1-0.1,0.1-0.1,0.1h-1.7l0,0.3c0,0.6,0.3,1.2,0.9,1.2c0.3,0,0.6-0.2,0.7-0.4L41,27.2z M40.2,25.9c0.1,0,0.3,0,0.3-0.1
			c0-0.4-0.2-0.6-0.6-0.6c-0.4,0-0.6,0.3-0.7,0.7H40.2z M39.4,24.6l0.9-0.7c0.1-0.1,0.2-0.1,0.3-0.1c0.1,0,0.2,0.1,0.2,0.2
			c0,0.2-0.2,0.2-0.4,0.3l-0.8,0.3H39.4z"/>
		<path class="st0" d="M41.9,26.3c0-0.2,0-0.6,0-0.7c-0.1-0.2-0.2-0.2-0.4-0.2v-0.1c0.3,0,0.5-0.1,0.8-0.2c0.1,0.2,0.1,0.4,0.1,0.6
			h0c0.2-0.4,0.4-0.6,0.8-0.6c0.2,0,0.4,0.1,0.4,0.3c0,0.1-0.1,0.2-0.2,0.2c-0.2,0-0.2-0.3-0.4-0.3c-0.2,0-0.4,0.1-0.5,0.3
			c-0.1,0.2-0.1,0.5-0.1,0.8V27c0,0.4,0,0.6,0.4,0.6v0.1c-0.2,0-0.4,0-0.7,0c-0.2,0-0.4,0-0.7,0v-0.1c0.4,0,0.4-0.2,0.4-0.6V26.3z"
			/>
		<path class="st0" d="M46.2,27.2c-0.3,0.3-0.6,0.5-1,0.5c-0.7,0-1.3-0.5-1.3-1.2c0-0.7,0.6-1.4,1.3-1.4c0.6,0,1.1,0.3,1.1,0.9
			c0,0.1-0.1,0.1-0.1,0.1h-1.7l0,0.3c0,0.6,0.3,1.2,0.9,1.2c0.3,0,0.6-0.2,0.7-0.4L46.2,27.2z M45.4,25.9c0.1,0,0.3,0,0.3-0.1
			c0-0.4-0.2-0.6-0.6-0.6c-0.4,0-0.6,0.3-0.7,0.7H45.4z"/>
		<path class="st0" d="M47.1,26.3c0-0.2,0-0.6,0-0.7c-0.1-0.2-0.2-0.2-0.4-0.2v-0.1c0.3,0,0.5-0.1,0.8-0.2c0.1,0.2,0.1,0.4,0.1,0.6
			h0c0.2-0.4,0.4-0.6,0.8-0.6c0.2,0,0.4,0.1,0.4,0.3c0,0.1-0.1,0.2-0.2,0.2c-0.2,0-0.2-0.3-0.4-0.3c-0.2,0-0.4,0.1-0.5,0.3
			c-0.1,0.2-0.1,0.5-0.1,0.8V27c0,0.4,0,0.6,0.4,0.6v0.1c-0.2,0-0.4,0-0.7,0c-0.2,0-0.4,0-0.7,0v-0.1c0.4,0,0.4-0.2,0.4-0.6V26.3z"
			/>
		<path class="st0" d="M51.4,27c0,0.4-0.1,0.6,0.4,0.6v0.1c-0.2,0-0.4,0-0.7,0c-0.2,0-0.4,0-0.6,0v-0.1c0.4,0,0.4-0.2,0.4-0.6v-2.2
			c0-0.1,0-0.5-0.1-0.6C50.8,24,50.6,24,50.5,24v-0.1l0.9-0.2V27z"/>
		<path class="st0" d="M54.5,27.2c-0.3,0.3-0.6,0.5-1,0.5c-0.7,0-1.3-0.5-1.3-1.2c0-0.7,0.6-1.4,1.3-1.4c0.6,0,1.1,0.3,1.1,0.9
			c0,0.1-0.1,0.1-0.1,0.1h-1.7l0,0.3c0,0.6,0.3,1.2,0.9,1.2c0.3,0,0.6-0.2,0.7-0.4L54.5,27.2z M53.8,25.9c0.1,0,0.3,0,0.3-0.1
			c0-0.4-0.2-0.6-0.6-0.6c-0.4,0-0.6,0.3-0.7,0.7H53.8z"/>
		<path class="st0" d="M55.1,27.7L55.1,27.7L55,26.9h0.1c0.1,0.4,0.3,0.7,0.7,0.7c0.3,0,0.5-0.1,0.5-0.4c0-0.3-0.3-0.5-0.6-0.6
			c-0.3-0.2-0.7-0.4-0.7-0.8c0-0.4,0.3-0.7,0.7-0.7c0.2,0,0.4,0.1,0.6,0.1l0.1-0.1h0.1l0,0.7h-0.1c-0.1-0.3-0.2-0.6-0.6-0.6
			c-0.2,0-0.4,0.1-0.4,0.3c0,0.3,0.3,0.4,0.5,0.5c0.4,0.2,0.8,0.4,0.8,0.9c0,0.5-0.4,0.8-0.9,0.8c-0.2,0-0.5-0.1-0.6-0.2L55.1,27.7z
			"/>
		<path class="st0" d="M61,27.2c-0.3,0.3-0.6,0.5-1,0.5c-0.7,0-1.3-0.5-1.3-1.2c0-0.7,0.6-1.4,1.3-1.4c0.6,0,1.1,0.3,1.1,0.9
			c0,0.1-0.1,0.1-0.1,0.1h-1.7l0,0.3c0,0.6,0.3,1.2,0.9,1.2c0.3,0,0.6-0.2,0.7-0.4L61,27.2z M60.3,25.9c0.1,0,0.3,0,0.3-0.1
			c0-0.4-0.2-0.6-0.6-0.6c-0.4,0-0.6,0.3-0.7,0.7H60.3z"/>
		<path class="st0" d="M64.2,27c0,0.4,0,0.6,0.4,0.6v0.1c-0.2,0-0.4,0-0.6,0c-0.2,0-0.4,0-0.7,0v-0.1c0.4,0,0.4-0.2,0.4-0.6v-0.7
			c0-0.4,0-1-0.5-1c-0.5,0-0.7,0.4-0.7,0.8V27c0,0.4-0.1,0.6,0.4,0.6v0.1c-0.2,0-0.4,0-0.6,0c-0.2,0-0.4,0-0.7,0v-0.1
			c0.4,0,0.4-0.2,0.4-0.6v-0.7c0-0.2,0-0.6,0-0.7c0-0.2-0.2-0.2-0.4-0.2v-0.1c0.3,0,0.5-0.1,0.8-0.2l0.1,0.5h0
			c0.2-0.4,0.5-0.5,0.9-0.5c0.6,0,0.9,0.2,0.9,0.8V27z"/>
		<path class="st0" d="M64.9,25.4v-0.2h0.5V25c0-0.7,0.3-1.2,1.1-1.2c0.2,0,0.7,0.1,0.7,0.4c0,0.1-0.1,0.2-0.2,0.2
			c-0.1,0-0.2-0.1-0.2-0.2c-0.1-0.2-0.1-0.3-0.3-0.3c-0.2,0-0.4,0.1-0.5,0.3c-0.1,0.2-0.1,0.5-0.1,0.7v0.4h0.7v0.2h-0.7V27
			c0,0.1,0,0.3,0.1,0.4c0.1,0.2,0.4,0.2,0.6,0.2v0.1c-0.3,0-0.6,0-0.8,0c-0.3,0-0.5,0-0.8,0v-0.1c0.5,0,0.5-0.2,0.5-0.6v-1.5H64.9z"
			/>
		<path class="st0" d="M68.4,26.1c0.1,0,0-0.1,0-0.2c0-0.4,0-0.7-0.5-0.7c-0.3,0-0.5,0-0.5,0.3c0,0.1-0.1,0.3-0.2,0.3
			c-0.1,0-0.2-0.1-0.2-0.2c0-0.4,0.8-0.5,1.1-0.5c0.6,0,0.9,0.2,0.9,0.8v1c0,0.1,0,0.6,0.2,0.6c0.1,0,0.2-0.1,0.2-0.2l0.1,0.1
			c-0.1,0.2-0.3,0.4-0.5,0.4c-0.2,0-0.4-0.2-0.5-0.4c-0.3,0.2-0.6,0.4-1,0.4c-0.3,0-0.6-0.2-0.6-0.5c0-0.5,0.6-0.7,0.9-0.9
			L68.4,26.1z M68.4,26.2c-0.3,0.2-1,0.4-1,0.9c0,0.2,0.1,0.4,0.4,0.4c0.2,0,0.5-0.2,0.6-0.3V26.2z"/>
		<path class="st0" d="M72.3,27c0,0.4,0,0.6,0.4,0.6v0.1c-0.2,0-0.4,0-0.6,0c-0.2,0-0.4,0-0.7,0v-0.1c0.4,0,0.4-0.2,0.4-0.6v-0.7
			c0-0.4,0-1-0.5-1c-0.5,0-0.7,0.4-0.7,0.8V27c0,0.4-0.1,0.6,0.4,0.6v0.1c-0.2,0-0.4,0-0.6,0c-0.2,0-0.4,0-0.7,0v-0.1
			c0.4,0,0.4-0.2,0.4-0.6v-0.7c0-0.2,0-0.6,0-0.7c0-0.2-0.2-0.2-0.4-0.2v-0.1c0.3,0,0.5-0.1,0.8-0.2l0.1,0.5h0
			c0.2-0.4,0.5-0.5,0.9-0.5c0.6,0,0.9,0.2,0.9,0.8V27z"/>
		<path class="st0" d="M73.2,25.4v-0.1c0.3-0.2,0.6-0.4,0.7-0.7H74v0.7h0.7v0.2H74V27c0,0.3,0.1,0.5,0.4,0.5c0.2,0,0.3-0.1,0.4-0.3
			l0.1,0.1c-0.1,0.3-0.4,0.4-0.7,0.4c-0.4,0-0.7-0.2-0.7-0.6v-1.8H73.2z"/>
		<path class="st0" d="M75.1,27.7L75.1,27.7L75,26.9h0.1c0.1,0.4,0.3,0.7,0.7,0.7c0.3,0,0.5-0.1,0.5-0.4c0-0.3-0.3-0.5-0.6-0.6
			c-0.3-0.2-0.7-0.4-0.7-0.8c0-0.4,0.3-0.7,0.7-0.7c0.2,0,0.4,0.1,0.6,0.1l0.1-0.1h0.1l0,0.7h-0.1c-0.1-0.3-0.2-0.6-0.6-0.6
			c-0.2,0-0.4,0.1-0.4,0.3c0,0.3,0.3,0.4,0.5,0.5c0.4,0.2,0.8,0.4,0.8,0.9c0,0.5-0.4,0.8-0.9,0.8c-0.2,0-0.5-0.1-0.6-0.2L75.1,27.7z
			"/>
		<path class="st0" d="M80.9,27.7c-0.1-0.1-0.1-0.3-0.1-0.4c-0.2,0.3-0.5,0.4-0.9,0.4c-0.7,0-1.2-0.6-1.2-1.3c0-0.7,0.5-1.3,1.2-1.3
			c0.3,0,0.6,0.1,0.8,0.4v-0.9c0-0.3,0-0.5-0.4-0.5v-0.1l0.9-0.2v2.9c0,0.2,0,0.5,0.1,0.6c0.1,0.2,0.2,0.2,0.4,0.2v0.1L80.9,27.7z
			 M80.7,25.9c0-0.4-0.4-0.6-0.7-0.6c-0.6,0-0.8,0.7-0.8,1.2c0,0.5,0.2,1.1,0.8,1.1c0.5,0,0.7-0.4,0.7-0.9V25.9z"/>
		<path class="st0" d="M84.4,27.2c-0.3,0.3-0.6,0.5-1,0.5c-0.7,0-1.3-0.5-1.3-1.2c0-0.7,0.6-1.4,1.3-1.4c0.6,0,1.1,0.3,1.1,0.9
			c0,0.1-0.1,0.1-0.1,0.1h-1.7l0,0.3c0,0.6,0.3,1.2,0.9,1.2c0.3,0,0.6-0.2,0.7-0.4L84.4,27.2z M83.6,25.9c0.1,0,0.3,0,0.3-0.1
			c0-0.4-0.2-0.6-0.6-0.6c-0.4,0-0.6,0.3-0.7,0.7H83.6z"/>
		<path class="st0" d="M87.3,27c0,0.4-0.1,0.6,0.4,0.6v0.1c-0.2,0-0.4,0-0.7,0c-0.2,0-0.4,0-0.6,0v-0.1c0.4,0,0.4-0.2,0.4-0.6v-2.2
			c0-0.1,0-0.5-0.1-0.6C86.6,24,86.5,24,86.3,24v-0.1l0.9-0.2V27z"/>
		<path class="st0" d="M89.5,26.1c0.1,0,0-0.1,0-0.2c0-0.4,0-0.7-0.5-0.7c-0.3,0-0.5,0-0.5,0.3c0,0.1-0.1,0.3-0.2,0.3
			c-0.1,0-0.2-0.1-0.2-0.2c0-0.4,0.8-0.5,1.1-0.5c0.6,0,0.9,0.2,0.9,0.8v1c0,0.1,0,0.6,0.2,0.6c0.1,0,0.2-0.1,0.2-0.2l0.1,0.1
			c-0.1,0.2-0.3,0.4-0.5,0.4c-0.2,0-0.4-0.2-0.5-0.4c-0.3,0.2-0.6,0.4-1,0.4c-0.3,0-0.6-0.2-0.6-0.5c0-0.5,0.6-0.7,0.9-0.9
			L89.5,26.1z M89.6,26.2c-0.3,0.2-1,0.4-1,0.9c0,0.2,0.1,0.4,0.4,0.4c0.2,0,0.5-0.2,0.6-0.3V26.2z"/>
		<path class="st0" d="M93.1,25.6L93.1,25.6c0.2-0.3,0.5-0.5,0.9-0.5c0.8,0,1.3,0.6,1.3,1.3c0,0.7-0.5,1.3-1.3,1.3
			c-0.3,0-0.6-0.1-0.8-0.3v1.1c0,0.4,0,0.6,0.4,0.6v0.1c-0.2,0-0.4,0-0.6,0c-0.2,0-0.5,0-0.7,0v-0.1c0.4,0,0.4-0.2,0.4-0.6v-2.3
			c0-0.2,0-0.6,0-0.7c0-0.2-0.2-0.2-0.4-0.2v-0.1c0.3,0,0.6-0.1,0.8-0.2V25.6z M93.2,26.7c0,0.2,0,0.5,0.1,0.6
			c0.1,0.2,0.4,0.2,0.6,0.2c0.6,0,0.8-0.6,0.8-1.1c0-0.5-0.2-1.1-0.8-1.1c-0.2,0-0.5,0.1-0.6,0.3c-0.1,0.2-0.1,0.4-0.1,0.6V26.7z"/>
		<path class="st0" d="M97.2,26.1c0.1,0,0-0.1,0-0.2c0-0.4,0-0.7-0.5-0.7c-0.3,0-0.5,0-0.5,0.3c0,0.1-0.1,0.3-0.2,0.3
			c-0.1,0-0.2-0.1-0.2-0.2c0-0.4,0.8-0.5,1.1-0.5c0.6,0,0.9,0.2,0.9,0.8v1c0,0.1,0,0.6,0.2,0.6c0.1,0,0.2-0.1,0.2-0.2l0.1,0.1
			c-0.1,0.2-0.3,0.4-0.5,0.4c-0.2,0-0.4-0.2-0.5-0.4c-0.3,0.2-0.6,0.4-1,0.4c-0.3,0-0.6-0.2-0.6-0.5c0-0.5,0.6-0.7,0.9-0.9
			L97.2,26.1z M97.2,26.2c-0.3,0.2-1,0.4-1,0.9c0,0.2,0.1,0.4,0.4,0.4c0.2,0,0.5-0.2,0.6-0.3V26.2z"/>
		<path class="st0" d="M99.3,26.7c0,0.3,0,0.8,0.5,0.8c0.5,0,0.8-0.4,0.8-0.9v-0.8c0-0.4,0-0.6-0.4-0.6v-0.1c0.2,0,0.3,0,0.5,0
			c0.2,0,0.3,0,0.5,0V27c0,0.2,0,0.4,0.2,0.4c0.1,0,0.1,0,0.2,0v0.1l-0.8,0.2l-0.1-0.5c-0.2,0.3-0.6,0.5-1,0.5
			c-0.6,0-0.8-0.3-0.8-0.8v-1c0-0.4,0-0.6-0.4-0.6v-0.1c0.2,0,0.3,0,0.5,0c0.2,0,0.3,0,0.5,0V26.7z"/>
		<path class="st0" d="M101.9,25.7c-0.1-0.2-0.1-0.4-0.4-0.4v-0.1c0.2,0,0.4,0,0.6,0c0.2,0,0.4,0,0.6,0v0.1c-0.1,0-0.3,0-0.3,0.2
			c0,0.1,0.1,0.2,0.1,0.3l0.6,1.4c0.1-0.3,0.6-1.4,0.6-1.6c0-0.2-0.2-0.2-0.3-0.2v-0.1c0.1,0,0.3,0,0.4,0c0.1,0,0.3,0,0.4,0v0.1
			c-0.1,0-0.2,0.1-0.2,0.1c-0.1,0.1-0.2,0.5-0.3,0.7l-0.7,1.7h-0.1L101.9,25.7z"/>
		<path class="st0" d="M104.7,26.3c0-0.2,0-0.6,0-0.7c-0.1-0.2-0.2-0.2-0.4-0.2v-0.1c0.3,0,0.5-0.1,0.8-0.2c0.1,0.2,0.1,0.4,0.1,0.6
			h0c0.2-0.4,0.4-0.6,0.8-0.6c0.2,0,0.4,0.1,0.4,0.3c0,0.1-0.1,0.2-0.2,0.2c-0.2,0-0.2-0.3-0.4-0.3c-0.2,0-0.4,0.1-0.5,0.3
			c-0.1,0.2-0.1,0.5-0.1,0.8V27c0,0.4,0,0.6,0.4,0.6v0.1c-0.2,0-0.4,0-0.7,0c-0.2,0-0.4,0-0.7,0v-0.1c0.4,0,0.4-0.2,0.4-0.6V26.3z"
			/>
		<path class="st0" d="M109,27.2c-0.3,0.3-0.6,0.5-1,0.5c-0.7,0-1.3-0.5-1.3-1.2c0-0.7,0.6-1.4,1.3-1.4c0.6,0,1.1,0.3,1.1,0.9
			c0,0.1-0.1,0.1-0.1,0.1h-1.7l0,0.3c0,0.6,0.3,1.2,0.9,1.2c0.3,0,0.6-0.2,0.7-0.4L109,27.2z M108.2,25.9c0.1,0,0.3,0,0.3-0.1
			c0-0.4-0.2-0.6-0.6-0.6c-0.4,0-0.6,0.3-0.7,0.7H108.2z"/>
		<path class="st0" d="M109.5,25.4v-0.1c0.3-0.2,0.6-0.4,0.7-0.7h0.1v0.7h0.7v0.2h-0.7V27c0,0.3,0.1,0.5,0.4,0.5
			c0.2,0,0.3-0.1,0.4-0.3l0.1,0.1c-0.1,0.3-0.4,0.4-0.7,0.4c-0.4,0-0.7-0.2-0.7-0.6v-1.8H109.5z"/>
		<path class="st0" d="M113.7,27.2c-0.3,0.3-0.6,0.5-1,0.5c-0.7,0-1.3-0.5-1.3-1.2c0-0.7,0.6-1.4,1.3-1.4c0.6,0,1.1,0.3,1.1,0.9
			c0,0.1-0.1,0.1-0.1,0.1H112l0,0.3c0,0.6,0.3,1.2,0.9,1.2c0.3,0,0.6-0.2,0.7-0.4L113.7,27.2z M113,25.9c0.1,0,0.3,0,0.3-0.1
			c0-0.4-0.2-0.6-0.6-0.6c-0.4,0-0.6,0.3-0.7,0.7H113z M112.1,24.6l0.9-0.7c0.1-0.1,0.2-0.1,0.3-0.1c0.1,0,0.2,0.1,0.2,0.2
			c0,0.2-0.2,0.2-0.4,0.3l-0.8,0.3H112.1z"/>
	</g>
	<g>
		<path class="st0" d="M72.2,48.9c0.1,0,0.1-0.2,0.1-0.2c0-0.6-0.1-1-0.7-1c-0.4,0-0.8,0-0.8,0.5c0,0.2-0.1,0.4-0.3,0.4
			c-0.2,0-0.3-0.1-0.3-0.3c0-0.6,1.1-0.7,1.5-0.7c0.9,0,1.4,0.2,1.4,1.2v1.4c0,0.2,0,0.8,0.3,0.8c0.2,0,0.3-0.2,0.3-0.3l0.2,0.1
			c-0.1,0.3-0.4,0.6-0.8,0.6c-0.3,0-0.6-0.3-0.7-0.6c-0.4,0.3-0.9,0.6-1.4,0.6c-0.4,0-0.9-0.3-0.9-0.7c0-0.7,0.8-1,1.3-1.2
			L72.2,48.9z M72.3,49.2c-0.5,0.2-1.5,0.6-1.5,1.2c0,0.3,0.2,0.6,0.5,0.6c0.3,0,0.7-0.2,0.9-0.5V49.2z"/>
		<path class="st0" d="M75.2,49.9c0,0.5,0,1.2,0.7,1.2c0.7,0,1.1-0.6,1.1-1.2v-1.1c0-0.6,0-0.8-0.6-0.9v-0.2c0.2,0,0.5,0,0.7,0
			c0.2,0,0.4,0,0.7,0v2.7c0,0.2,0,0.6,0.3,0.6c0.1,0,0.2,0,0.3,0V51l-1.2,0.3L77,50.5c-0.3,0.5-0.8,0.8-1.4,0.8
			c-0.8,0-1.2-0.5-1.2-1.2v-1.4c0-0.6,0.1-0.8-0.6-0.9v-0.2c0.2,0,0.5,0,0.7,0c0.2,0,0.4,0,0.7,0V49.9z"/>
		<path class="st0" d="M84.6,50.2c0,0.6-0.1,0.8,0.6,0.8v0.2c-0.3,0-0.6,0-0.9,0c-0.3,0-0.6,0-1,0v-0.2c0.6,0,0.6-0.2,0.6-0.8v-1.1
			c0-0.6,0-1.4-0.8-1.4c-0.7,0-1.1,0.5-1.1,1.1v1.3c0,0.6-0.1,0.8,0.6,0.8v0.2c-0.3,0-0.6,0-0.9,0c-0.3,0-0.6,0-1,0v-0.2
			c0.6,0,0.6-0.2,0.6-0.8v-1c0-0.2,0-0.8,0-1c-0.1-0.3-0.3-0.3-0.6-0.3v-0.2c0.4-0.1,0.7-0.2,1.2-0.3l0.1,0.8h0
			c0.3-0.5,0.7-0.8,1.3-0.8c0.8,0,1.2,0.4,1.2,1.2V50.2z"/>
		<path class="st0" d="M89.8,49.4c0,1.1-0.9,1.9-2,1.9c-1.1,0-2-0.8-2-1.9c0-1.1,1-1.8,2-1.8C88.8,47.5,89.8,48.3,89.8,49.4z
			 M86.6,49.4c0,0.8,0.2,1.7,1.2,1.7c0.9,0,1.1-0.9,1.1-1.7c0-0.8-0.2-1.7-1.2-1.7C86.8,47.7,86.6,48.7,86.6,49.4z"/>
		<path class="st0" d="M91.6,50.2c0,0.6-0.1,0.8,0.6,0.8v0.2c-0.3,0-0.6,0-0.9,0c-0.3,0-0.6,0-1,0v-0.2c0.6,0,0.6-0.2,0.6-0.8v-1
			c0-0.2,0-0.8,0-1c-0.1-0.3-0.3-0.3-0.6-0.3v-0.2c0.4-0.1,0.7-0.2,1.2-0.3l0.1,0.7c0.3-0.4,0.7-0.7,1.3-0.7c0.5,0,1,0.2,1.1,0.7
			c0.3-0.4,0.7-0.7,1.3-0.7c0.4,0,0.7,0.1,1,0.4c0.2,0.3,0.2,0.8,0.2,1.1v1.2c0,0.6-0.1,0.8,0.6,0.8v0.2c-0.3,0-0.6,0-0.9,0
			c-0.3,0-0.6,0-0.9,0v-0.2c0.6,0,0.6-0.2,0.6-0.8v-1.1c0-0.6,0.1-1.4-0.8-1.4c-0.3,0-0.7,0.2-0.8,0.6C94,48.6,94,48.9,94,49.2v1
			c0,0.6-0.1,0.8,0.6,0.8v0.2c-0.3,0-0.6,0-0.9,0c-0.3,0-0.6,0-0.9,0v-0.2c0.6,0,0.6-0.2,0.6-0.8v-1.1c0-0.6,0.1-1.4-0.8-1.4
			c-0.3,0-0.7,0.2-0.8,0.6c-0.1,0.2-0.1,0.6-0.1,0.9V50.2z"/>
		<path class="st0" d="M102.8,51.3c-0.1-0.2-0.1-0.4-0.2-0.6c-0.4,0.4-0.7,0.6-1.3,0.6c-1.1,0-1.8-0.8-1.8-1.8c0-1,0.7-1.9,1.8-1.9
			c0.5,0,0.9,0.2,1.2,0.5v-1.3c0-0.5,0-0.8-0.6-0.8v-0.2l1.3-0.3v4.2c0,0.2,0,0.7,0.1,0.9c0.1,0.3,0.3,0.3,0.6,0.3V51L102.8,51.3z
			 M102.5,48.7c0-0.5-0.5-0.9-1-0.9c-0.9,0-1.1,0.9-1.1,1.7c0,0.8,0.2,1.6,1.1,1.6c0.8,0,1-0.6,1-1.3V48.7z"/>
		<path class="st0" d="M107.7,50.6c-0.4,0.5-0.9,0.7-1.5,0.7c-1,0-1.9-0.7-1.9-1.8c0-1,0.8-2,1.9-2c0.8,0,1.6,0.5,1.6,1.4
			c0,0.1-0.1,0.1-0.2,0.1h-2.4l0,0.4c0,0.8,0.4,1.7,1.3,1.7c0.4,0,0.8-0.3,1.1-0.6L107.7,50.6z M106.6,48.8c0.1,0,0.4,0,0.4-0.2
			c0-0.5-0.3-0.9-0.8-0.9c-0.6,0-0.9,0.5-1,1H106.6z"/>
		<path class="st0" d="M112,51.6c0,0.4-0.1,0.8-0.3,1.2c-0.3,0.5-0.9,0.7-1.5,0.7c-0.4,0-1.3-0.1-1.3-0.6c0-0.2,0.1-0.3,0.3-0.3
			c0.2,0,0.3,0.2,0.4,0.4c0.1,0.3,0.2,0.4,0.6,0.4c0.5,0,0.7-0.2,0.8-0.7c0-0.1,0.1-0.3,0.1-0.5v-5.3c0-0.2,0-0.4-0.1-0.5
			c-0.1-0.3-0.5-0.3-0.7-0.3v-0.2c0.4,0,0.8,0,1.2,0c0.4,0,0.8,0,1.3,0v0.2c-0.3,0-0.6,0-0.7,0.3c-0.1,0.2-0.1,0.6-0.1,0.9V51.6z"/>
		<path class="st0" d="M116.6,50.6c-0.4,0.5-0.9,0.7-1.5,0.7c-1,0-1.9-0.7-1.9-1.8c0-1,0.8-2,1.9-2c0.8,0,1.6,0.5,1.6,1.4
			c0,0.1-0.1,0.1-0.2,0.1h-2.4l0,0.4c0,0.8,0.4,1.7,1.3,1.7c0.4,0,0.8-0.3,1.1-0.6L116.6,50.6z M115.5,48.8c0.1,0,0.4,0,0.4-0.2
			c0-0.5-0.3-0.9-0.8-0.9c-0.6,0-0.9,0.5-1,1H115.5z M114.3,46.8l1.3-1c0.1-0.1,0.2-0.2,0.4-0.2c0.2,0,0.3,0.1,0.3,0.3
			c0,0.3-0.3,0.4-0.5,0.5l-1.1,0.5H114.3z"/>
		<path class="st0" d="M117.3,51.3L117.3,51.3l-0.1-1.2h0.2c0.1,0.5,0.4,1.1,1,1.1c0.4,0,0.7-0.2,0.7-0.6c0-0.5-0.5-0.7-0.8-0.9
			c-0.5-0.3-1-0.5-1-1.2c0-0.6,0.5-1,1-1c0.3,0,0.6,0.1,0.8,0.2l0.2-0.2h0.1l0,1h-0.2c-0.2-0.4-0.3-0.9-0.9-0.9
			c-0.3,0-0.5,0.2-0.5,0.5c0,0.4,0.5,0.6,0.8,0.8c0.6,0.3,1.1,0.5,1.1,1.3c0,0.7-0.6,1.1-1.2,1.1c-0.3,0-0.7-0.1-0.9-0.3L117.3,51.3
			z"/>
		<path class="st0" d="M121.4,49.9c0,0.5,0,1.2,0.7,1.2c0.7,0,1.1-0.6,1.1-1.2v-1.1c0-0.6,0-0.8-0.6-0.9v-0.2c0.2,0,0.5,0,0.7,0
			c0.2,0,0.4,0,0.7,0v2.7c0,0.2,0,0.6,0.3,0.6c0.1,0,0.2,0,0.3,0V51l-1.2,0.3l-0.2-0.8c-0.3,0.5-0.8,0.8-1.4,0.8
			c-0.8,0-1.2-0.5-1.2-1.2v-1.4c0-0.6,0.1-0.8-0.6-0.9v-0.2c0.2,0,0.5,0,0.7,0c0.2,0,0.4,0,0.7,0V49.9z"/>
		<path class="st0" d="M125,51.3L125,51.3l-0.1-1.2h0.2c0.1,0.5,0.4,1.1,1,1.1c0.4,0,0.7-0.2,0.7-0.6c0-0.5-0.5-0.7-0.8-0.9
			c-0.5-0.3-1-0.5-1-1.2c0-0.6,0.5-1,1-1c0.3,0,0.6,0.1,0.8,0.2l0.2-0.2h0.1l0,1h-0.2c-0.2-0.4-0.3-0.9-0.9-0.9
			c-0.3,0-0.5,0.2-0.5,0.5c0,0.4,0.5,0.6,0.8,0.8c0.6,0.3,1.1,0.5,1.1,1.3c0,0.7-0.6,1.1-1.2,1.1c-0.3,0-0.7-0.1-0.9-0.3L125,51.3z"
			/>
	</g>
	<g>
		<path class="st1" d="M138.4,25.1c1.1,0,2,0.8,2,2c0,1.1-0.9,2-2,2c-1.1,0-2-0.8-2-2C136.5,26,137.4,25.1,138.4,25.1z M138.4,28.8
			c0.9,0,1.6-0.7,1.6-1.7c0-0.9-0.7-1.7-1.6-1.7c-0.9,0-1.6,0.7-1.6,1.7C136.8,28.1,137.5,28.8,138.4,28.8z M137.7,26h0.9
			c0.5,0,0.8,0.2,0.8,0.7c0,0.4-0.3,0.6-0.6,0.6l0.7,1H139l-0.6-1H138v1h-0.4V26z M138,27h0.4c0.3,0,0.6,0,0.6-0.4
			c0-0.3-0.3-0.4-0.5-0.4H138V27z"/>
	</g>
</g>
</svg>
