<svg id="Calque_1" data-name="Calque 1" xmlns="http://www.w3.org/2000/svg" xmlns:xlink="http://www.w3.org/1999/xlink" viewBox="0 0 141.15 57.92"><defs><clipPath id="clip-path" transform="translate(-1 4.2)"><path id="SVGID" d="M30.12,13.22a11.77,11.77,0,0,0-2,1.4,11.43,11.43,0,0,0-2.71,3.57,18.78,18.78,0,0,0-1.71,4.92,16.59,16.59,0,0,0-.37,2.67l.48-.66A19.67,19.67,0,0,0,23.56,28a7.58,7.58,0,0,1,.48-.79L24,29.78,25,27.24c.07.22.13.46.2.73.64-1.49,1.2-2.72,1.69-3.7a28.37,28.37,0,0,1,1.51-2.76,21.31,21.31,0,0,1,1.63-2.3c.53-.67,1.21-1.46,2-2.33a4.42,4.42,0,0,1,1.07-.6c.37-.13.83-.28,1.42-.43.27-.07.94-.22,1.95-.48s1.6-.4,2.15-.53a16.62,16.62,0,0,0,4-1.55,3.9,3.9,0,0,0,2.07-2.58,21.78,21.78,0,0,1-3.52.5c-.65,0-1.6.06-2.91.06a26.19,26.19,0,0,0-2.65.09,11.6,11.6,0,0,0-2.8.63,14.61,14.61,0,0,0-2.73,1.23ZM25,15l-.53.8a13.35,13.35,0,0,1,2.23-1.38c.72-.39,2.47-1.31,5.25-2.73a13.22,13.22,0,0,0,5.17-4.86,14.13,14.13,0,0,0,1.14-2.18,10.29,10.29,0,0,0,.43-1.14,2.73,2.73,0,0,0,.05-.66,5.4,5.4,0,0,0,0-.92,1.45,1.45,0,0,0-.19-.67c-.11-.11-.24-.05-.37.17a21.34,21.34,0,0,1-3.5,3.78,25.55,25.55,0,0,1-4.82,3.16,27.26,27.26,0,0,0-5.43,3.41A21.61,21.61,0,0,0,20.47,16a3,3,0,0,0-.39.92.91.91,0,0,1,.68-.13l-.42.85.68-.56a1.64,1.64,0,0,1,.63-.36l-.17.59A10,10,0,0,1,23.19,16l-.23.59a6.73,6.73,0,0,1,.93-.81L25,15Zm.21-12.19A3,3,0,0,0,24.63,4a2.5,2.5,0,0,0,0,1.33,3.19,3.19,0,0,0,.56,1.21,3.38,3.38,0,0,0,1,.91,4.42,4.42,0,0,0,1.3.49A4.2,4.2,0,0,0,29,8a4.65,4.65,0,0,0,1.36-.51,3.52,3.52,0,0,0,1-.91,2.93,2.93,0,0,0,.54-1.16,2.6,2.6,0,0,0,0-1.3,3,3,0,0,0-.56-1.24,3.93,3.93,0,0,0-1-.9A4.43,4.43,0,0,0,29,1.41a4.14,4.14,0,0,0-1.49,0,4,4,0,0,0-1.36.5,3.3,3.3,0,0,0-1,.92Z" fill="#255faa" clip-rule="evenodd"/></clipPath></defs><title>compassion-logo-dark-de</title><path id="SVGID-2" data-name="SVGID" d="M30.12,13.22a11.77,11.77,0,0,0-2,1.4,11.43,11.43,0,0,0-2.71,3.57,18.78,18.78,0,0,0-1.71,4.92,16.59,16.59,0,0,0-.37,2.67l.48-.66A19.67,19.67,0,0,0,23.56,28a7.58,7.58,0,0,1,.48-.79L24,29.78,25,27.24c.07.22.13.46.2.73.64-1.49,1.2-2.72,1.69-3.7a28.37,28.37,0,0,1,1.51-2.76,21.31,21.31,0,0,1,1.63-2.3c.53-.67,1.21-1.46,2-2.33a4.42,4.42,0,0,1,1.07-.6c.37-.13.83-.28,1.42-.43.27-.07.94-.22,1.95-.48s1.6-.4,2.15-.53a16.62,16.62,0,0,0,4-1.55,3.9,3.9,0,0,0,2.07-2.58,21.78,21.78,0,0,1-3.52.5c-.65,0-1.6.06-2.91.06a26.19,26.19,0,0,0-2.65.09,11.6,11.6,0,0,0-2.8.63,14.61,14.61,0,0,0-2.73,1.23ZM25,15l-.53.8a13.35,13.35,0,0,1,2.23-1.38c.72-.39,2.47-1.31,5.25-2.73a13.22,13.22,0,0,0,5.17-4.86,14.13,14.13,0,0,0,1.14-2.18,10.29,10.29,0,0,0,.43-1.14,2.73,2.73,0,0,0,.05-.66,5.4,5.4,0,0,0,0-.92,1.45,1.45,0,0,0-.19-.67c-.11-.11-.24-.05-.37.17a21.34,21.34,0,0,1-3.5,3.78,25.55,25.55,0,0,1-4.82,3.16,27.26,27.26,0,0,0-5.43,3.41A21.61,21.61,0,0,0,20.47,16a3,3,0,0,0-.39.92.91.91,0,0,1,.68-.13l-.42.85.68-.56a1.64,1.64,0,0,1,.63-.36l-.17.59A10,10,0,0,1,23.19,16l-.23.59a6.73,6.73,0,0,1,.93-.81L25,15Zm.21-12.19A3,3,0,0,0,24.63,4a2.5,2.5,0,0,0,0,1.33,3.19,3.19,0,0,0,.56,1.21,3.38,3.38,0,0,0,1,.91,4.42,4.42,0,0,0,1.3.49A4.2,4.2,0,0,0,29,8a4.65,4.65,0,0,0,1.36-.51,3.52,3.52,0,0,0,1-.91,2.93,2.93,0,0,0,.54-1.16,2.6,2.6,0,0,0,0-1.3,3,3,0,0,0-.56-1.24,3.93,3.93,0,0,0-1-.9A4.43,4.43,0,0,0,29,1.41a4.14,4.14,0,0,0-1.49,0,4,4,0,0,0-1.36.5,3.3,3.3,0,0,0-1,.92Z" transform="translate(-1 4.2)" fill="#255faa" fill-rule="evenodd"/><g clip-path="url(#clip-path)"><rect x="35.46" y="-7.81" width="3.84" height="21.1" transform="translate(15.32 37.94) rotate(-60)" fill="#255faa"/><rect x="33.53" y="-4.46" width="3.83" height="21.1" transform="translate(11.45 37.94) rotate(-60)" fill="#255faa"/><rect x="34.24" y="-2.83" width="0.54" height="21.13" transform="translate(9.55 37.95) rotate(-60)" fill="#255faa"/><rect x="33.98" y="-2.38" width="0.54" height="21.13" transform="translate(9.04 37.95) rotate(-60)" fill="#255faa"/><rect x="33.72" y="-1.93" width="0.54" height="21.13" transform="translate(8.52 37.95) rotate(-60)" fill="#255faa"/><rect x="33.46" y="-1.49" width="0.54" height="21.13" transform="translate(8.01 37.95) rotate(-60)" fill="#255faa"/><rect x="33.2" y="-1.04" width="0.54" height="21.13" transform="translate(7.49 37.95) rotate(-60)" fill="#255faa"/><rect x="32.95" y="-0.59" width="0.54" height="21.13" transform="translate(6.98 37.95) rotate(-60)" fill="#255faa"/><rect x="32.69" y="-0.15" width="0.54" height="21.13" transform="matrix(0.5, -0.87, 0.87, 0.5, 6.46, 37.95)" fill="#255faa"/><rect x="32.43" y="0.3" width="0.54" height="21.13" transform="matrix(0.5, -0.87, 0.87, 0.5, 5.95, 37.95)" fill="#255faa"/><rect x="32.17" y="0.74" width="0.54" height="21.13" transform="matrix(0.5, -0.87, 0.87, 0.5, 5.43, 37.95)" fill="#255faa"/><rect x="31.92" y="1.19" width="0.54" height="21.13" transform="translate(4.92 37.95) rotate(-60)" fill="#255faa"/><rect x="31.66" y="1.64" width="0.54" height="21.13" transform="translate(4.4 37.95) rotate(-60)" fill="#255faa"/><rect x="31.4" y="2.08" width="0.54" height="21.13" transform="translate(3.89 37.95) rotate(-60)" fill="#255faa"/><rect x="31.14" y="2.53" width="0.54" height="21.13" transform="translate(3.37 37.95) rotate(-60)" fill="#255faa"/><rect x="30.89" y="2.97" width="0.54" height="21.13" transform="translate(2.86 37.95) rotate(-60)" fill="#255faa"/><rect x="30.63" y="3.42" width="0.54" height="21.13" transform="matrix(0.5, -0.87, 0.87, 0.5, 2.34, 37.95)" fill="#255faa"/><rect x="30.37" y="3.87" width="0.54" height="21.13" transform="translate(1.83 37.95) rotate(-60)" fill="#255faa"/><rect x="30.11" y="4.31" width="0.54" height="21.13" transform="translate(1.31 37.95) rotate(-60)" fill="#255faa"/><rect x="29.86" y="4.76" width="0.54" height="21.13" transform="translate(0.8 37.95) rotate(-60)" fill="#255faa"/><rect x="29.6" y="5.2" width="0.54" height="21.13" transform="matrix(0.5, -0.87, 0.87, 0.5, 0.28, 37.95)" fill="#255faa"/><rect x="29.34" y="5.65" width="0.54" height="21.13" transform="matrix(0.5, -0.87, 0.87, 0.5, -0.23, 37.95)" fill="#255faa"/><rect x="29.08" y="6.1" width="0.54" height="21.13" transform="translate(-0.75 37.95) rotate(-60)" fill="#255faa"/><rect x="28.83" y="6.54" width="0.54" height="21.13" transform="translate(-1.26 37.95) rotate(-60)" fill="#255faa"/><rect x="28.57" y="6.99" width="0.54" height="21.13" transform="translate(-1.78 37.95) rotate(-60)" fill="#255faa"/><rect x="28.31" y="7.43" width="0.54" height="21.13" transform="translate(-2.29 37.95) rotate(-60)" fill="#255faa"/><rect x="28.05" y="7.88" width="0.54" height="21.13" transform="translate(-2.81 37.95) rotate(-60)" fill="#255faa"/><rect x="27.8" y="8.33" width="0.54" height="21.13" transform="matrix(0.5, -0.87, 0.87, 0.5, -3.32, 37.95)" fill="#255faa"/><rect x="27.54" y="8.77" width="0.54" height="21.13" transform="translate(-3.84 37.95) rotate(-60)" fill="#255faa"/><rect x="27.28" y="9.22" width="0.54" height="21.13" transform="translate(-4.35 37.95) rotate(-60)" fill="#255faa"/><rect x="27.02" y="9.66" width="0.54" height="21.13" transform="translate(-4.87 37.95) rotate(-60)" fill="#255faa"/><rect x="26.77" y="10.11" width="0.54" height="21.13" transform="translate(-5.38 37.95) rotate(-60)" fill="#255faa"/><rect x="26.51" y="10.56" width="0.54" height="21.13" transform="translate(-5.9 37.95) rotate(-60)" fill="#255faa"/><rect x="26.25" y="11" width="0.54" height="21.13" transform="translate(-6.41 37.95) rotate(-60)" fill="#255faa"/><rect x="25.99" y="11.45" width="0.54" height="21.13" transform="translate(-6.93 37.95) rotate(-60)" fill="#255faa"/><rect x="25.74" y="11.89" width="0.54" height="21.13" transform="translate(-7.44 37.95) rotate(-60)" fill="#255faa"/><rect x="25.48" y="12.34" width="0.54" height="21.13" transform="translate(-7.96 37.95) rotate(-60)" fill="#255faa"/><rect x="25.22" y="12.79" width="0.54" height="21.13" transform="translate(-8.47 37.95) rotate(-60)" fill="#255faa"/><rect x="24.96" y="13.23" width="0.54" height="21.13" transform="translate(-8.99 37.95) rotate(-60)" fill="#255faa"/><rect x="24.71" y="13.68" width="0.54" height="21.13" transform="translate(-9.5 37.95) rotate(-60)" fill="#255faa"/><rect x="24.45" y="14.12" width="0.54" height="21.13" transform="translate(-10.02 37.95) rotate(-60)" fill="#255faa"/><rect x="24.19" y="14.57" width="0.54" height="21.13" transform="translate(-10.53 37.95) rotate(-60)" fill="#255faa"/><rect x="23.93" y="15.02" width="0.54" height="21.13" transform="translate(-11.05 37.95) rotate(-60)" fill="#255faa"/><rect x="23.68" y="15.46" width="0.54" height="21.13" transform="translate(-11.56 37.95) rotate(-60)" fill="#255faa"/><rect x="23.42" y="15.91" width="0.54" height="21.13" transform="translate(-12.08 37.95) rotate(-60)" fill="#255faa"/><rect x="23.16" y="16.35" width="0.54" height="21.13" transform="translate(-12.59 37.95) rotate(-60)" fill="#255faa"/><rect x="22.9" y="16.8" width="0.54" height="21.13" transform="translate(-13.11 37.95) rotate(-60)" fill="#255faa"/><rect x="22.65" y="17.25" width="0.54" height="21.13" transform="matrix(0.5, -0.87, 0.87, 0.5, -13.62, 37.95)" fill="#255faa"/><rect x="22.39" y="17.69" width="0.54" height="21.13" transform="translate(-14.14 37.95) rotate(-60)" fill="#255faa"/><rect x="22.13" y="18.14" width="0.54" height="21.13" transform="translate(-14.65 37.95) rotate(-60)" fill="#255faa"/></g><path d="M6.36,26.89a8.1,8.1,0,0,1,6.31-2.6,7.79,7.79,0,0,1,4.53,1.35,7.17,7.17,0,0,1,2.74,3.6h.62l-.29-4.64H19.8c-.09.13-.29.18-.58.2-.09,0-.82-.22-2.24-.64a15.18,15.18,0,0,0-4.49-.65,11.53,11.53,0,0,0-8.24,3A9.89,9.89,0,0,0,1,34.16a9.51,9.51,0,0,0,3.16,7.35,11.39,11.39,0,0,0,8,2.87,18.37,18.37,0,0,0,3.89-.45,12.76,12.76,0,0,1,2.66-.44c.22,0,.45,0,.67,0a16.62,16.62,0,0,0,1-1.91,21.71,21.71,0,0,0,1-2.75h-.6c-.13.24-.26.46-.4.69a8.37,8.37,0,0,1-7.4,4,8.32,8.32,0,0,1-6.35-2.87A10.2,10.2,0,0,1,4,33.54a9.49,9.49,0,0,1,2.34-6.65Z" transform="translate(-1 4.2)" fill="#255faa"/><path d="M60.87,33.18a1,1,0,0,1,.85,1.06V48.32c0,.24,0,.46,0,.64h0v.64h0a2.11,2.11,0,0,1-.46,1.23,2.14,2.14,0,0,1-1.65.48h-.33V52H66.8v-.65H66a2.41,2.41,0,0,1-1.55-.42,1.88,1.88,0,0,1-.58-1.29V48.32h0V43.43l.6.22a8.4,8.4,0,0,0,2.31.44,6.83,6.83,0,0,0,2.44-.47A7,7,0,0,0,71.52,42a7.17,7.17,0,0,0,2-5.05,6.43,6.43,0,0,0-1.42-4.15,4.13,4.13,0,0,0-3.3-1.8q-1.92,0-4.95,2.33v-3h-.73l-3.32,2v.6l1,.25Zm6.38-.65a3.52,3.52,0,0,1,2.69,1.31,6.48,6.48,0,0,1,1.46,4.5,5.2,5.2,0,0,1-1.08,3.35,3.25,3.25,0,0,1-2.67,1.38,5.82,5.82,0,0,1-3.78-1.69V34.07a5.44,5.44,0,0,1,3.38-1.54Z" transform="translate(-1 4.2)" fill="#255faa"/><path d="M58.25,35.67c0-3.2-1-4.82-3.2-4.8-1,0-2.93.86-5.63,2.57a2.85,2.85,0,0,0-3-2.57,3.74,3.74,0,0,0-1.24.17,14.1,14.1,0,0,0-4.45,2.4V30.87h-.47L36.36,32.2v.54l1.26.15a1,1,0,0,1,.83.55,3.35,3.35,0,0,1,.11,1.1V40.8a3.07,3.07,0,0,1-.47,1.89,2.36,2.36,0,0,1-1.82.56v.62h6.65v-.62a3.19,3.19,0,0,1-1.7-.29c-.37-.27-.53-.82-.53-1.69V34C42.56,32.74,44,32.15,45,32.15h.18a2.21,2.21,0,0,1,1.44.59,2.88,2.88,0,0,1,.76,2.13V40.8a2.79,2.79,0,0,1-.56,1.91,2.44,2.44,0,0,1-1.64.54h-.25v.62h6.58v-.62a2.23,2.23,0,0,1-1.58-.4,2.23,2.23,0,0,1-.42-1.58V33.93a8.73,8.73,0,0,1,4.25-1.78c1.6,0,2.39,1.19,2.39,3.63v2.49c0,2.69-.15,4.18-.46,4.51a2.41,2.41,0,0,1-1.67.47h-.29v.62h7.18v-.62h-1c-1.16,0-1.71-.49-1.67-1.43.07-1.75.09-3.8.09-6.15Z" transform="translate(-1 4.2)" fill="#255faa"/><path d="M34.14,32.8a6.53,6.53,0,0,0-4.87-1.93,6.86,6.86,0,0,0-4.73,1.73,6.35,6.35,0,0,0-2.18,5,6.21,6.21,0,0,0,2,4.73,7,7,0,0,0,5,1.89,6.6,6.6,0,0,0,4.8-1.92,6.5,6.5,0,0,0,2-4.75,6.35,6.35,0,0,0-2-4.78Zm-1.87.82a8,8,0,0,1,1.47,4.76,5.57,5.57,0,0,1-1.31,3.76,3.55,3.55,0,0,1-2.72,1.35,4.21,4.21,0,0,1-3.51-2,8.22,8.22,0,0,1-1.44-5A5,5,0,0,1,26,33.07a3.57,3.57,0,0,1,2.84-1.45,4.22,4.22,0,0,1,3.45,2Z" transform="translate(-1 4.2)" fill="#255faa"/><path d="M140.83,43.87v-.62h-.69c-1.22,0-1.82-.42-1.78-1.27,0-.67.09-1.36.13-2,.09-1.16.12-2.58.12-4.29,0-3.18-1.12-4.76-3.41-4.76a5.73,5.73,0,0,0-2.51.74,28.37,28.37,0,0,0-3,1.73V30.91h-.49l-3.7,1.33v.52l1.11.22a1,1,0,0,1,.86.55,3.59,3.59,0,0,1,.09,1v6.71c0,1.35-.71,2-2.13,2v.62h6.4v-.62a2.41,2.41,0,0,1-1.71-.43,2.5,2.5,0,0,1-.43-1.75V34.18c2-1.36,3.4-2,4.27-2,1.67,0,2.51,1.1,2.51,3.34,0,4.33-.2,6.69-.62,7.13a2.66,2.66,0,0,1-1.87.63v.62Z" transform="translate(-1 4.2)" fill="#255faa"/><path d="M123.52,33l-.16-.16a6.59,6.59,0,0,0-4.89-1.93,6.74,6.74,0,0,0-4.71,1.73,6.32,6.32,0,0,0-2.22,5,6.21,6.21,0,0,0,2,4.73,7,7,0,0,0,1.83,1.26,7.87,7.87,0,0,0,3.15.63c.36,0,.69,0,1,0a6.67,6.67,0,0,0,3.78-1.87,1.6,1.6,0,0,1,.16-.19,6.81,6.81,0,0,0,0-9.18ZM118,31.62a4.25,4.25,0,0,1,3.46,2,8,8,0,0,1,1.45,4.76,5.57,5.57,0,0,1-1.31,3.76,3.61,3.61,0,0,1-2.71,1.35,4.19,4.19,0,0,1-3.5-2,8.36,8.36,0,0,1-1.44-5,5.11,5.11,0,0,1,1.24-3.47A3.56,3.56,0,0,1,118,31.62Z" transform="translate(-1 4.2)" fill="#255faa"/><path d="M109.32,30.71h-.49l-4.12,1.44v.49l1.49.29a1.19,1.19,0,0,1,.91.51,4.73,4.73,0,0,1,.07,1.07v6.42a2.37,2.37,0,0,1-.58,1.8,3,3,0,0,1-2,.52v.62h7.07v-.62c-1.54,0-2.31-.62-2.31-1.82V30.71Z" transform="translate(-1 4.2)" fill="#255faa"/><path d="M102.63,34.29l-.07-2.93a6.84,6.84,0,0,0-2.56-.49,4.07,4.07,0,0,0-2.93,1,3.18,3.18,0,0,0-1.16,2.59,3,3,0,0,0,.74,2,11.14,11.14,0,0,0,1.86,1.41,13.93,13.93,0,0,1,2.2,1.75,2.88,2.88,0,0,1,1,1.93,2,2,0,0,1-.65,1.5,2.39,2.39,0,0,1-1.09.59c-.17,0-.33,0-.51,0s-.36,0-.51,0a2.83,2.83,0,0,1-1.4-.77,4,4,0,0,1-1.13-2.22h-.52l.38,3.62h.45c.18-.29.35-.43.53-.42a5.44,5.44,0,0,1,1,.2,4.27,4.27,0,0,0,1.24.22,4.42,4.42,0,0,0,2.33-.63l.49-.4a3.45,3.45,0,0,0,1.14-2.62,3.9,3.9,0,0,0-1.52-3c-1-.67-1.93-1.32-2.89-2a2.87,2.87,0,0,1-1.51-2.2,1.56,1.56,0,0,1,.58-1.29,1.85,1.85,0,0,1,1.36-.53,2.25,2.25,0,0,1,1.66.71,3.68,3.68,0,0,1,.89,2Z" transform="translate(-1 4.2)" fill="#255faa"/><path d="M93.6,34.29l-.09-2.93A6.75,6.75,0,0,0,91,30.87a4.22,4.22,0,0,0-2.95,1,3.27,3.27,0,0,0-1.12,2.59,2.89,2.89,0,0,0,.72,2,10.31,10.31,0,0,0,1.88,1.41,13.66,13.66,0,0,1,2.18,1.75,2.85,2.85,0,0,1,1,1.93,2,2,0,0,1-.66,1.5,2.36,2.36,0,0,1-1.11.59c-.16,0-.33,0-.53,0l-.49,0a2.79,2.79,0,0,1-1.4-.77,3.93,3.93,0,0,1-1.1-2.22h-.53l.34,3.62h.46c.18-.29.38-.43.56-.42a6.1,6.1,0,0,1,1.06.2,4.16,4.16,0,0,0,1.23.22,4.35,4.35,0,0,0,2.31-.63,5.31,5.31,0,0,0,.51-.4,3.48,3.48,0,0,0,1.13-2.62,3.88,3.88,0,0,0-1.53-3l-2.89-2a2.82,2.82,0,0,1-1.51-2.2,1.61,1.61,0,0,1,.56-1.29,1.91,1.91,0,0,1,1.39-.53,2.23,2.23,0,0,1,1.65.71,3.39,3.39,0,0,1,.87,2Z" transform="translate(-1 4.2)" fill="#255faa"/><path d="M84.25,42.73a.68.68,0,0,1-.71-.59,17.22,17.22,0,0,1-.11-2.54V35.31A5.52,5.52,0,0,0,83,32.54a3.9,3.9,0,0,0-3.36-1.67,4.77,4.77,0,0,0-3.11,1.37c-1.08.92-1.6,1.7-1.6,2.34A1.3,1.3,0,0,0,75,35L77.16,34a1.35,1.35,0,0,1-.18-.6,1.5,1.5,0,0,1,.6-1.09A2,2,0,0,1,79,31.78a2.16,2.16,0,0,1,1.78.91,3.28,3.28,0,0,1,.55,2.05v2.55a11.05,11.05,0,0,1-2.82,1.22,8,8,0,0,0-2.67,1,2.38,2.38,0,0,0-1.11,2.09,2.54,2.54,0,0,0,.78,1.92.18.18,0,0,1,.09.08A3.58,3.58,0,0,0,79,44c.2-.09.4-.22.63-.34.48-.33,1-.77,1.71-1.31a3.63,3.63,0,0,0,.33,1.31,1.27,1.27,0,0,0,1.15.63,3.68,3.68,0,0,0,1.67-.63c.45-.29.94-.66,1.51-1.11L85.83,42a2.66,2.66,0,0,1-1.58.71ZM79.43,38.8a13.41,13.41,0,0,0,1.86-.87v3.8a6.79,6.79,0,0,1-2.67,1.41,1.85,1.85,0,0,1-1.31-.52,1.77,1.77,0,0,1-.59-1.37,1.69,1.69,0,0,1,.62-1.42,10.81,10.81,0,0,1,2.09-1Z" transform="translate(-1 4.2)" fill="#255faa"/><path d="M140.08,30.6v.47h.13c.28,0,.43-.08.43-.24a.2.2,0,0,0-.14-.2,1,1,0,0,0-.29,0Zm-.41,1.49V30.32h.44a2.93,2.93,0,0,1,.64.05.42.42,0,0,1,.31.43.39.39,0,0,1-.11.27.53.53,0,0,1-.31.14h0c.09,0,.16.07.22.19l.32.69h-.45l-.24-.55a.33.33,0,0,0-.1-.14.3.3,0,0,0-.18,0h-.13v.74Z" transform="translate(-1 4.2)" fill="#255faa" fill-rule="evenodd"/><path d="M139.1,31.22a1.28,1.28,0,1,1,1.28,1.28,1.27,1.27,0,0,1-1.28-1.28Zm-.49,0A1.77,1.77,0,1,1,140.38,33a1.76,1.76,0,0,1-1.77-1.77Z" transform="translate(-1 4.2)" fill="#255faa" fill-rule="evenodd"/><path d="M31.15,28V27.9c.29,0,.4-.06.4-.18s-.13-.32-.76-.95-.65-.59-.92-.56v1.17c0,.39.11.52.49.52h.09V28H28.74V27.9h.11c.4,0,.5-.14.5-.46V24.71c0-.38-.17-.45-.5-.45h-.11v-.12h1.68v.12h-.06c-.37,0-.49.12-.49.49V26.1a1.14,1.14,0,0,0,.69-.4,3.11,3.11,0,0,0,.87-1.25c0-.14-.09-.19-.43-.19v-.12h1.64v.12a1,1,0,0,0-.82.25A7.88,7.88,0,0,1,30.58,26c.11,0,.22.12.5.39.65.65,1,1.14,1.2,1.35s.27.18.7.18V28Z" transform="translate(-1 4.2)" fill="#255faa"/><path d="M34,27.54c0,.22.11.36.44.36V28H33.08V27.9c.38,0,.52-.13.52-.46V26.19c0-.24,0-.28-.19-.31l-.3-.05v-.1l.81-.28H34Zm-.26-3.49a.26.26,0,0,1,.28.23.27.27,0,0,1-.28.24.26.26,0,0,1-.27-.24A.25.25,0,0,1,33.76,24.05Z" transform="translate(-1 4.2)" fill="#255faa"/><path d="M35.59,27.47c0,.35.08.43.41.43V28H34.75V27.9a.37.37,0,0,0,.42-.4V26.19c0-.23,0-.27-.19-.3l-.21,0v-.1l.72-.27h.1V26a2.37,2.37,0,0,1,1.07-.49c.42,0,.67.31.67.93,0,.83,0,1,0,1.24s.09.25.34.25h.14V28H36.42V27.9a.53.53,0,0,0,.36-.12c.12-.12.13-.58.13-1.4,0-.5-.25-.66-.49-.66a1.91,1.91,0,0,0-.83.4Z" transform="translate(-1 4.2)" fill="#255faa"/><path d="M40.07,24.39c0-.12,0-.15-.25-.18l-.2,0v-.11l.86-.25v3.65c0,.22.14.26.31.21l.15,0v.13l-.8.31h-.07v-.44a1.92,1.92,0,0,1-1,.44,1.12,1.12,0,0,1-1-1.2,1.38,1.38,0,0,1,1.36-1.41,1.84,1.84,0,0,1,.61.12Zm0,1.72a.86.86,0,0,0-.74-.46c-.49,0-.81.44-.81,1s.36,1.15.81,1.15a1.52,1.52,0,0,0,.74-.31Z" transform="translate(-1 4.2)" fill="#255faa"/><path d="M41.66,26.43c0,.1,0,.18,0,.26a1,1,0,0,0,.94,1.09,1,1,0,0,0,.8-.41l.06.08a1.49,1.49,0,0,1-1.1.64,1.18,1.18,0,0,1-1.09-1.28,1.25,1.25,0,0,1,1.2-1.33c.84,0,.83.6,1,.81v.14Zm1.3-.16c-.07-.41-.32-.67-.62-.67s-.52.09-.66.67Z" transform="translate(-1 4.2)" fill="#255faa"/><path d="M44.68,27.56c0,.26.09.34.4.34h.24V28H43.84V27.9c.32,0,.42-.14.42-.47V26l-.42-.15v-.11l.71-.25h.13v.66h0c.31-.51.39-.62.59-.62a.37.37,0,0,1,.21.05l.33.1-.15.37a1,1,0,0,1-.33-.1.55.55,0,0,0-.22-.06.29.29,0,0,0-.24.16,3.15,3.15,0,0,0-.2.31Z" transform="translate(-1 4.2)" fill="#255faa"/><path d="M47.77,26.29a.37.37,0,0,1,0-.09,1.15,1.15,0,0,1,.92-.72.86.86,0,0,1,.66.33c.09.13.09.21.09.53v.84c0,.5,0,.61.16.61a.45.45,0,0,0,.31-.14l0,.1c-.34.27-.51.34-.62.34s-.28-.28-.28-.38c-.43.35-.56.38-.73.38a.51.51,0,0,1-.58-.51c0-.38.34-.51.74-.61a2.12,2.12,0,0,0,.55-.24v-.49a.53.53,0,0,0-.1-.4.48.48,0,0,0-.35-.18.39.39,0,0,0-.39.3.3.3,0,0,0,0,.12Zm1.23.57-.37.17c-.38.16-.52.22-.52.47a.36.36,0,0,0,.37.37c.1,0,.17,0,.52-.27Z" transform="translate(-1 4.2)" fill="#255faa"/><path d="M53.05,27.83l-.83.26v-.5a2.08,2.08,0,0,1-1.06.5.63.63,0,0,1-.66-.64V26.07c0-.15,0-.22-.17-.26l-.22-.06v-.09l.81-.18v1.75a.53.53,0,0,0,.56.56,1.31,1.31,0,0,0,.74-.34V26.11c0-.25,0-.3-.23-.33l-.31-.06v-.09l1-.15v2.1c0,.18.06.21.28.17l.13,0Z" transform="translate(-1 4.2)" fill="#255faa"/><path d="M53.5,27.39c.08.37.31.58.59.58a.43.43,0,0,0,.45-.41c0-.13,0-.21-.2-.38-.45-.44-.94-.49-.94-1a.72.72,0,0,1,.8-.7,1.44,1.44,0,0,1,.5.1v.56H54.6a.52.52,0,0,0-.49-.51.36.36,0,0,0-.38.35c0,.55,1.16.64,1.16,1.4a.74.74,0,0,1-.78.71.91.91,0,0,1-.27,0,.68.68,0,0,0-.17,0,.13.13,0,0,0-.11.07h-.09l-.07-.69Z" transform="translate(-1 4.2)" fill="#255faa"/><path d="M57.67,26.29l-.37,1a2,2,0,0,0-.12.4c0,.16.16.23.5.23h.1V28H56.34V27.9c.41,0,.48-.08.68-.62l1.13-3.1,0-.13h.54l1.3,3.45a.49.49,0,0,0,.57.4V28H58.79V27.9H59c.35,0,.48,0,.48-.22a.57.57,0,0,0-.07-.25L59,26.29Zm.63-1.72L57.77,26h1.08Z" transform="translate(-1 4.2)" fill="#255faa"/><path d="M61.53,27.56c0,.26.1.34.41.34h.24V28H60.7V27.9c.32,0,.42-.14.42-.47V26l-.42-.15v-.11l.71-.25h.12v.66h0c.31-.51.38-.62.59-.62a.41.41,0,0,1,.21.05c.06,0,.18.05.33.1l-.15.37a.89.89,0,0,1-.33-.1.6.6,0,0,0-.22-.06.32.32,0,0,0-.25.16,3.15,3.15,0,0,0-.2.31Z" transform="translate(-1 4.2)" fill="#255faa"/><path d="M63.88,27.51c0,.32.09.39.44.39V28H63V27.9c.36,0,.45-.17.45-.48V26.19c0-.24,0-.29-.18-.31l-.25,0v-.11l.75-.26h.09V26a2.31,2.31,0,0,1,1.11-.5.58.58,0,0,1,.59.5,2.46,2.46,0,0,1,1.11-.5c.45,0,.62.34.62.94,0,.4,0,.82,0,1.2,0,.13.08.28.33.28h.2V28h-1.4V27.9h.06c.18,0,.26,0,.31-.09s.1-.46.1-.89v-.48c0-.48-.16-.71-.46-.71a1.55,1.55,0,0,0-.83.35v1.43c0,.31.07.39.38.39V28H64.71V27.9c.35,0,.47-.13.47-.48V26.26c0-.39-.24-.53-.46-.53a1.65,1.65,0,0,0-.84.36Z" transform="translate(-1 4.2)" fill="#255faa"/><path d="M70.83,27.83l-.83.26v-.5a2.08,2.08,0,0,1-1.06.5.63.63,0,0,1-.66-.64V26.07c0-.15,0-.22-.17-.26l-.22-.06v-.09l.8-.18v1.75a.54.54,0,0,0,.57.56,1.31,1.31,0,0,0,.74-.34V26.11c0-.25,0-.3-.23-.33l-.32-.06v-.09l1-.15v2.1c0,.18.07.21.29.17l.13,0Z" transform="translate(-1 4.2)" fill="#255faa"/><path d="M72.76,25.55l-.1.27h-.79v1.45a.47.47,0,0,0,.41.53c.13,0,.26-.11.38-.32l.1.1a.78.78,0,0,1-.68.51.66.66,0,0,1-.63-.72V25.82h-.29v-.1a1.34,1.34,0,0,0,.6-.79h.11v.62Z" transform="translate(-1 4.2)" fill="#255faa"/><path d="M75.42,25.91a1.77,1.77,0,0,1,.94-.43,1.14,1.14,0,0,1,1,1.2,1.41,1.41,0,0,1-1.46,1.41A4.46,4.46,0,0,1,75,28V24.59c0-.32,0-.35-.25-.38l-.18,0v-.11l.75-.25h.1Zm0,1.34a.63.63,0,0,0,.68.66c.51,0,.86-.43.86-1.05s-.36-1.1-.84-1.1a1.27,1.27,0,0,0-.7.3Z" transform="translate(-1 4.2)" fill="#255faa"/><path d="M78.36,26.43c0,.1,0,.18,0,.26a1,1,0,0,0,1,1.09,1,1,0,0,0,.79-.41l.07.08a1.49,1.49,0,0,1-1.11.64A1.18,1.18,0,0,1,78,26.81a1.25,1.25,0,0,1,1.2-1.33c.84,0,.82.6,1,.81v.14Zm1.3-.16c-.07-.41-.32-.67-.62-.67s-.52.09-.66.67Z" transform="translate(-1 4.2)" fill="#255faa"/><path d="M82,25.82h-.67v1.71c0,.29.11.37.46.37h.23V28H80.51V27.9c.37,0,.43-.08.43-.43V25.82h-.46v-.11a1.67,1.67,0,0,0,.46-.16,1.64,1.64,0,0,1,.48-1.28,1.24,1.24,0,0,1,.88-.44c.35,0,.65.2.65.29s-.12.3-.17.3-.32-.31-.73-.31-.69.36-.69,1v.48H82Z" transform="translate(-1 4.2)" fill="#255faa"/><path d="M83.06,27.56c0,.26.1.34.41.34h.24V28H82.23V27.9c.32,0,.42-.14.42-.47V26l-.42-.15v-.11l.71-.25h.12v.66h0c.31-.51.38-.62.59-.62a.41.41,0,0,1,.21.05c.06,0,.17.05.32.1l-.15.37a1,1,0,0,1-.33-.1.51.51,0,0,0-.21-.06c-.12,0-.18.07-.25.16a3.15,3.15,0,0,0-.2.31Z" transform="translate(-1 4.2)" fill="#255faa"/><path d="M84.73,26.43c0,.1,0,.18,0,.26a1,1,0,0,0,1,1.09,1,1,0,0,0,.79-.41l.07.08a1.49,1.49,0,0,1-1.11.64,1.18,1.18,0,0,1-1.08-1.28,1.25,1.25,0,0,1,1.2-1.33c.84,0,.82.6,1,.81v.14Zm1.3-.16c-.07-.41-.32-.67-.62-.67s-.52.09-.66.67Z" transform="translate(-1 4.2)" fill="#255faa"/><path d="M87.79,27.54c0,.22.12.36.45.36V28H86.86V27.9c.38,0,.52-.13.52-.46V26.19c0-.24,0-.28-.2-.31l-.29-.05v-.1l.81-.28h.09Zm-.25-3.49a.25.25,0,0,1,.27.23.27.27,0,0,1-.54,0A.25.25,0,0,1,87.54,24.05Z" transform="translate(-1 4.2)" fill="#255faa"/><path d="M89.08,26.43c0,.1,0,.18,0,.26a1,1,0,0,0,1,1.09,1,1,0,0,0,.79-.41l.07.08a1.49,1.49,0,0,1-1.11.64,1.18,1.18,0,0,1-1.08-1.28,1.25,1.25,0,0,1,1.2-1.33c.84,0,.82.6,1,.81v.14Zm1.29-.16c-.06-.41-.31-.67-.61-.67s-.52.09-.66.67Z" transform="translate(-1 4.2)" fill="#255faa"/><path d="M92.09,27.47c0,.35.09.43.42.43V28H91.26V27.9a.37.37,0,0,0,.42-.4V26.19c0-.23,0-.27-.19-.3l-.21,0v-.1l.71-.27h.1V26a2.45,2.45,0,0,1,1.08-.49c.42,0,.66.31.66.93,0,.83,0,1,0,1.24s.1.25.35.25h.14V28H92.93V27.9a.48.48,0,0,0,.35-.12c.12-.12.14-.58.14-1.4,0-.5-.25-.66-.5-.66a2,2,0,0,0-.83.4Z" transform="translate(-1 4.2)" fill="#255faa"/><path d="M70.43,51.16c0,.29.15.47.59.47v.16H69.18v-.16c.51,0,.69-.17.69-.61V49.35c0-.32,0-.36-.26-.4l-.39-.08v-.13l1.08-.38h.13Zm-.35-4.66a.35.35,0,0,1,.37.31.36.36,0,0,1-.37.32.34.34,0,0,1-.35-.32A.33.33,0,0,1,70.08,46.5Z" transform="translate(-1 4.2)" fill="#255faa"/><path d="M72.51,51.11c0,.44.12.52.58.52v.16H71.36v-.16c.49,0,.59-.22.59-.64V49.36c0-.32,0-.4-.24-.42l-.32,0v-.15l1-.34h.12v.66A3.13,3.13,0,0,1,74,48.41a.77.77,0,0,1,.79.66,3.35,3.35,0,0,1,1.47-.66c.6,0,.83.45.83,1.25,0,.53,0,1.09,0,1.6,0,.17.09.37.44.37h.26v.16H75.89v-.16H76c.24,0,.35,0,.42-.12a2.59,2.59,0,0,0,.13-1.18v-.64c0-.64-.21-.95-.62-.95a2.11,2.11,0,0,0-1.1.46v1.91c0,.42.1.52.51.52v.16h-1.7v-.16c.46,0,.63-.17.63-.64V49.45a.62.62,0,0,0-.62-.71,2.23,2.23,0,0,0-1.11.48Z" transform="translate(-1 4.2)" fill="#255faa"/><path d="M85.72,51.85l-4.3-4.51v3.57c0,.59.13.72.84.72v.16H80.33v-.16h0c.52,0,.68-.18.68-.56V47a1.22,1.22,0,0,0-.69-.2v-.16h1.3l3.91,4.08V47.39c0-.5-.15-.6-.81-.61v-.16h1.94v.16c-.62,0-.75.11-.75.43v4.64Z" transform="translate(-1 4.2)" fill="#255faa"/><path d="M87.21,49.49a.3.3,0,0,1,0-.12,1.53,1.53,0,0,1,1.23-1,1.09,1.09,0,0,1,.87.44c.13.17.13.28.13.71v1.11c0,.67,0,.82.22.82a.56.56,0,0,0,.4-.18l0,.12c-.44.37-.68.46-.82.46-.34,0-.37-.38-.38-.51-.57.47-.74.51-1,.51a.69.69,0,0,1-.78-.68c0-.51.45-.69,1-.82a2.73,2.73,0,0,0,.74-.31v-.66a.68.68,0,0,0-.14-.53.6.6,0,0,0-.46-.24.52.52,0,0,0-.52.4.37.37,0,0,0,0,.16Zm1.64.75a3.22,3.22,0,0,1-.49.23c-.5.21-.69.3-.69.64a.49.49,0,0,0,.48.49c.14,0,.24-.05.7-.37Z" transform="translate(-1 4.2)" fill="#255faa"/><path d="M91.45,51.11c0,.44.11.52.58.52v.16H90.3v-.16c.48,0,.59-.22.59-.64V49.36c0-.32,0-.4-.24-.42l-.33,0v-.15l1-.34h.13v.66a3.07,3.07,0,0,1,1.47-.66.77.77,0,0,1,.79.66,3.4,3.4,0,0,1,1.47-.66c.6,0,.84.45.84,1.25,0,.53,0,1.09,0,1.6,0,.17.1.37.44.37h.27v.16H94.83v-.16h.07a.55.55,0,0,0,.43-.12,2.59,2.59,0,0,0,.13-1.18v-.64c0-.64-.22-.95-.62-.95a2.17,2.17,0,0,0-1.11.46v1.91c0,.42.1.52.52.52v.16H92.54v-.16c.47,0,.63-.17.63-.64V49.45c0-.52-.32-.71-.61-.71a2.2,2.2,0,0,0-1.11.48Z" transform="translate(-1 4.2)" fill="#255faa"/><path d="M97.65,49.68a2.16,2.16,0,0,0,0,.35,1.35,1.35,0,0,0,1.26,1.44,1.3,1.3,0,0,0,1.06-.54l.09.1a2,2,0,0,1-1.48.86,1.57,1.57,0,0,1-1.45-1.71,1.67,1.67,0,0,1,1.61-1.77c1.12,0,1.09.8,1.37,1.08v.19Zm1.73-.22c-.09-.54-.42-.9-.82-.9s-.69.13-.88.9Z" transform="translate(-1 4.2)" fill="#255faa"/><path d="M101.67,51.06c0,.46.11.57.56.57v.16h-1.67v-.16a.5.5,0,0,0,.56-.52V49.36c0-.31,0-.36-.25-.41l-.29-.05v-.14l1-.35h.13v.65a3.2,3.2,0,0,1,1.43-.65c.57,0,.89.41.89,1.24,0,1.11-.06,1.32-.07,1.65s.13.33.47.33h.18v.16h-1.78v-.16a.67.67,0,0,0,.47-.16c.16-.16.17-.76.17-1.87,0-.66-.32-.87-.65-.87a2.47,2.47,0,0,0-1.11.53Z" transform="translate(-1 4.2)" fill="#255faa"/><path d="M108.6,50.93c0,1.67-.68,2.79-1.72,2.79-.45,0-.8-.19-.8-.45a.32.32,0,0,1,.3-.33c.28,0,.5.39.85.39s.68-.3.68-1.22V47.67c0-.73-.07-.89-.67-.89h-.09v-.16h2.1v.16c-.53,0-.65.16-.65.6Z" transform="translate(-1 4.2)" fill="#255faa"/><path d="M110.19,49.68a2.16,2.16,0,0,0,0,.35,1.34,1.34,0,0,0,1.26,1.44,1.3,1.3,0,0,0,1.06-.54l.09.1a2,2,0,0,1-1.48.86,1.57,1.57,0,0,1-1.45-1.71,1.67,1.67,0,0,1,1.61-1.77c1.12,0,1.09.8,1.37,1.08v.19Zm1.73-.22c-.09-.54-.43-.9-.82-.9s-.69.13-.88.9Z" transform="translate(-1 4.2)" fill="#255faa"/><path d="M113.28,51a.85.85,0,0,0,.79.78.57.57,0,0,0,.59-.55c0-.17,0-.28-.27-.51-.58-.59-1.24-.64-1.24-1.33a1,1,0,0,1,1.06-.93,1.9,1.9,0,0,1,.67.13v.75h-.14a.7.7,0,0,0-.66-.68.48.48,0,0,0-.51.46c0,.73,1.55.86,1.55,1.87a1,1,0,0,1-1,1,1.14,1.14,0,0,1-.37-.06.74.74,0,0,0-.22,0,.19.19,0,0,0-.15.1h-.12l-.09-.93Z" transform="translate(-1 4.2)" fill="#255faa"/><path d="M119.52,51.55l-1.11.34v-.67a2.8,2.8,0,0,1-1.41.67.86.86,0,0,1-.89-.85V49.19c0-.19,0-.29-.22-.34l-.29-.08v-.12l1.07-.24v2.33a.71.71,0,0,0,.75.75,1.76,1.76,0,0,0,1-.46V49.24c0-.32,0-.39-.31-.44l-.42-.07v-.12l1.28-.2v2.8c0,.24.09.28.39.22l.17,0Z" transform="translate(-1 4.2)" fill="#255faa"/></svg>