<?xml version="1.0" encoding="utf-8"?>
<!-- Generator: Adobe Illustrator 21.0.0, SVG Export Plug-In . SVG Version: 6.00 Build 0)  -->
<svg version="1.1" id="Ebene_1" xmlns="http://www.w3.org/2000/svg" xmlns:xlink="http://www.w3.org/1999/xlink" x="0px" y="0px"
	 viewBox="0 0 142.9 54.1" style="enable-background:new 0 0 142.9 54.1;" xml:space="preserve">
<style type="text/css">
	.st0{fill:#014898;}
</style>
<ellipse transform="matrix(4.681007e-02 -0.9989 0.9989 4.681007e-02 22.3767 32.5006)" class="st0" cx="28.2" cy="4.5" rx="3.4" ry="3.8"/>
<path class="st0" d="M38.4,1"/>
<path class="st0" d="M38.3,1.1c0,0-2,3.5-6.4,6c-4.4,2.5-8.3,4-12.1,9.8c0,0,1.1-0.5,0.3,0.7c0,0,0.6-0.5,1.1-0.7
	c0,0,0.3-0.1,0.2,0.3c0,0,2-1.5,1.5-0.8c-0.3,0.4,1.6-1.4,1.8-1.2c0,0,0.1,0.1-0.2,0.5c0,0,4.5-2.7,6.1-3.4c7.2-3.1,8.8-8.1,8.1-11
	C38.7,1.3,38.7,0.7,38.3,1.1z"/>
<path class="st0" d="M23.3,25.9c0,0,0.3-7.5,5-11.4c4.7-3.8,9.2-3.1,11-3.3c0,0,3.8,0.1,5.7-0.5c0,0,0.3,3.4-9.1,5
	c0,0-3.1,0-5.7,3.5c0,0-2.6,2.9-5,9c0,0,0-0.9-0.4-0.3l-0.9,2l0-1.9c0,0-0.2-0.5-0.4,0.2c0,0-0.2,0.2,0.1-2.3
	C23.6,25.8,23.6,25.3,23.3,25.9z"/>
<path d="M20,28.9c-1.1-3-3.8-4.9-7.3-4.9c-5.3,0-8.7,3.9-8.7,9.2c0,5.8,4.2,10,9,10c2.5,0,5.6-0.9,7.8-4.7h0.6
	c-0.4,1.4-1.3,3.4-2,4.7c-2-0.3-3.4,0.9-7.2,0.9C5.7,44,1.1,39.8,1.1,33.9c0-6.2,4.8-10.7,11.5-10.7c4,0,5.7,1.3,6.7,1.3
	c0.4,0,0.5-0.1,0.6-0.2h0.5l0.3,4.6H20z"/>
<path d="M29.4,30.5c3.9,0,6.9,2.9,6.9,6.7c0,3.8-3,6.7-6.8,6.7c-4,0-7-2.9-7-6.6C22.5,32.9,26.1,30.5,29.4,30.5z M29.9,43.1
	c1.9,0,4-1.9,4-5.1c0-3.6-2.2-6.7-4.9-6.7c-2.1,0-4.1,2.2-4.1,4.9C24.9,40.1,27.1,43.1,29.9,43.1z"/>
<path d="M40.7,40.9c0,1.7,0.4,2,2.2,2v0.6h-6.6v-0.6c1.9,0,2.3-0.8,2.3-2.5v-6.3c0-1.2-0.2-1.5-0.9-1.6l-1.2-0.2v-0.5l3.8-1.3h0.5
	v2.6c2.3-1.6,4.4-2.6,5.7-2.6c1.6,0,2.7,1,3,2.6c2.1-1.3,4.1-2.6,5.7-2.6c2.3,0,3.2,1.8,3.2,4.8c0,2,0,4.2-0.1,6.1
	c0,0.7,0.4,1.4,1.7,1.4h1v0.6h-7.2v-0.6H54c0.9,0,1.3-0.2,1.6-0.4c0.5-0.5,0.5-2.3,0.5-4.5v-2.5c0-2.5-0.8-3.6-2.4-3.6
	c-1,0-2.3,0.5-4.2,1.8v7.3c0,1.6,0.4,2,2,2v0.6H45v-0.6c1.8,0,2.4-0.6,2.4-2.5v-5.9c0-2-1.2-2.7-2.4-2.7c-0.9,0-2.1,0.4-4.3,1.9
	V40.9z"/>
<path d="M63.8,48.9c0,1.6,0.8,2.1,2.1,2.1h0.8v0.6h-7.5V51h0.3c1.6,0,2.1-0.5,2.1-2.4V33.9c0-0.6-0.1-0.9-0.9-1.1l-1-0.3V32l3.4-2.1
	h0.6V33c2-1.5,3.7-2.3,5-2.3c2.5,0,4.7,2.8,4.7,5.9c0,3.9-3.1,7.2-6.8,7.2c-0.9,0-1.7-0.2-2.9-0.6V48.9z M63.8,41
	c1.1,1,2.6,1.7,3.8,1.7c2.2,0,3.8-2.1,3.8-4.8c0-4.2-2.5-5.8-4.2-5.8c-1,0-2.2,0.6-3.4,1.6V41z"/>
<path d="M74.8,34.7c-0.1-0.2-0.1-0.3-0.1-0.4c0-1.1,2.7-3.7,4.7-3.7c1,0,2.5,0.4,3.4,1.7c0.5,0.7,0.5,1.1,0.5,2.7v4.3
	c0,2.6,0,3.1,0.8,3.1c0.4,0,0.8,0,1.6-0.7l0.2,0.5c-1.7,1.4-2.6,1.8-3.2,1.8c-1.3,0-1.4-1.4-1.5-1.9c-2.2,1.8-2.8,1.9-3.7,1.9
	c-1.9,0-3-1.1-3-2.6c0-1.9,1.7-2.6,3.8-3.1C79,38,80,37.6,81.1,37v-2.5c0-0.9,0-1.4-0.5-2c-0.4-0.5-1.1-0.9-1.8-0.9
	c-1.1,0-2,0.9-2,1.6c0,0.2,0,0.3,0.2,0.6L74.8,34.7z M81.1,37.6c-0.6,0.4-1.1,0.6-1.9,0.9c-1.9,0.8-2.7,1.1-2.7,2.4
	c0,1.2,0.9,1.9,1.9,1.9c0.5,0,0.9-0.2,2.7-1.4V37.6z"/>
<path d="M87.2,40.3c0.4,1.9,1.6,3,3,3c1.3,0,2.3-1,2.3-2.1c0-0.7-0.2-1.1-1-1.9c-2.3-2.3-4.8-2.5-4.8-5.1c0-2.1,1.7-3.6,4.1-3.6
	c0.9,0,1.8,0.2,2.6,0.5l0.1,2.9h-0.5c-0.2-1.6-1.3-2.7-2.6-2.7c-1.1,0-1.9,0.7-1.9,1.8c0,2.8,5.9,3.3,5.9,7.2c0,2.1-1.7,3.6-4,3.6
	c-0.6,0-1.1-0.1-1.4-0.2c-0.4-0.1-0.6-0.2-0.9-0.2c-0.2,0-0.4,0.1-0.5,0.4H87l-0.4-3.6H87.2z"/>
<path d="M96.2,40.3c0.4,1.9,1.6,3,3,3c1.3,0,2.3-1,2.3-2.1c0-0.7-0.2-1.1-1-1.9c-2.3-2.3-4.8-2.5-4.8-5.1c0-2.1,1.7-3.6,4.1-3.6
	c0.9,0,1.8,0.2,2.6,0.5l0.1,2.9h-0.5c-0.2-1.6-1.3-2.7-2.6-2.7c-1.1,0-1.9,0.7-1.9,1.8c0,2.8,5.9,3.3,5.9,7.2c0,2.1-1.7,3.6-4,3.6
	c-0.6,0-1.1-0.1-1.4-0.2c-0.4-0.1-0.6-0.2-0.9-0.2c-0.2,0-0.4,0.1-0.5,0.4h-0.5l-0.4-3.6H96.2z"/>
<path d="M109.1,41.1c0,1.1,0.6,1.8,2.3,1.8v0.6h-7.1v-0.6c1.9,0,2.7-0.6,2.7-2.3v-6.4c0-1.2-0.2-1.4-1-1.6l-1.5-0.3v-0.5l4.2-1.4
	h0.5V41.1z"/>
<path d="M118.1,30.5c3.9,0,6.9,2.9,6.9,6.7c0,3.8-3,6.7-6.8,6.7c-4,0-7-2.9-7-6.6C111.2,32.9,114.8,30.5,118.1,30.5z M118.6,43.1
	c1.9,0,4-1.9,4-5.1c0-3.6-2.2-6.7-4.9-6.7c-2.1,0-4.1,2.2-4.1,4.9C113.6,40.1,115.8,43.1,118.6,43.1z"/>
<path d="M129.3,40.8c0,1.8,0.4,2.2,2.1,2.2v0.6H125v-0.6c1.4,0,2.1-0.8,2.1-2v-6.7c0-1.2-0.1-1.4-1-1.6l-1.1-0.2v-0.5l3.7-1.3h0.5
	v2.5c2.1-1.3,3.9-2.5,5.5-2.5c2.2,0,3.4,1.6,3.4,4.8c0,4.2-0.2,5.1-0.3,6.3c0,0.9,0.5,1.3,1.8,1.3h0.7v0.6h-6.9v-0.6
	c0.9,0,1.5-0.3,1.8-0.6c0.6-0.6,0.7-2.9,0.7-7.2c0-2.6-1.2-3.4-2.5-3.4c-1,0-2.6,0.9-4.2,2V40.8z"/>
<g>
	<path class="st0" d="M34.9,24c0-0.2,0-0.6-0.1-0.8c-0.1-0.2-0.3-0.2-0.5-0.2v-0.1c0.3,0,0.6,0,0.8,0c0.3,0,0.6,0,0.9,0v0.1
		c-0.2,0-0.4,0-0.5,0.2c-0.1,0.2-0.1,0.6-0.1,0.8v1.7c0,0.7,0.1,0.9,0.9,0.9c0.3,0,0.6,0,0.8-0.1c0.3-0.2,0.3-0.4,0.4-0.7h0.1
		l-0.1,1c-0.1,0-0.2,0-0.3,0c-1,0-2,0-3,0v-0.1c0.2,0,0.4,0,0.5-0.2c0.1-0.2,0.1-0.6,0.1-0.8V24z"/>
	<path class="st0" d="M38.9,24.2v1.9c0,0.4-0.1,0.6,0.4,0.6v0.1c-0.2,0-0.4,0-0.6,0c-0.2,0-0.5,0-0.7,0v-0.1c0.4,0,0.4-0.2,0.4-0.6
		v-0.8c0-0.1,0-0.6,0-0.6c0-0.1-0.3-0.1-0.4-0.1v-0.1L38.9,24.2z M38.3,23.2c0-0.2,0.1-0.3,0.3-0.3c0.2,0,0.3,0.1,0.3,0.3
		c0,0.2-0.1,0.3-0.3,0.3C38.4,23.5,38.3,23.4,38.3,23.2z"/>
	<path class="st0" d="M40.5,24.5c0.2-0.2,0.5-0.3,0.8-0.3c0.7,0,1.3,0.6,1.3,1.3c0,0.7-0.6,1.3-1.3,1.3c-0.3,0-0.7-0.1-0.9-0.4
		l-0.3,0.3H40v-2.9c0-0.1,0-0.5-0.1-0.6c-0.1-0.1-0.2-0.1-0.4-0.2V23l0.9-0.2V24.5z M40.5,26.1c0,0.4,0.2,0.6,0.6,0.6
		c0.7,0,0.8-0.6,0.8-1.2c0-0.5-0.2-1.1-0.8-1.1c-0.2,0-0.5,0.1-0.6,0.3c-0.1,0.1-0.1,0.3-0.1,0.4V26.1z"/>
	<path class="st0" d="M45.3,26.4c-0.3,0.3-0.6,0.5-1,0.5c-0.7,0-1.3-0.5-1.3-1.2c0-0.7,0.6-1.4,1.3-1.4c0.6,0,1.1,0.3,1.1,0.9
		c0,0.1-0.1,0.1-0.1,0.1h-1.7l0,0.3c0,0.6,0.3,1.2,0.9,1.2c0.3,0,0.6-0.2,0.7-0.4L45.3,26.4z M44.5,25.1c0.1,0,0.3,0,0.3-0.1
		c0-0.4-0.2-0.6-0.6-0.6c-0.4,0-0.6,0.3-0.7,0.7H44.5z"/>
	<path class="st0" d="M46.2,25.4c0-0.2,0-0.6,0-0.7c-0.1-0.2-0.2-0.2-0.4-0.2v-0.1c0.3,0,0.5-0.1,0.8-0.2c0.1,0.2,0.1,0.4,0.1,0.6h0
		c0.2-0.4,0.4-0.6,0.8-0.6c0.2,0,0.4,0.1,0.4,0.3c0,0.1-0.1,0.2-0.2,0.2c-0.2,0-0.2-0.3-0.4-0.3c-0.2,0-0.4,0.1-0.5,0.3
		c-0.1,0.2-0.1,0.5-0.1,0.8v0.6c0,0.4,0,0.6,0.4,0.6v0.1c-0.2,0-0.4,0-0.7,0c-0.2,0-0.4,0-0.7,0v-0.1c0.4,0,0.4-0.2,0.4-0.6V25.4z"
		/>
	<path class="st0" d="M49.6,25.2c0.1,0,0-0.1,0-0.2c0-0.4,0-0.7-0.5-0.7c-0.3,0-0.5,0-0.5,0.3c0,0.1-0.1,0.3-0.2,0.3
		c-0.1,0-0.2-0.1-0.2-0.2c0-0.4,0.8-0.5,1.1-0.5c0.6,0,0.9,0.2,0.9,0.8v1c0,0.1,0,0.6,0.2,0.6c0.1,0,0.2-0.1,0.2-0.2l0.1,0.1
		c-0.1,0.2-0.3,0.4-0.5,0.4c-0.2,0-0.4-0.2-0.5-0.4c-0.3,0.2-0.6,0.4-1,0.4c-0.3,0-0.6-0.2-0.6-0.5c0-0.5,0.6-0.7,0.9-0.9L49.6,25.2
		z M49.7,25.3c-0.3,0.2-1,0.4-1,0.9c0,0.2,0.1,0.4,0.4,0.4c0.2,0,0.5-0.2,0.6-0.3V25.3z"/>
	<path class="st0" d="M51.3,25.4c0-0.2,0-0.6,0-0.7c-0.1-0.2-0.2-0.2-0.4-0.2v-0.1c0.3,0,0.5-0.1,0.8-0.2c0.1,0.2,0.1,0.4,0.1,0.6h0
		c0.2-0.4,0.4-0.6,0.8-0.6c0.2,0,0.4,0.1,0.4,0.3c0,0.1-0.1,0.2-0.2,0.2c-0.2,0-0.2-0.3-0.4-0.3c-0.2,0-0.4,0.1-0.5,0.3
		c-0.1,0.2-0.1,0.5-0.1,0.8v0.6c0,0.4,0,0.6,0.4,0.6v0.1c-0.2,0-0.4,0-0.7,0c-0.2,0-0.4,0-0.7,0v-0.1c0.4,0,0.4-0.2,0.4-0.6V25.4z"
		/>
	<path class="st0" d="M55.6,26.4c-0.3,0.3-0.6,0.5-1,0.5c-0.7,0-1.3-0.5-1.3-1.2c0-0.7,0.6-1.4,1.3-1.4c0.6,0,1.1,0.3,1.1,0.9
		c0,0.1-0.1,0.1-0.1,0.1h-1.7l0,0.3c0,0.6,0.3,1.2,0.9,1.2c0.3,0,0.6-0.2,0.7-0.4L55.6,26.4z M54.9,25.1c0.1,0,0.3,0,0.3-0.1
		c0-0.4-0.2-0.6-0.6-0.6c-0.4,0-0.6,0.3-0.7,0.7H54.9z"/>
	<path class="st0" d="M58.5,24.2v1.9c0,0.4-0.1,0.6,0.4,0.6v0.1c-0.2,0-0.4,0-0.6,0c-0.2,0-0.5,0-0.7,0v-0.1c0.4,0,0.4-0.2,0.4-0.6
		v-0.8c0-0.1,0-0.6,0-0.6c0-0.1-0.3-0.1-0.4-0.1v-0.1L58.5,24.2z M57.9,23.2c0-0.2,0.1-0.3,0.3-0.3s0.3,0.1,0.3,0.3
		c0,0.2-0.1,0.3-0.3,0.3C58.1,23.5,57.9,23.4,57.9,23.2z"/>
	<path class="st0" d="M61.6,24.5c0.2-0.2,0.5-0.3,0.8-0.3c0.7,0,1.3,0.6,1.3,1.3c0,0.7-0.6,1.3-1.3,1.3c-0.3,0-0.7-0.1-0.9-0.4
		l-0.3,0.3h-0.1v-2.9c0-0.1,0-0.5-0.1-0.6c-0.1-0.1-0.2-0.1-0.4-0.2V23l0.9-0.2V24.5z M61.6,26.1c0,0.4,0.2,0.6,0.6,0.6
		c0.7,0,0.8-0.6,0.8-1.2c0-0.5-0.2-1.1-0.8-1.1c-0.2,0-0.5,0.1-0.6,0.3c-0.1,0.1-0.1,0.3-0.1,0.4V26.1z"/>
	<path class="st0" d="M65.6,25.2c0.1,0,0-0.1,0-0.2c0-0.4,0-0.7-0.5-0.7c-0.3,0-0.5,0-0.5,0.3c0,0.1-0.1,0.3-0.2,0.3
		c-0.1,0-0.2-0.1-0.2-0.2c0-0.4,0.8-0.5,1.1-0.5c0.6,0,0.9,0.2,0.9,0.8v1c0,0.1,0,0.6,0.2,0.6c0.1,0,0.2-0.1,0.2-0.2l0.1,0.1
		c-0.1,0.2-0.3,0.4-0.5,0.4c-0.2,0-0.4-0.2-0.5-0.4c-0.3,0.2-0.6,0.4-1,0.4c-0.3,0-0.6-0.2-0.6-0.5c0-0.5,0.6-0.7,0.9-0.9L65.6,25.2
		z M65.6,25.3c-0.3,0.2-1,0.4-1,0.9c0,0.2,0.1,0.4,0.4,0.4c0.2,0,0.5-0.2,0.6-0.3V25.3z"/>
	<path class="st0" d="M67.7,26.1c0,0.4-0.1,0.6,0.4,0.6v0.1c-0.2,0-0.4,0-0.6,0c-0.2,0-0.4,0-0.7,0v-0.1c0.4,0,0.4-0.2,0.4-0.6v-0.7
		c0-0.2,0-0.6,0-0.7c0-0.2-0.2-0.2-0.4-0.2v-0.1c0.3,0,0.5-0.1,0.8-0.2l0.1,0.5c0.2-0.3,0.5-0.5,0.9-0.5c0.3,0,0.7,0.1,0.8,0.5
		c0.2-0.3,0.5-0.5,0.9-0.5c0.3,0,0.5,0.1,0.7,0.3c0.2,0.2,0.2,0.5,0.2,0.8v0.8c0,0.4-0.1,0.6,0.4,0.6v0.1c-0.2,0-0.4,0-0.6,0
		c-0.2,0-0.4,0-0.6,0v-0.1c0.4,0,0.4-0.2,0.4-0.6v-0.7c0-0.4,0-1-0.5-1c-0.2,0-0.5,0.2-0.6,0.4c-0.1,0.2-0.1,0.4-0.1,0.6v0.7
		c0,0.4-0.1,0.6,0.4,0.6v0.1c-0.2,0-0.4,0-0.6,0c-0.2,0-0.4,0-0.7,0v-0.1c0.4,0,0.4-0.2,0.4-0.6v-0.7c0-0.4,0-1-0.5-1
		c-0.2,0-0.5,0.2-0.6,0.4c-0.1,0.2-0.1,0.4-0.1,0.6V26.1z"/>
	<path class="st0" d="M72.7,24.5c0.2-0.2,0.5-0.3,0.8-0.3c0.7,0,1.3,0.6,1.3,1.3c0,0.7-0.6,1.3-1.3,1.3c-0.3,0-0.7-0.1-0.9-0.4
		l-0.3,0.3h-0.1v-2.9c0-0.1,0-0.5-0.1-0.6c-0.1-0.1-0.2-0.1-0.4-0.2V23l0.9-0.2V24.5z M72.7,26.1c0,0.4,0.2,0.6,0.6,0.6
		c0.7,0,0.8-0.6,0.8-1.2c0-0.5-0.2-1.1-0.8-1.1c-0.2,0-0.5,0.1-0.6,0.3c-0.1,0.1-0.1,0.3-0.1,0.4V26.1z"/>
	<path class="st0" d="M76,24.2v1.9c0,0.4-0.1,0.6,0.4,0.6v0.1c-0.2,0-0.4,0-0.6,0c-0.2,0-0.5,0-0.7,0v-0.1c0.4,0,0.4-0.2,0.4-0.6
		v-0.8c0-0.1,0-0.6,0-0.6c0-0.1-0.3-0.1-0.4-0.1v-0.1L76,24.2z M75.3,23.2c0-0.2,0.1-0.3,0.3-0.3S76,23,76,23.2
		c0,0.2-0.1,0.3-0.3,0.3C75.5,23.5,75.3,23.4,75.3,23.2z"/>
	<path class="st0" d="M79.4,26.1c0,0.4,0,0.6,0.4,0.6v0.1c-0.2,0-0.4,0-0.6,0c-0.2,0-0.4,0-0.7,0v-0.1c0.4,0,0.4-0.2,0.4-0.6v-0.7
		c0-0.4,0-1-0.5-1c-0.5,0-0.7,0.4-0.7,0.8v0.9c0,0.4-0.1,0.6,0.4,0.6v0.1c-0.2,0-0.4,0-0.6,0c-0.2,0-0.4,0-0.7,0v-0.1
		c0.4,0,0.4-0.2,0.4-0.6v-0.7c0-0.2,0-0.6,0-0.7c0-0.2-0.2-0.2-0.4-0.2v-0.1c0.3,0,0.5-0.1,0.8-0.2l0.1,0.5h0
		c0.2-0.4,0.5-0.5,0.9-0.5c0.6,0,0.9,0.2,0.9,0.8V26.1z"/>
	<path class="st0" d="M81.1,24.2v1.9c0,0.4-0.1,0.6,0.4,0.6v0.1c-0.2,0-0.4,0-0.6,0c-0.2,0-0.5,0-0.7,0v-0.1c0.4,0,0.4-0.2,0.4-0.6
		v-0.8c0-0.1,0-0.6,0-0.6c0-0.1-0.3-0.1-0.4-0.1v-0.1L81.1,24.2z M80.5,23.2c0-0.2,0.1-0.3,0.3-0.3c0.2,0,0.3,0.1,0.3,0.3
		c0,0.2-0.1,0.3-0.3,0.3C80.6,23.5,80.5,23.4,80.5,23.2z"/>
	<path class="st0" d="M85.6,26.8c-0.1-0.1-0.1-0.3-0.1-0.4c-0.2,0.3-0.5,0.4-0.9,0.4c-0.7,0-1.2-0.6-1.2-1.3c0-0.7,0.5-1.3,1.2-1.3
		c0.3,0,0.6,0.1,0.8,0.4v-0.9c0-0.3,0-0.5-0.4-0.5V23l0.9-0.2v2.9c0,0.2,0,0.5,0.1,0.6c0.1,0.2,0.2,0.2,0.4,0.2v0.1L85.6,26.8z
		 M85.4,25c0-0.4-0.4-0.6-0.7-0.6c-0.6,0-0.8,0.7-0.8,1.2c0,0.5,0.2,1.1,0.8,1.1c0.5,0,0.7-0.4,0.7-0.9V25z"/>
	<path class="st0" d="M88.2,25.2c0.1,0,0-0.1,0-0.2c0-0.4,0-0.7-0.5-0.7c-0.3,0-0.5,0-0.5,0.3c0,0.1-0.1,0.3-0.2,0.3
		c-0.1,0-0.2-0.1-0.2-0.2c0-0.4,0.8-0.5,1.1-0.5c0.6,0,0.9,0.2,0.9,0.8v1c0,0.1,0,0.6,0.2,0.6c0.1,0,0.2-0.1,0.2-0.2l0.1,0.1
		c-0.1,0.2-0.3,0.4-0.5,0.4c-0.2,0-0.4-0.2-0.5-0.4c-0.3,0.2-0.6,0.4-1,0.4c-0.3,0-0.6-0.2-0.6-0.5c0-0.5,0.6-0.7,0.9-0.9L88.2,25.2
		z M88.3,25.3c-0.3,0.2-1,0.4-1,0.9c0,0.2,0.1,0.4,0.4,0.4c0.2,0,0.5-0.2,0.6-0.3V25.3z"/>
	<path class="st0" d="M90.4,26.1c0,0.4-0.1,0.6,0.4,0.6v0.1c-0.2,0-0.4,0-0.7,0c-0.2,0-0.4,0-0.6,0v-0.1c0.4,0,0.4-0.2,0.4-0.6v-2.2
		c0-0.1,0-0.5-0.1-0.6c-0.1-0.1-0.2-0.1-0.4-0.2V23l0.9-0.2V26.1z"/>
	<path class="st0" d="M92,26.1c0,0.4-0.1,0.6,0.4,0.6v0.1c-0.2,0-0.4,0-0.7,0c-0.2,0-0.4,0-0.6,0v-0.1c0.4,0,0.4-0.2,0.4-0.6v-2.2
		c0-0.1,0-0.5-0.1-0.6c-0.1-0.1-0.2-0.1-0.4-0.2V23l0.9-0.2V26.1z"/>
	<path class="st0" d="M94.3,25.2c0.1,0,0-0.1,0-0.2c0-0.4,0-0.7-0.5-0.7c-0.3,0-0.5,0-0.5,0.3c0,0.1-0.1,0.3-0.2,0.3
		c-0.1,0-0.2-0.1-0.2-0.2c0-0.4,0.8-0.5,1.1-0.5c0.6,0,0.9,0.2,0.9,0.8v1c0,0.1,0,0.6,0.2,0.6c0.1,0,0.2-0.1,0.2-0.2l0.1,0.1
		c-0.1,0.2-0.3,0.4-0.5,0.4c-0.2,0-0.4-0.2-0.5-0.4c-0.3,0.2-0.6,0.4-1,0.4c-0.3,0-0.6-0.2-0.6-0.5c0-0.5,0.6-0.7,0.9-0.9L94.3,25.2
		z M94.3,25.3c-0.3,0.2-1,0.4-1,0.9c0,0.2,0.1,0.4,0.4,0.4c0.2,0,0.5-0.2,0.6-0.3V25.3z"/>
	<path class="st0" d="M97.9,24.7L97.9,24.7c0.2-0.3,0.5-0.5,0.9-0.5c0.8,0,1.3,0.6,1.3,1.3c0,0.7-0.5,1.3-1.3,1.3
		c-0.3,0-0.6-0.1-0.8-0.3v1.1c0,0.4,0,0.6,0.4,0.6v0.1c-0.2,0-0.4,0-0.6,0c-0.2,0-0.5,0-0.7,0v-0.1c0.4,0,0.4-0.2,0.4-0.6v-2.3
		c0-0.2,0-0.6,0-0.7c0-0.2-0.2-0.2-0.4-0.2v-0.1c0.3,0,0.6-0.1,0.8-0.2V24.7z M97.9,25.8c0,0.2,0,0.5,0.1,0.6
		c0.1,0.2,0.4,0.2,0.6,0.2c0.6,0,0.8-0.6,0.8-1.1c0-0.5-0.2-1.1-0.8-1.1c-0.2,0-0.5,0.1-0.6,0.3c-0.1,0.2-0.1,0.4-0.1,0.7V25.8z"/>
	<path class="st0" d="M103.3,25.5c0,0.8-0.6,1.3-1.4,1.3c-0.8,0-1.4-0.6-1.4-1.3c0-0.7,0.7-1.3,1.4-1.3
		C102.6,24.2,103.3,24.8,103.3,25.5z M101.1,25.5c0,0.6,0.2,1.2,0.8,1.2c0.6,0,0.8-0.6,0.8-1.2c0-0.6-0.2-1.2-0.8-1.2
		C101.2,24.3,101.1,25,101.1,25.5z"/>
	<path class="st0" d="M103.8,24.8c-0.1-0.2-0.1-0.4-0.4-0.4v-0.1c0.2,0,0.4,0,0.6,0c0.2,0,0.4,0,0.6,0v0.1c-0.1,0-0.3,0-0.3,0.2
		c0,0.1,0.1,0.2,0.1,0.3l0.6,1.4c0.1-0.3,0.6-1.4,0.6-1.6c0-0.2-0.2-0.2-0.3-0.2v-0.1c0.1,0,0.3,0,0.4,0c0.1,0,0.3,0,0.4,0v0.1
		c-0.1,0-0.2,0.1-0.2,0.1c-0.1,0.1-0.2,0.5-0.3,0.7l-0.7,1.7h-0.1L103.8,24.8z"/>
	<path class="st0" d="M108.5,26.4c-0.3,0.3-0.6,0.5-1,0.5c-0.7,0-1.3-0.5-1.3-1.2c0-0.7,0.6-1.4,1.3-1.4c0.6,0,1.1,0.3,1.1,0.9
		c0,0.1-0.1,0.1-0.1,0.1h-1.7l0,0.3c0,0.6,0.3,1.2,0.9,1.2c0.3,0,0.6-0.2,0.7-0.4L108.5,26.4z M107.8,25.1c0.1,0,0.3,0,0.3-0.1
		c0-0.4-0.2-0.6-0.6-0.6c-0.4,0-0.6,0.3-0.7,0.7H107.8z"/>
	<path class="st0" d="M109.4,25.4c0-0.2,0-0.6,0-0.7c-0.1-0.2-0.2-0.2-0.4-0.2v-0.1c0.3,0,0.5-0.1,0.8-0.2c0.1,0.2,0.1,0.4,0.1,0.6
		h0c0.2-0.4,0.4-0.6,0.8-0.6c0.2,0,0.4,0.1,0.4,0.3c0,0.1-0.1,0.2-0.2,0.2c-0.2,0-0.2-0.3-0.4-0.3c-0.2,0-0.4,0.1-0.5,0.3
		c-0.1,0.2-0.1,0.5-0.1,0.8v0.6c0,0.4,0,0.6,0.4,0.6v0.1c-0.2,0-0.4,0-0.7,0c-0.2,0-0.4,0-0.7,0v-0.1c0.4,0,0.4-0.2,0.4-0.6V25.4z"
		/>
	<path class="st0" d="M111.4,24.5v-0.1c0.3-0.2,0.6-0.4,0.7-0.7h0.1v0.7h0.7v0.2h-0.7v1.7c0,0.3,0.1,0.5,0.4,0.5
		c0.2,0,0.3-0.1,0.4-0.3l0.1,0.1c-0.1,0.3-0.4,0.4-0.7,0.4c-0.4,0-0.7-0.2-0.7-0.6v-1.8H111.4z"/>
	<path class="st0" d="M114.7,25.2c0.1,0,0-0.1,0-0.2c0-0.4,0-0.7-0.5-0.7c-0.3,0-0.5,0-0.5,0.3c0,0.1-0.1,0.3-0.2,0.3
		c-0.1,0-0.2-0.1-0.2-0.2c0-0.4,0.8-0.5,1.1-0.5c0.6,0,0.9,0.2,0.9,0.8v1c0,0.1,0,0.6,0.2,0.6c0.1,0,0.2-0.1,0.2-0.2l0.1,0.1
		c-0.1,0.2-0.3,0.4-0.5,0.4c-0.2,0-0.4-0.2-0.5-0.4c-0.3,0.2-0.6,0.4-1,0.4c-0.3,0-0.6-0.2-0.6-0.5c0-0.5,0.6-0.7,0.9-0.9
		L114.7,25.2z M114.9,23.7l-0.8-0.3c-0.1-0.1-0.4-0.1-0.4-0.3c0-0.1,0.1-0.2,0.2-0.2c0.1,0,0.2,0.1,0.3,0.1l0.9,0.7H114.9z
		 M114.8,25.3c-0.3,0.2-1,0.4-1,0.9c0,0.2,0.1,0.4,0.4,0.4c0.2,0,0.5-0.2,0.6-0.3V25.3z"/>
</g>
<g>
	<path class="st0" d="M72.8,50.7c0,0.5-0.1,0.8,0.6,0.8l0,0.2c-0.3,0-0.6,0-0.9,0c-0.3,0-0.6,0-0.9,0v-0.2c0.6,0,0.6-0.2,0.6-0.8v-1
		c0-0.6,0-1.3-0.7-1.3c-0.6,0-1,0.5-1,1.1v1.2c0,0.5-0.1,0.8,0.6,0.8l0,0.2c-0.3,0-0.6,0-0.9,0c-0.3,0-0.6,0-0.9,0v-0.2
		c0.6,0,0.6-0.2,0.6-0.8v-1c0-0.2,0-0.8,0-1c-0.1-0.3-0.3-0.3-0.5-0.3v-0.2c0.4,0,0.7-0.2,1.1-0.2l0.1,0.7h0
		c0.3-0.5,0.7-0.7,1.3-0.7c0.8,0,1.2,0.3,1.2,1.1V50.7z"/>
	<path class="st0" d="M77.1,51.1c-0.4,0.5-0.8,0.7-1.4,0.7c-1,0-1.8-0.7-1.8-1.7c0-1,0.8-1.9,1.8-1.9c0.8,0,1.5,0.4,1.5,1.3
		c0,0.1-0.1,0.1-0.2,0.1h-2.3l0,0.4c0,0.8,0.4,1.6,1.3,1.6c0.4,0,0.8-0.3,1-0.6L77.1,51.1z M76.1,49.3c0.1,0,0.4,0,0.4-0.2
		c0-0.5-0.3-0.8-0.8-0.8c-0.6,0-0.8,0.5-0.9,1H76.1z"/>
	<path class="st0" d="M79,50.7c0,0.5-0.1,0.8,0.6,0.8v0.2c-0.3,0-0.6,0-0.9,0c-0.3,0-0.6,0-0.9,0v-0.2c0.6,0,0.6-0.2,0.6-0.8v-3.1
		c0-0.2,0-0.7-0.1-0.9c-0.1-0.2-0.3-0.2-0.5-0.2v-0.2l1.3-0.3V50.7z"/>
	<path class="st0" d="M85.9,50.7c0,0.5-0.1,0.8,0.6,0.8v0.2c-0.3,0-0.6,0-0.9,0c-0.3,0-0.6,0-0.9,0v-0.2c0.6,0,0.6-0.2,0.6-0.8v-1
		c0-0.6,0-1.3-0.7-1.3c-0.6,0-1,0.5-1,1.1v1.2c0,0.5-0.1,0.8,0.6,0.8v0.2c-0.3,0-0.6,0-0.9,0c-0.3,0-0.6,0-0.9,0v-0.2
		c0.6,0,0.6-0.2,0.6-0.8v-1c0-0.2,0-0.8,0-1c-0.1-0.3-0.3-0.3-0.5-0.3v-0.2c0.4,0,0.7-0.2,1.1-0.2l0.1,0.7h0
		c0.3-0.5,0.7-0.7,1.3-0.7c0.8,0,1.2,0.3,1.2,1.1V50.7z"/>
	<path class="st0" d="M90.9,50c0,1.1-0.9,1.8-1.9,1.8c-1,0-1.9-0.8-1.9-1.9c0-1,0.9-1.8,1.9-1.8C89.9,48.2,90.9,48.9,90.9,50z
		 M87.8,50c0,0.8,0.2,1.6,1.2,1.6c0.9,0,1.1-0.9,1.1-1.6c0-0.8-0.2-1.7-1.2-1.7C88,48.3,87.8,49.3,87.8,50z"/>
	<path class="st0" d="M92.6,50.7c0,0.5-0.1,0.8,0.5,0.8v0.2c-0.3,0-0.6,0-0.9,0c-0.3,0-0.6,0-0.9,0v-0.2c0.6,0,0.6-0.2,0.6-0.8v-1
		c0-0.2,0-0.8,0-1c-0.1-0.3-0.3-0.3-0.5-0.3v-0.2c0.4,0,0.7-0.2,1.1-0.2l0.1,0.6c0.3-0.4,0.7-0.6,1.2-0.6c0.5,0,0.9,0.2,1.1,0.6
		c0.3-0.4,0.7-0.6,1.2-0.6c0.4,0,0.7,0.1,0.9,0.4c0.2,0.3,0.2,0.7,0.2,1.1v1.1c0,0.5-0.1,0.8,0.5,0.8v0.2c-0.3,0-0.6,0-0.9,0
		c-0.3,0-0.6,0-0.9,0v-0.2c0.6,0,0.5-0.2,0.6-0.8v-1c0-0.6,0.1-1.4-0.7-1.4c-0.3,0-0.6,0.2-0.8,0.5c-0.1,0.2-0.1,0.5-0.1,0.8v1
		c0,0.5-0.1,0.8,0.5,0.8v0.2c-0.3,0-0.6,0-0.9,0c-0.3,0-0.6,0-0.9,0v-0.2c0.6,0,0.5-0.2,0.6-0.8v-1c0-0.6,0.1-1.4-0.7-1.4
		c-0.3,0-0.6,0.2-0.8,0.5c-0.1,0.2-0.1,0.5-0.1,0.8V50.7z"/>
	<path class="st0" d="M101.6,51.1c-0.4,0.5-0.8,0.7-1.4,0.7c-1,0-1.8-0.7-1.8-1.7c0-1,0.8-1.9,1.8-1.9c0.8,0,1.5,0.4,1.5,1.3
		c0,0.1-0.1,0.1-0.2,0.1h-2.3l0,0.4c0,0.8,0.4,1.6,1.3,1.6c0.4,0,0.8-0.3,1-0.6L101.6,51.1z M100.5,49.3c0.1,0,0.4,0,0.4-0.2
		c0-0.5-0.3-0.8-0.8-0.8c-0.6,0-0.8,0.5-0.9,1H100.5z"/>
	<path class="st0" d="M107.5,51.8c-0.1-0.2-0.1-0.4-0.2-0.6c-0.3,0.4-0.7,0.6-1.2,0.6c-1,0-1.7-0.8-1.7-1.8c0-1,0.7-1.9,1.7-1.9
		c0.4,0,0.9,0.2,1.1,0.5v-1.3c0-0.5,0-0.7-0.6-0.8v-0.2l1.3-0.3v4c0,0.2,0,0.6,0.1,0.8c0.1,0.3,0.3,0.3,0.6,0.3v0.2L107.5,51.8z
		 M107.3,49.2c0-0.5-0.5-0.8-1-0.8c-0.9,0-1.1,0.9-1.1,1.6c0,0.7,0.2,1.6,1.1,1.6c0.7,0,1-0.6,1-1.2V49.2z"/>
	<path class="st0" d="M110.2,48.2v2.6c0,0.5-0.1,0.8,0.6,0.8v0.2c-0.3,0-0.6,0-0.9,0c-0.3,0-0.6,0-0.9,0v-0.2c0.6,0,0.5-0.2,0.6-0.8
		v-1.1c0-0.2,0-0.8,0-0.9c-0.1-0.2-0.4-0.2-0.6-0.2v-0.2L110.2,48.2z M109.3,46.7c0-0.2,0.2-0.4,0.4-0.4c0.2,0,0.4,0.2,0.4,0.4
		c0,0.2-0.2,0.4-0.4,0.4C109.6,47.2,109.3,47,109.3,46.7z"/>
	<path class="st0" d="M118.1,48h-0.2c-0.1-0.9-0.6-1.5-1.6-1.5c-1.6,0-1.9,1.4-1.9,2.7c0,1.2,0.5,2.4,1.8,2.4c0.8,0,1.3-0.4,1.3-1.2
		c0-0.5-0.2-0.6-0.7-0.7v-0.2h2.1v0.2c-0.4,0-0.5,0.2-0.5,0.6v0.8c-0.6,0-0.6,0.1-1.1,0.3c-0.4,0.2-0.8,0.3-1.3,0.3
		c-1.6,0-2.7-1-2.7-2.6c0-1.6,1.1-2.9,2.8-2.9c0.6,0,1.2,0.1,1.7,0.5l0.2-0.4h0.1L118.1,48z"/>
	<path class="st0" d="M122.5,51.1c-0.4,0.5-0.8,0.7-1.4,0.7c-1,0-1.8-0.7-1.8-1.7c0-1,0.8-1.9,1.8-1.9c0.8,0,1.5,0.4,1.5,1.3
		c0,0.1-0.1,0.1-0.2,0.1h-2.3l0,0.4c0,0.8,0.4,1.6,1.3,1.6c0.4,0,0.8-0.3,1-0.6L122.5,51.1z M121.5,49.3c0.1,0,0.4,0,0.4-0.2
		c0-0.5-0.3-0.8-0.8-0.8c-0.6,0-0.8,0.5-0.9,1H121.5z"/>
	<path class="st0" d="M123.3,51.7L123.3,51.7l-0.1-1.1h0.2c0.1,0.5,0.4,1,1,1c0.4,0,0.7-0.2,0.7-0.6c0-0.5-0.5-0.6-0.8-0.8
		c-0.5-0.2-1-0.5-1-1.1c0-0.6,0.4-1,1-1c0.2,0,0.6,0.1,0.8,0.2l0.2-0.2h0.1l0,1h-0.2c-0.1-0.4-0.3-0.8-0.8-0.8
		c-0.3,0-0.5,0.2-0.5,0.4c0,0.4,0.4,0.6,0.7,0.7c0.6,0.3,1.1,0.5,1.1,1.2c0,0.7-0.6,1.1-1.2,1.1c-0.3,0-0.6-0.1-0.9-0.3L123.3,51.7z
		"/>
	<path class="st0" d="M127.3,50.4c0,0.5,0,1.1,0.7,1.1c0.6,0,1.1-0.6,1.1-1.2v-1.1c0-0.6,0-0.8-0.6-0.9v-0.2c0.2,0,0.4,0,0.7,0
		c0.2,0,0.4,0,0.6,0v2.6c0,0.2,0,0.5,0.3,0.5c0.1,0,0.2,0,0.3,0v0.2l-1.1,0.3L129,51c-0.3,0.4-0.8,0.8-1.3,0.8
		c-0.8,0-1.1-0.4-1.1-1.1v-1.4c0-0.6,0-0.8-0.6-0.9v-0.2c0.2,0,0.4,0,0.7,0c0.2,0,0.4,0,0.6,0V50.4z M128.8,47.4l-1.1-0.5
		c-0.2-0.1-0.5-0.2-0.5-0.4c0-0.2,0.1-0.3,0.3-0.3c0.1,0,0.3,0.1,0.4,0.2l1.3,1H128.8z"/>
</g>
</svg>
