<?xml version="1.0" encoding="UTF-8"?>
<svg id="Calque_1" xmlns="http://www.w3.org/2000/svg" version="1.1" viewBox="0 0 138.9 52.4">
  <!-- Generator: Adobe Illustrator 29.3.0, SVG Export Plug-In . SVG Version: 2.1.0 Build 146)  -->
  <defs>
    <style>
      .st0 {
        fill-rule: evenodd;
      }

      .st0, .st1 {
        fill: #2a5eec;
      }
    </style>
  </defs>
  <g>
    <path class="st1" d="M27.354,7.717c2.044.096,3.771-1.319,3.858-3.16.086-1.841-1.501-3.411-3.545-3.507s-3.771,1.319-3.858,3.16c-.086,1.841,1.501,3.411,3.545,3.507Z"/>
    <path class="st1" d="M37.384,1.008"/>
    <path class="st1" d="M37.329,1.081s-1.919,3.396-6.198,5.827c-4.279,2.43-8.081,3.843-11.716,9.473,0,0,1.08-.499.332.709,0,0,.561-.53,1.039-.688,0,0,.291-.062.166.291,0,0,1.919-1.487,1.433-.769-.293.434,1.522-1.371,1.74-1.194,0,0,.062.109-.21.522,0,0,4.33-2.606,5.949-3.295,7.012-2.983,8.517-7.915,7.873-10.698,0,0-.026-.558-.408-.177Z"/>
    <path class="st1" d="M22.708,25.105s.301-7.312,4.851-11.051c4.549-3.739,8.891-3.054,10.698-3.178,0,0,3.698.104,5.546-.519,0,0,.27,3.261-8.808,4.819,0,0-2.991-.042-5.546,3.365,0,0-2.535,2.846-4.882,8.725,0,0-.021-.852-.353-.249l-.872,1.974-.031-1.859s-.156-.467-.364.177c0,0-.166.218.114-2.254,0,0-.073-.53-.353.052Z"/>
    <path class="st1" d="M19.523,28.063c-1.024-2.885-3.692-4.778-7.074-4.778-5.181,0-8.408,3.754-8.408,8.966,0,5.616,4.033,9.742,8.749,9.742,2.451,0,5.46-.838,7.57-4.592h.59c-.403,1.396-1.241,3.32-1.986,4.53-1.986-.28-3.351.837-7.012.837-6.298,0-10.828-4.157-10.828-9.897,0-6.019,4.654-10.362,11.138-10.362,3.909,0,5.584,1.241,6.546,1.241.341,0,.497-.093.558-.186h.465l.279,4.499h-.589Z"/>
    <path class="st1" d="M28.702,29.645c3.785,0,6.67,2.823,6.67,6.515,0,3.661-2.885,6.484-6.577,6.484-3.847,0-6.795-2.792-6.795-6.422,0-4.281,3.475-6.577,6.702-6.577ZM29.136,41.9c1.831,0,3.909-1.861,3.909-4.964,0-3.537-2.172-6.546-4.778-6.546-2.048,0-3.94,2.109-3.94,4.778,0,3.754,2.141,6.732,4.809,6.732Z"/>
    <path class="st1" d="M39.678,39.759c0,1.613.434,1.923,2.172,1.923v.59h-6.453v-.59c1.799,0,2.203-.806,2.203-2.389v-6.081c0-1.21-.186-1.489-.9-1.582l-1.21-.155v-.528l3.723-1.303h.465v2.482c2.234-1.582,4.281-2.482,5.522-2.482,1.52,0,2.637.962,2.947,2.482,2.079-1.303,3.971-2.482,5.491-2.482,2.234,0,3.103,1.706,3.103,4.685,0,1.985,0,4.065-.093,5.957,0,.651.372,1.396,1.644,1.396h.993v.59h-6.981v-.59h.279c.9,0,1.303-.155,1.582-.434.465-.466.496-2.265.496-4.406v-2.42c0-2.389-.807-3.537-2.327-3.537-.962,0-2.203.466-4.126,1.737v7.136c0,1.551.372,1.923,1.924,1.923v.59h-6.36v-.59c1.737,0,2.358-.62,2.358-2.389v-5.739c0-1.955-1.21-2.669-2.296-2.669-.869,0-2.048.404-4.157,1.799v7.074Z"/>
    <path class="st1" d="M62.032,47.485c0,1.551.776,2.016,2.079,2.016h.776v.59h-7.322v-.59h.31c1.582,0,2.079-.527,2.079-2.296v-14.272c0-.59-.124-.838-.869-1.024l-.993-.248v-.589l3.32-2.048h.621v2.978c1.924-1.458,3.568-2.265,4.809-2.265,2.42,0,4.591,2.73,4.591,5.771,0,3.754-3.04,6.98-6.577,6.98-.838,0-1.644-.186-2.823-.62v5.616ZM62.032,39.852c1.117.993,2.513,1.675,3.661,1.675,2.11,0,3.661-2.079,3.661-4.623,0-4.095-2.42-5.646-4.064-5.646-.962,0-2.141.558-3.258,1.52v7.074Z"/>
    <path class="st1" d="M72.769,33.678c-.062-.186-.093-.279-.093-.434,0-1.086,2.575-3.599,4.592-3.599.931,0,2.389.434,3.258,1.644.465.651.465,1.054.465,2.668v4.158c0,2.482,0,3.041.807,3.041.341,0,.745-.031,1.52-.683l.155.465c-1.675,1.365-2.544,1.706-3.072,1.706-1.272,0-1.396-1.396-1.427-1.893-2.141,1.768-2.761,1.893-3.599,1.893-1.799,0-2.886-1.024-2.886-2.544,0-1.892,1.675-2.544,3.661-3.041.652-.155,1.675-.527,2.761-1.179v-2.451c0-.869,0-1.365-.528-1.985-.403-.497-1.055-.9-1.737-.9-1.024,0-1.924.868-1.924,1.52,0,.186.031.31.155.589l-2.11,1.024ZM78.912,36.501c-.589.341-1.086.558-1.83.869-1.892.776-2.606,1.086-2.606,2.358,0,1.117.9,1.83,1.83,1.83.496,0,.869-.155,2.606-1.365v-3.692Z"/>
    <path class="st1" d="M84.811,39.139c.372,1.861,1.551,2.917,2.947,2.917,1.241,0,2.203-.931,2.203-2.048,0-.652-.155-1.055-.993-1.892-2.203-2.203-4.654-2.42-4.654-4.995,0-2.047,1.613-3.474,3.971-3.474.838,0,1.706.186,2.482.496l.062,2.823h-.527c-.217-1.582-1.241-2.575-2.482-2.575-1.024,0-1.893.713-1.893,1.737,0,2.73,5.771,3.196,5.771,6.981,0,2.017-1.675,3.537-3.847,3.537-.59,0-1.024-.093-1.365-.217-.341-.093-.59-.186-.838-.186-.186,0-.372.124-.527.372h-.466l-.341-3.475h.496Z"/>
    <path class="st1" d="M93.583,39.139c.372,1.861,1.551,2.917,2.948,2.917,1.241,0,2.202-.931,2.202-2.048,0-.652-.155-1.055-.993-1.892-2.202-2.203-4.654-2.42-4.654-4.995,0-2.047,1.613-3.474,3.971-3.474.838,0,1.707.186,2.482.496l.062,2.823h-.528c-.217-1.582-1.241-2.575-2.482-2.575-1.024,0-1.892.713-1.892,1.737,0,2.73,5.771,3.196,5.771,6.981,0,2.017-1.675,3.537-3.847,3.537-.59,0-1.024-.093-1.365-.217-.341-.093-.589-.186-.837-.186-.186,0-.372.124-.527.372h-.465l-.341-3.475h.496Z"/>
    <path class="st1" d="M106.078,39.914c0,1.086.59,1.768,2.234,1.768v.59h-6.887v-.59c1.893,0,2.575-.62,2.575-2.264v-6.236c0-1.21-.155-1.365-.962-1.52l-1.458-.279v-.497l4.033-1.396h.465v10.425Z"/>
    <path class="st1" d="M114.831,29.645c3.785,0,6.67,2.823,6.67,6.515,0,3.661-2.885,6.484-6.577,6.484-3.847,0-6.794-2.792-6.794-6.422,0-4.281,3.475-6.577,6.701-6.577ZM115.265,41.9c1.831,0,3.909-1.861,3.909-4.964,0-3.537-2.172-6.546-4.778-6.546-2.047,0-3.94,2.109-3.94,4.778,0,3.754,2.141,6.732,4.809,6.732Z"/>
    <path class="st1" d="M125.669,39.573c0,1.706.403,2.109,2.078,2.109v.59h-6.236v-.59c1.365,0,2.078-.744,2.078-1.954v-6.515c0-1.148-.124-1.365-.93-1.52l-1.055-.217v-.497l3.568-1.303h.497v2.42c2.078-1.303,3.816-2.451,5.336-2.451,2.109,0,3.32,1.551,3.32,4.654,0,4.127-.217,4.933-.248,6.143-.031.838.465,1.241,1.737,1.241h.683v.59h-6.671v-.59c.9-.031,1.427-.248,1.768-.589.59-.59.652-2.855.652-6.981,0-2.482-1.21-3.258-2.451-3.258-.993,0-2.513.869-4.126,1.986v6.732Z"/>
    <g>
      <path class="st1" d="M34.046,23.337c0-.18,0-.598-.057-.751-.073-.192-.305-.192-.485-.192v-.13c.271.006.536.017.807.023.288-.006.57-.017.858-.023v.13c-.18,0-.412,0-.485.192-.056.152-.056.57-.056.751v1.67c0,.723.113.841.83.841.265,0,.57.011.801-.141.282-.175.316-.389.367-.705h.141l-.051.999c-.096-.006-.198-.011-.293-.023-.971.017-1.947.017-2.918.023v-.13c.18,0,.412,0,.485-.192.057-.152.057-.57.057-.751v-1.592Z"/>
      <path class="st1" d="M37.889,23.506v1.812c.011.372-.051.542.395.57v.113c-.192-.006-.401-.017-.604-.023-.22.006-.44.017-.66.023v-.113c.418-.028.384-.164.389-.536v-.807c0-.107,0-.542-.023-.627-.039-.141-.276-.13-.389-.124v-.113l.892-.175ZM37.279,22.501c0-.169.135-.305.305-.305s.299.136.299.305c0,.164-.13.299-.288.299-.169,0-.316-.124-.316-.299Z"/>
      <path class="st1" d="M39.435,23.822c.214-.22.457-.316.767-.316.723,0,1.225.576,1.225,1.264,0,.711-.536,1.292-1.264,1.292-.299,0-.655-.124-.858-.361l-.271.327h-.079v-2.844c0-.141,0-.485-.057-.604-.068-.141-.237-.13-.367-.147v-.113l.903-.181v1.682ZM39.435,25.323c0,.378.209.587.61.587.643,0,.818-.581.818-1.123,0-.519-.186-1.1-.807-1.1-.198,0-.457.107-.553.293-.056.113-.068.276-.068.418v.925Z"/>
      <path class="st1" d="M44.102,25.583c-.265.327-.581.48-1.005.48-.7,0-1.275-.491-1.275-1.213,0-.705.536-1.343,1.27-1.343.553,0,1.078.31,1.078.92,0,.073-.085.051-.141.051h-1.62l-.023.271c0,.536.282,1.134.886,1.134.288,0,.542-.192.711-.417l.119.119ZM43.369,24.324c.09,0,.277.028.277-.113,0-.35-.192-.576-.548-.576-.423,0-.592.322-.66.689h.931Z"/>
      <path class="st1" d="M45.011,24.657c0-.152.006-.553-.034-.683-.051-.203-.192-.181-.373-.181v-.113c.265-.017.514-.119.762-.175.051.164.073.367.068.57h.011c.147-.344.429-.57.818-.57.175,0,.401.085.401.293,0,.107-.09.203-.197.203-.237,0-.186-.293-.406-.293-.169,0-.355.141-.44.282-.13.231-.13.508-.13.768v.559c0,.412-.045.547.429.57v.113c-.214-.006-.435-.017-.649-.023-.22.006-.435.017-.655.023v-.113c.423-.028.395-.164.395-.536v-.694Z"/>
      <path class="st1" d="M48.324,24.454c.057-.028.045-.102.045-.164,0-.384-.034-.655-.497-.655-.282,0-.514.023-.53.322-.011.124-.085.248-.226.248-.124,0-.214-.079-.214-.203,0-.418.75-.497,1.038-.497.627,0,.914.164.914.813v.931c0,.141-.022.559.198.559.113,0,.169-.101.231-.18l.107.057c-.091.186-.299.378-.508.378-.231,0-.429-.175-.485-.401-.265.215-.592.401-.942.401-.299,0-.587-.181-.587-.497,0-.474.536-.677.897-.841l.559-.271ZM48.375,24.595c-.339.164-.982.384-.982.835,0,.209.13.406.361.406.22,0,.463-.169.621-.322v-.92Z"/>
      <path class="st1" d="M49.977,24.657c0-.152.006-.553-.034-.683-.051-.203-.192-.181-.372-.181v-.113c.265-.017.514-.119.762-.175.051.164.073.367.068.57h.011c.147-.344.429-.57.818-.57.175,0,.401.085.401.293,0,.107-.09.203-.197.203-.237,0-.186-.293-.406-.293-.169,0-.355.141-.44.282-.13.231-.13.508-.13.768v.559c0,.412-.045.547.429.57v.113c-.214-.006-.434-.017-.649-.023-.22.006-.434.017-.654.023v-.113c.423-.028.395-.164.395-.536v-.694Z"/>
      <path class="st1" d="M54.148,25.583c-.265.327-.581.48-1.004.48-.7,0-1.276-.491-1.276-1.213,0-.705.536-1.343,1.27-1.343.553,0,1.078.31,1.078.92,0,.073-.085.051-.141.051h-1.62l-.023.271c0,.536.282,1.134.886,1.134.288,0,.542-.192.711-.417l.119.119ZM53.414,24.324c.09,0,.277.028.277-.113,0-.35-.192-.576-.547-.576-.423,0-.592.322-.66.689h.931Z"/>
      <path class="st1" d="M56.964,23.506v1.812c.011.372-.051.542.395.57v.113c-.192-.006-.401-.017-.604-.023-.22.006-.44.017-.66.023v-.113c.417-.028.384-.164.389-.536v-.807c0-.107,0-.542-.022-.627-.04-.141-.277-.13-.39-.124v-.113l.892-.175ZM56.354,22.501c0-.169.135-.305.305-.305s.299.136.299.305c0,.164-.129.299-.288.299-.169,0-.316-.124-.316-.299Z"/>
      <path class="st1" d="M59.978,23.822c.214-.22.457-.316.767-.316.722,0,1.225.576,1.225,1.264,0,.711-.536,1.292-1.264,1.292-.299,0-.654-.124-.858-.361l-.271.327h-.079v-2.844c0-.141,0-.485-.056-.604-.068-.141-.237-.13-.367-.147v-.113l.903-.181v1.682ZM59.978,25.323c0,.378.209.587.609.587.643,0,.818-.581.818-1.123,0-.519-.186-1.1-.807-1.1-.198,0-.457.107-.553.293-.057.113-.068.276-.068.418v.925Z"/>
      <path class="st1" d="M63.787,24.454c.056-.028.045-.102.045-.164,0-.384-.034-.655-.497-.655-.282,0-.514.023-.53.322-.011.124-.085.248-.226.248-.124,0-.215-.079-.215-.203,0-.418.751-.497,1.039-.497.626,0,.914.164.914.813v.931c0,.141-.023.559.197.559.113,0,.169-.101.231-.18l.107.057c-.09.186-.299.378-.508.378-.231,0-.429-.175-.485-.401-.265.215-.593.401-.942.401-.299,0-.587-.181-.587-.497,0-.474.536-.677.897-.841l.559-.271ZM63.838,24.595c-.339.164-.982.384-.982.835,0,.209.13.406.361.406.22,0,.463-.169.621-.322v-.92Z"/>
      <path class="st1" d="M65.892,25.318c.006.372-.062.542.378.57v.113c-.203-.006-.406-.017-.61-.023-.214.006-.429.017-.643.023v-.113c.423-.028.395-.164.395-.536v-.694c0-.158,0-.553-.028-.683-.045-.203-.197-.181-.378-.181v-.113c.294-.034.502-.124.779-.175l.062.457c.214-.288.485-.457.852-.457.333,0,.66.118.773.457.198-.299.497-.457.858-.457.248,0,.497.068.66.271.152.186.152.514.152.745v.796c.006.372-.057.542.384.57v.113c-.209-.006-.418-.017-.626-.023-.209.006-.418.017-.627.023v-.113c.417-.028.384-.164.389-.536v-.711c0-.395.045-.954-.525-.954-.231,0-.452.164-.547.372-.073.164-.073.373-.073.581v.677c.011.372-.062.542.384.57v.113c-.203-.006-.412-.017-.615-.023-.215.006-.423.017-.638.023v-.113c.423-.028.384-.164.39-.536v-.711c0-.395.045-.954-.525-.954-.231,0-.452.164-.547.372-.073.164-.073.373-.073.581v.677Z"/>
      <path class="st1" d="M70.7,23.822c.214-.22.457-.316.767-.316.722,0,1.224.576,1.224,1.264,0,.711-.536,1.292-1.264,1.292-.299,0-.654-.124-.858-.361l-.271.327h-.079v-2.844c0-.141,0-.485-.057-.604-.068-.141-.237-.13-.367-.147v-.113l.903-.181v1.682ZM70.7,25.323c0,.378.209.587.609.587.643,0,.818-.581.818-1.123,0-.519-.186-1.1-.807-1.1-.198,0-.457.107-.553.293-.057.113-.068.276-.068.418v.925Z"/>
      <path class="st1" d="M73.894,23.506v1.812c.012.372-.05.542.395.57v.113c-.192-.006-.401-.017-.604-.023-.22.006-.44.017-.66.023v-.113c.417-.028.384-.164.389-.536v-.807c0-.107,0-.542-.023-.627-.039-.141-.276-.13-.389-.124v-.113l.891-.175ZM73.285,22.501c0-.169.135-.305.305-.305s.299.136.299.305c0,.164-.13.299-.288.299-.169,0-.316-.124-.316-.299Z"/>
      <path class="st1" d="M77.235,25.318c0,.372-.045.542.395.57v.113c-.203-.006-.412-.017-.615-.023-.22.006-.435.017-.655.023v-.113c.424-.028.395-.164.395-.536v-.722c0-.389.017-.942-.519-.942-.44,0-.723.344-.723.756v.875c0,.372-.05.542.395.57v.113c-.203-.006-.412-.017-.615-.023-.22.006-.435.017-.654.023v-.113c.423-.028.395-.164.395-.536v-.694c0-.158,0-.553-.028-.683-.045-.203-.198-.181-.378-.181v-.113c.293-.034.502-.124.779-.175l.073.514h.012c.197-.35.502-.514.902-.514.537,0,.841.243.841.779v1.033Z"/>
      <path class="st1" d="M78.861,23.506v1.812c.012.372-.05.542.395.57v.113c-.192-.006-.401-.017-.604-.023-.22.006-.44.017-.66.023v-.113c.417-.028.384-.164.389-.536v-.807c0-.107,0-.542-.023-.627-.039-.141-.276-.13-.389-.124v-.113l.891-.175ZM78.251,22.501c0-.169.135-.305.305-.305s.299.136.299.305c0,.164-.13.299-.288.299-.169,0-.316-.124-.316-.299Z"/>
      <path class="st1" d="M83.285,26.062c-.062-.13-.096-.277-.113-.429-.242.293-.497.429-.88.429-.711,0-1.202-.547-1.202-1.247,0-.688.486-1.309,1.202-1.309.31,0,.603.113.807.35v-.892c0-.339-.017-.519-.423-.531v-.113l.903-.181v2.85c0,.158,0,.44.057.587.073.198.225.186.406.186v.113l-.756.186ZM83.099,24.262c0-.355-.344-.576-.671-.576-.61,0-.774.638-.774,1.129,0,.508.164,1.095.774,1.095.508,0,.671-.401.671-.846v-.801Z"/>
      <path class="st1" d="M85.796,24.454c.057-.028.045-.102.045-.164,0-.384-.034-.655-.497-.655-.282,0-.514.023-.53.322-.012.124-.085.248-.226.248-.124,0-.214-.079-.214-.203,0-.418.75-.497,1.038-.497.626,0,.914.164.914.813v.931c0,.141-.023.559.198.559.113,0,.169-.101.231-.18l.107.057c-.09.186-.299.378-.508.378-.231,0-.429-.175-.485-.401-.265.215-.593.401-.943.401-.299,0-.586-.181-.586-.497,0-.474.536-.677.897-.841l.559-.271ZM85.847,24.595c-.339.164-.982.384-.982.835,0,.209.13.406.362.406.22,0,.462-.169.621-.322v-.92Z"/>
      <path class="st1" d="M87.89,25.318c.012.372-.05.542.395.57v.113c-.22-.006-.435-.017-.649-.023-.209.006-.412.017-.621.023v-.113c.424-.028.395-.164.395-.536v-2.167c0-.141,0-.485-.057-.604-.068-.141-.237-.13-.366-.147v-.113l.902-.181v3.177Z"/>
      <path class="st1" d="M89.47,25.318c.011.372-.051.542.395.57v.113c-.22-.006-.434-.017-.649-.023-.209.006-.412.017-.621.023v-.113c.424-.028.395-.164.395-.536v-2.167c0-.141,0-.485-.057-.604-.068-.141-.237-.13-.367-.147v-.113l.903-.181v3.177Z"/>
      <path class="st1" d="M91.666,24.454c.057-.028.045-.102.045-.164,0-.384-.034-.655-.497-.655-.282,0-.513.023-.53.322-.011.124-.085.248-.225.248-.125,0-.215-.079-.215-.203,0-.418.751-.497,1.039-.497.626,0,.914.164.914.813v.931c0,.141-.023.559.197.559.113,0,.169-.101.231-.18l.107.057c-.09.186-.299.378-.508.378-.231,0-.429-.175-.486-.401-.265.215-.592.401-.942.401-.299,0-.587-.181-.587-.497,0-.474.536-.677.898-.841l.559-.271ZM91.716,24.595c-.338.164-.982.384-.982.835,0,.209.13.406.361.406.22,0,.463-.169.621-.322v-.92Z"/>
      <path class="st1" d="M95.153,23.974h.012c.209-.299.468-.468.835-.468.745,0,1.253.559,1.253,1.292,0,.689-.508,1.264-1.219,1.264-.333,0-.57-.102-.812-.322v1.095c0,.406-.04.553.434.575v.113c-.209-.006-.417-.017-.626-.022-.226.006-.451.017-.677.022v-.113c.423-.028.389-.169.389-.541v-2.212c0-.158,0-.553-.028-.683-.045-.203-.197-.181-.378-.181v-.113c.282-.039.559-.113.818-.175v.468ZM95.221,25.041c0,.192,0,.468.124.615.13.152.35.226.553.226.609,0,.789-.592.789-1.1,0-.514-.163-1.095-.778-1.095-.237,0-.451.118-.57.322-.119.203-.119.401-.119.632v.401Z"/>
      <path class="st1" d="M100.408,24.776c0,.762-.621,1.287-1.36,1.287-.734,0-1.354-.564-1.354-1.309,0-.722.666-1.247,1.354-1.247.699,0,1.36.542,1.36,1.27ZM98.257,24.776c0,.536.158,1.157.818,1.157.614,0,.767-.621.767-1.123,0-.542-.153-1.174-.818-1.174-.615,0-.767.649-.767,1.14Z"/>
      <path class="st1" d="M100.944,24.087c-.09-.22-.135-.401-.401-.418v-.113c.203.006.401.017.604.023.192-.006.384-.011.576-.023v.113c-.119.006-.322.028-.322.186,0,.079.05.209.073.276l.548,1.36c.101-.305.564-1.326.564-1.591,0-.186-.186-.214-.322-.231v-.113c.141.006.276.017.417.023.136-.006.271-.017.406-.023v.113c-.096.023-.158.056-.22.136-.091.119-.238.497-.293.655l-.666,1.642h-.118l-.847-2.015Z"/>
      <path class="st1" d="M105.503,25.583c-.265.327-.581.48-1.004.48-.7,0-1.275-.491-1.275-1.213,0-.705.536-1.343,1.27-1.343.553,0,1.078.31,1.078.92,0,.073-.085.051-.141.051h-1.62l-.023.271c0,.536.282,1.134.886,1.134.288,0,.541-.192.711-.417l.118.119ZM104.77,24.324c.09,0,.277.028.277-.113,0-.35-.192-.576-.548-.576-.423,0-.592.322-.66.689h.931Z"/>
      <path class="st1" d="M106.412,24.657c0-.152.006-.553-.034-.683-.051-.203-.192-.181-.373-.181v-.113c.265-.017.514-.119.762-.175.051.164.074.367.068.57h.011c.147-.344.429-.57.818-.57.175,0,.4.085.4.293,0,.107-.09.203-.197.203-.237,0-.187-.293-.406-.293-.169,0-.355.141-.44.282-.13.231-.13.508-.13.768v.559c0,.412-.045.547.429.57v.113c-.214-.006-.435-.017-.649-.023-.22.006-.435.017-.654.023v-.113c.423-.028.395-.164.395-.536v-.694Z"/>
      <path class="st1" d="M108.331,23.754v-.102c.282-.164.565-.389.683-.711h.084v.66h.643v.152h-.643v1.608c0,.254.051.519.35.519.198,0,.3-.113.406-.254l.102.073c-.102.271-.384.361-.655.361-.406,0-.683-.158-.683-.581v-1.727h-.288Z"/>
      <path class="st1" d="M111.531,24.454c.057-.028.045-.102.045-.164,0-.384-.034-.655-.497-.655-.282,0-.514.023-.53.322-.012.124-.085.248-.226.248-.124,0-.214-.079-.214-.203,0-.418.75-.497,1.038-.497.626,0,.914.164.914.813v.931c0,.141-.023.559.198.559.113,0,.169-.101.231-.18l.107.057c-.09.186-.299.378-.508.378-.231,0-.429-.175-.485-.401-.265.215-.592.401-.942.401-.3,0-.587-.181-.587-.497,0-.474.536-.677.897-.841l.559-.271ZM111.711,22.998l-.762-.327c-.135-.056-.355-.118-.355-.305,0-.107.085-.198.192-.198.09,0,.18.073.248.13l.886.7h-.209ZM111.582,24.595c-.339.164-.982.384-.982.835,0,.209.13.406.362.406.22,0,.463-.169.621-.322v-.92Z"/>
    </g>
    <g>
      <path class="st1" d="M70.77,49.26c0,.512-.062.745.543.784v.155c-.279-.008-.566-.023-.846-.031-.303.008-.598.023-.9.031v-.155c.582-.039.543-.225.543-.737v-.993c0-.536.023-1.296-.714-1.296-.605,0-.993.473-.993,1.04v1.203c0,.512-.07.745.543.784v.155c-.279-.008-.566-.023-.846-.031-.303.008-.597.023-.9.031v-.155c.582-.039.543-.225.543-.737v-.955c0-.217,0-.76-.039-.939-.062-.279-.272-.248-.52-.248v-.155c.404-.047.691-.171,1.071-.24l.101.706h.015c.272-.481.691-.706,1.242-.706.738,0,1.156.333,1.156,1.071v1.42Z"/>
      <path class="st1" d="M75.03,49.625c-.365.45-.799.66-1.381.66-.962,0-1.754-.675-1.754-1.669,0-.97.737-1.847,1.746-1.847.76,0,1.482.427,1.482,1.265,0,.101-.116.07-.194.07h-2.227l-.031.372c0,.737.388,1.56,1.218,1.56.396,0,.745-.264.978-.574l.163.163ZM74.021,47.894c.124,0,.38.039.38-.155,0-.481-.264-.792-.752-.792-.582,0-.815.442-.908.947h1.28Z"/>
      <path class="st1" d="M76.885,49.26c.015.512-.07.745.543.784v.155c-.302-.008-.597-.023-.892-.031-.287.008-.566.023-.854.031v-.155c.582-.039.543-.225.543-.737v-2.98c0-.194,0-.668-.078-.83-.093-.194-.326-.178-.505-.202v-.155l1.242-.248v4.369Z"/>
      <path class="st1" d="M83.496,49.26c0,.512-.062.745.543.784v.155c-.279-.008-.566-.023-.846-.031-.303.008-.598.023-.9.031v-.155c.582-.039.543-.225.543-.737v-.993c0-.536.023-1.296-.714-1.296-.606,0-.993.473-.993,1.04v1.203c0,.512-.07.745.544.784v.155c-.28-.008-.567-.023-.846-.031-.303.008-.598.023-.9.031v-.155c.582-.039.544-.225.544-.737v-.955c0-.217,0-.76-.039-.939-.062-.279-.272-.248-.52-.248v-.155c.403-.047.69-.171,1.071-.24l.101.706h.015c.271-.481.691-.706,1.241-.706.738,0,1.156.333,1.156,1.071v1.42Z"/>
      <path class="st1" d="M88.354,48.515c0,1.047-.854,1.769-1.87,1.769-1.009,0-1.862-.776-1.862-1.8,0-.993.916-1.715,1.862-1.715.962,0,1.87.745,1.87,1.746ZM85.397,48.515c0,.737.217,1.591,1.125,1.591.846,0,1.055-.854,1.055-1.544,0-.745-.209-1.614-1.125-1.614-.846,0-1.055.892-1.055,1.568Z"/>
      <path class="st1" d="M90.092,49.26c.008.512-.085.745.52.784v.155c-.279-.008-.559-.023-.838-.031-.295.008-.59.023-.885.031v-.155c.582-.039.543-.225.543-.737v-.955c0-.217,0-.76-.039-.939-.062-.279-.271-.248-.52-.248v-.155c.404-.047.691-.171,1.071-.24l.085.628c.295-.395.667-.628,1.171-.628.458,0,.908.163,1.063.628.271-.411.683-.628,1.179-.628.341,0,.683.093.908.372.209.256.209.706.209,1.024v1.094c.008.512-.077.745.528.784v.155c-.287-.008-.574-.023-.861-.031-.287.008-.574.023-.861.031v-.155c.574-.039.528-.225.535-.737v-.978c0-.543.062-1.311-.722-1.311-.318,0-.621.225-.753.512-.101.225-.101.512-.101.799v.931c.015.512-.085.745.528.784v.155c-.279-.008-.567-.023-.846-.031-.295.008-.582.023-.877.031v-.155c.582-.039.528-.225.535-.737v-.978c0-.543.062-1.311-.722-1.311-.318,0-.621.225-.753.512-.101.225-.101.512-.101.799v.931Z"/>
      <path class="st1" d="M98.775,49.625c-.364.45-.799.66-1.381.66-.962,0-1.754-.675-1.754-1.669,0-.97.737-1.847,1.746-1.847.761,0,1.482.427,1.482,1.265,0,.101-.116.07-.194.07h-2.227l-.031.372c0,.737.388,1.56,1.218,1.56.396,0,.745-.264.978-.574l.163.163ZM97.766,47.894c.124,0,.38.039.38-.155,0-.481-.264-.792-.753-.792-.582,0-.815.442-.908.947h1.28Z"/>
      <path class="st1" d="M104.541,50.284c-.085-.178-.132-.38-.155-.59-.334.403-.683.59-1.21.59-.978,0-1.653-.753-1.653-1.715,0-.947.668-1.8,1.653-1.8.427,0,.83.155,1.11.481v-1.226c0-.466-.023-.714-.582-.73v-.155l1.241-.248v3.919c0,.217,0,.605.077.807.101.272.31.256.559.256v.155l-1.04.256ZM104.284,47.809c0-.489-.473-.791-.923-.791-.838,0-1.063.877-1.063,1.552,0,.699.225,1.506,1.063,1.506.699,0,.923-.551.923-1.164v-1.102Z"/>
      <path class="st1" d="M107.148,46.769v2.491c.016.512-.07.745.543.784v.155c-.264-.008-.551-.023-.83-.031-.302.008-.605.023-.908.031v-.155c.574-.039.528-.225.536-.737v-1.109c0-.147,0-.745-.031-.861-.054-.194-.38-.178-.536-.171v-.155l1.226-.24ZM106.31,45.388c0-.233.186-.419.419-.419s.411.186.411.419c0,.225-.178.411-.396.411-.233,0-.434-.171-.434-.411Z"/>
      <path class="st1" d="M114.776,46.645h-.163c-.054-.869-.621-1.498-1.521-1.498-1.513,0-1.839,1.397-1.839,2.623,0,1.164.45,2.305,1.769,2.305.776,0,1.296-.365,1.296-1.164,0-.52-.194-.621-.667-.659v-.179h2.033v.179c-.419-.008-.481.202-.481.59v.823c-.567,0-.613.062-1.094.326-.396.202-.776.295-1.218.295-1.513,0-2.607-.993-2.607-2.53,0-1.583,1.094-2.786,2.716-2.786.574,0,1.148.14,1.614.489l.163-.349h.085l-.085,1.536Z"/>
      <path class="st1" d="M119.106,49.625c-.365.45-.799.66-1.381.66-.962,0-1.754-.675-1.754-1.669,0-.97.737-1.847,1.746-1.847.761,0,1.482.427,1.482,1.265,0,.101-.116.07-.194.07h-2.227l-.031.372c0,.737.388,1.56,1.218,1.56.396,0,.745-.264.978-.574l.163.163ZM118.097,47.894c.124,0,.38.039.38-.155,0-.481-.264-.792-.753-.792-.582,0-.815.442-.908.947h1.28Z"/>
      <path class="st1" d="M119.897,50.23h-.077l-.031-1.109h.155c.124.496.388.986.962.986.342,0,.652-.171.652-.543,0-.442-.45-.621-.784-.792-.45-.233-.931-.489-.931-1.071,0-.535.427-.931.962-.931.24,0,.535.07.753.194l.155-.186h.093l-.015.97h-.155c-.139-.388-.31-.799-.799-.799-.256,0-.497.147-.497.427,0,.403.427.543.722.706.535.279,1.024.481,1.024,1.179,0,.636-.543,1.024-1.141,1.024-.295,0-.621-.093-.854-.279l-.194.225Z"/>
      <path class="st1" d="M123.73,48.957c0,.458.039,1.078.644,1.078.613,0,1.063-.551,1.063-1.148v-1.04c0-.59.047-.768-.59-.861v-.155c.217.015.427.023.644.039.202-.015.411-.023.605-.039v2.499c0,.209,0,.52.287.52.093,0,.194-.015.295-.023v.178l-1.079.279-.163-.73c-.279.427-.776.73-1.296.73-.784,0-1.071-.427-1.071-1.11v-1.327c0-.59.047-.768-.59-.861v-.148c.217.008.427.023.644.031.202-.008.411-.023.605-.031v2.119ZM125.236,46.07l-1.048-.45c-.186-.078-.489-.163-.489-.419,0-.147.116-.271.264-.271.124,0,.248.101.341.178l1.218.962h-.287Z"/>
    </g>
  </g>
  <g>
    <path class="st0" d="M135.038,29.036v.45h.126c.268,0,.402-.078.402-.233,0-.089-.044-.15-.13-.184-.058-.022-.149-.033-.272-.033h-.126ZM134.657,30.444v-1.671h.412c.292,0,.493.017.601.052.197.063.295.196.295.4,0,.101-.035.187-.106.258s-.166.115-.286.129v.005c.083.006.151.064.202.172l.304.654h-.424l-.229-.522c-.029-.066-.06-.11-.092-.132-.038-.027-.096-.04-.172-.04h-.123v.694h-.381Z"/>
    <path class="st0" d="M134.119,29.625c0-.664.539-1.202,1.203-1.202s1.203.538,1.203,1.202-.538,1.203-1.203,1.203-1.203-.539-1.203-1.203h0ZM133.656,29.625c0-.92.746-1.667,1.666-1.667s1.667.746,1.667,1.667-.746,1.667-1.667,1.667-1.666-.746-1.666-1.667h0Z"/>
  </g>
</svg>