<?xml version="1.0" encoding="utf-8"?>
<!-- Generator: Adobe Illustrator 15.1.0, SVG Export Plug-In . SVG Version: 6.00 Build 0)  -->
<!DOCTYPE svg PUBLIC "-//W3C//DTD SVG 1.1//EN" "http://www.w3.org/Graphics/SVG/1.1/DTD/svg11.dtd">
<svg version="1.1" id="Ebene_1" xmlns="http://www.w3.org/2000/svg" xmlns:xlink="http://www.w3.org/1999/xlink" x="0px" y="0px"
	 width="142.947px" height="54.077px" viewBox="0 0 142.947 54.077" enable-background="new 0 0 142.947 54.077"
	 xml:space="preserve">
<g>
	<defs>
		<rect id="SVGID_1_" y="0" width="142.947" height="54.077"/>
	</defs>
	<clipPath id="SVGID_2_">
		<use xlink:href="#SVGID_1_"  overflow="visible"/>
	</clipPath>
	<path clip-path="url(#SVGID_2_)" fill="#FFFFFF" d="M27.696,7.149c2.159,0.101,3.982-1.393,4.074-3.337
		c0.091-1.944-1.586-3.602-3.744-3.703c-2.159-0.101-3.982,1.393-4.073,3.337C23.861,5.39,25.538,7.048,27.696,7.149"/>
	<path clip-path="url(#SVGID_2_)" fill="#FFFFFF" d="M38.229,0.141c0,0-2.026,3.586-6.545,6.153
		c-4.519,2.566-8.533,4.058-12.372,10.003c0,0,1.141-0.527,0.351,0.748c0,0,0.592-0.559,1.097-0.727c0,0,0.307-0.065,0.175,0.308
		c0,0,2.027-1.571,1.514-0.812c-0.31,0.458,1.607-1.448,1.837-1.261c0,0,0.066,0.115-0.222,0.551c0,0,4.572-2.753,6.282-3.48
		C37.75,8.475,39.34,3.267,38.66,0.327C38.66,0.327,38.633-0.262,38.229,0.141"/>
	<path clip-path="url(#SVGID_2_)" fill="#FFFFFF" d="M22.79,25.51c0,0,0.318-7.721,5.122-11.67
		c4.804-3.948,9.388-3.224,11.297-3.356c0,0,3.904,0.11,5.857-0.548c0,0,0.285,3.444-9.301,5.089c0,0-3.159-0.044-5.857,3.553
		c0,0-2.676,3.005-5.155,9.213c0,0-0.022-0.899-0.373-0.263l-0.921,2.084l-0.033-1.963c0,0-0.164-0.494-0.384,0.186
		c0,0-0.175,0.231,0.121-2.38C23.163,25.455,23.085,24.896,22.79,25.51"/>
	<path clip-path="url(#SVGID_2_)" fill="#FFFFFF" d="M19.427,28.633c-1.081-3.047-3.899-5.045-7.47-5.045
		c-5.471,0-8.878,3.964-8.878,9.468c0,5.929,4.259,10.287,9.239,10.287c2.588,0,5.766-0.886,7.993-4.85h0.623
		c-0.426,1.475-1.311,3.506-2.097,4.783c-2.097-0.295-3.538,0.885-7.404,0.885C4.783,44.162,0,39.772,0,33.711
		c0-6.355,4.914-10.942,11.761-10.942c4.128,0,5.897,1.31,6.912,1.31c0.361,0,0.525-0.098,0.59-0.196h0.492l0.294,4.75H19.427z"/>
	<path clip-path="url(#SVGID_2_)" fill="#FFFFFF" d="M29.119,30.304c3.997,0,7.044,2.981,7.044,6.88
		c0,3.865-3.047,6.847-6.945,6.847c-4.063,0-7.175-2.948-7.175-6.781C22.043,32.728,25.712,30.304,29.119,30.304 M29.578,43.245
		c1.933,0,4.128-1.966,4.128-5.242c0-3.734-2.293-6.912-5.045-6.912c-2.163,0-4.161,2.228-4.161,5.045
		C24.5,40.099,26.761,43.245,29.578,43.245"/>
	<path clip-path="url(#SVGID_2_)" fill="#FFFFFF" d="M40.71,40.984c0,1.703,0.458,2.031,2.293,2.031v0.622h-6.814v-0.622
		c1.9,0,2.326-0.852,2.326-2.522v-6.422c0-1.276-0.197-1.571-0.95-1.671l-1.278-0.163v-0.558l3.931-1.375h0.492v2.62
		c2.359-1.67,4.521-2.62,5.832-2.62c1.605,0,2.784,1.015,3.112,2.62c2.195-1.375,4.193-2.62,5.798-2.62
		c2.359,0,3.277,1.802,3.277,4.947c0,2.096,0,4.292-0.099,6.29c0,0.688,0.393,1.474,1.737,1.474h1.048v0.622h-7.371v-0.622h0.295
		c0.949,0,1.376-0.164,1.67-0.458c0.492-0.492,0.525-2.392,0.525-4.653v-2.555c0-2.523-0.852-3.735-2.458-3.735
		c-1.015,0-2.326,0.492-4.357,1.835v7.535c0,1.639,0.393,2.031,2.031,2.031v0.622h-6.716v-0.622c1.835,0,2.49-0.656,2.49-2.522
		v-6.062c0-2.063-1.277-2.817-2.424-2.817c-0.917,0-2.162,0.427-4.39,1.9V40.984z"/>
	<path clip-path="url(#SVGID_2_)" fill="#FFFFFF" d="M64.314,49.141c0,1.64,0.819,2.13,2.195,2.13h0.819v0.623h-7.732v-0.623h0.328
		c1.671,0,2.195-0.557,2.195-2.424V33.776c0-0.622-0.131-0.885-0.917-1.08l-1.049-0.263V31.81l3.506-2.162h0.655v3.146
		c2.031-1.539,3.767-2.391,5.078-2.391c2.555,0,4.849,2.883,4.849,6.093c0,3.964-3.211,7.371-6.946,7.371
		c-0.884,0-1.736-0.196-2.981-0.655V49.141z M64.314,41.083c1.179,1.048,2.653,1.769,3.866,1.769c2.227,0,3.866-2.194,3.866-4.882
		c0-4.324-2.556-5.962-4.292-5.962c-1.016,0-2.261,0.589-3.44,1.605V41.083z"/>
	<path clip-path="url(#SVGID_2_)" fill="#FFFFFF" d="M75.652,34.563c-0.065-0.197-0.098-0.295-0.098-0.459
		c0-1.146,2.719-3.8,4.849-3.8c0.982,0,2.522,0.458,3.44,1.735c0.49,0.688,0.49,1.114,0.49,2.817v4.391c0,2.621,0,3.21,0.852,3.21
		c0.361,0,0.787-0.032,1.605-0.72l0.164,0.491c-1.77,1.441-2.687,1.802-3.244,1.802c-1.343,0-1.474-1.474-1.507-1.999
		c-2.26,1.867-2.915,1.999-3.8,1.999c-1.9,0-3.046-1.081-3.046-2.687c0-1.998,1.768-2.687,3.865-3.21
		c0.688-0.164,1.769-0.558,2.916-1.245v-2.588c0-0.918,0-1.442-0.558-2.098c-0.426-0.524-1.113-0.949-1.835-0.949
		c-1.081,0-2.03,0.917-2.03,1.604c0,0.197,0.032,0.328,0.164,0.622L75.652,34.563z M82.14,37.544
		c-0.623,0.36-1.147,0.59-1.934,0.917c-1.998,0.818-2.752,1.146-2.752,2.489c0,1.18,0.95,1.934,1.934,1.934
		c0.523,0,0.917-0.164,2.752-1.441V37.544z"/>
	<path clip-path="url(#SVGID_2_)" fill="#FFFFFF" d="M88.368,40.329c0.393,1.966,1.638,3.08,3.112,3.08
		c1.311,0,2.325-0.983,2.325-2.163c0-0.688-0.164-1.113-1.048-1.998c-2.326-2.326-4.914-2.555-4.914-5.274
		c0-2.162,1.703-3.67,4.193-3.67c0.885,0,1.802,0.197,2.621,0.525l0.065,2.981h-0.557c-0.23-1.672-1.311-2.72-2.621-2.72
		c-1.081,0-1.999,0.753-1.999,1.834c0,2.884,6.094,3.375,6.094,7.371c0,2.13-1.769,3.735-4.062,3.735
		c-0.623,0-1.082-0.098-1.442-0.229c-0.359-0.099-0.623-0.196-0.884-0.196c-0.197,0-0.393,0.131-0.557,0.393h-0.492l-0.36-3.669
		H88.368z"/>
	<path clip-path="url(#SVGID_2_)" fill="#FFFFFF" d="M97.631,40.329c0.393,1.966,1.638,3.08,3.113,3.08
		c1.31,0,2.324-0.983,2.324-2.163c0-0.688-0.162-1.113-1.048-1.998c-2.326-2.326-4.914-2.555-4.914-5.274
		c0-2.162,1.704-3.67,4.193-3.67c0.885,0,1.802,0.197,2.621,0.525l0.065,2.981h-0.557c-0.229-1.672-1.311-2.72-2.621-2.72
		c-1.081,0-1.998,0.753-1.998,1.834c0,2.884,6.093,3.375,6.093,7.371c0,2.13-1.769,3.735-4.062,3.735
		c-0.623,0-1.081-0.098-1.442-0.229c-0.359-0.099-0.622-0.196-0.884-0.196c-0.197,0-0.393,0.131-0.557,0.393h-0.492l-0.36-3.669
		H97.631z"/>
	<path clip-path="url(#SVGID_2_)" fill="#FFFFFF" d="M110.825,41.148c0,1.146,0.623,1.867,2.358,1.867v0.623h-7.272v-0.623
		c1.999,0,2.719-0.655,2.719-2.391v-6.587c0-1.276-0.164-1.44-1.016-1.604l-1.539-0.294v-0.525l4.259-1.474h0.491V41.148z"/>
	<path clip-path="url(#SVGID_2_)" fill="#FFFFFF" d="M120.068,30.304c3.995,0,7.043,2.981,7.043,6.88
		c0,3.865-3.048,6.847-6.945,6.847c-4.063,0-7.175-2.948-7.175-6.781C112.991,32.728,116.66,30.304,120.068,30.304 M120.526,43.245
		c1.933,0,4.128-1.966,4.128-5.242c0-3.734-2.293-6.912-5.045-6.912c-2.162,0-4.161,2.228-4.161,5.045
		C115.448,40.099,117.709,43.245,120.526,43.245"/>
	<path clip-path="url(#SVGID_2_)" fill="#FFFFFF" d="M131.513,40.788c0,1.802,0.426,2.227,2.195,2.227v0.623h-6.585v-0.623
		c1.44,0,2.194-0.785,2.194-2.062v-6.88c0-1.212-0.131-1.442-0.982-1.606l-1.114-0.229v-0.524l3.768-1.376h0.524v2.555
		c2.195-1.376,4.03-2.588,5.635-2.588c2.229,0,3.505,1.639,3.505,4.914c0,4.358-0.229,5.209-0.262,6.487
		c-0.033,0.885,0.492,1.31,1.835,1.31h0.721v0.623h-7.045v-0.623c0.951-0.031,1.509-0.262,1.868-0.622
		c0.623-0.621,0.688-3.014,0.688-7.37c0-2.621-1.277-3.44-2.588-3.44c-1.049,0-2.653,0.917-4.357,2.097V40.788z"/>
	<path clip-path="url(#SVGID_2_)" fill="#FFFFFF" d="M140.843,25.102c1.101,0,2.023,0.869,2.023,2.007
		c0,1.16-0.923,2.029-2.023,2.029c-1.106,0-2.035-0.869-2.035-2.029C138.808,25.971,139.736,25.102,140.843,25.102 M140.843,28.841
		c0.934,0,1.657-0.744,1.657-1.732c0-0.966-0.724-1.71-1.657-1.71c-0.944,0-1.667,0.745-1.667,1.71
		C139.176,28.097,139.898,28.841,140.843,28.841 M140.055,25.938h0.912c0.562,0,0.826,0.221,0.826,0.675
		c0,0.426-0.271,0.604-0.62,0.642l0.674,1.042h-0.395l-0.642-1.015h-0.389v1.015h-0.367V25.938z M140.422,26.985h0.384
		c0.323,0,0.62-0.016,0.62-0.388c0-0.314-0.271-0.362-0.519-0.362h-0.485V26.985z"/>
	<path clip-path="url(#SVGID_2_)" fill="#FFFFFF" d="M31.665,27.907v-0.12c0.291-0.007,0.412-0.057,0.412-0.178
		c0-0.106-0.14-0.323-0.779-0.962c-0.507-0.506-0.659-0.601-0.937-0.57v1.184c0,0.398,0.114,0.525,0.506,0.525h0.083v0.12h-1.735
		v-0.12h0.114c0.405,0,0.506-0.139,0.506-0.462v-2.78c0-0.38-0.171-0.456-0.506-0.456h-0.114v-0.12h1.709v0.12h-0.057
		c-0.38,0-0.506,0.121-0.506,0.501v1.367c0.247-0.025,0.443-0.139,0.709-0.405c0.494-0.494,0.88-1.064,0.88-1.266
		c0-0.146-0.095-0.197-0.437-0.197v-0.12h1.665v0.12c-0.449,0.007-0.646,0.07-0.836,0.26c-0.196,0.196-0.595,0.988-1.259,1.494
		c0.114,0.019,0.227,0.114,0.506,0.393c0.665,0.665,1.019,1.158,1.228,1.367c0.108,0.108,0.273,0.184,0.703,0.184v0.12H31.665z"/>
	<path clip-path="url(#SVGID_2_)" fill="#FFFFFF" d="M34.577,27.426c0,0.222,0.121,0.361,0.456,0.361v0.119h-1.405v-0.119
		c0.386,0,0.525-0.127,0.525-0.463v-1.272c0-0.247-0.031-0.279-0.196-0.31l-0.297-0.057v-0.101l0.823-0.285h0.094V27.426z
		 M34.318,23.874c0.152,0,0.279,0.108,0.279,0.241c0,0.133-0.127,0.24-0.279,0.24s-0.272-0.107-0.272-0.24
		C34.046,23.982,34.166,23.874,34.318,23.874"/>
	<path clip-path="url(#SVGID_2_)" fill="#FFFFFF" d="M36.173,27.356c0,0.349,0.082,0.432,0.424,0.432v0.119h-1.272v-0.119
		c0.278,0,0.424-0.152,0.424-0.399v-1.33c0-0.234-0.026-0.278-0.19-0.31l-0.215-0.044v-0.102l0.728-0.266h0.101v0.494
		c0.424-0.266,0.779-0.5,1.089-0.5c0.431,0,0.678,0.317,0.678,0.95c0,0.842-0.045,1.006-0.051,1.252
		c-0.007,0.172,0.094,0.255,0.354,0.255h0.14v0.119h-1.362v-0.119c0.184-0.008,0.292-0.052,0.361-0.121
		c0.121-0.12,0.133-0.582,0.133-1.424c0-0.507-0.247-0.665-0.5-0.665c-0.203,0-0.513,0.177-0.842,0.405V27.356z"/>
	<path clip-path="url(#SVGID_2_)" fill="#FFFFFF" d="M40.726,24.222c0-0.12-0.044-0.152-0.247-0.177L40.27,24.02v-0.108l0.88-0.259
		v3.716c0,0.215,0.133,0.259,0.31,0.209l0.152-0.045v0.133l-0.81,0.316h-0.076v-0.449c-0.412,0.298-0.741,0.449-0.981,0.449
		c-0.564,0-1.014-0.545-1.014-1.222c0-0.791,0.602-1.431,1.374-1.431c0.19,0,0.45,0.051,0.621,0.121V24.222z M40.726,25.976
		c-0.228-0.336-0.456-0.475-0.753-0.475c-0.494,0-0.817,0.45-0.817,1.045c0,0.633,0.367,1.165,0.823,1.165
		c0.196,0,0.468-0.121,0.747-0.317V25.976z"/>
	<path clip-path="url(#SVGID_2_)" fill="#FFFFFF" d="M42.347,26.299c-0.013,0.095-0.025,0.183-0.025,0.266
		c0,0.658,0.462,1.101,0.962,1.101c0.317,0,0.564-0.126,0.804-0.411l0.07,0.075c-0.266,0.336-0.665,0.652-1.127,0.652
		c-0.621,0-1.102-0.563-1.102-1.297c0-0.671,0.45-1.355,1.222-1.355c0.855,0,0.836,0.614,1.045,0.823v0.146H42.347z M43.664,26.134
		c-0.07-0.411-0.323-0.684-0.627-0.684c-0.209,0-0.525,0.095-0.671,0.684H43.664z"/>
	<path clip-path="url(#SVGID_2_)" fill="#FFFFFF" d="M45.411,27.445c0,0.26,0.095,0.342,0.412,0.342h0.24v0.12h-1.5v-0.12
		c0.322-0.007,0.424-0.139,0.424-0.475V25.85l-0.424-0.152V25.59l0.721-0.253h0.127v0.671h0.013c0.316-0.519,0.392-0.64,0.601-0.64
		c0.076,0,0.095,0.007,0.215,0.057c0.064,0.026,0.177,0.051,0.33,0.095l-0.153,0.38c-0.094-0.012-0.215-0.044-0.335-0.101
		c-0.069-0.032-0.146-0.064-0.221-0.064c-0.114,0-0.184,0.077-0.247,0.165c-0.083,0.114-0.152,0.222-0.203,0.317V27.445z"/>
	<path clip-path="url(#SVGID_2_)" fill="#FFFFFF" d="M48.551,26.153c-0.012-0.038-0.019-0.057-0.019-0.089
		c0-0.221,0.526-0.734,0.937-0.734c0.19,0,0.488,0.089,0.665,0.335c0.095,0.133,0.095,0.216,0.095,0.545v0.848
		c0,0.507,0,0.621,0.164,0.621c0.07,0,0.152-0.007,0.311-0.14l0.031,0.095c-0.342,0.279-0.519,0.35-0.626,0.35
		c-0.26,0-0.285-0.285-0.291-0.387c-0.437,0.36-0.564,0.387-0.735,0.387c-0.367,0-0.589-0.209-0.589-0.521
		c0-0.386,0.342-0.519,0.747-0.62c0.133-0.032,0.342-0.108,0.564-0.241v-0.5c0-0.177,0-0.278-0.108-0.405
		c-0.082-0.101-0.215-0.184-0.355-0.184c-0.208,0-0.392,0.178-0.392,0.311c0,0.038,0.006,0.063,0.032,0.12L48.551,26.153z
		 M49.805,26.729c-0.121,0.07-0.222,0.114-0.374,0.177c-0.386,0.159-0.531,0.222-0.531,0.481c0,0.229,0.183,0.374,0.373,0.374
		c0.101,0,0.177-0.032,0.532-0.278V26.729z"/>
	<path clip-path="url(#SVGID_2_)" fill="#FFFFFF" d="M53.921,27.724l-0.849,0.26v-0.507c-0.474,0.342-0.823,0.507-1.076,0.507
		c-0.316,0-0.671-0.216-0.671-0.646v-1.406c0-0.152-0.038-0.221-0.171-0.259l-0.222-0.064v-0.095l0.817-0.177v1.773
		c0,0.392,0.285,0.569,0.57,0.569c0.215,0,0.494-0.133,0.753-0.349V25.97c0-0.247-0.031-0.297-0.234-0.335l-0.316-0.057v-0.089
		l0.975-0.152v2.134c0,0.178,0.063,0.209,0.291,0.164l0.133-0.024V27.724z"/>
	<path clip-path="url(#SVGID_2_)" fill="#FFFFFF" d="M54.377,27.267c0.076,0.381,0.317,0.596,0.601,0.596
		c0.253,0,0.45-0.19,0.45-0.418c0-0.133-0.032-0.215-0.203-0.386c-0.449-0.449-0.949-0.494-0.949-1.019
		c0-0.418,0.329-0.709,0.81-0.709c0.171,0,0.348,0.038,0.507,0.101l0.012,0.576h-0.108c-0.044-0.323-0.253-0.525-0.506-0.525
		c-0.209,0-0.386,0.145-0.386,0.354c0,0.558,1.178,0.652,1.178,1.425c0,0.411-0.342,0.723-0.786,0.723
		c-0.12,0-0.208-0.02-0.278-0.045c-0.07-0.019-0.12-0.038-0.171-0.038c-0.038,0-0.076,0.024-0.108,0.076h-0.095l-0.069-0.71H54.377z
		"/>
	<path clip-path="url(#SVGID_2_)" fill="#FFFFFF" d="M58.608,26.16l-0.368,0.994c-0.044,0.12-0.127,0.311-0.127,0.399
		c0,0.171,0.165,0.233,0.513,0.233h0.101v0.12h-1.462v-0.12c0.411-0.007,0.481-0.075,0.684-0.627l1.152-3.146l-0.057-0.139h0.551
		l1.323,3.514c0.127,0.336,0.26,0.398,0.576,0.398v0.12h-1.741v-0.12h0.165c0.361,0,0.494-0.038,0.494-0.215
		c0-0.102-0.045-0.197-0.07-0.26l-0.424-1.152H58.608z M59.253,24.406l-0.538,1.475h1.095L59.253,24.406z"/>
	<path clip-path="url(#SVGID_2_)" fill="#FFFFFF" d="M62.54,27.445c0,0.26,0.095,0.342,0.412,0.342h0.24v0.12h-1.5v-0.12
		c0.322-0.007,0.424-0.139,0.424-0.475V25.85l-0.424-0.152V25.59l0.721-0.253h0.127v0.671h0.013c0.316-0.519,0.392-0.64,0.601-0.64
		c0.076,0,0.095,0.007,0.215,0.057c0.064,0.026,0.178,0.051,0.33,0.095l-0.152,0.38c-0.096-0.012-0.216-0.044-0.336-0.101
		c-0.069-0.032-0.145-0.064-0.221-0.064c-0.114,0-0.184,0.077-0.247,0.165c-0.083,0.114-0.152,0.222-0.203,0.317V27.445z"/>
	<path clip-path="url(#SVGID_2_)" fill="#FFFFFF" d="M64.926,27.394c0,0.33,0.089,0.393,0.443,0.393v0.12h-1.316v-0.12
		c0.366,0,0.449-0.165,0.449-0.487v-1.241c0-0.247-0.038-0.304-0.183-0.323l-0.248-0.031v-0.108l0.76-0.266h0.095v0.507
		c0.456-0.323,0.874-0.507,1.127-0.507c0.31,0,0.538,0.196,0.602,0.507c0.424-0.266,0.81-0.507,1.12-0.507
		c0.456,0,0.633,0.348,0.633,0.956c0,0.405,0,0.829-0.019,1.216c0,0.133,0.076,0.284,0.336,0.284h0.202v0.12h-1.424v-0.12h0.057
		c0.183,0,0.266-0.031,0.323-0.089c0.095-0.095,0.101-0.462,0.101-0.899v-0.494c0-0.487-0.165-0.721-0.475-0.721
		c-0.196,0-0.449,0.094-0.842,0.354v1.456c0,0.317,0.076,0.393,0.393,0.393v0.12h-1.298v-0.12c0.354,0,0.481-0.127,0.481-0.487
		v-1.171c0-0.399-0.247-0.544-0.469-0.544c-0.177,0-0.417,0.082-0.848,0.367V27.394z"/>
	<path clip-path="url(#SVGID_2_)" fill="#FFFFFF" d="M71.987,27.724l-0.85,0.26v-0.507c-0.474,0.342-0.823,0.507-1.076,0.507
		c-0.316,0-0.671-0.216-0.671-0.646v-1.406c0-0.152-0.038-0.221-0.171-0.259l-0.222-0.064v-0.095l0.817-0.177v1.773
		c0,0.392,0.285,0.569,0.57,0.569c0.215,0,0.494-0.133,0.753-0.349V25.97c0-0.247-0.031-0.297-0.234-0.335l-0.316-0.057v-0.089
		l0.975-0.152v2.134c0,0.178,0.063,0.209,0.291,0.164l0.134-0.024V27.724z"/>
	<path clip-path="url(#SVGID_2_)" fill="#FFFFFF" d="M73.943,25.4l-0.102,0.279h-0.804v1.475c0,0.399,0.284,0.532,0.417,0.532
		c0.139,0,0.267-0.108,0.387-0.317l0.102,0.095c-0.152,0.329-0.399,0.52-0.691,0.52c-0.373,0-0.639-0.31-0.639-0.734v-1.57h-0.291
		v-0.102c0.247-0.12,0.462-0.411,0.607-0.804h0.108V25.4H73.943z"/>
	<path clip-path="url(#SVGID_2_)" fill="#FFFFFF" d="M76.647,25.773c0.449-0.323,0.721-0.444,0.956-0.444
		c0.562,0,1.037,0.558,1.037,1.222c0,0.811-0.64,1.432-1.48,1.432c-0.285,0-0.533-0.045-0.938-0.121v-3.431
		c0-0.33-0.019-0.355-0.259-0.387l-0.178-0.025v-0.108l0.76-0.259h0.103V25.773z M76.647,27.134c0,0.317,0.209,0.665,0.688,0.665
		c0.521,0,0.881-0.437,0.881-1.07c0-0.633-0.374-1.108-0.861-1.108c-0.195,0-0.425,0.095-0.708,0.297V27.134z"/>
	<path clip-path="url(#SVGID_2_)" fill="#FFFFFF" d="M79.635,26.299c-0.013,0.095-0.024,0.183-0.024,0.266
		c0,0.658,0.462,1.101,0.962,1.101c0.316,0,0.563-0.126,0.804-0.411l0.07,0.075c-0.267,0.336-0.665,0.652-1.127,0.652
		c-0.62,0-1.103-0.563-1.103-1.297c0-0.671,0.45-1.355,1.223-1.355c0.854,0,0.836,0.614,1.045,0.823v0.146H79.635z M80.952,26.134
		c-0.07-0.411-0.323-0.684-0.626-0.684c-0.21,0-0.526,0.095-0.672,0.684H80.952z"/>
	<path clip-path="url(#SVGID_2_)" fill="#FFFFFF" d="M83.364,25.679h-0.684v1.735c0,0.291,0.113,0.373,0.469,0.373h0.24v0.12h-1.564
		v-0.12c0.368,0,0.432-0.082,0.432-0.438v-1.67h-0.47v-0.108c0.179-0.038,0.33-0.095,0.47-0.171c0-0.525,0.113-0.924,0.486-1.297
		c0.312-0.311,0.609-0.45,0.9-0.45c0.354,0,0.65,0.203,0.65,0.297c0,0.051-0.119,0.304-0.171,0.304c-0.087,0-0.321-0.31-0.739-0.31
		c-0.456,0-0.703,0.361-0.703,0.975v0.481h0.64L83.364,25.679z"/>
	<path clip-path="url(#SVGID_2_)" fill="#FFFFFF" d="M84.415,27.445c0,0.26,0.096,0.342,0.412,0.342h0.241v0.12h-1.501v-0.12
		c0.323-0.007,0.424-0.139,0.424-0.475V25.85l-0.424-0.152V25.59l0.721-0.253h0.127v0.671h0.014c0.316-0.519,0.392-0.64,0.601-0.64
		c0.077,0,0.095,0.007,0.215,0.057c0.064,0.026,0.179,0.051,0.33,0.095l-0.151,0.38c-0.097-0.012-0.217-0.044-0.335-0.101
		c-0.07-0.032-0.146-0.064-0.223-0.064c-0.113,0-0.184,0.077-0.247,0.165c-0.082,0.114-0.151,0.222-0.203,0.317V27.445z"/>
	<path clip-path="url(#SVGID_2_)" fill="#FFFFFF" d="M86.108,26.299c-0.014,0.095-0.025,0.183-0.025,0.266
		c0,0.658,0.462,1.101,0.962,1.101c0.317,0,0.563-0.126,0.804-0.411l0.069,0.075c-0.265,0.336-0.664,0.652-1.127,0.652
		c-0.62,0-1.101-0.563-1.101-1.297c0-0.671,0.449-1.355,1.222-1.355c0.854,0,0.836,0.614,1.045,0.823v0.146H86.108z M87.425,26.134
		c-0.069-0.411-0.323-0.684-0.627-0.684c-0.209,0-0.524,0.095-0.671,0.684H87.425z"/>
	<path clip-path="url(#SVGID_2_)" fill="#FFFFFF" d="M89.224,27.426c0,0.222,0.12,0.361,0.455,0.361v0.119h-1.406v-0.119
		c0.387,0,0.527-0.127,0.527-0.463v-1.272c0-0.247-0.032-0.279-0.197-0.31l-0.298-0.057v-0.101l0.823-0.285h0.096V27.426z
		 M88.964,23.874c0.151,0,0.278,0.108,0.278,0.241c0,0.133-0.127,0.24-0.278,0.24c-0.152,0-0.272-0.107-0.272-0.24
		C88.691,23.982,88.812,23.874,88.964,23.874"/>
	<path clip-path="url(#SVGID_2_)" fill="#FFFFFF" d="M90.527,26.299c-0.013,0.095-0.025,0.183-0.025,0.266
		c0,0.658,0.462,1.101,0.962,1.101c0.317,0,0.564-0.126,0.805-0.411l0.069,0.075c-0.266,0.336-0.665,0.652-1.127,0.652
		c-0.62,0-1.102-0.563-1.102-1.297c0-0.671,0.45-1.355,1.222-1.355c0.855,0,0.836,0.614,1.045,0.823v0.146H90.527z M91.844,26.134
		c-0.069-0.411-0.322-0.684-0.626-0.684c-0.21,0-0.525,0.095-0.672,0.684H91.844z"/>
	<path clip-path="url(#SVGID_2_)" fill="#FFFFFF" d="M93.592,27.356c0,0.349,0.082,0.432,0.424,0.432v0.119h-1.271v-0.119
		c0.277,0,0.424-0.152,0.424-0.399v-1.33c0-0.234-0.026-0.278-0.19-0.31l-0.215-0.044v-0.102l0.729-0.266h0.101v0.494
		c0.424-0.266,0.779-0.5,1.089-0.5c0.431,0,0.677,0.317,0.677,0.95c0,0.842-0.044,1.006-0.05,1.252
		c-0.006,0.172,0.095,0.255,0.354,0.255h0.14v0.119h-1.362v-0.119c0.185-0.008,0.292-0.052,0.362-0.121
		c0.12-0.12,0.132-0.582,0.132-1.424c0-0.507-0.247-0.665-0.5-0.665c-0.202,0-0.512,0.177-0.842,0.405V27.356z"/>
	<path clip-path="url(#SVGID_2_)" fill="#FFFFFF" d="M70.696,51.084c0,0.339,0.184,0.552,0.697,0.552v0.185h-2.15v-0.185
		c0.591,0,0.804-0.193,0.804-0.707v-1.945c0-0.379-0.048-0.428-0.3-0.476l-0.455-0.087v-0.155l1.259-0.436h0.145V51.084z
		 M70.299,45.652c0.232,0,0.426,0.165,0.426,0.367c0,0.204-0.194,0.368-0.426,0.368s-0.416-0.164-0.416-0.368
		C69.883,45.817,70.067,45.652,70.299,45.652"/>
	<path clip-path="url(#SVGID_2_)" fill="#FFFFFF" d="M73.127,51.036c0,0.504,0.136,0.601,0.678,0.601v0.185h-2.014v-0.185
		c0.561,0,0.687-0.252,0.687-0.745v-1.898c0-0.378-0.058-0.465-0.281-0.494l-0.377-0.048v-0.165l1.162-0.407h0.146v0.775
		c0.697-0.494,1.336-0.775,1.724-0.775c0.475,0,0.823,0.301,0.92,0.775c0.649-0.407,1.24-0.775,1.715-0.775
		c0.696,0,0.968,0.533,0.968,1.463c0,0.619,0,1.269-0.028,1.859c0,0.203,0.116,0.436,0.513,0.436h0.311v0.185h-2.181v-0.185h0.088
		c0.281,0,0.407-0.049,0.494-0.136c0.146-0.145,0.155-0.707,0.155-1.375v-0.755c0-0.746-0.252-1.104-0.727-1.104
		c-0.301,0-0.688,0.145-1.288,0.542v2.227c0,0.485,0.116,0.601,0.601,0.601v0.185h-1.985v-0.185c0.542,0,0.736-0.193,0.736-0.745
		V49.1c0-0.611-0.378-0.833-0.717-0.833c-0.271,0-0.64,0.126-1.298,0.561V51.036z"/>
	<path clip-path="url(#SVGID_2_)" fill="#FFFFFF" d="M89.169,49.138c-0.021-0.059-0.029-0.088-0.029-0.136
		c0-0.339,0.804-1.124,1.433-1.124c0.292,0,0.746,0.136,1.018,0.514c0.146,0.203,0.146,0.329,0.146,0.833v1.298
		c0,0.774,0,0.948,0.252,0.948c0.105,0,0.231-0.009,0.474-0.212l0.049,0.146c-0.522,0.426-0.795,0.531-0.959,0.531
		c-0.396,0-0.436-0.436-0.446-0.591c-0.668,0.553-0.86,0.591-1.123,0.591c-0.562,0-0.9-0.318-0.9-0.794
		c0-0.59,0.522-0.794,1.143-0.948c0.203-0.049,0.523-0.164,0.862-0.368V49.06c0-0.271,0-0.426-0.165-0.619
		c-0.126-0.154-0.329-0.28-0.542-0.28c-0.32,0-0.601,0.27-0.601,0.474c0,0.058,0.01,0.097,0.049,0.185L89.169,49.138z
		 M91.086,50.019c-0.184,0.107-0.339,0.175-0.572,0.271c-0.59,0.242-0.812,0.339-0.812,0.735c0,0.35,0.28,0.571,0.571,0.571
		c0.154,0,0.271-0.048,0.813-0.426V50.019z"/>
	<path clip-path="url(#SVGID_2_)" fill="#FFFFFF" d="M94.107,51.036c0,0.504,0.135,0.601,0.678,0.601v0.185h-2.014v-0.185
		c0.561,0,0.687-0.252,0.687-0.745v-1.898c0-0.378-0.058-0.465-0.28-0.494l-0.377-0.048v-0.165l1.16-0.407h0.146v0.775
		c0.697-0.494,1.336-0.775,1.724-0.775c0.475,0,0.823,0.301,0.919,0.775c0.649-0.407,1.24-0.775,1.715-0.775
		c0.697,0,0.969,0.533,0.969,1.463c0,0.619,0,1.269-0.029,1.859c0,0.203,0.117,0.436,0.513,0.436h0.311v0.185h-2.18v-0.185h0.089
		c0.279,0,0.405-0.049,0.492-0.136c0.146-0.145,0.155-0.707,0.155-1.375v-0.755c0-0.746-0.251-1.104-0.726-1.104
		c-0.301,0-0.688,0.145-1.288,0.542v2.227c0,0.485,0.116,0.601,0.6,0.601v0.185h-1.984v-0.185c0.543,0,0.735-0.193,0.735-0.745V49.1
		c0-0.611-0.377-0.833-0.716-0.833c-0.272,0-0.64,0.126-1.298,0.561V51.036z"/>
	<path clip-path="url(#SVGID_2_)" fill="#FFFFFF" d="M101.341,49.36c-0.02,0.146-0.038,0.281-0.038,0.407
		c0,1.008,0.706,1.686,1.472,1.686c0.484,0,0.862-0.193,1.23-0.63l0.105,0.116c-0.407,0.514-1.017,0.997-1.723,0.997
		c-0.95,0-1.687-0.861-1.687-1.985c0-1.025,0.688-2.071,1.87-2.071c1.308,0,1.278,0.938,1.598,1.259v0.222H101.341z M103.355,49.109
		c-0.107-0.629-0.494-1.046-0.959-1.046c-0.319,0-0.804,0.145-1.026,1.046H103.355z"/>
	<path clip-path="url(#SVGID_2_)" fill="#FFFFFF" d="M106.028,50.978c0,0.532,0.126,0.658,0.648,0.658v0.185h-1.947v-0.185
		c0.428,0,0.649-0.232,0.649-0.609v-2.034c0-0.358-0.038-0.426-0.291-0.474l-0.329-0.068v-0.155l1.114-0.407h0.155v0.757
		c0.648-0.407,1.19-0.767,1.666-0.767c0.658,0,1.035,0.485,1.035,1.453c0,1.288-0.067,1.54-0.077,1.918
		c-0.01,0.261,0.146,0.387,0.543,0.387h0.213v0.185h-2.082v-0.185c0.28-0.01,0.444-0.078,0.551-0.184
		c0.184-0.184,0.204-0.891,0.204-2.179c0-0.775-0.378-1.018-0.766-1.018c-0.31,0-0.783,0.271-1.287,0.62V50.978z"/>
	<path clip-path="url(#SVGID_2_)" fill="#FFFFFF" d="M114.104,50.823c0,1.947-0.794,3.254-2.005,3.254
		c-0.532,0-0.939-0.223-0.939-0.523c0-0.202,0.155-0.387,0.348-0.387c0.33,0,0.592,0.455,0.998,0.455
		c0.466,0,0.795-0.349,0.795-1.423v-5.172c0-0.853-0.088-1.046-0.785-1.046h-0.106v-0.185h2.45v0.185
		c-0.62,0.02-0.755,0.193-0.755,0.707V50.823z"/>
	<path clip-path="url(#SVGID_2_)" fill="#FFFFFF" d="M115.956,49.36c-0.02,0.146-0.039,0.281-0.039,0.407
		c0,1.008,0.707,1.686,1.472,1.686c0.484,0,0.862-0.193,1.23-0.63l0.105,0.116c-0.406,0.514-1.017,0.997-1.723,0.997
		c-0.95,0-1.686-0.861-1.686-1.985c0-1.025,0.688-2.071,1.87-2.071c1.307,0,1.277,0.938,1.597,1.259v0.222H115.956z M117.97,49.109
		c-0.106-0.629-0.493-1.046-0.959-1.046c-0.318,0-0.804,0.145-1.025,1.046H117.97z"/>
	<path clip-path="url(#SVGID_2_)" fill="#FFFFFF" d="M119.559,50.842c0.115,0.581,0.482,0.91,0.919,0.91
		c0.388,0,0.688-0.29,0.688-0.639c0-0.203-0.049-0.329-0.31-0.592c-0.689-0.687-1.453-0.755-1.453-1.559
		c0-0.639,0.503-1.085,1.24-1.085c0.261,0,0.531,0.058,0.773,0.155l0.02,0.882h-0.164c-0.068-0.494-0.388-0.804-0.775-0.804
		c-0.319,0-0.591,0.223-0.591,0.542c0,0.853,1.801,0.997,1.801,2.179c0,0.63-0.521,1.104-1.201,1.104
		c-0.184,0-0.318-0.028-0.425-0.067c-0.106-0.029-0.184-0.059-0.262-0.059c-0.059,0-0.116,0.039-0.165,0.117h-0.146l-0.105-1.085
		H119.559z"/>
	<path clip-path="url(#SVGID_2_)" fill="#FFFFFF" d="M126.83,51.54l-1.298,0.397v-0.775c-0.726,0.523-1.258,0.775-1.646,0.775
		c-0.484,0-1.026-0.329-1.026-0.988v-2.15c0-0.231-0.059-0.339-0.262-0.396l-0.339-0.098V48.16l1.249-0.271v2.713
		c0,0.6,0.436,0.87,0.872,0.87c0.33,0,0.755-0.202,1.151-0.531v-2.082c0-0.378-0.048-0.456-0.357-0.515l-0.484-0.087v-0.136
		l1.491-0.232v3.265c0,0.271,0.097,0.318,0.446,0.251l0.202-0.038V51.54z"/>
	<path clip-path="url(#SVGID_2_)" fill="#FFFFFF" d="M88.294,51.923l-5.055-5.289v4.187c0,0.703,0.156,0.849,0.985,0.849v0.187
		h-2.264v-0.187H82c0.604,0,0.8-0.204,0.8-0.652v-4.803c-0.224-0.155-0.478-0.233-0.82-0.243v-0.186h1.533l4.597,4.792v-3.884
		c0-0.596-0.177-0.703-0.957-0.723v-0.186h2.283v0.186c-0.731,0-0.888,0.127-0.888,0.508v5.444H88.294z"/>
</g>
</svg>
