<?xml version="1.0" encoding="utf-8"?>
<!-- Generator: Adobe Illustrator 15.1.0, SVG Export Plug-In . SVG Version: 6.00 Build 0)  -->
<!DOCTYPE svg PUBLIC "-//W3C//DTD SVG 1.1//EN" "http://www.w3.org/Graphics/SVG/1.1/DTD/svg11.dtd">
<svg version="1.1" id="Ebene_1" xmlns="http://www.w3.org/2000/svg" xmlns:xlink="http://www.w3.org/1999/xlink" x="0px" y="0px"
	 viewBox="0 0 21.709 24.771" enable-background="new 0 0 21.709 24.771" xml:space="preserve">
<g>
	<defs>
		<rect id="SVGID_1_" y="0" width="21.709" height="24.77"/>
	</defs>
	<clipPath id="SVGID_2_">
		<use xlink:href="#SVGID_1_"  overflow="visible"/>
	</clipPath>
	<path clip-path="url(#SVGID_2_)" fill="#FFFFFF" d="M3.369,10.637c0.146,0.475,0.363,0.928,0.547,1.392l0.071,0.227
		c0.124,0.312,0.228,0.634,0.383,0.929c0.136,0.26,0.181,0.542,0.28,0.81c0.082,0.221,0.155,0.446,0.254,0.66
		c0.183,0.393,0.381,0.776,0.505,1.194c0.091,0.308,0.216,0.606,0.328,0.907c0.11,0.296,0.281,0.396,0.412,0.683
		c0.179,0.391,0.262,0.832,0.598,1.141l0.063,0.132c0.105,0.169,0.259,0.291,0.396,0.43c0.298,0.304,0.647,0.503,1.036,0.663
		c0.361,0.148,0.742,0.202,1.113,0.3c0.277,0.074,0.553,0.152,0.832,0.222c0.12,0.028,0.245,0.04,0.419,0.069
		c0.127,0.101,0.357-0.02,0.583,0.029c0.312,0.186,0.537,0.579,0.771,0.839c0.099,0.109,0.213,0.2,0.309,0.312
		c0.095,0.111,0.216,0.201,0.322,0.305c0.113,0.108,0.224,0.222,0.334,0.333c0.14,0.138,0.271,0.284,0.417,0.413
		c0.199,0.175,0.425,0.319,0.607,0.509l0.119,0.135c0,0,0.501-0.347,1.807-1.358c1.112-0.862,1.645-1.291,1.645-1.291
		c-0.122-0.146-0.22-0.26-0.265-0.308c-0.173-0.184-0.796-1.06-0.933-1.309l-0.124-0.224c-0.149-0.224-0.271-0.459-0.347-0.72
		c-0.038-0.131-0.119-0.25-0.152-0.383c-0.13-0.515-0.248-1.034-0.245-1.569c0.001-0.164,0.061-0.328,0.093-0.491
		c0.027-0.135,0.074-0.266,0.03-0.408l0.026-0.169c0.141-0.432,0.126-0.867,0.058-1.308l0.024-0.242
		c0.041-0.275,0.018-0.545-0.057-0.814c-0.059-0.218-0.076-0.448-0.134-0.667c-0.039-0.149-0.126-0.285-0.176-0.433
		c-0.331-0.983-1.224-2.218-1.577-2.642c-0.202-0.241-0.363-0.507-0.478-0.805c-0.104-0.265-0.248-0.513-0.367-0.772
		c-0.046-0.098-0.079-0.203-0.107-0.308c-0.099-0.362-0.287-0.759-0.455-1.085c-0.502-0.008-0.816,0.305-0.874,0.807
		c0.193,0.289,0.387,0.572,0.571,0.861c0.078,0.123,0.134,0.261,0.205,0.39c0.072,0.129,0.134,0.268,0.229,0.377
		c0.099,0.111,0.116,0.222,0.086,0.354c0.13,0.222,0.318,0.407,0.375,0.666l0.032,0.049c0.266,0.222,0.382,0.548,0.55,0.832
		c0.209,0.356,0.318,0.76,0.346,1.179l0.055,0.242c0.127,0.328,0.088,0.659,0.032,0.991l-0.07,0.046l-0.152-0.23
		c-0.155-0.392-0.297-0.789-0.453-1.179c-0.233-0.575-0.437-1.166-0.849-1.649c-0.254-0.551-0.699-0.972-1.005-1.491
		c-0.45-0.762-0.984-1.47-1.506-2.184C9.749,5.81,9.573,5.61,9.401,5.408L9.33,5.2C9.094,4.84,8.87,4.495,8.642,4.154
		C8.379,3.762,8.13,3.362,7.78,3.035C7.486,2.76,6.951,2.352,6.756,2.452c-0.196,0.1-0.068,0.311-0.023,0.407
		c0.088,0.185,0.152,0.376,0.242,0.56l0.06,0.101C7.183,3.656,7.29,3.821,7.352,4.009C7.44,4.271,7.593,4.503,7.706,4.753
		c0.093,0.205,0.179,0.433,0.322,0.605c0.178,0.213,0.227,0.473,0.35,0.704l0.024,0.085c0.212,0.23,0.171,0.59,0.353,0.835
		c0.13,0.174,0.23,0.363,0.304,0.572c0.054,0.152,0.132,0.344,0.248,0.452c0.182,0.171,0.455,1.055,0.567,1.258
		c0.194,0.354,0.352,0.728,0.531,1.091c0.087,0.177,0.149,0.357,0.166,0.593c-0.19-0.113-0.347-0.198-0.444-0.369
		c-0.057-0.1-0.15-0.178-0.216-0.272c-0.066-0.095-0.14-0.192-0.171-0.3L9.627,9.786C9.52,9.642,9.447,9.472,9.348,9.32
		C9.28,9.214,8.867,8.542,8.789,8.443L8.65,8.253C8.548,8.098,8.447,7.94,8.347,7.783c-0.226-0.357-0.442-0.718-0.585-1.12
		c-0.079-0.22-0.187-0.434-0.314-0.63C7.217,5.676,7.059,5.282,6.845,4.917c-0.214-0.365-0.426-0.73-0.653-1.086
		C6.028,3.576,5.84,3.334,5.66,3.09C5.485,2.851,5.305,2.615,5.106,2.351C4.948,2.217,4.718,2.099,4.461,2.185
		C4.203,2.271,4.316,2.44,4.238,2.577c0.068,0.302,0.116,0.617,0.214,0.915c0.101,0.307,0.255,0.597,0.381,0.897
		c0.102,0.245,0.194,0.496,0.299,0.74c0.097,0.225,0.209,0.443,0.309,0.666c0.109,0.242,0.21,0.488,0.318,0.731
		c0.108,0.243,0.217,0.486,0.333,0.726l0.131,0.173c0.101,0.138,0.158,0.297,0.221,0.454c0.055,0.136,0.099,0.28,0.175,0.405
		c0.232,0.38,0.702,1.378,0.889,1.779c0.177,0.379,0.337,0.766,0.511,1.146c0.06,0.132,0.508,0.93,0.529,1.075
		c-0.269,0.015-0.401-0.168-0.513-0.322c-0.231-0.318-0.438-0.657-0.632-1C7.191,10.588,6.683,9.62,6.481,9.24
		c-0.073-0.138-0.16-0.267-0.267-0.442L6.21,8.708c-0.168-0.342-0.477-0.58-0.629-0.894C5.424,7.49,5.316,7.127,5.1,6.848
		C4.884,6.57,4.783,6.222,4.556,6.015C4.51,5.846,4.485,5.714,4.438,5.591C4.36,5.388,4.272,5.188,4.18,4.992S3.979,4.607,3.89,4.41
		C3.78,4.167,3.685,3.92,3.578,3.676l-0.13-0.24C3.294,3.458,3.37,3.292,3.193,3.423C3.017,3.554,2.9,3.965,2.886,4.284
		c-0.007,0.169,0.08,0.344,0.13,0.514l0.071,0.131c0.114,0.451,0.36,0.858,0.428,1.327c0.024,0.161,0.116,0.313,0.178,0.469
		c0.08,0.201,0.161,0.402,0.243,0.602C4.09,7.699,4.23,8.076,4.408,8.44C4.576,8.784,4.702,9.148,4.895,9.48
		c0.079,0.137,0.432,0.854,0.501,0.995c0.135,0.272,0.261,0.548,0.386,0.825c0.158,0.347,0.602,1.225,0.757,1.574
		c0.071,0.161,0.142,0.322,0.224,0.508l-0.059,0.128l-0.07-0.018c-0.254-0.221-0.44-0.494-0.63-0.768
		c-0.185-0.266-0.859-0.992-0.99-1.291l-0.147-0.219c-0.155-0.162-0.55-0.936-0.616-1.147C4.167,9.798,4.05,9.535,3.934,9.275
		C3.702,8.76,3.473,8.244,3.222,7.739c-0.254-0.509-0.337-1.07-0.599-1.561C2.354,6.123,2.248,6.246,2.157,6.484
		C2.066,6.722,2.306,7.176,2.389,7.532l0.097,0.247l0.04,0.078c-0.03,0.292,0.163,0.52,0.229,0.785
		c0.051,0.206,0.142,0.402,0.212,0.603l0.072,0.258C3.035,9.915,3.254,10.262,3.369,10.637"/>
	<path clip-path="url(#SVGID_2_)" fill="#EBB800" d="M6.738,13.331c-0.13-1.13-0.574-2.446-0.76-2.965
		c-0.051-0.144-0.303-0.623-0.407-0.797L5.385,9.106C5.222,8.768,5.106,8.471,4.959,8.161C4.806,7.84,4.708,7.419,4.496,7.142
		C4.284,6.866,4.354,6.528,4.131,6.321C4.087,6.155,4.064,6.025,4.019,5.904C3.944,5.703,3.859,5.506,3.77,5.312
		c-0.089-0.194-0.195-0.38-0.282-0.575C3.382,4.498,3.29,4.252,3.187,4.012L3.06,3.775c-0.154,0.02,0.035-0.179-0.143-0.054
		c-0.178,0.126-0.302,0.527-0.32,0.84C2.588,4.727,2.672,4.9,2.72,5.068l0.069,0.129c0.107,0.444,0.347,0.848,0.409,1.308
		c0.021,0.159,0.111,0.309,0.171,0.463c0.077,0.199,0.154,0.397,0.234,0.595C3.751,7.93,3.886,8.302,4.058,8.662
		c0.163,0.34,0.284,0.7,0.472,1.029c0.077,0.135,0.42,0.844,0.487,0.984c0.13,0.269,0.253,0.542,0.374,0.815
		c0.152,0.343,0.178,0.162,0.328,0.507c0.069,0.159,0.421,0.484,0.5,0.667c0.13,0.13,0.412,0.417,0.389,0.463"/>
	<path clip-path="url(#SVGID_2_)" fill="#EBB800" d="M8.406,12.145c-0.064-0.094,0.049,0.087,0.019-0.019l-0.056-0.611
		c-0.093-0.241-0.033-0.554-0.13-0.704c-0.067-0.105-0.182-0.753-0.259-0.853L7.813,9.273c-0.1-0.155-0.199-0.567-0.296-0.723
		c-0.222-0.354-0.252-0.9-0.39-1.297C7.052,7.036,6.844,6.706,6.72,6.512C6.494,6.158,6.336,5.816,6.127,5.455
		c-0.209-0.36-0.389-0.833-0.612-1.186c-0.16-0.253-0.19-0.503-0.367-0.746c-0.172-0.237-0.197-0.568-0.391-0.83
		C4.601,2.559,4.461,2.444,4.203,2.525c-0.259,0.08-0.149,0.247-0.229,0.381c0.064,0.297,0.107,0.607,0.201,0.901
		c0.097,0.303,0.246,0.59,0.367,0.886c0.1,0.242,0.187,0.489,0.289,0.731C4.925,5.645,5.033,5.861,5.13,6.082
		c0.105,0.239,0.203,0.482,0.307,0.722c0.105,0.24,0.211,0.48,0.323,0.717l0.128,0.172c0.099,0.136,0.154,0.293,0.215,0.448
		c0.053,0.135,0.095,0.277,0.169,0.4C6.498,8.918,6.953,9.904,7.135,10.3c0.171,0.375,0.491,0.598,0.659,0.974
		c0.059,0.13,0.686,0.821,0.705,0.964"/>
	<path clip-path="url(#SVGID_2_)" fill="#EBB800" d="M10.574,10.922c0.192-0.579,0-0.519-0.148-1.464
		c-0.277-0.686-0.035-0.598-0.334-1.112C9.653,7.592,9.863,7.35,9.351,6.641C9.198,6.429,9.057,6.027,8.888,5.826L8.665,5.511
		C8.434,5.155,8.277,4.868,8.054,4.529C7.797,4.141,7.855,3.734,7.509,3.407C7.219,3.133,6.69,2.726,6.493,2.821
		C6.297,2.916,6.421,3.125,6.465,3.219C6.55,3.403,6.611,3.591,6.699,3.773l0.059,0.099c0.145,0.137,0.25,0.3,0.309,0.485
		C7.151,4.616,7.301,4.845,7.41,5.092C7.5,5.295,7.582,5.52,7.723,5.691c0.175,0.211,0.221,0.468,0.34,0.696l0.023,0.084
		C8.294,6.7,8.248,7.053,8.427,7.295c0.127,0.174,0.224,0.36,0.295,0.566c0.052,0.15,0.127,0.34,0.241,0.448
		c0.18,0.17,0.44,1.042,0.549,1.243c0.189,0.35,0.425,0.289,0.599,0.647c0.085,0.175,0.394,0.473,0.406,0.704"/>
	<path clip-path="url(#SVGID_2_)" fill="#EBB800" d="M13.891,12.738c0.204-0.148,0.481-0.359,0.427-0.574
		c-0.037-0.148,0.085-0.577,0.037-0.723c-0.317-0.97-0.622-1.734-0.972-2.156c-0.197-0.239-0.354-0.503-0.466-0.797
		c-0.099-0.262-0.24-0.507-0.355-0.763c-0.044-0.097-0.07-0.202-0.103-0.304c-0.254-0.798-0.495-0.983-0.772-1.206
		c-0.504-0.016-0.488,0.422-0.553,0.914c0.189,0.286,0.378,0.566,0.559,0.853c0.077,0.122,0.13,0.258,0.2,0.386
		c0.069,0.127,0.13,0.265,0.224,0.373c0.097,0.111,0.113,0.22,0.081,0.349c0.126,0.22,0.312,0.404,0.366,0.659l0.029,0.049
		c0.264,0.221,0.375,0.543,0.538,0.824c0.205,0.353,0.308,0.75,0.329,1.163l0.051,0.238"/>
	<path clip-path="url(#SVGID_2_)" fill="#EBB800" d="M6.25,22.373c0.225,0.115,0.373,0.285,0.45,0.517
		c0.16,0.486,0.326,0.971,0.462,1.462l0.042,0.161c0.542,0.046,1.083,0.104,1.615,0.115l0.81,0.025
		c0.423-0.051,0.985,0.043,1.389-0.148l-0.065-0.45c0.045-0.33-0.077-0.662-0.112-0.994c-0.014-0.116-0.02-0.233-0.028-0.354
		l-0.051-0.152c-0.025-0.092-0.06-0.216-0.096-0.348c-0.279-0.146-0.516-0.371-0.863-0.404c-0.161-0.261-0.436-0.199-0.67-0.221
		l-0.219-0.101c-0.252-0.014-0.478-0.094-0.691-0.224l-0.085-0.025C7.93,21.198,7.753,21.1,7.581,20.981
		c-0.17-0.116-0.348-0.229-0.537-0.312c-0.454-0.197-0.795-0.538-1.152-0.86c-0.153-0.139-0.294-0.292-0.438-0.441l-0.074-0.116
		c-0.135-0.181-0.206-0.403-0.371-0.565c-0.134-0.131-0.143-0.324-0.231-0.483c-0.189-0.339-0.341-0.7-0.491-1.06
		c-0.166-0.399-0.295-0.815-0.476-1.208c-0.117-0.255-0.19-0.524-0.3-0.781c-0.145-0.336-0.282-0.696-0.264-1.083L3.22,13.986
		C3.11,13.712,3,13.438,2.889,13.165L2.86,13.08c-0.071-0.382-0.196-0.589-0.367-0.923l-0.117-0.249
		c-0.074-0.337-0.136-0.593-0.294-0.894c-0.073-0.139-0.282-0.561-0.252-0.741l-0.149,0.233c-0.017,0.226-0.033,0.429,0.021,0.632
		l0.027,0.174c-0.008,0.326,0.037,0.645,0.09,0.965c0.03,0.181,0.015,0.369,0.03,0.553c0.018,0.225,0.039,0.451,0.069,0.674
		c0.061,0.458,0.125,0.916,0.197,1.373c0.047,0.292,0.117,0.581,0.166,0.873c0.047,0.282,0.079,0.565,0.121,0.848l0.059,0.263
		c0.042,0.261,0.256,0.552,0.294,0.813l0.012,0.117c0.107,0.376,0.268,0.623,0.415,0.988c0.082,0.202,0.378,0.631,0.558,0.794
		c-0.022,0.161,0.097,0.262,0.16,0.389c0.268,0.536,0.678,0.961,1.074,1.397l0.094,0.069c0.354,0.177,0.328,0.288,0.711,0.416
		C5.997,22.064,5.988,22.239,6.25,22.373"/>
	<path clip-path="url(#SVGID_2_)" fill="#FFFFFF" d="M9.192,24.297c-0.136-0.492-0.302-0.977-0.462-1.462
		c-0.077-0.232-0.225-0.402-0.45-0.518c-0.263-0.134-0.699-0.308-0.916-0.528c-0.382-0.129-0.357-0.238-0.711-0.416l-0.094-0.07
		c-0.396-0.436-1.695-0.86-1.963-1.396c-0.063-0.127-0.182-0.228-0.161-0.39c-0.179-0.163-0.475-0.59-0.557-0.793
		c-0.147-0.365-0.309-0.612-0.416-0.988L3.45,17.618c-0.038-0.263-0.252-0.553-0.293-0.814l-0.059-0.261
		c-0.043-0.282-0.075-0.566-0.122-0.849c-0.049-0.292-0.119-0.581-0.165-0.873c-0.073-0.457-0.136-0.915-0.198-1.373
		c-0.03-0.224-0.051-0.449-0.068-0.674c-0.015-0.184,0-0.372-0.03-0.553L2.51,12.188l-0.016-0.032l-0.118-0.249
		c-0.074-0.337-0.135-0.593-0.294-0.894C2.009,10.875,1.8,10.453,1.83,10.272l-0.148,0.233c-0.018,0.226-0.034,0.429,0.021,0.632
		l0.026,0.175c-0.008,0.325,0.038,0.644,0.091,0.964c0.03,0.181,0.015,0.369,0.03,0.554c0.017,0.226,0.038,0.45,0.069,0.675
		c0.061,0.458,0.124,0.916,0.197,1.372c0.047,0.293,0.116,0.582,0.165,0.874c0.048,0.28,0.079,0.564,0.122,0.848l0.059,0.261
		c0.041,0.262,0.255,0.552,0.293,0.814l0.013,0.118c0.106,0.376,0.268,0.621,0.415,0.987c0.082,0.203,0.378,0.63,0.558,0.793
		c-0.022,0.161,0.097,0.263,0.16,0.39c0.268,0.535,0.678,0.961,1.074,1.396l0.094,0.071c0.354,0.176,0.328,0.287,0.71,0.416
		c0.218,0.22,0.209,0.394,0.472,0.526c0.225,0.115,0.373,0.286,0.449,0.519c0.16,0.485,0.327,0.969,0.463,1.462l0.041,0.16
		c0.22,0.122,1.8,0.423,2.073,0.141C9.251,24.539,9.199,24.323,9.192,24.297"/>
	<path clip-path="url(#SVGID_2_)" fill="#4E4C4C" d="M4.331,22.947c0.25,0.154,0.179,0.142,0.427,0.301
		c0.091,0.059,0.122,0.288,0.22,0.336l0.171,0.09c-0.039,0.244,0.056,0.445,0.12,0.651l0.035,0.104
		c0.579,0.188,1.389,0.179,1.944,0.265c-0.034-0.142-0.064-0.265-0.085-0.342C7.027,23.859,6.86,23.375,6.7,22.891
		c-0.076-0.232-0.224-0.403-0.45-0.518c-0.262-0.134-0.253-0.308-0.471-0.527c-0.382-0.13-0.356-0.239-0.71-0.416l-0.094-0.071
		c-0.397-0.436-0.806-0.86-1.074-1.396c-0.064-0.127-0.182-0.228-0.161-0.39c-0.179-0.163-0.475-0.59-0.557-0.793
		c-0.148-0.365-0.309-0.612-0.416-0.988l-0.012-0.118c-0.038-0.262-0.252-0.552-0.293-0.813l-0.059-0.261
		c-0.043-0.282-0.075-0.566-0.122-0.849c-0.049-0.292-0.119-0.581-0.165-0.874c-0.073-0.456-0.136-0.914-0.198-1.372
		c-0.03-0.224-0.051-0.448-0.069-0.674c-0.014-0.184,0.001-0.372-0.029-0.554c-0.053-0.32-0.099-0.638-0.091-0.964l-0.026-0.175
		c-0.055-0.202-0.039-0.406-0.021-0.631l0.148-0.234c-0.03,0.18,0.179,0.602,0.252,0.741c0.159,0.302,0.22,0.558,0.294,0.895
		l0.118,0.248c0.17,0.335,0.295,0.542,0.366,0.924l0.029,0.084c0.11,0.274,0.221,0.548,0.332,0.822l0.026,0.085
		c-0.019,0.386,0.119,0.746,0.264,1.083c0.11,0.257,0.182,0.527,0.299,0.781c0.181,0.393,0.31,0.809,0.477,1.208
		c0.149,0.358,0.301,0.72,0.49,1.059c0.088,0.159,0.097,0.354,0.231,0.485c0.166,0.162,0.236,0.384,0.372,0.564l0.074,0.116
		c0.143,0.15,0.284,0.303,0.438,0.441c0.356,0.322,0.698,0.664,1.152,0.86c0.188,0.081,0.366,0.195,0.537,0.312
		c0.172,0.119,0.35,0.216,0.558,0.252l0.084,0.025c0.213,0.129,0.439,0.21,0.691,0.223l0.219,0.1
		c0.234,0.022,0.509-0.039,0.67,0.222c0.347,0.032,0.583,0.26,0.864,0.404c0.036,0.132,0.069,0.255,0.095,0.349l0.05,0.15
		c0.011,0.12,0.017,0.238,0.028,0.355c0.036,0.331,0.072,0.663,0.113,0.994c0.02,0.158,0.028,0.318,0.041,0.479
		c0.478-0.117,0.947-0.267,1.405-0.449c-0.032-0.321-0.057-0.585-0.06-0.706c0.095,0.092,0.342,0.453,0.417,0.513l0.033,0.031
		c0.434-0.191,0.86-0.411,1.277-0.653l-0.119-0.136c-0.183-0.188-0.408-0.334-0.607-0.509c-0.146-0.129-0.277-0.274-0.417-0.414
		c-0.11-0.11-0.221-0.223-0.334-0.332c-0.106-0.103-0.228-0.193-0.323-0.306c-0.095-0.112-0.21-0.203-0.308-0.312
		c-0.234-0.261-0.459-0.653-0.771-0.84c-0.226-0.048-0.456,0.071-0.583-0.027c-0.175-0.029-0.299-0.041-0.42-0.071
		c-0.277-0.069-0.554-0.146-0.83-0.22c-0.372-0.1-0.753-0.152-1.114-0.301c-0.388-0.16-0.738-0.359-1.036-0.662
		c-0.137-0.141-0.291-0.263-0.396-0.431l-0.063-0.132c-0.336-0.309-0.419-0.75-0.598-1.14c-0.131-0.286-0.302-0.388-0.412-0.684
		c-0.112-0.302-0.237-0.6-0.328-0.906c-0.124-0.419-0.322-0.804-0.504-1.195c-0.1-0.213-0.173-0.439-0.255-0.661
		c-0.098-0.267-0.144-0.549-0.28-0.808c-0.154-0.296-0.259-0.618-0.383-0.929l-0.071-0.228c-0.184-0.463-0.401-0.916-0.547-1.392
		c-0.115-0.375-0.334-0.722-0.33-1.134L2.968,9.245C2.897,9.043,2.806,8.847,2.755,8.641C2.69,8.376,2.496,8.149,2.526,7.856
		l-0.04-0.078L2.389,7.531C2.306,7.176,2.066,6.722,2.157,6.483c0.091-0.238,0.197-0.361,0.466-0.305
		C2.886,6.669,2.968,7.23,3.222,7.739C3.473,8.244,3.703,8.76,3.934,9.275c0.117,0.26,0.233,0.522,0.318,0.794
		c0.065,0.21,0.461,0.984,0.615,1.146l0.147,0.219c0.131,0.299,0.806,1.025,0.991,1.291c0.19,0.273,0.375,0.547,0.629,0.767
		l0.07,0.019l0.059-0.127c-0.082-0.187-0.152-0.349-0.224-0.51C6.384,12.525,5.94,11.648,5.782,11.3
		c-0.125-0.276-0.251-0.553-0.386-0.825c-0.069-0.14-0.422-0.858-0.501-0.994C4.702,9.148,4.576,8.783,4.408,8.439
		C4.23,8.075,4.09,7.699,3.936,7.327C3.854,7.126,3.773,6.925,3.693,6.724C3.631,6.568,3.539,6.417,3.515,6.255
		C3.447,5.787,3.201,5.379,3.087,4.928l-0.07-0.13C2.966,4.627,2.879,4.453,2.886,4.283c0.014-0.319,0.131-0.73,0.307-0.86
		c0.177-0.13,0.101,0.036,0.255,0.013l0.131,0.24C3.685,3.919,3.78,4.168,3.89,4.41c0.09,0.197,0.199,0.385,0.29,0.581
		c0.092,0.197,0.18,0.397,0.258,0.6C4.485,5.714,4.51,5.846,4.556,6.014C4.783,6.222,4.885,6.57,5.1,6.848
		C5.317,7.127,5.424,7.49,5.581,7.815c0.152,0.314,0.462,0.552,0.63,0.893l0.004,0.089c0.106,0.176,0.194,0.305,0.267,0.442
		c0.201,0.381,0.709,1.349,0.921,1.723c0.195,0.343,0.401,0.681,0.632,1c0.112,0.153,0.244,0.337,0.513,0.322
		c-0.021-0.146-0.469-0.944-0.529-1.075c-0.174-0.381-0.334-0.768-0.511-1.147C7.321,9.661,6.851,8.665,6.619,8.283
		c-0.076-0.124-0.12-0.268-0.175-0.405c-0.063-0.157-0.12-0.316-0.221-0.454L6.092,7.251C5.976,7.012,5.867,6.77,5.759,6.526
		C5.651,6.283,5.55,6.037,5.441,5.795c-0.1-0.224-0.212-0.442-0.309-0.666c-0.105-0.245-0.196-0.495-0.299-0.74
		c-0.126-0.3-0.279-0.59-0.381-0.898C4.354,3.193,4.306,2.878,4.238,2.576c0.078-0.137-0.035-0.305,0.223-0.391
		C4.718,2.098,4.948,2.216,5.106,2.35c0.199,0.265,0.379,0.5,0.555,0.739c0.18,0.245,0.367,0.487,0.531,0.743
		C6.42,4.188,6.631,4.553,6.845,4.917c0.214,0.364,0.372,0.759,0.603,1.116c0.127,0.196,0.236,0.41,0.314,0.629
		c0.144,0.403,0.359,0.764,0.586,1.12c0.099,0.158,0.2,0.315,0.302,0.471l0.139,0.19c0.078,0.1,0.491,0.771,0.56,0.877
		C9.447,9.471,9.52,9.641,9.627,9.786l0.113,0.221c0.032,0.107,0.105,0.205,0.171,0.299c0.066,0.095,0.159,0.173,0.216,0.272
		c0.098,0.172,0.254,0.257,0.444,0.37c-0.018-0.237-0.078-0.417-0.166-0.594c-0.18-0.362-0.337-0.737-0.531-1.09
		C9.762,9.061,9.49,8.176,9.307,8.006C9.191,7.898,9.113,7.705,9.059,7.553C8.985,7.345,8.885,7.156,8.755,6.981
		C8.573,6.737,8.614,6.377,8.402,6.146L8.378,6.062c-0.122-0.23-0.172-0.491-0.35-0.704C7.885,5.186,7.799,4.958,7.706,4.752
		C7.593,4.502,7.44,4.271,7.353,4.008C7.29,3.82,7.183,3.656,7.036,3.52l-0.061-0.1c-0.09-0.185-0.154-0.375-0.242-0.561
		C6.688,2.763,6.56,2.552,6.756,2.452c0.195-0.1,0.73,0.307,1.024,0.582c0.351,0.327,0.599,0.727,0.862,1.119
		C8.87,4.495,9.094,4.84,9.33,5.199l0.071,0.208C9.573,5.61,9.749,5.811,9.906,6.024c0.522,0.714,1.056,1.423,1.506,2.185
		c0.307,0.518,0.751,0.94,1.006,1.491c0.411,0.483,0.614,1.074,0.847,1.648c0.158,0.391,0.299,0.788,0.454,1.179l0.153,0.23
		l0.069-0.046c0.056-0.332,0.095-0.663-0.031-0.99l-0.057-0.242c-0.026-0.42-0.136-0.824-0.345-1.18
		c-0.167-0.284-0.284-0.61-0.55-0.831l-0.032-0.05c-0.057-0.259-0.246-0.444-0.375-0.665c0.03-0.132,0.014-0.243-0.086-0.355
		c-0.096-0.108-0.158-0.248-0.229-0.377c-0.071-0.128-0.127-0.266-0.205-0.39c-0.185-0.289-0.378-0.572-0.571-0.861
		c0.057-0.502,0.372-0.815,0.874-0.806c0.168,0.325,0.356,0.722,0.455,1.085c0.029,0.104,0.062,0.209,0.107,0.308
		c0.119,0.258,0.264,0.506,0.366,0.771c0.115,0.298,0.277,0.565,0.479,0.806c0.354,0.424,1.246,1.658,1.578,2.641
		c0.05,0.148,0.136,0.284,0.176,0.434c0.057,0.219,0.074,0.448,0.134,0.666c0.074,0.271,0.096,0.54,0.055,0.816l-0.023,0.241
		c0.068,0.44,0.083,0.877-0.058,1.308l-0.025,0.168c0.044,0.145-0.004,0.274-0.031,0.409c-0.033,0.164-0.092,0.328-0.093,0.492
		c-0.002,0.534,0.115,1.054,0.245,1.569c0.033,0.132,0.113,0.251,0.152,0.383c0.076,0.26,0.197,0.495,0.347,0.719l0.125,0.224
		c0.137,0.249,0.759,1.124,0.933,1.309c0.044,0.048,0.142,0.161,0.264,0.308c0.386-0.366,1.115-0.876,1.484-1.266
		c-0.166-0.204-0.304-0.38-0.356-0.467c-0.072-0.118-0.229-0.354-0.31-0.541c-0.078-0.187-0.203-0.292-0.32-0.55
		c-0.281-0.34-0.23-1.069-0.444-1.456l0.004-0.209c-0.017-0.224-0.04-0.447-0.055-0.672c-0.016-0.212-0.007-0.425-0.057-0.637
		c-0.022-0.099,0.026-0.212,0.025-0.319c-0.001-0.098-0.039-0.186-0.022-0.296c0.026-0.165-0.052-0.349-0.013-0.508
		c0.044-0.18,0.05-0.343,0.004-0.518l0.017-0.146c0.079-0.243,0.015-0.326,0.068-0.573c0.016-0.073-0.045-0.163-0.08-0.272
		l0.032-0.134c-0.053-0.307-0.179-1.224-0.342-1.499c-0.199-0.333-0.389-0.6-0.639-0.904c-0.217-0.264-1.347-1.486-1.5-1.798
		c-0.255-0.522-0.484-1.075-0.775-1.579L13.91,5.66c-0.176-0.335-0.82-1.232-1.055-1.527c-0.227-0.286-0.851-0.082-1.133-0.009
		c-0.36,0.093-0.632,0.219-0.872,0.532l-0.066,0.086l-0.068-0.031c-0.071-0.27-0.282-0.448-0.421-0.672
		c-0.067-0.109-0.129-0.22-0.193-0.33C9.856,3.285,9.549,2.91,9.199,2.558C9.09,2.447,9.012,2.305,8.918,2.178
		c-0.081-0.11-0.158-0.225-0.25-0.326C8.296,1.447,7.884,1.09,7.412,0.802C7.175,0.657,6.86,0.573,6.59,0.631
		C6.417,0.669,6.013,0.893,5.88,0.909C5.613,0.536,5.407,0.307,5.158,0.082c-0.131-0.014-0.22-0.018-0.307-0.033
		C4.618,0.006,4.384-0.017,4.147,0.014C3.99,0.034,3.848,0.08,3.706,0.167C3.44,0.328,3.27,0.562,3.123,0.82
		C3.03,0.983,2.946,1.151,2.876,1.283C2.648,1.334,2.409,1.312,2.238,1.35c-0.074,0.096-0.19,0.207-0.259,0.259
		C1.746,1.784,1.577,2.017,1.445,2.265c-0.13,0.243-0.226,0.501-0.168,0.792L1.262,3.167c0.012,0.283-0.09,0.688,0.02,0.967
		C1.354,4.315,1.36,4.325,1.242,4.5C1.115,4.686,1.014,4.85,0.921,5.056c-0.099,0.221-0.19,0.278-0.256,0.512
		C0.613,5.754,0.658,6.391,0.628,6.585L0.596,6.586c0.039,0.142,0.078,0.285,0.118,0.43c-0.087,0.13-0.198,0.15-0.275,0.264
		c-0.011,0.216-0.15,0.143-0.245,0.336C0.059,7.89-0.019,8.189,0.004,8.505c0.039,0.541-0.024,2.036,0.04,2.575
		c0.087,0.73,0.051,1.514,0.217,2.236c-0.107,0.119,0.091,0.256-0.021,0.375c0.079,0.197-0.053,0.437,0.103,0.572
		c-0.003,0.145-0.024,0.25-0.005,0.346c0.039,0.193,0.094,0.379,0.036,0.579l0.008,0.232c0.051,0.281,0.126,0.561,0.153,0.845
		c0.008,0.086,0.082,0.148,0.049,0.257c-0.028,0.091,0.035,0.208,0.053,0.314c0.052,0.32,0.279,0.854,0.349,1.17
		c0.048,0.22,0.153,0.427,0.211,0.645c0.061,0.225,0.231,0.307,0.278,0.536c0.02,0.097,0.066,0.193,0.062,0.289
		c-0.005,0.125,0.119,0.303,0.241,0.468c0.136,0.349,0.278,0.735,0.472,1.071l0.05,0.077l0.099,0.136l0.017,0.032l-0.021,0.058
		c0.094,0.159,0.153,0.341,0.324,0.446l0.058,0.101c0.142,0.367,0.593,0.44,0.909,0.62l0.199,0.099
		c0.096,0.097,0.199,0.182,0.313,0.224l0.026,0.011L4.331,22.947z"/>
	<path clip-path="url(#SVGID_2_)" fill="#EBB800" d="M14.588,21.689c-0.184-0.188-0.408-0.334-0.607-0.509
		c-0.146-0.129-0.278-0.275-0.417-0.413c-0.111-0.111-0.221-0.224-0.334-0.333c-0.107-0.104-0.228-0.193-0.323-0.306
		c-0.095-0.111-0.21-0.203-0.308-0.312c-0.234-0.261-0.193-0.361-0.505-0.547c-0.278-0.334-0.723-0.222-0.85-0.321
		c-0.174-0.028-0.299-0.04-0.419-0.07c-0.277-0.068-0.554-0.146-0.831-0.22c-0.371-0.099-0.752-0.153-1.113-0.301
		c-0.388-0.16-0.738-0.359-1.036-0.663c-0.137-0.14-0.291-0.261-0.396-0.43l-0.063-0.133c-0.336-0.308-0.581-0.744-0.76-1.134
		c-0.13-0.286-0.14-0.393-0.25-0.688c-0.112-0.302-0.237-0.6-0.328-0.907c-0.124-0.418-0.36-0.606-0.543-0.998
		c-0.099-0.214-0.307-0.474-0.389-0.695c-0.098-0.267-0.416-0.711-0.552-0.97c-0.137-0.264-0.369-0.391-0.476-0.67
		c-0.105-0.18-0.213-0.433-0.297-0.611L2.958,8.365L2.31,6.252C2.161,6.274,2.226,6.304,2.157,6.484
		C2.065,6.722,2.307,7.176,2.39,7.532l0.096,0.246l0.04,0.078c-0.03,0.293,0.164,0.52,0.23,0.785
		c0.051,0.206,0.142,0.402,0.212,0.604l0.071,0.257c-0.003,0.412,0.216,0.76,0.331,1.135c0.146,0.475,0.363,0.928,0.547,1.392
		l0.071,0.227c0.123,0.312,0.228,0.632,0.383,0.929c0.135,0.259,0.181,0.541,0.28,0.808c0.081,0.222,0.154,0.448,0.254,0.662
		c0.183,0.392,0.381,0.774,0.505,1.193c0.091,0.309,0.216,0.606,0.328,0.907c0.11,0.295,0.281,0.397,0.412,0.684
		c0.178,0.39,0.262,0.831,0.598,1.14l0.063,0.132c0.105,0.168,0.258,0.29,0.395,0.43c0.299,0.304,0.648,0.503,1.036,0.662
		c0.361,0.149,0.743,0.202,1.114,0.302c0.277,0.072,0.553,0.15,0.831,0.22c0.12,0.03,0.245,0.042,0.419,0.071
		c0.127,0.099,0.358-0.021,0.583,0.028c0.311,0.186,0.537,0.579,0.771,0.838c0.098,0.109,0.213,0.2,0.307,0.312
		c0.096,0.113,0.217,0.203,0.323,0.306c0.112,0.109,0.224,0.222,0.335,0.332c0.138,0.14,0.27,0.285,0.417,0.414
		c0.197,0.174,0.424,0.32,0.606,0.508l0.118,0.137c0,0,0.333-0.231,1.136-0.845C14.973,22.149,14.621,21.724,14.588,21.689"/>
</g>
</svg>
