<?xml version="1.0" encoding="utf-8"?>
<!-- Generator: Adobe Illustrator 15.1.0, SVG Export Plug-In . SVG Version: 6.00 Build 0)  -->
<!DOCTYPE svg PUBLIC "-//W3C//DTD SVG 1.1//EN" "http://www.w3.org/Graphics/SVG/1.1/DTD/svg11.dtd">
<svg version="1.1" id="Ebene_1" xmlns="http://www.w3.org/2000/svg" xmlns:xlink="http://www.w3.org/1999/xlink" x="0px" y="0px"
	 viewBox="0 0 26.273 18.831" enable-background="new 0 0 26.273 18.831" xml:space="preserve">
<g>
	<defs>
		<rect id="SVGID_1_" y="0" width="26.273" height="18.831"/>
	</defs>
	<clipPath id="SVGID_2_">
		<use xlink:href="#SVGID_1_"  overflow="visible"/>
	</clipPath>
	<path clip-path="url(#SVGID_2_)" fill="#EBB800" d="M21.937,4.999c-0.24-0.068-2.351-0.429-2.592-0.495
		c-0.185-0.171-0.785-0.259-1.076-0.31c-0.207-0.035-0.403-0.028-0.602-0.032c-0.371-0.108-0.74-0.222-1.105-0.344
		c-0.146-0.196-0.388-0.298-0.636-0.309c-0.157-0.116-0.291-0.241-0.526-0.272c-0.106-0.014-0.2-0.001-0.297,0.021
		c-0.188-0.085-0.37-0.168-0.559-0.244c-0.251-0.248-0.665-0.344-0.974-0.14l-0.096,0.063l-0.058,0.052
		c-0.594,0.05-1.559,0.04-0.956,0.539c-0.207-0.172-0.495-0.308-0.771-0.204c-0.624,0.235-1.31,0.709-1.945,1.026L9.669,4.343
		C9.333,4.357,9.065,4.445,8.8,4.653L8.797,4.655c-0.37,0.026-0.74-0.042-1.137,0.113C7.524,4.822,7.307,5.076,7.168,5.21
		l-0.22,0.031C5.986,5.204,5.935,6.613,6.79,6.805C6.87,6.84,6.956,6.869,7.055,6.879c0.364,0.039,0.578-0.032,0.742-0.142
		c0.27,0.027,0.505,0.057,0.778-0.098l0.033-0.025c0.126,0.133,0.297,0.231,0.524,0.254c1.217,0.123,2.323,0.751,3.501,0.875
		l0.18,0.011c0.842,0.368,1.873,0.32,2.851-0.174l0.212-0.158c1.273-0.268,2.572-0.776,3.823-1.163
		C20.438,6.03,22.702,5.216,21.937,4.999"/>
	<path clip-path="url(#SVGID_2_)" fill="#EBB800" d="M9.489,9.101C9.582,8.984,9.664,8.87,9.708,8.795
		c0.085-0.137,0.2-0.189,0.315-0.245l0.028,0.015c0.12,0.032,0.241,0.063,0.363,0.094L10.41,8.663h0.015l0.229,0.06l0.022,0.048
		l0.03-0.035l0.059,0.015l0.025,0.057l0.045-0.039l0.094,0.025l0.112,0.117l0.092-0.065l0.055,0.015l0.047,0.105l0.046-0.081
		l0.029,0.007l0.046,0.11c0.3,0.036,0.553,0.168,0.837,0.303c0.275,0.129,0.568,0.117,0.838,0.249
		c0.19,0.093,0.377,0.055,0.561,0.169l-0.001-0.42c0.111,0.084,0.239,0.119,0.367,0.093l0.001,0.018l0.021,0.389l0.088-0.03
		l0.005,0.11l0.231-0.071c0.041-0.108,0.422-0.315,0.501-0.285c0.098,0.036,0.385-0.113,0.481-0.16
		c0.108-0.054,0.214-0.114,0.321-0.171l0.045-0.012c0.217-0.047,0.426-0.131,0.631-0.239l0.178-0.084l0.123-0.098l0.15-0.046
		c0.493,0.401,0.82,1.612,0.911,2.395l-0.246,0.07c-0.113,0.09-0.223,0.187-0.34,0.268l-0.146,0.004l-0.055,0.073
		c-0.093,0.201-0.237,0.133-0.36,0.254l-0.183,0.206c-0.127-0.079-0.466,0.275-0.568,0.358c-0.127,0.104-0.255,0.199-0.362,0.33
		l-0.197,0.198l-0.012,0.099c-0.087,0.01-0.159,0.038-0.199,0.147l-0.034,0.059c-0.129,0.023-0.188,0.186-0.293,0.26l-0.14,0.168
		c-0.312,0.425-0.617,0.324-0.922,0.757l0.039,0.047c-0.137,0.097-0.178,0.185-0.286,0.376l-0.08,0.106l-0.081-0.211
		c-0.074-0.167-0.154-0.328-0.223-0.499l-0.024-0.203c-0.186-0.069-0.309-0.263-0.434-0.452l-0.3-0.449
		c-0.112-0.033-0.387-0.254-0.446-0.391l-0.376-0.313c-0.156-0.127-0.326-0.224-0.49-0.333l-0.042-0.018
		c-0.053-0.153-0.173-0.145-0.263-0.204l-0.192-0.096c-0.095,0.051-0.193,0.007-0.29-0.058l-0.062-0.023
		c-0.149,0.02-0.293-0.006-0.434-0.068l-0.057,0.005c-0.267,0.08-0.559-0.005-0.829-0.021c-0.105,0.021-0.188,0.037-0.265,0.053
		l-0.029-0.044C8.565,10.659,9.012,9.81,9.489,9.101"/>
	<path clip-path="url(#SVGID_2_)" fill="#4E4C4C" d="M24.652,16.741c-0.033-0.246-0.079-0.49-0.116-0.736
		c-0.015-0.101-0.002-0.208-0.03-0.303c-0.115-0.384-0.094-1.031-0.064-1.431l0.021-0.249c-0.001-0.122-0.015-0.243-0.02-0.365
		l0.009-0.153c-0.02-0.456-0.037-0.912-0.057-1.368c-0.013-0.304-0.102-0.711-0.023-1.02c-0.071-0.385-0.215-0.791-0.522-0.996
		l-0.098-0.107l-0.184-0.195c-0.081-0.137-0.269-0.161-0.39-0.255c-0.099-0.077-0.118-0.191-0.13-0.312
		c-0.057-0.572-0.147-1.141-0.236-1.71c-0.063-0.046-0.109-0.118-0.115-0.218c-0.128-1.933-1.609-2.459-3.316-2.596l-0.199-0.098
		c-0.096-0.013-0.198,0.002-0.289,0.011l0.011-0.051c-0.154-0.033-0.28-0.07-0.438-0.051L18.459,4.5l-0.191,0.007
		c-0.109,0.026-0.212-0.103-0.32-0.008c-0.254-0.111-0.6-0.134-0.872-0.207c-0.176-0.047-0.335-0.101-0.508-0.044l-0.105-0.067
		l-0.001,0.026c-0.087,0.02-0.174,0.039-0.271,0.061l0.032-0.093c-0.124,0.016-0.234,0.03-0.364,0.046
		c-0.073-0.144-0.558-0.15-0.707-0.205c-0.109-0.04-0.207-0.107-0.288-0.206l-0.249-0.108l-0.187-0.025
		c-0.037-0.133-0.462-0.172-0.57-0.189l-0.088,0.064c-0.28,0.018-0.479,0.116-0.736,0.19c-0.548,0.156-1.063,0.917-0.55,1.401
		c0.16,0.151,0.347,0.222,0.501,0.359l0.131-0.085l0.084,0.147c0.156-0.155,0.291-0.092,0.396-0.022
		c0.23-0.045,0.553-0.05,0.737-0.211c0.157-0.136,0.351-0.197,0.569-0.119c0.113,0.041,0.236,0.06,0.357,0.075
		c0.699,0.088,1.421,0.18,2.126,0.228c0.467,0.032,1.325-0.009,1.782,0.254c0.121,0.022,0.238,0.053,0.352,0.093
		c0.592,0.075,1.233,0.303,1.629,0.73c0.13,0.14,0.209,0.283,0.26,0.428l0.125,0.178c0.104,0.509,0.14,1.006,0.052,1.519
		c0.018,0.103-0.017,0.185-0.073,0.241c0.008,0.1,0.016,0.2,0.021,0.3c0.015,0.267-0.11,0.193-0.224,0.339l-0.054-0.032
		c-0.757,0.843-1.004,1.938-1.118,3.072h0.017c0.1,0.22-0.058,0.693-0.055,0.943l0.063,0.131c0.063,1.247-0.022,2.527-0.047,3.775
		c-0.005,0.273,0.149,0.517,0.273,0.749c0.183,0.044,0.344,0.144,0.516,0.031c0.055,0.121,0.154,0.104,0.247,0.1
		c0.174-0.009,0.174-0.011,0.174-0.174c-0.016-0.151-0.031-0.303-0.047-0.453l0.045-0.188c0.068-0.094,0.012-0.162-0.015-0.241
		c-0.073-0.212-0.144-0.426-0.112-0.653c0.016-0.115,0.04-0.224-0.027-0.331l0.012-0.319c-0.002-0.098-0.015-0.196-0.019-0.294
		c-0.003-0.092,0.03-0.186-0.04-0.271v-0.096c0.097-0.294,0.062-0.6,0.085-0.899c0.011-0.117-0.122-0.137-0.044-0.265l-0.006-0.227
		c0.062-0.489,0.136-1.026,0.021-1.503l0.073-0.167c0.306-0.002,0.388,0.054,0.407,0.255c0.018,0.166,0.022,0.333,0.031,0.499
		c0.01,0.183,0.024,0.389,0.027,0.573c0.001,0.102,0.029,0.182,0.085,0.262c0.132,0.191,0.074,0.393,0.115,0.605
		c0.091,0.467,0.024,1.038,0.039,1.518c0.015,0.443,0.012,0.886,0.02,1.328c0.005,0.295,0.058,0.577,0.103,0.867l0.015,0.158
		c-0.03,0.086-0.062,0.177-0.102,0.288c0.109,0.013,0.205,0.022,0.328,0.036l0.108-0.053l0.143,0.209
		c0.172-0.146,0.419-0.274,0.519-0.476l-0.01-0.072c0.004-0.562,0.023-1.125,0.036-1.69c-0.021-0.169-0.056-0.333-0.108-0.472
		c0.058-0.125,0.085-0.271,0.002-0.431c-0.049-0.094-0.048-0.212-0.073-0.349l-0.088-0.126l0.141-0.025
		c-0.056-0.156,0.096-0.333-0.08-0.474c0.09-0.116,0.073-0.235,0.027-0.361l-0.057-0.27c0.003-0.095,0.006-0.187-0.005-0.283
		c-0.025-0.252-0.063-0.502-0.066-0.759c-0.002-0.224-0.019-0.45-0.011-0.675l0.09-0.142l0.146,0.004l0.047-0.006
		c0.166,0,0.255,0.115,0.273,0.242l0.054,0.114c0.413,1.773,0.277,3.6,0.253,5.405l0.116,0.146c0.167,0,0.368-0.05,0.439,0.036
		c0.114-0.026,0.223-0.071,0.335,0.074c0.013-0.107,0.023-0.173,0.027-0.241l-0.006-0.141c0.023-0.268,0.093-0.529,0.087-0.799
		C24.657,16.955,24.666,16.845,24.652,16.741"/>
	<path clip-path="url(#SVGID_2_)" fill="#4E4C4C" d="M8.634,9.145C8.748,9.038,8.85,8.934,8.906,8.866
		c0.105-0.125,0.248-0.173,0.391-0.223l0.034,0.014c0.15,0.028,0.3,0.057,0.45,0.085L9.777,8.745h0.019
		C9.89,8.763,9.985,8.781,10.08,8.799l0.027,0.044l0.037-0.032l0.074,0.014l0.031,0.052l0.055-0.035l0.117,0.022l0.139,0.108
		l0.115-0.06l0.068,0.013l0.058,0.096l0.058-0.074l0.036,0.007l0.056,0.101c0.373,0.032,0.686,0.152,1.04,0.275
		c0.341,0.119,0.705,0.108,1.04,0.228c0.234,0.085,0.457,0.16,0.684,0.263l0.009-0.01c0.141,0.077,0.299,0.109,0.457,0.085
		l0.001,0.016l0.017-0.018l0.108-0.027l0.017-0.009l0.287-0.065c0.052-0.098,0.524-0.287,0.622-0.26
		c0.121,0.034,0.478-0.103,0.598-0.146c0.135-0.049,0.266-0.104,0.398-0.155l0.056-0.012c0.27-0.043,0.53-0.119,0.784-0.218
		l0.221-0.076l0.153-0.09l0.186-0.042c0.612,0.366,1.017,0.989,1.131,1.704c-0.103,0.02-0.21,0.01-0.306,0.065
		c-0.14,0.081-0.277,0.169-0.421,0.243L17.85,10.81l-0.067,0.067c-0.116,0.183-0.295,0.12-0.447,0.23l-0.227,0.189
		c-0.158-0.072-0.579,0.251-0.705,0.326c-0.157,0.096-0.316,0.183-0.452,0.303c-0.075,0.065-0.15,0.133-0.244,0.18l-0.014,0.09
		c-0.109,0.008-0.198,0.035-0.247,0.135l-0.043,0.055c-0.159,0.02-0.235,0.168-0.364,0.235l-0.173,0.154
		c-0.388,0.387-0.767,0.778-1.145,1.172l0.051,0.043c-0.172,0.088-0.222,0.169-0.357,0.343l-0.099,0.099l-0.102-0.192
		c-0.092-0.152-0.19-0.301-0.276-0.456l-0.031-0.187c-0.23-0.062-0.383-0.238-0.538-0.412c-0.072-0.08-0.281-0.39-0.373-0.41
		c-0.138-0.03-0.479-0.231-0.552-0.356l-0.467-0.285c-0.194-0.116-0.405-0.205-0.609-0.305l-0.052-0.016
		c-0.065-0.14-0.214-0.132-0.327-0.188l-0.238-0.087c-0.118,0.048-0.239,0.007-0.359-0.053l-0.078-0.02
		c-0.184,0.017-0.363-0.007-0.539-0.064l-0.07,0.005c-0.332,0.073-0.694-0.004-1.029-0.018c-0.131,0.018-0.233,0.033-0.329,0.046
		l-0.035-0.04C7.487,10.566,8.042,9.792,8.634,9.145 M26.145,4.452l0.005-0.008l0.124-0.252l-0.07-0.082l-0.245,0.012
		c-0.117-0.099-0.294-0.183-0.551-0.267c-1.311-0.425-2.619-0.85-3.929-1.276L21.46,2.55l-0.15-0.035l0.006,0.011l-0.011-0.003
		L21.278,2.52l-0.043-0.018l-0.03-0.038c-0.117-0.027-0.231-0.06-0.344-0.096l-0.026-0.009c-0.344-0.112-0.674-0.255-1.023-0.362
		c-0.103-0.032-0.224-0.015-0.301-0.122l-0.233-0.069c-0.087-0.1-0.236-0.078-0.347-0.12c-0.292-0.113-0.577-0.218-0.873-0.316
		c-0.531-0.177-1.062-0.366-1.587-0.558l-0.265-0.097c-0.231,0.048-0.569-0.167-0.791-0.225c-0.22-0.058-0.476-0.036-0.655-0.197
		c-0.104,0.095-0.423-0.077-0.564-0.08l-0.178-0.085c-0.136-0.018-0.293,0.092-0.4-0.032L13.42,0l-0.029,0.045
		c-0.19,0.036-0.358,0.059-0.554,0.018c-0.164-0.035-0.302,0.012-0.453-0.015c-0.131-0.024-0.227,0.053-0.306,0.125
		c-0.167,0.152-0.511,0.222-0.723,0.303c-0.233,0.09-0.485,0.251-0.725,0.311c-0.456,0.115-0.89,0.448-1.364,0.496
		C8.938,1.315,8.379,1.592,8.101,1.77C7.935,1.875,7.569,2.009,7.388,1.923C7.313,2.008,7.284,2.186,7.116,2.07L6.967,2.195
		c-0.232,0.07-0.532,0.146-0.748,0.246C6.1,2.496,5.971,2.537,5.865,2.61C5.626,2.776,5.214,2.835,4.941,2.927L4.863,2.864
		l0.002,0.032C4.458,3.015,4.046,3.083,3.64,3.211C3.563,3.236,3.49,3.275,3.395,3.316L3.318,3.293l0.014,0.026
		C3.227,3.403,3.14,3.519,3.001,3.51c-0.13,0.088-0.24,0.167-0.355,0.239c-0.4,0.248-0.863,0.405-1.301,0.581
		C1.209,4.384,1.07,4.432,0.931,4.477C0.747,4.535,0.601,4.648,0.48,4.79C0.33,4.841,0.192,4.918,0.069,5.029L0.021,5.212
		c-0.069,0.315,0.051,0.75,0.092,1.014l0.144-0.092L0.25,6.163c0.127,0.038,0.252,0.091,0.382,0.111
		c0.128,0.02,0.447,0.107,0.565,0.061c0.122-0.047,0.211-0.002,0.282,0.081L1.698,6.38L1.689,6.477H1.95l0.047,0.077
		c0.095-0.005,0.179-0.009,0.244-0.012l0.208,0.103C2.77,6.612,3.387,6.829,3.688,6.938C3.924,7.024,4.17,7.079,4.405,7.166
		C5.12,7.431,5.853,7.548,6.588,7.729c0.005,0.097,0.01,0.172,0.015,0.257L6.43,8.1l0.01,0.019L6.35,8.203L6.332,8.211l0.007,0.003
		c-0.31,0.301-0.546,0.661-0.698,1.061L5.614,9.278l0.009,0.047L5.589,9.42L5.487,9.564c-0.147,0.221-0.231,0.467-0.299,0.721
		c-0.072,0.271-0.173,0.546-0.225,0.82c-0.049,0.267-0.323,0.971-0.208,1.2v0.498l0.112-0.009c-0.007,0.135,0.18,0.849,0.37,0.787
		c0.116-0.037,0.209,0.022,0.316,0.06c0.148-0.084,0.304-0.175,0.454,0.055c0.029-0.105,0.092-0.084,0.153-0.075
		c0.36,0.053,0.719,0.104,1.082,0.155l0.148-0.101c0.152,0.009,0.299,0,0.446-0.021c0.19-0.026,0.379-0.064,0.569-0.094
		c0.128-0.021,0.322,0.023,0.434,0.088c0.09,0.052,0.166,0.112,0.276,0.143c0.153,0.041,0.279,0.167,0.447,0.189
		c0.123,0.017,0.276,0.18,0.399,0.226c0.122,0.047,0.216,0.166,0.322,0.253l-0.017,0.018l0.142,0.013l0.063-0.067
		c0.07,0.138,0.064,0.253,0.223,0.331l0.235,0.151c0.108,0.053,0.154,0.162,0.236,0.236c0.124,0.115,0.267,0.21,0.393,0.323
		c0.124,0.111,0.251,0.226,0.352,0.357c0.106,0.14,0.183,0.3,0.278,0.461c0.102-0.006,0.176,0.057,0.228,0.147
		c0.08,0.139,0.189,0.254,0.264,0.402c0.055,0.11,0.368,0.553,0.509,0.541c0.103-0.007,0.657,0.291,0.712,0.381l0.183,0.021
		c0.149-0.219,0.415-0.183,0.58-0.454c0.151-0.246,0.296-0.479,0.45-0.723c0.359-0.566,0.714-1.341,1.21-1.797
		c0.352-0.323,0.653-0.687,1.006-1.011l0.261-0.146l0.068,0.025l0.022-0.067c0.11-0.093,0.216-0.197,0.34-0.271
		c0.172-0.101,0.355-0.184,0.539-0.265c0.157-0.07,0.32-0.126,0.48-0.188l0.024-0.017l0.201-0.13
		c-0.014-1.272,0.127-3.055,1.175-3.712c0.022-0.233,0.027-0.468,0.023-0.704l-0.105,0.022L20.331,8.17
		c-0.128-0.06-0.312-0.293-0.098-0.393l0.212-0.089l-0.002-0.044L20.431,7.62c-0.704-0.661-1.531-1.008-2.473-1.276
		c-0.095,0.046-0.191,0.093-0.291,0.141l-0.004-0.082l-0.066,0.182L17.568,6.6l-0.034,0.022l-0.023,0.003L17.475,6.57
		c-0.185,0.05-0.4,0.155-0.593,0.166c-0.075,0.001-0.091,0.138-0.225,0.078L16.471,6.99c-0.07-0.01-0.161-0.018-0.21,0.096
		l-0.02,0.026l-0.103,0.026l-0.167,0.041c-0.18,0.045-0.358,0.093-0.537,0.153L15.16,7.436l-0.051,0.021l-0.146,0.057L14.87,7.467
		l-0.099,0.111c-0.456,0.131-0.89,0.116-1.317,0.029c-0.082-0.111-0.285-0.135-0.401-0.176l-0.025,0.061L12.89,7.366h-0.273
		l-0.088-0.031l-0.008-0.084l-0.098,0.047L12.41,7.294l0.027-0.125l-0.176,0.053l-0.194-0.049c-0.105-0.036-0.21-0.072-0.317-0.106
		c-0.299-0.132-0.597-0.264-0.891-0.388V6.677L10.838,6.67l-0.213-0.089l-0.098-0.009l-0.258-0.099
		c-0.207-0.097-0.43-0.082-0.64-0.14c-0.264-0.073-0.54-0.19-0.808-0.227c-0.16-0.022-0.313-0.06-0.442-0.165
		C8.178,5.778,7.805,5.956,7.657,5.717L7.586,5.768C7.441,5.683,7.24,5.749,7.125,5.594C6.973,5.668,6.953,5.663,6.81,5.514
		C6.46,5.57,6.126,5.476,5.793,5.378L5.734,5.38L5.53,5.322c-0.1-0.021-0.199-0.046-0.296-0.076C4.994,5.189,4.752,5.135,4.516,5.06
		L4.494,4.884C4.685,4.798,4.89,4.754,5.1,4.744C6.612,4.238,8.113,3.671,9.658,3.28c0.173-0.064,0.355-0.116,0.52-0.179
		c0.171-0.066,0.387-0.233,0.577-0.203l0.064-0.076l0.213-0.009c0.273-0.255,0.677-0.354,1.015-0.486
		c0.312-0.091,0.622-0.202,0.907-0.359c0.276-0.152,0.541,0.104,0.814,0.12l0.02,0.096l0.203-0.047
		c0.078,0.041,0.184,0.098,0.298,0.159l0.076-0.03l0.113,0.071l0.5,0.193c0.074,0.07,0.178-0.083,0.175,0.106
		c0.2,0.055,0.399,0.108,0.597,0.164l0.073,0.043c0.115,0.168,0.301,0.035,0.387,0.124c0.136,0.141,0.346,0.108,0.499,0.211
		c0.131,0.088,0.328,0.084,0.478,0.156c0.398,0.112,0.942,0.453,1.353,0.426c0.151-0.01,0.279,0.031,0.37,0.113
		c0.107,0.016,0.19,0.028,0.272,0.04l0.014-0.022l0.115,0.132c0.055-0.034,0.197-0.022,0.359,0.012l0.171-0.019
		c0.96,0.165,2.272,0.211,3.045,0.889c0.508,0.446,0.72,1.04,0.863,1.669c0.139-0.101,0.302-0.133,0.458-0.184
		c0.146-0.048,0.31-0.066,0.44-0.141c0.212-0.122,0.385-0.27,0.598-0.372c0.13-0.062,0.496-0.394,0.612-0.39l0.081-0.142
		l0.132-0.133l0.031-0.164c0.038-0.089,0.059-0.183,0.043-0.283C26.159,4.646,26.16,4.543,26.145,4.452"/>
</g>
</svg>
