<?xml version="1.0" encoding="utf-8"?>
<!-- Generator: Adobe Illustrator 15.1.0, SVG Export Plug-In . SVG Version: 6.00 Build 0)  -->
<!DOCTYPE svg PUBLIC "-//W3C//DTD SVG 1.1//EN" "http://www.w3.org/Graphics/SVG/1.1/DTD/svg11.dtd">
<svg version="1.1" id="Ebene_1" xmlns="http://www.w3.org/2000/svg" xmlns:xlink="http://www.w3.org/1999/xlink" x="0px" y="0px"
	 width="18.504px" height="20.301px" viewBox="0 0 18.504 20.301" enable-background="new 0 0 18.504 20.301" xml:space="preserve">
<g>
	<defs>
		<rect id="SVGID_1_" y="0" width="18.503" height="20.301"/>
	</defs>
	<clipPath id="SVGID_2_">
		<use xlink:href="#SVGID_1_"  overflow="visible"/>
	</clipPath>
	<path clip-path="url(#SVGID_2_)" fill="#EBB800" d="M14.61,5.893c0.001-0.224-0.034-0.784-0.119-0.914
		c-0.107-0.29-0.255-0.671-0.461-1.047c-0.185-0.334-0.373-0.596-0.594-0.825c-0.26-0.273-0.591-0.5-0.935-0.639
		c-0.298-0.122-0.613-0.198-1.022-0.247c-0.084-0.009-0.163-0.007-0.244-0.014c-0.055,0.084-0.123,0.166-0.223,0.242
		c-1.24,0.946-2.807,1.748-3.534,3.16C7.403,5.755,7.307,5.865,7.199,5.94L6.266,4.157L4.787,3.032H2.412l-1.25,1.562v0.576
		C0.988,5.324,0.856,5.508,0.744,5.707c0.029,0.18-0.003,0.356-0.062,0.523c0.026,0.17,0.024,0.343-0.026,0.507
		c0.092,0.265,0.08,0.567-0.041,0.823c-0.008,0.041-0.01,0.083-0.022,0.122c0.086,0.106,0.15,0.241,0.179,0.417
		c0.042,0.263,0.096,0.52,0.155,0.776c0.39,0.183,0.555,0.609,0.516,1.014c0.173,0.069,0.333,0.188,0.457,0.388
		c0.661,1.068,1.297,2.14,2.021,3.167c0.156,0.22,0.276,0.443,0.385,0.668c0.12,0.07,0.211,0.169,0.287,0.277
		c0.187,0.125,0.318,0.304,0.379,0.515c0.263,0.149,0.507,0.329,0.709,0.587c0.015,0.019,0.023,0.04,0.036,0.06
		c0.238,0.129,0.386,0.35,0.449,0.601c0.714,0.502,1.411,1.059,1.79,1.841c0.134,0.06,0.239,0.152,0.324,0.26l0.03-0.017
		c0.125-0.072,0.278-0.281,0.337-0.367l0.118-0.172l-0.026,0.016c0.063-0.085,0.226-0.229,0.226-0.229l0.01,0.008l0.037,0.024
		l0.134-0.159l0.008-0.017c0.005-0.018,0.012-0.043,0.002-0.062c0.029-0.045,0.07-0.088,0.12-0.13
		c0.018-0.008,0.042-0.035,0.098-0.126c0.008-0.007,0.014-0.014,0.02-0.021c0.062-0.054,0.205-0.288,0.483-0.752
		c0.188-0.314,0.421-0.704,0.469-0.738l0.013-0.005l0.006-0.011c0.062-0.092,0.093-0.146,0.104-0.182
		c0.005,0.004,0.011,0.007,0.017,0.009c0.04,0.014,0.072-0.019,0.088-0.031l0.022-0.02l-0.01-0.021l0.106-0.08l0.005-0.01
		c0.052-0.116,0.217-0.287,0.277-0.259l0.031,0.014l0.021-0.025c0.122-0.139,0.207-0.273,0.29-0.462l0.014-0.013
		c0.01-0.01,0.021-0.02,0.031-0.029l0.052-0.015c0.096-0.03,0.181-0.192,0.31-0.455c0.088-0.177,0.178-0.359,0.272-0.476L12,13.428
		c0.02-0.045,0.023-0.061,0.02-0.078c0-0.002,0.002-0.012,0.018-0.052c0.207-0.274,0.356-0.474,0.55-0.786l0.006-0.017
		c0.01-0.064,0.255-0.279,0.255-0.279l0.085-0.087C13,12.058,13.3,11.697,13.3,11.697c0.527-0.829,0.908-1.669,1.101-2.429
		c0.229-0.874,0.229-1.74,0-2.38C14.54,6.758,14.613,6.292,14.61,5.893"/>
	<path clip-path="url(#SVGID_2_)" fill="#4D4C4C" d="M18.504,4.413c0.001-0.264-0.039-0.927-0.136-1.082
		c-0.121-0.343-0.29-0.795-0.525-1.239c-0.209-0.395-0.424-0.706-0.676-0.976c-0.294-0.324-0.672-0.593-1.062-0.757
		c-0.34-0.145-0.698-0.235-1.165-0.293C14.565,0.021,14.219,0,13.849,0C13.438,0,13.062,0.035,12.699,0.104
		c-0.394,0.074-0.796,0.206-1.161,0.384c-0.664,0.317-1.298,0.812-1.885,1.47C9.26,2.396,8.768,3.1,8.34,3.84
		C8.219,4.044,8.104,4.251,7.996,4.456l-0.123,0.24l-0.059,0.09C7.813,4.782,7.812,4.778,7.811,4.773
		c-0.013-0.053-0.009-0.07-0.007-0.076L7.821,4.66L7.694,4.437L7.607,4.486C7.62,4.509,7.641,4.547,7.661,4.584L7.633,4.547
		C7.469,4.323,7.308,4.12,7.154,3.944C6.789,3.525,6.411,3.186,5.999,2.91l-0.28-0.188l0.213,0.261
		c0.021,0.026,0.038,0.048,0.054,0.07C5.923,3.023,5.852,2.988,5.773,2.949c-0.194-0.098-0.436-0.219-0.698-0.31
		C4.73,2.511,4.356,2.457,4.1,2.457c-0.011,0-0.022,0-0.032,0c-0.08-0.103-0.607-0.071-0.707-0.059L3.036,2.434L3.18,2.462
		C2.961,2.496,2.737,2.551,2.512,2.624C2.432,2.65,2.353,2.679,2.274,2.708C2.177,2.746,2.076,2.792,1.989,2.841
		c-0.175,0.097-0.347,0.23-0.497,0.384c-0.279,0.291-0.451,0.603-0.59,0.854C0.757,4.345,0.623,4.63,0.524,4.881
		c-0.051,0.139-0.11,0.235-0.15,0.295L0.367,5.189C0.366,5.193,0.293,5.453,0.248,5.713C0.21,5.911,0.186,6.112,0.177,6.197
		C0.147,6.215,0.11,6.279,0.054,6.574C0.052,6.582,0.051,6.591,0.049,6.599L0,6.601c0.001,0.023,0.001,0.044,0.002,0.063
		l0.002,0.059C0.027,7.475,0.05,8.254,0.307,8.916c0.277,1.195,0.849,2.396,1.7,3.57c0.808,1.117,1.773,2.087,2.612,2.889
		l0.135,0.129l-0.021-0.071c0.137,0.125,0.276,0.243,0.411,0.359c0.143,0.122,0.29,0.249,0.434,0.381
		c0.287,0.267,0.63,0.598,0.993,1.047c0.182,0.15,0.382,0.33,0.577,0.505c0.456,0.406,0.887,0.792,1.133,0.882
		c0.335,0.354,0.577,0.573,0.833,0.807c0.123,0.113,0.915,0.888,0.915,0.888l0.243-0.221l0.456-0.605
		c0.021-0.068,0.062-0.102,0.115-0.144c0.048-0.038,0.102-0.081,0.151-0.159c0.026-0.05,0.277-0.111,0.277-0.111l0.061-0.035
		c0.143-0.085,0.316-0.332,0.384-0.436l0.134-0.203l-0.029,0.02c0.072-0.1,0.258-0.271,0.258-0.271l0.012,0.01l0.042,0.029
		l0.151-0.189l0.009-0.019c0.006-0.021,0.014-0.052,0.003-0.074c0.033-0.054,0.079-0.105,0.136-0.153
		c0.021-0.01,0.048-0.042,0.112-0.15c0.008-0.007,0.015-0.016,0.021-0.024c0.072-0.064,0.235-0.342,0.552-0.891
		c0.213-0.371,0.479-0.834,0.533-0.874l0.014-0.006l0.008-0.012c0.07-0.109,0.104-0.174,0.118-0.216
		c0.005,0.004,0.011,0.008,0.018,0.01c0.045,0.017,0.083-0.021,0.101-0.036l0.025-0.025l-0.011-0.023l0.121-0.094l0.005-0.013
		c0.06-0.138,0.248-0.34,0.317-0.307l0.034,0.016l0.024-0.028c0.139-0.165,0.235-0.324,0.331-0.548l0.015-0.016
		c0.013-0.011,0.024-0.022,0.035-0.034l0.06-0.018c0.109-0.035,0.205-0.229,0.353-0.539c0.099-0.209,0.202-0.425,0.31-0.563
		l0.008-0.012c0.021-0.053,0.025-0.072,0.021-0.092c0-0.002,0.002-0.015,0.021-0.061c0.235-0.326,0.405-0.562,0.627-0.933
		l0.007-0.019c0.009-0.076,0.29-0.33,0.29-0.33l0.096-0.104c0.078-0.083,0.419-0.513,0.419-0.513
		c0.599-0.98,1.033-1.975,1.252-2.875c0.261-1.035,0.261-2.06-0.001-2.818C18.423,5.437,18.507,4.887,18.504,4.413 M15.146,11.531
		c0.012,0.009,0.025,0.014,0.039,0.015c-0.304,0.551-0.659,1.086-1.005,1.606c-0.134,0.201-0.268,0.402-0.396,0.602
		c-0.115,0.144-0.274,0.311-0.347,0.372c-0.121,0.153-0.133,0.2-0.144,0.247c-0.007,0.027-0.013,0.052-0.054,0.113l-0.091-0.017
		l-0.016,0.036c-0.073,0.171-0.167,0.264-0.265,0.36c-0.086,0.085-0.175,0.173-0.251,0.313l-0.016,0.014l0.012,0.022
		c0,0.006-0.007,0.04-0.095,0.166c-0.056,0.01-0.106,0.086-0.155,0.161c-0.018,0.026-0.043,0.063-0.06,0.084l-0.072,0.06
		c-0.004,0.006-0.008,0.012-0.012,0.017c-0.027,0.04-0.051,0.074-0.093,0.118l-0.011,0.016c-0.034,0.087-0.313,0.671-0.498,1.058
		c-0.081,0.17-0.146,0.306-0.169,0.356L11.4,17.294c-0.04,0.055-0.117,0.175-0.095,0.243l-0.205,0.262c0,0-0.197,0.352-0.172,0.326
		c-0.071,0.072-0.144,0.146-0.213,0.218l-0.111,0.114c-0.019,0.028-0.024,0.059-0.03,0.088c-0.078-0.025-0.167,0.074-0.306,0.237
		c-0.046,0.053-0.089,0.104-0.118,0.13l-0.011,0.011l-0.004,0.013c-0.008,0.023-0.079,0.11-0.136,0.18
		c-0.052,0.063-0.153,0.133-0.18,0.118c-0.04-0.021-1.643-1.703-2.374-2.579l-1.119-1.33l-1.15-1.288
		c-1.141-1.123-2.088-2.383-2.74-3.645C2.047,9.653,1.766,8.885,1.626,8.173C1.483,7.449,1.471,6.709,1.591,6.032
		c0.04-0.26,0.149-0.436,0.264-0.622l0.058-0.095c0.043-0.12,0.1-0.25,0.178-0.406c0.082-0.162,0.165-0.308,0.237-0.422
		c0.079-0.124,0.157-0.22,0.228-0.284c0.085-0.072,0.136-0.106,0.256-0.149c0.315-0.12,0.636-0.191,0.929-0.208
		c0.315-0.015,0.572,0.023,0.824,0.122l0.002-0.004C4.789,4.056,4.995,4.203,5.21,4.422C5.417,4.63,5.603,4.87,5.807,5.139
		l0.034,0.045l0.016-0.015C5.868,5.18,5.881,5.195,5.891,5.205C5.902,5.218,5.913,5.229,5.923,5.24
		c0.01,0.042,0.052,0.114,0.171,0.301l0.677,1.118c0.243,0.402,0.512,0.76,0.773,1.107l0.623,0.817
		C8.201,8.634,8.23,8.666,8.28,8.652h0.003C8.297,8.651,8.308,8.651,8.316,8.65c0.008-0.002,0.008-0.005,0.013-0.002
		c0.022,0.009,0.042,0.014,0.062,0.019c0.032,0.008,0.061,0.015,0.106,0.042l0.066,0.039l0.009-0.076
		c0.061-0.497,0.13-0.973,0.176-1.287l0.027-0.168c0.046-0.302,0.087-0.563,0.133-0.762c0.099-0.423,0.206-0.659,0.263-0.769
		c0.038-0.11,0.096-0.244,0.135-0.336c0.364-0.688,0.843-1.394,1.35-1.986c0.474-0.551,0.996-1.004,1.523-1.316
		c0.19-0.173,0.438-0.329,0.611-0.434c0.11-0.005,0.176-0.035,0.238-0.064c0.063-0.03,0.129-0.06,0.25-0.073
		c0.365,0.074,0.624,0.113,0.77,0.107c0.07-0.001,0.152-0.009,0.16-0.072c0.001-0.008,0-0.016-0.002-0.023
		c0.223,0.002,0.457,0.022,0.674,0.057c0.248,0.04,0.478,0.109,0.667,0.2c0.167,0.067,0.318,0.163,0.464,0.296
		c0.123,0.111,0.141,0.212,0.143,0.297v0.015l0.01,0.012c0.126,0.179,0.154,0.26,0.179,0.347l0.113,0.424
		c-0.006,0.068,0.039,0.203,0.124,0.458c0.03,0.09,0.063,0.188,0.095,0.289c0.087,0.267,0.156,0.536,0.18,0.676l-0.012,0.001
		c0.034,0.413-0.015,0.74-0.067,1.086c-0.029,0.201-0.061,0.409-0.076,0.642c-0.094,0.902-0.281,1.831-0.545,2.687
		c-0.258,0.846-0.61,1.708-1.022,2.492l-0.02,0.037L15.146,11.531z M9.693,19.386L9.7,19.384c-0.001,0.002-0.002,0.004-0.003,0.007
		L9.693,19.386z"/>
	<path clip-path="url(#SVGID_2_)" fill="#FFFFFF" d="M3.793,10.254l-0.025,0.138C3.342,9.456,3.011,8.464,2.872,7.468
		c-0.079-0.566-0.2-1.462,0.286-1.894C3.56,5.216,4.217,5.21,4.467,5.607c0.131,0.209,0.18,0.502,0.178,0.838
		c-0.008,0.098-0.023,0.193-0.043,0.28C4.389,7.654,4.165,8.536,4.005,9.433C3.912,9.757,3.832,10.042,3.793,10.254"/>
</g>
</svg>
