<?xml version="1.0" encoding="utf-8"?>
<!-- Generator: Adobe Illustrator 15.1.0, SVG Export Plug-In . SVG Version: 6.00 Build 0)  -->
<!DOCTYPE svg PUBLIC "-//W3C//DTD SVG 1.1//EN" "http://www.w3.org/Graphics/SVG/1.1/DTD/svg11.dtd">
<svg version="1.1" id="Ebene_1" xmlns="http://www.w3.org/2000/svg" xmlns:xlink="http://www.w3.org/1999/xlink" x="0px" y="0px"
	 width="31.886px" height="28.692px" viewBox="0 0 31.886 28.692" enable-background="new 0 0 31.886 28.692" xml:space="preserve">
<g>
	<defs>
		<rect id="SVGID_1_" width="31.885" height="28.692"/>
	</defs>
	<clipPath id="SVGID_2_">
		<use xlink:href="#SVGID_1_"  overflow="visible"/>
	</clipPath>
	<path clip-path="url(#SVGID_2_)" fill="#EBB800" d="M6.533,14.048c0-0.631,0.103-1.408,0.191-1.613
		c0.087-0.205,0.967-0.865,1.069-0.879c0.103-0.015,1.144-0.66,1.202-0.733c0.059-0.074,0.088-0.074,0.191-0.161
		c0.102-0.088,0.41-0.279,0.527-0.455c0.118-0.176,0.25-0.293,0.396-0.381c0.147-0.088,1.319-0.572,1.349-0.674
		c0.029-0.103,0.425-0.704,0.425-0.704s0.205-0.088,0.293-0.249s-0.103-0.014,0.088-0.161c0.19-0.147,0.176-0.029,0.337-0.249
		c0.161-0.22,0.689-0.528,0.821-0.66c0.132-0.132,0.205-0.161,0.425-0.293c0.22-0.132,0.249-0.117,0.557-0.249
		c0.307-0.132,0.571-0.132,0.718-0.279c0.146-0.146,0.41,0,0.41,0s0.279,0.059,0.323,0.176c0.044,0.118,0.102,0.132,0.205,0.206
		c0.102,0.073,0.293,0.117,0.425,0.234c0.132,0.117,0.337,0.235,0.44,0.352c0.102,0.117,0.058,0,0.219,0.205
		c0.162,0.205,0.836,0.689,0.924,0.748c0.088,0.058,0.176,0.073,0.337,0.219c0.161,0.147,0.19,0.147,0.366,0.279
		c0.176,0.132,0.513,0.425,0.748,0.63c0.233,0.205,0.189,0.103,0.352,0.249c0.161,0.147,0.131,0.103,0.249,0.235
		c0.117,0.132-0.015,0.141,0.265,0.305c0.277,0.164,0.233,0.047,0.469,0.222c0.233,0.176,0.307,0.162,0.526,0.337
		c0.221,0.176,0.265,0.118,0.47,0.294c0.205,0.175,0.688,0.527,0.688,0.527s0.147,0.176,0.265,0.235c0.116,0.058-0.406-0.339,0,0
		c0.15,0.126,0.161,0.695,0.161,0.695s0.48,0.213,0.477,0.341c-0.003,0.127,0.016,0.055,0.1,0.289
		c0.084,0.235,0.201,0.689,0.201,0.689s0.117,1.51,0.132,1.626c0.016,0.117,0.132,1.832,0.132,1.832l-0.03,0.964l0.142,1.097
		L23.97,20.99l0.105,1.611l0.012,1.306l0.082,1.637l0.142,0.705l-2.794,0.096l-3.272-2.211l-0.088-1.775l0.251-3.014l-0.427-1.545
		v-0.835l-0.513-1.422l-0.239-0.674l-0.802-0.558l-1.789,0.088l-1.568,0.616c0,0-0.132,1.304-0.117,1.465
		c0.014,0.161,0.014,1.599,0.014,1.979s-0.469,3.166-0.469,3.166l-0.176,2.109l-0.527,1.422l-3.363,1.438l-1.899-1.32l-0.967-2.843
		c0,0-0.059-5.892,0.161-6.39c0.22-0.499,0.484-1.583,0.542-1.671C6.328,14.282,6.533,14.048,6.533,14.048"/>
	<path clip-path="url(#SVGID_2_)" fill="#4D4C4C" d="M31.711,14.081c-0.077-0.118-0.12-0.259-0.162-0.395
		c-0.099-0.325-0.237-0.627-0.467-0.882c-0.144-0.16-0.305-0.307-0.436-0.477c-0.389-0.506-0.878-0.895-1.381-1.276
		c-0.216-0.162-0.418-0.345-0.607-0.538c-0.325-0.333-0.627-0.689-0.954-1.021c-0.208-0.212-0.442-0.398-0.666-0.594
		c-0.485-0.428-0.97-0.856-1.458-1.281c-0.178-0.156-0.368-0.297-0.542-0.457c-0.433-0.395-0.863-0.794-1.289-1.196
		c-0.297-0.282-0.582-0.577-0.882-0.855c-0.215-0.199-0.454-0.372-0.665-0.574c-0.131-0.125-0.203-0.323-0.347-0.42
		c-0.245-0.165-0.389-0.399-0.56-0.622L19.9,2.723l-0.14-0.077l-0.497-0.275c0,0-0.968-0.599-1.201-0.798l-0.094-0.08
		c0,0.002,0,0.005,0,0.008c-0.075-0.05,0.005,0.043-0.207-0.268c-0.265-0.391-0.12-0.351-0.452-0.469
		c-0.332-0.118-0.042-0.076-0.521-0.28C16.31,0.28,16.277,0.301,16.09,0.173c-0.187-0.128-0.282-0.234-0.562-0.133
		c-0.28,0.101-0.131,0.074-0.395,0.22c-0.262,0.145-0.208-0.113-0.418,0.27c-0.21,0.382-0.415,0.254-0.626,0.481
		c-0.108,0.116-0.334,0.272-0.466,0.468c-0.029,0.043-0.022,0.003-0.064,0.038c0.004-0.014-0.043,0.047-0.038,0.033l-2.342,1.865
		l-1.129,1.08l-0.015,0.001c-0.133,0.13-0.262,0.263-0.398,0.39c-0.63,0.581-1.271,1.15-1.894,1.738
		C7.261,7.079,6.807,7.563,6.326,8.019C5.86,8.46,5.375,8.881,4.899,9.313c-0.484,0.439-0.972,0.872-1.447,1.32
		c-0.586,0.552-1.167,1.109-1.735,1.678c-0.29,0.291-0.555,0.608-0.817,0.926c-0.234,0.283-0.467,0.571-0.666,0.879
		c-0.209,0.323-0.31,0.688-0.168,1.068c0.071,0.188,0.182,0.367,0.301,0.531c0.078,0.107,0.194,0.197,0.31,0.265
		c0.241,0.141,0.513,0.15,0.786,0.158c0.103,0.002,0.203,0.06,0.306,0.086l0.204,0.029c0.25-0.075,0.5-0.157,0.742-0.256
		c0.506-0.208,0.68-0.53,1.035-0.939c0.068-0.079,0.425-0.413,0.53-0.433l0.128,0.231c0.028,0.354,0.036,0.962,0.028,1.317
		c-0.006,0.294-0.025,0.587-0.041,0.881h-0.02c-0.006,0.106-0.009,0.215-0.015,0.322c-0.027,0.529-0.061,6.807-0.088,7.335
		c-0.028,0.539-0.076,1.079-0.066,1.617c0.004,0.271-0.004,1.063,0.237,1.263l0.064,0.24c0.007,0.099-0.026,0.104-0.006,0.198
		c0.041,0.198,0.366,0.312,0.466,0.479c0.41,0.119,0.41,0.119,0.84,0.114c0.452-0.006,0.9-0.058,1.354,0.001
		c0.366,0.049,0.74,0.05,1.11,0.058c0.44,0.01,0.88,0.015,1.319,0.004c0.24-0.006,0.48-0.046,0.72-0.076
		c0.485-0.062,0.971,0.081,1.459-0.026c0.419-0.093,0.845,0.081,1.276-0.018c0.268-0.061,0.56-0.017,0.841-0.022
		c0.224-0.004,0.449-0.009,0.673-0.017c0.243-0.009,0.486-0.033,0.729-0.028c0.318,0.007,0.636,0.044,0.954,0.05
		c0.163,0.003,0.337-0.011,0.489-0.064c0.373-0.131,0.749-0.16,1.14-0.128c0.323,0.027,0.649,0.018,0.973,0.022
		c0.121,0.003,0.258-0.038,0.359,0.006s0.159,0.048,0.237-0.021l0.093,0.017c0.201,0.015,0.403,0.044,0.605,0.04
		c0.242-0.003,0.485-0.043,0.729-0.049c0.294-0.007,0.59,0.004,0.885,0.009l0.116,0.013c0.193,0.012,0.387,0.03,0.581,0.032
		c0.266,0.003,0.533-0.008,0.799-0.01l0.131,0.022c0.122,0.012,0.245,0.042,0.364,0.031c0.341-0.03,0.68-0.081,1.021-0.116
		c0.247-0.026,0.496-0.041,0.744-0.062l0.007,0.048c0.271-0.047,0.547-0.075,0.812-0.141c0.256-0.062,0.498-0.21,0.755-0.238
		c0.372-0.04,0.517-0.286,0.604-0.571c0.063-0.204,0.049-0.437,0.051-0.655c0.002-0.151-0.036-0.301-0.043-0.453
		c-0.013-0.252-0.011-0.505-0.022-0.757c-0.016-0.351-0.044-0.701-0.057-1.051c-0.009-0.278,0.002-6.307-0.005-6.584
		c-0.003-0.112-0.044-0.224-0.047-0.335c-0.012-0.349-0.015-0.695-0.021-1.043h-0.014c-0.029-0.667-0.104-1.487-0.116-2.118
		l0.086-0.238c0.104-0.034,0.292,0.177,0.402,0.287c0.198,0.197,0.41,0.381,0.625,0.56c0.499,0.417,1.01,0.82,1.578,1.144
		c0.226,0.129,0.466,0.21,0.727,0.122c0.197-0.067,0.387-0.154,0.584-0.216c0.14-0.044,0.231-0.109,0.259-0.264
		c0.036-0.205,0.086-0.409,0.139-0.609C31.911,14.799,31.938,14.433,31.711,14.081 M17.709,25.194
		c-0.016,0.099-0.426,0.209-0.529,0.255c-0.133,0.059-0.289,0.058-0.436,0.081l-0.002-0.009c-0.165,0.01-0.33,0.023-0.495,0.031
		c-0.448,0.019-0.896,0.047-1.345,0.045c-0.157-0.001-0.626-0.003-0.72-0.188l-0.044-0.12c-0.021-0.231-0.046-0.464-0.052-0.696
		c-0.004-0.168,0.025-0.337,0.032-0.507c0.013-0.311,0.032-0.62,0.03-0.932c-0.003-0.318-0.03-0.636-0.043-0.955
		c-0.004-0.095,0.006-0.19,0-0.286c-0.009-0.123-0.009-0.253-0.048-0.367c-0.107-0.312-0.042-0.625-0.031-0.938
		c0.01-0.301,0.01-0.604-0.003-0.903C14,19.2,13.935,18.696,13.941,18.193c0.003-0.367,0.073-0.737,0.148-1.098
		c0.058-0.283,0.433-0.562,0.539-0.832c0.103-0.267,0.302-0.44,0.594-0.489c0.244-0.041,0.491-0.072,0.732-0.129
		c0.353-0.082,1.021,0.104,1.182,0.35c0.15,0.23,0.315,0.556,0.464,0.787c-0.039,0.514-0.039,0.514,0.003,0.813
		c0.051,0.365,0.095,0.732,0.115,1.102c0.027,0.476,0.036,0.951,0.04,1.427c0.003,0.413-0.012,0.827-0.016,1.241
		c-0.007,0.671-0.016,1.342-0.014,2.014c0,0.322,0.032,0.646,0.032,0.968C17.762,24.63,17.756,24.916,17.709,25.194 M24.689,16.511
		c-0.002,0.018-0.002,0.036-0.003,0.054c-0.063,0.716,0.013,7.177,0.071,7.889c0.017,0.195,0.019,0.395,0.003,0.589
		c-0.015,0.191-0.139,0.32-0.323,0.357c-0.362,0.074-1.559-0.124-1.926-0.089c-0.412,0.039-0.83,0.038-1.246,0.039
		c-0.245,0-0.195-0.192-0.194-0.446c0.002-0.349-0.013-0.699-0.019-1.049l0.017-0.264c-0.007-0.611,0.027-1.228-0.038-1.833
		c-0.069-0.646-0.013-1.288-0.059-1.93c-0.037-0.509-0.098-1.015-0.179-1.52c-0.056-0.343-0.145-0.688-0.238-1.022
		c-0.146-0.517-0.325-1.023-0.491-1.535c-0.041-0.126-0.075-0.257-0.133-0.375c-0.062-0.124-0.148-0.236-0.227-0.354l-0.164-0.225
		c-0.144-0.134-0.485-0.269-0.648-0.377c-0.279-0.187-0.562-0.377-0.862-0.525c-0.243-0.119-0.512-0.19-0.776-0.259
		c-0.323-0.086-0.651-0.154-0.981-0.217c-0.331-0.064-0.657-0.056-0.987,0.052c-0.276,0.091-0.57,0.126-0.855,0.192
		c-0.231,0.053-0.463,0.104-0.688,0.176c-0.096,0.031-0.177,0.112-0.263,0.172c-0.177,0.122-0.348,0.251-0.53,0.364l-0.286,0.121
		c-0.256,0.156-0.522,0.303-0.751,0.493c-0.132,0.11-0.202,0.296-0.295,0.451c-0.244,0.403-0.395,0.843-0.499,1.3
		c-0.106,0.467-0.205,0.936-0.296,1.405c-0.068,0.353-0.125,0.707-0.172,1.062c-0.022,0.168-0.003,0.342-0.011,0.513
		c-0.018,0.374-0.045,0.747-0.063,1.121c-0.005,0.099,0.021,0.199,0.015,0.299c-0.019,0.37-0.048,0.739-0.067,1.108
		c-0.014,0.282-0.029,0.563-0.025,0.846c0.006,0.488,0.109,0.977,0.009,1.47c-0.024,0.118,0.022,0.248,0.012,0.37
		c-0.016,0.189-0.021,0.393-0.094,0.562c-0.04,0.094-0.203,0.173-0.321,0.188c-0.284,0.037-1.379-0.04-1.667-0.038
		c-0.232,0.002-0.465-0.01-0.697-0.024c-0.169-0.011-0.312-0.174-0.334-0.343c-0.02-0.146-0.061-0.291-0.085-0.438
		c-0.066-0.399-0.128-6.548-0.184-6.9c0.017-0.161,0.035-0.306,0.05-0.444h0.023c-0.004-0.058-0.003-0.115-0.008-0.174
		c0.004-0.055,0.011-0.11,0.014-0.164c0.002-0.035-0.004-0.07-0.006-0.105h-0.01c0.026-0.226,0.077-0.448,0.116-0.671l0.01-0.083
		c0.035-0.423-0.055-0.75-0.036-1.173c0.019-0.411,0-0.824,0.013-1.235c0.015-0.461,0.057-0.288,0.067-0.749
		c0.007-0.316,0.136-0.728,0.097-1.041c-0.044-0.36,0.077-0.64,0.296-0.915c0.281-0.354,1.43-1.187,1.78-1.465
		C9.72,9.583,9.87,9.402,9.998,9.216c0.184-0.267,0.439-0.446,0.689-0.637c0.233-0.177,0.473-0.349,0.677-0.556
		c0.289-0.293,0.556-0.606,0.831-0.912v0.002l0.153-0.17c0.149-0.16,0.311-0.309,0.452-0.476c0.016-0.02,0.027-0.045,0.042-0.066
		l0.382-0.421c0-0.001,0.001-0.001,0.002-0.002l0.208-0.229l1.156-1.032c0,0,0.594-0.328,0.625-0.375
		c0.032-0.047,0.235-0.234,0.235-0.234s0.431-0.125,0.504-0.094c0.074,0.031-0.004-0.109,0.152,0.094
		c0.155,0.203,0.391,0.281,0.547,0.391c0.156,0.109,0.108,0.046,0.358,0.187c0.25,0.141,0.125,0.219,0.438,0.359
		c0.312,0.141,0.695,0.252,0.695,0.252c0.037,0.124,0.166,0.223,0.264,0.323c0.196,0.201,0.399,0.395,0.601,0.589l0.11,0.073
		c0.295,0.099,0.485,0.333,0.669,0.555c0.42,0.507,0.87,0.979,1.395,1.383c0.348,0.269,0.657,0.587,0.993,0.873
		c0.214,0.183,0.455,0.333,0.659,0.524c0.327,0.305,1.21,1.12,1.516,1.447c0.152,0.163,0.156,0.386,0.146,0.598
		c-0.029,0.546,0.193,0.875,0.168,1.421c-0.016,0.336,0.02,0.677-0.022,1.008c-0.06,0.473,0.058,0.935,0.04,1.404
		c-0.01,0.233,0.052,0.469,0.052,0.702c0,0.105-0.013,0.209-0.02,0.314H24.689z"/>
</g>
</svg>
