<?xml version="1.0" encoding="utf-8"?>
<!-- Generator: Adobe Illustrator 25.4.1, SVG Export Plug-In . SVG Version: 6.00 Build 0)  -->
<svg version="1.1" id="Layer_1" xmlns="http://www.w3.org/2000/svg" xmlns:xlink="http://www.w3.org/1999/xlink" x="0px" y="0px"
	 viewBox="0 0 300 300" style="enable-background:new 0 0 300 300;" xml:space="preserve">
<style type="text/css">
	.st0{fill:#0054A6;}
</style>
<g>
	<path class="st0" d="M291.7,206.7c-1.1,23-6.3,43.3-23.2,60.2c-16.8,16.8-37.2,22-60.2,23.2c-19.8,1.1-39.4,0.9-59.2,0.9
		s-39.4,0.2-59.2-0.9c-23-1.1-43.3-6.3-60.2-23.2c-16.8-16.8-22-37.2-23.2-60.2c-1.1-19.8-0.9-39.4-0.9-59.2S5.5,108,6.6,88.2
		c1.1-23,6.3-43.3,23.2-60.2C46.6,11.3,66.9,6,89.9,4.9C109.7,3.8,129.3,4,149.1,4s39.4-0.2,59.2,0.9c23,1.1,43.3,6.3,60.2,23.2
		c16.8,16.8,22,37.2,23.2,60.2c1.1,19.8,0.9,39.4,0.9,59.2S292.8,186.9,291.7,206.7z M64.5,35.5c-6.5,2.6-11.4,5.8-16.4,10.8
		c-5,5.1-8.2,9.9-10.8,16.4c-7.5,18.9-5.8,63.7-5.8,84.6s-1.7,65.8,5.8,84.6c2.6,6.5,5.8,11.4,10.8,16.4c5.1,5,9.9,8.2,16.4,10.8
		c18.9,7.5,63.7,5.8,84.6,5.8s65.8,1.7,84.6-5.8c6.5-2.6,11.4-5.8,16.4-10.8c5-5.1,8.2-9.9,10.8-16.4c7.5-18.9,5.8-63.7,5.8-84.6
		s1.7-65.8-5.8-84.6c-2.6-6.5-5.8-11.4-10.8-16.4c-5.1-5-9.9-8.2-16.4-10.8c-18.9-7.5-63.7-5.8-84.6-5.8S83.4,28.1,64.5,35.5z
		 M149.1,221.1c-40.7,0-73.6-32.9-73.6-73.6s32.9-73.6,73.6-73.6s73.6,32.9,73.6,73.6S189.9,221.1,149.1,221.1z M149.1,99.6
		c-26.3,0-47.8,21.5-47.8,47.8s21.5,47.8,47.8,47.8s47.8-21.5,47.8-47.8S175.5,99.6,149.1,99.6z M225.8,88
		c-9.5,0-17.2-7.7-17.2-17.2c0-9.5,7.7-17.2,17.2-17.2c9.5,0,17.2,7.7,17.2,17.2C242.9,80.4,235.3,88,225.8,88z"/>
</g>
</svg>
