<?xml version="1.0" encoding="utf-8"?>
<!-- Generator: Adobe Illustrator 26.0.3, SVG Export Plug-In . SVG Version: 6.00 Build 0)  -->
<svg version="1.1" id="Layer_1" xmlns="http://www.w3.org/2000/svg" xmlns:xlink="http://www.w3.org/1999/xlink" x="0px" y="0px"
	 viewBox="0 0 300 300" style="enable-background:new 0 0 300 300;" xml:space="preserve">
<style type="text/css">
	.st0{fill:#0054A6;}
</style>
<g>
	<path class="st0" d="M19.7,45.4c0-17.7,14.4-32.1,32.1-32.1s32.1,14.4,32.1,32.1c0,17.7-14.4,32.4-32.1,32.4
		C34,77.8,19.7,63.1,19.7,45.4z M24.1,280.6V102.2h55.4v178.5H24.1z M231.6,280.6v-86.9c0-20.7-0.4-47.3-28.8-47.3
		c-28.8,0-33.2,22.5-33.2,45.8v88.4h-55.4V102.2h53.2v24.4h0.8c7.4-14,25.5-28.8,52.5-28.8c56.1,0,66.4,36.9,66.4,84.9v98h-0.1
		H231.6z"/>
</g>
</svg>
