<?xml version="1.0" encoding="utf-8"?>
<!-- Generator: Adobe Illustrator 15.1.0, SVG Export Plug-In  -->
<!DOCTYPE svg PUBLIC "-//W3C//DTD SVG 1.1//EN" "http://www.w3.org/Graphics/SVG/1.1/DTD/svg11.dtd" [
	<!ENTITY ns_flows "http://ns.adobe.com/Flows/1.0/">
]>
<svg version="1.1"
	 xmlns="http://www.w3.org/2000/svg" xmlns:xlink="http://www.w3.org/1999/xlink" xmlns:a="http://ns.adobe.com/AdobeSVGViewerExtensions/3.0/"
	 x="0px" y="0px" width="86px" height="97px" viewBox="0 0 86 97" overflow="visible" enable-background="new 0 0 86 97"
	 xml:space="preserve">
<defs>
</defs>
<g>
	<defs>
		<rect id="SVGID_1_" x="0" width="86.333" height="97.339"/>
	</defs>
	<clipPath id="SVGID_2_">
		<use xlink:href="#SVGID_1_"  overflow="visible"/>
	</clipPath>
	<path clip-path="url(#SVGID_2_)" fill="#FFFFFF" d="M2.239,0.096C7.83-0.178,13.465,0.172,19.034,0.669
		c0.533,0.048,1.118,0.123,1.478,0.517c0.268,0.293,0.355,0.703,0.429,1.092c1.226,6.436,0.701,13.016,0.413,19.562
		c-0.028,0.645-0.096,1.362-0.576,1.795c-0.39,0.353-0.952,0.422-1.476,0.468c-5.272,0.461-10.603,0.246-15.821-0.64
		C2.6,23.314,1.644,23.1,1.088,22.4c-0.395-0.499-0.512-1.157-0.61-1.786C-0.537,14.142,0.072,0,2.239,0.096"/>
	<path clip-path="url(#SVGID_2_)" fill="#FFFFFF" d="M34.548,0.096c5.591-0.274,11.226,0.076,16.795,0.573
		c0.533,0.048,1.118,0.123,1.478,0.517c0.269,0.293,0.355,0.703,0.43,1.092c1.226,6.436,0.7,13.016,0.412,19.562
		c-0.027,0.645-0.096,1.362-0.575,1.795c-0.391,0.353-0.952,0.422-1.477,0.468c-5.271,0.461-10.603,0.246-15.821-0.64
		c-0.881-0.149-1.837-0.363-2.393-1.063c-0.395-0.499-0.512-1.157-0.61-1.786C31.772,14.142,32.381,0,34.548,0.096"/>
	<path clip-path="url(#SVGID_2_)" fill="#FFFFFF" d="M84.095,24.243c-5.591,0.274-11.227-0.076-16.795-0.573
		c-0.533-0.048-1.118-0.123-1.479-0.517c-0.268-0.293-0.354-0.703-0.429-1.092c-1.226-6.436-0.701-13.016-0.413-19.562
		c0.028-0.645,0.096-1.362,0.576-1.795c0.39-0.353,0.952-0.422,1.476-0.468c5.272-0.461,10.604-0.246,15.821,0.64
		c0.881,0.149,1.837,0.363,2.393,1.063c0.396,0.499,0.513,1.157,0.61,1.786C86.871,10.197,86.262,24.339,84.095,24.243"/>
	<path clip-path="url(#SVGID_2_)" fill="#FFFFFF" d="M19.477,60.743c-5.591,0.273-11.226-0.076-16.795-0.573
		c-0.533-0.048-1.118-0.123-1.478-0.518c-0.268-0.293-0.355-0.702-0.429-1.092c-1.226-6.436-0.701-13.016-0.413-19.562
		c0.028-0.645,0.096-1.362,0.576-1.795c0.39-0.353,0.952-0.422,1.476-0.468c5.272-0.461,10.603-0.246,15.821,0.64
		c0.881,0.149,1.837,0.363,2.393,1.063c0.395,0.499,0.512,1.157,0.61,1.786C22.253,46.697,21.645,60.839,19.477,60.743"/>
	<path clip-path="url(#SVGID_2_)" fill="#FFFFFF" d="M51.787,60.743c-5.592,0.273-11.227-0.076-16.795-0.573
		c-0.533-0.048-1.118-0.123-1.478-0.518c-0.268-0.293-0.355-0.702-0.429-1.092c-1.226-6.436-0.701-13.016-0.413-19.562
		c0.028-0.645,0.096-1.362,0.576-1.795c0.39-0.353,0.952-0.422,1.476-0.468c5.272-0.461,10.604-0.246,15.821,0.64
		c0.881,0.149,1.837,0.363,2.393,1.063c0.396,0.499,0.512,1.157,0.61,1.786C54.562,46.697,53.954,60.839,51.787,60.743"/>
	<path clip-path="url(#SVGID_2_)" fill="#FFFFFF" d="M66.857,36.596c5.591-0.274,11.226,0.076,16.795,0.573
		c0.533,0.048,1.118,0.123,1.479,0.517c0.268,0.293,0.354,0.703,0.429,1.092c1.226,6.436,0.701,13.016,0.413,19.562
		c-0.028,0.646-0.096,1.362-0.576,1.795c-0.39,0.354-0.952,0.422-1.476,0.469c-5.272,0.461-10.604,0.245-15.821-0.641
		c-0.881-0.148-1.837-0.363-2.394-1.062c-0.395-0.499-0.512-1.157-0.609-1.786C64.081,50.642,64.69,36.5,66.857,36.596"/>
	<path clip-path="url(#SVGID_2_)" fill="#FFFFFF" d="M2.239,73.096c5.591-0.273,11.226,0.076,16.795,0.573
		c0.533,0.048,1.118,0.123,1.478,0.518c0.268,0.293,0.355,0.702,0.429,1.092c1.226,6.436,0.701,13.016,0.413,19.562
		c-0.028,0.646-0.096,1.362-0.576,1.795c-0.39,0.354-0.952,0.422-1.476,0.469c-5.272,0.461-10.603,0.245-15.821-0.641
		C2.6,96.314,1.644,96.1,1.088,95.4c-0.395-0.499-0.512-1.157-0.61-1.786C-0.537,87.142,0.072,73,2.239,73.096"/>
	<path clip-path="url(#SVGID_2_)" fill="#FFFFFF" d="M34.548,73.096c5.591-0.273,11.226,0.076,16.795,0.573
		c0.533,0.048,1.118,0.123,1.478,0.518c0.269,0.293,0.355,0.702,0.43,1.092c1.226,6.436,0.7,13.016,0.412,19.562
		c-0.027,0.646-0.096,1.362-0.575,1.795c-0.391,0.354-0.952,0.422-1.477,0.469c-5.271,0.461-10.603,0.245-15.821-0.641
		c-0.881-0.148-1.837-0.363-2.393-1.062c-0.395-0.499-0.512-1.157-0.61-1.786C31.772,87.142,32.381,73,34.548,73.096"/>
	<path clip-path="url(#SVGID_2_)" fill="#FFFFFF" d="M84.095,97.243c-5.591,0.273-11.227-0.076-16.795-0.573
		c-0.533-0.048-1.118-0.123-1.479-0.518c-0.268-0.293-0.354-0.702-0.429-1.092c-1.226-6.436-0.701-13.016-0.413-19.562
		c0.028-0.646,0.096-1.362,0.576-1.795c0.39-0.354,0.952-0.422,1.476-0.469c5.272-0.461,10.604-0.245,15.821,0.641
		c0.881,0.148,1.837,0.362,2.393,1.062c0.396,0.499,0.513,1.157,0.61,1.786C86.871,83.196,86.262,97.339,84.095,97.243"/>
</g>
</svg>
