<?xml version="1.0" encoding="utf-8"?>
<!-- Generator: Adobe Illustrator 15.1.0, SVG Export Plug-In . SVG Version: 6.00 Build 0)  -->
<!DOCTYPE svg PUBLIC "-//W3C//DTD SVG 1.1//EN" "http://www.w3.org/Graphics/SVG/1.1/DTD/svg11.dtd">
<svg version="1.1" id="Ebene_1" xmlns="http://www.w3.org/2000/svg" xmlns:xlink="http://www.w3.org/1999/xlink" x="0px" y="0px"
	 viewBox="0 0 29.617 40.739" enable-background="new 0 0 29.617 40.739" xml:space="preserve">
<polygon fill="#FFFFFE" points="25.782,1.418 21.103,2.458 20.995,4.298 23.982,5.738 "/>
<g>
	<defs>
		<rect id="SVGID_1_" width="29.617" height="40.739"/>
	</defs>
	<clipPath id="SVGID_2_">
		<use xlink:href="#SVGID_1_"  overflow="visible"/>
	</clipPath>
	<path clip-path="url(#SVGID_2_)" fill="#EBB800" d="M19.651,12.007c0.091-0.962-0.494-1.829-1.271-2.27
		c-2.319,2.968-5.006,6.201-6.687,9.491c-1.762,3.451-4.863,5.896-7.011,9.083c0.524,1.295,2.051,2.229,4.166,3.089
		c0.915,0.372,2.063-0.01,2.626-0.787c3.713-5.131,7.427-10.262,11.141-15.393C24.089,13.186,21.456,10.968,19.651,12.007"/>
	<path clip-path="url(#SVGID_2_)" fill="#EBB800" d="M27.506,3.757c-0.061-0.401-0.226-0.786-0.487-1.131l-0.145-0.192
		c-1.53,0.771-3.13,1.503-4.178,2.874l-0.065,0.07c0.72,0.977,1.587,1.729,2.77,2.215c1.087,0.447,2.533-0.187,2.899-1.292
		C28.624,5.322,28.295,4.337,27.506,3.757"/>
	<path clip-path="url(#SVGID_2_)" fill="#4E4C4C" d="M26.499,6.921l-0.087,0.087L26.39,6.985c-0.213-0.265-0.732-0.905-0.723-0.907
		c-0.195,0.04-0.229-0.144-0.333-0.227c-0.49-0.392-0.976-0.934-1.563-1.183c-0.126-0.054-0.245-0.125-0.367-0.188l-0.016,0.03
		c0.1,0.045-1.354-0.593-1.285-0.654c0.194-0.175,0.381-0.367,0.599-0.508c0.281-0.181,0.579-0.345,0.889-0.468
		c0.202-0.08,0.437-0.086,0.658-0.107c0.718-0.067,1.426,0.493,1.857,0.981c0.426,0.483,0.775,0.759,0.719,1.427
		c-0.029,0.351-0.085,0.7-0.148,1.048C26.634,6.463,26.563,6.692,26.499,6.921 M24.726,10.197c-0.16,0.228-0.872,1.673-1.111,1.715
		c-0.266,0.046-0.216,0.304-0.309,0.463c-0.099,0.17-0.197,0.205-0.312,0.061c-0.162-0.205-0.314-0.419-0.486-0.616
		c-0.263-0.169-0.502-0.367-0.718-0.594l-0.243-0.262l-0.025,0.024l-0.14-0.153c-0.803-0.608-1.536-1.169-2.461-1.593
		c-0.259-0.118-0.531-0.207-0.798-0.306c-0.113-0.042-0.23-0.071-0.342-0.118c-0.075-0.032-0.126-0.063-0.042-0.17
		c0.303-0.39,0.616-0.776,0.872-1.195c0.327-0.536,0.771-0.964,1.188-1.419c0.174-0.189,0.383-0.347,0.583-0.51
		c0.32-0.262,1.24,0.235,1.457,0.324c-0.102-0.041,1.055,0.48,0.796,0.483c0.545-0.006,1.288,0.779,1.692,1.065l0.239,0.217
		c0.289,0.296,0.661,0.669,0.946,0.968C25.916,9,24.942,9.889,24.726,10.197 M21.717,14.862c-0.212,0.346-0.435,0.685-0.663,1.021
		c-0.295,0.434-1.218,1.781-1.524,2.206c-0.366,0.405-0.678,0.848-0.936,1.329c-0.112,0.177-0.239,0.344-0.354,0.519
		c-0.127,0.195-0.241,0.4-0.373,0.592c-0.307,0.445-0.607,0.908-0.926,1.343c-0.296,0.404-0.603,0.799-0.894,1.206
		c-0.249,0.349-0.512,0.752-0.739,1.122c-0.338,0.549-1.015,1.181-1.252,1.768c-0.1,0.247-0.225,0.351-0.395,0.57
		c-0.449,0.58-0.882,1.192-1.288,1.801c-0.128,0.192-0.257,0.385-0.399,0.567c-0.276,0.357-0.58,0.695-0.838,1.065
		c-0.24,0.348-0.416,0.737-0.656,1.085c-0.195,0.281-0.153,0.162-0.379,0.421L10.003,31.5l-0.015,0.2
		c-0.168-0.213-1.107-0.871-0.799-1.086c0.174-0.121,0.045,0.081,0.164-0.097c0.162-0.237,0.278-0.505,0.417-0.759
		c0.104-0.189,0.205-0.383,0.323-0.563c0.411-0.636,0.902-1.209,1.343-1.822c0.18-0.251,0.354-0.508,0.527-0.765
		c0.164-0.244,0.317-0.497,0.488-0.737c0.137-0.193,0.299-0.369,0.443-0.556s0.282-0.378,0.418-0.568
		c0.166-0.234,0.325-0.473,0.489-0.707c0.182-0.261,0.391-0.507,0.467-0.827l0.016-0.057c0.277-0.108,0.374-0.376,0.531-0.589
		c0.107-0.238,0.26-0.442,0.457-0.613c0.265-0.305,0.531-0.609,0.788-0.923c0.508-0.62,1.009-1.257,1.492-1.896
		c0.548-0.724,1.703-2.507,2.209-3.26c0.227-0.337,0.437-0.684,0.658-1.023c0.196-0.299,0.396-0.595,0.598-0.888
		c0.072-0.106,0.147-0.216,0.244-0.295c0.206-0.092,0.693,0.187,0.888,0.316l0.005,0.095C22.012,14.343,21.874,14.608,21.717,14.862
		 M9.645,27.039l-0.081,0.095c-0.209,0.353-0.418,0.703-0.622,1.058c-0.372,0.644-0.344,0.938-0.734,1.583
		c-0.108,0.179-0.167,0.173-0.36,0.056c-0.267-0.161-0.25-0.139-0.523-0.29c-0.096-0.053-0.177-0.134-0.264-0.202L7.03,29.305
		c-0.293,0.028-0.462-0.208-0.677-0.334l-0.052-0.302c0.279-0.39,0.295-0.396,0.595-0.771c0.47-0.589,0.933-1.12,1.32-1.765
		c0.06-0.1,0.131-0.192,0.202-0.285c0.172-0.227,0.353-0.445,0.517-0.678c0.147-0.208,0.267-0.433,0.412-0.641
		c0.249-0.358,0.512-0.707,0.762-1.065c0.085-0.122,0.144-0.262,0.222-0.39c0.304-0.498,0.655-0.989,1.002-1.458
		c0.187-0.253,0.414-0.477,0.618-0.717c0.174-0.208,0.347-0.416,0.51-0.63c0.478-0.636,0.94-1.285,1.411-1.927
		c0.316-0.43,1.235-1.791,1.548-2.224c0.278-0.385,0.576-0.756,0.85-1.145c0.395-0.563,0.693-1.196,1.12-1.741
		c0.164-0.21,1.076-1.817,1.48-1.475c0.164,0.139,0.32,0.296,0.506,0.4c0.289,0.161,0.575,0.329,0.857,0.504
		c0.081,0.034-0.115-0.053,0,0l-0.075,0.206c-0.167,0.26-0.351,0.51-0.535,0.759c-0.084,0.112-0.187,0.21-0.276,0.32
		c-0.13,0.193-0.253,0.39-0.367,0.593l0.011,0.006c-0.597,0.903-1.839,2.835-2.459,3.722c-0.166,0.239-0.351,0.467-0.533,0.694
		c-0.234,0.29-0.478,0.572-0.713,0.862c-0.297,0.368-0.587,0.749-0.974,1.102c-0.443,0.404-0.766,1.005-1.156,1.464
		c-0.313,0.286-0.583,0.606-0.809,0.961c-0.293,0.383-0.595,0.759-0.884,1.145c-0.479,0.639-0.908,1.315-1.366,1.97
		C9.957,26.665,9.796,26.848,9.645,27.039 M8.535,33.232c-0.156,0.119-0.318,0.231-0.472,0.354
		c-0.146,0.115-0.289,0.234-0.428,0.358c-0.273,0.243-0.54,0.496-0.815,0.738c-0.225,0.161-0.449,0.324-0.67,0.491
		c-0.199,0.135-1.047,0.841-1.26,0.953c-0.157,0.082-0.242,0.006-0.301-0.205l-0.106-0.114c-0.276-0.227-0.526-0.421-0.81-0.625
		c-0.212-0.152-0.463-0.258-0.709-0.354c-0.19-0.075,0.404,0.085-0.19-0.075l-0.013-0.83c0.023-0.332,0.056-0.663,0.08-0.996
		c0.021-0.301,0.097-0.831,0.111-1.133c0.039-0.86,0.179-1.768,0.879-1.626l0.04-0.006c0.282,0.117,0.545,0.23,0.813,0.335
		c0.394,0.098,0.766,0.255,1.113,0.471l0.192,0.068c0.121,0.061,0.243,0.123,0.357,0.196c0.317,0.204,0.643,0.399,0.943,0.628
		c0.502,0.38,0.938,0.759,1.298,1.277L8.535,33.232z M4.475,27.904c0.131-0.289,0.027-0.179,0.263-0.4
		c0.09-0.182,0.18-0.365,0.27-0.547l0.041-0.163c0.798-1.673,1.894-3.143,3.034-4.581c0.114-0.164,0.231-0.325,0.341-0.493
		c0.372-0.563,0.776-1.112,1.173-1.659c0.368-0.507,0.872-0.997,1.118-1.583c0.073-0.174,0.86-1.224,0.972-1.383
		c0.405-0.579,0.743-1.2,1.155-1.774c0.738-1.03,1.55-2.005,2.296-3.028c0.132-0.179,0.204-0.399,0.325-0.587
		c0.138-0.211,0.295-0.409,0.448-0.609c0.515-0.674,0.452-0.547,1.234-0.192l0.225,0.04c0.568,0.117-0.223,1.002-0.349,1.177
		c-0.11,0.154-0.255,0.282-0.368,0.433c-0.14,0.186-0.258,0.386-0.393,0.575c-0.031,0.046-0.068,0.164-0.148,0.035
		c-0.178,0.112-0.325,0.259-0.44,0.442c-0.402,0.51-0.694,1.107-1.116,1.599c-0.209,0.245-0.321,0.536-0.506,0.787
		c-0.082,0.112-0.165,0.223-0.259,0.324c-0.095,0.102-0.195,0.199-0.294,0.298c-1.554,2.724-4.424,5.897-6.168,8.501
		c-0.039,0.389-0.567,1.06-0.847,1.393c-0.15,0.272-0.308,0.537-0.443,0.819c-0.08,0.168-0.204,0.257-0.339,0.288l-0.181,0.25
		c-0.164,0.168-0.001-0.005-0.085,0.213c-0.079,0.287-0.087,0.29-0.359,0.183c-0.141-0.055-0.289-0.092-0.436-0.129
		c-0.117-0.03-0.233-0.052-0.167-0.218C4.455,27.955,4.425,28.018,4.475,27.904 M29.417,6.523c0.068-0.34,0.121-0.687,0.188-1.083
		c-0.018,0.101-0.04,0.233,0.013-0.076c-0.008-0.341-0.015-0.683-0.022-1.025c-0.023-0.936-0.553-1.584-1.015-2.358l-0.101-0.11
		c-0.867-0.623-1.583-1.234-2.623-1.574c-0.051-0.017-0.402-0.14-0.767-0.252c-0.267-0.03-0.517-0.055-0.71-0.042
		c-0.103,0.006-0.203,0.005-0.304,0.01C23.657,0.27,22.639,0.24,22.25,0.479c-0.425,0.26-0.85,0.52-1.259,0.803
		c-0.439,0.303-0.888,0.598-1.224,1.027c-0.081,0.104-0.183,0.194-0.27,0.294c-0.31,0.36-0.624,0.716-0.927,1.082
		c-0.392,0.472-0.777,0.948-1.158,1.429c-0.155,0.196-0.286,0.412-0.437,0.611c-0.404,0.535-0.814,1.07-1.227,1.599
		c-0.169,0.217-0.369,0.411-0.539,0.628c-0.232,0.297-0.453,0.604-0.674,0.911c-0.395,0.55-0.715,1.164-1.124,1.7
		c-0.178,0.233-0.425,0.413-0.609,0.642c-0.691,0.861-1.931,2.719-2.567,3.62c-0.195,0.277-0.365,0.572-0.553,0.854
		c-0.144,0.216-0.304,0.422-0.448,0.639c-0.203,0.305-0.389,0.622-0.6,0.922c-0.532,0.757-1.058,1.731-1.578,2.413
		c-0.248,0.329-0.504,0.652-0.768,0.968c-0.085,0.123-0.137,0.268-0.22,0.392c-0.163,0.243-0.334,0.48-0.508,0.715
		c-0.59,0.801-1.122,1.627-1.655,2.467C3.803,24.358,3.748,24.561,3.62,24.7c-0.587,0.631-1.661,2.16-1.826,2.997
		c-0.214,0.432-0.414,0.87-0.601,1.313l-0.164,0.185c-0.14,0.334-0.28,0.667-0.416,1.002c-0.075,0.459-0.246,0.974-0.206,1.416
		c0.03,0.336-0.036,0.682-0.069,1.023c-0.025,0.259-0.075,0.518-0.084,0.777c-0.011,0.305,0.033,0.611,0.012,0.915
		c-0.023,0.343-0.101,0.682-0.136,1.024c-0.101,0.989-0.172,2.21-0.102,3.19c0.009,0.125,0.017,0.252,0.018,0.378
		c0,0.286-0.058,0.586,0.006,0.857c0.111,0.465,0.431,0.759,0.921,0.854c0.176,0.035,0.363-0.033,0.536,0.096
		c0.055,0.041,0.224-0.051,0.332-0.099c0.286-0.128,0.576-0.25,0.848-0.403c0.573-0.322,1.141-0.676,1.695-1.03
		c0.19-0.121,0.373-0.252,0.561-0.375c0.268-0.169,0.535-0.338,0.802-0.509c0.171-0.119,0.335-0.252,0.51-0.366
		c0.192-0.127,0.403-0.226,0.588-0.362c0.269-0.198,0.518-0.425,0.783-0.629c0.112-0.085,0.253-0.132,0.367-0.215
		c0.429-0.312,0.845-0.644,1.281-0.945c0.373-0.258,0.771-0.482,1.152-0.729c0.105-0.068,0.252-0.151,0.276-0.251
		c0.095-0.412,0.469-0.619,0.664-0.958c0.36-0.625,0.833-1.213,1.249-1.797c0.19-0.269,0.364-0.549,0.552-0.818
		c0.392-0.565,0.799-1.209,1.236-1.737c0.205-0.248,0.453-0.469,0.649-0.729c0.51-0.675,0.927-1.403,1.391-2.107
		c0.067-0.102,0.132-0.206,0.205-0.304c0.125-0.167,0.26-0.326,0.382-0.495c0.141-0.199,0.27-0.406,0.409-0.606
		c0.125-0.179,0.262-0.349,0.385-0.528c0.21-0.308,0.41-0.622,0.621-0.93c0.274-0.402,0.559-0.801,0.841-1.198
		c0.289-0.408,0.552-0.824,0.82-1.247c0.126-0.198,0.262-0.392,0.387-0.592c0.165-0.265,0.303-0.551,0.491-0.799
		c0.306-0.403,0.649-0.777,0.88-1.233c0.125-0.235,0.289-0.44,0.493-0.615c0.214-0.348,1.021-1.632,1.233-1.981
		c0.198-0.324,0.413-0.639,0.633-0.949c0.213-0.172,0.36-0.382,0.445-0.631c0.165-0.198,0.277-0.424,0.336-0.679
		c0.126-0.199,0.312-0.362,0.435-0.564c0.195-0.323,0.359-0.666,0.54-0.998l0.079-0.048l0.143-0.113
		c0.099-0.111,0.145-0.253,0.24-0.373c0.31-0.393,0.563-0.831,0.887-1.211c0.489-0.575,0.776-1.302,1.175-1.937
		c0.125-0.199,0.285-0.376,0.428-0.564C29.119,7.827,29.354,6.837,29.417,6.523"/>
</g>
</svg>
