<?xml version="1.0" encoding="utf-8"?>
<!-- Generator: Adobe Illustrator 15.1.0, SVG Export Plug-In . SVG Version: 6.00 Build 0)  -->
<!DOCTYPE svg PUBLIC "-//W3C//DTD SVG 1.1//EN" "http://www.w3.org/Graphics/SVG/1.1/DTD/svg11.dtd">
<svg version="1.1" id="Ebene_1" xmlns="http://www.w3.org/2000/svg" xmlns:xlink="http://www.w3.org/1999/xlink" x="0px" y="0px"
	 viewBox="0 0 22.217 25.538" enable-background="new 0 0 22.217 25.538" xml:space="preserve">
<g>
	<defs>
		<rect id="SVGID_1_" y="0" width="22.217" height="25.537"/>
	</defs>
	<clipPath id="SVGID_2_">
		<use xlink:href="#SVGID_1_"  overflow="visible"/>
	</clipPath>
	<path clip-path="url(#SVGID_2_)" fill="#EBB800" d="M14.793,13.058c-0.117,0.032-0.235,0.045-0.353,0.042l-0.019-0.089l0.063-0.189
		l-0.064-0.121c0.136,0.001,0.271-0.001,0.406,0.004c0.124,0.004,0.124-0.188,0-0.193c-0.481-0.017-0.963-0.009-1.443,0.024
		l-0.093,0.114l0.037,0.118l0.104,0.053c0.163,0.183,0.364,0.318,0.587,0.396l0.17,0.064l0.108,0.127l0.162-0.06l0.204,0.024
		l0.095-0.112l0.085-0.016C14.964,13.212,14.912,13.025,14.793,13.058"/>
	<path clip-path="url(#SVGID_2_)" fill="#EBB800" d="M9.073,12.412l0.077,0.096l-0.157,0.535l-0.062,0.215
		C8.982,12.978,9.029,12.695,9.073,12.412 M8.105,12.651l0.147-0.079c0.192,0.064,0.385,0.049,0.601,0
		c-0.044,0.27-0.092,0.54-0.143,0.81c0.12,0.036,0.239,0.074,0.358,0.111c0.085-0.28,0.169-0.561,0.242-0.844
		c0.048-0.189,0.098-0.376-0.106-0.479l-0.169-0.013c-0.283-0.005-0.51,0.044-0.793-0.055c-0.619-0.218-0.978-0.804-1.18-1.392
		c-0.031-0.091-0.154-0.091-0.186,0C6.556,11.639,7.388,12.26,8.105,12.651"/>
	<path clip-path="url(#SVGID_2_)" fill="#EBB800" d="M11.17,17.554l-0.104-0.07l-0.071-0.006l-0.002-0.001l-0.014-0.074
		c0.15,0.032,0.298,0.071,0.444,0.137c0.125,0.059,0.244,0.129,0.36,0.206C11.577,17.687,11.373,17.622,11.17,17.554 M12.325,17.899
		c-0.43-0.322-0.848-0.6-1.381-0.707l-0.022-0.005l-0.042-0.065l-0.213-0.133c0.216,0.095,0.432,0.189,0.647,0.284
		c0.115,0.05,0.197-0.092,0.098-0.167c-0.648-0.49-1.39-0.801-2.121-1.146l-0.086-0.041c0.014,0.149,0.034,0.293,0.058,0.436
		l0.095,0.045l0.144,0.09l-0.021,0.062L9.371,16.5l-0.093-0.062c0.189,0.985,0.685,1.751,1.936,2.024l0.094,0.058
		c0.091,0.027,0.184,0.055,0.275,0.08c0.104,0.028,0.172-0.122,0.074-0.177c-0.115-0.062-0.231-0.121-0.349-0.18l0.003-0.004
		c0.056-0.124,0.099-0.279,0.066-0.406l0.008-0.004c0.285,0.09,0.573,0.173,0.865,0.245C12.363,18.103,12.409,17.961,12.325,17.899"
		/>
	<path clip-path="url(#SVGID_2_)" fill="#EBB800" d="M1.351,25.094c0,0,2.966,0.564,8.382,0.42c5.417-0.145,9.184-1.162,9.184-1.162
		l-5.576-3.613L7.18,20.505l-4.667,1.732L1.351,25.094z"/>
	<path clip-path="url(#SVGID_2_)" fill="#FFFFFF" d="M14.58,21.539c0.304,0.104,0.432,0.55,0.272,0.739
		c-0.088,0.108-0.59,0.251-0.719,0.286c-0.708,0.219-1.433,0.34-2.161,0.475c-1.512,0.278-3.065,0.141-4.524-0.259
		c-0.376-0.104-0.748-0.251-1.115-0.389c-0.596-0.214-1.376-0.369-0.79-0.93c0.411-0.41,0.798,0.016,1.364,0.237
		c0.423,0.166,0.835,0.281,1.276,0.406c1.21,0.339,2.461,0.274,3.685,0.106C12.743,22.098,13.713,21.714,14.58,21.539"/>
	<path clip-path="url(#SVGID_2_)" fill="#4E4C4C" d="M11.396,16.586c-0.428-0.168-0.906-0.238-1.353-0.478l-0.224,0.259
		c0.284,0.679,0.812,1.075,1.357,1.397v1.998c-0.723,0.059-1.417,0.275-2.107-0.049c-0.098-0.046-0.191-0.1-0.298-0.156
		c0.04-0.377-0.063-0.714-0.146-1.064c-0.083-0.354-0.162-0.737-0.161-1.111c0.001-0.154-0.114-0.252-0.094-0.406
		c0.019-0.137-0.013-0.291-0.058-0.425c-0.049-0.148-0.138-0.283-0.206-0.426c-0.064-0.135-0.121-0.272-0.184-0.407
		c-0.348-0.744-0.898-1.321-1.497-1.867c-0.462-0.42-0.899-0.869-1.349-1.305c-0.204-0.198-0.425-0.384-0.614-0.596
		c-0.464-0.517-0.951-1.019-1.353-1.58C2.837,9.989,2.675,9.523,2.502,9.081C2.388,8.792,2.34,8.477,2.265,8.172L2.246,7.97
		c0.142-0.366,0.093-0.76,0.183-1.137c0.089-0.376,0.242-0.722,0.395-1.067C2.973,5.43,3.353,5.105,3.513,4.774
		c0.212-0.433,0.632-0.72,0.983-1.035C4.97,3.316,5.414,3.209,5.95,2.891c0.117-0.07,0.237-0.134,0.367-0.163
		c0.179-0.049,0.355-0.117,0.537-0.144c0.625-0.09,1.231-0.338,1.883-0.206C9.097,2.449,9.47,2.463,9.825,2.55
		c1.155,0.283,1.967,0.731,2.598,1.769c0.468,0.769,0.634,1.624,0.919,2.473c0.295,0.877,0.726,1.738,1.056,2.602
		c0.193,0.503,0.476,0.981,0.779,1.428c0.178,0.259,0.477,0.433,0.742,0.665c-0.146,0.338-0.417,0.567-0.761,0.727
		c-0.232,0.107-0.459,0.228-0.717,0.358c0,0.127-0.003,0.208,0,0.289c0.022,0.58-0.114,1.128-0.271,1.686
		c-0.182,0.647-0.384,1.062-0.658,1.667c-0.194,0.433-0.596,0.609-1.059,0.67C12.054,16.935,11.732,16.718,11.396,16.586
		 M19.489,24.064c0.036-0.113,0.024-0.24-0.01-0.453l-0.016-0.113c-0.18-0.413-0.399-0.854-0.636-1.217
		c-0.116-0.178-0.699-0.521-0.909-0.593c-0.434-0.145-0.63-0.23-1.023-0.432c-0.803-0.409-1.697-0.801-2.505-1.201
		c-0.538-0.265-0.992-0.682-1.637-0.754v-0.648c0.118-0.011,0.206-0.032,0.292-0.026c0.318,0.021,0.573-0.102,0.834-0.259
		c0.349-0.21,0.602-0.333,0.91-0.562c0.351-0.259,0.635-0.73,0.797-1.079c0.443-0.955,0.745-1.965,0.739-3.02l0.057-0.161
		c1.079-0.641,1.897-1.842,1.763-2.698c-0.296-0.202-0.693-0.734-1.025-0.972c-0.303-0.218-0.673-0.409-0.739-0.755
		c-0.136-0.703-0.422-1.19-0.579-1.884c-0.059-0.261-0.183-0.51-0.277-0.764l-0.102-0.236c-0.211-0.724-0.548-1.367-0.794-2.081
		c-0.265-0.774-0.586-1.586-1.219-2.15c-0.216-0.193-0.53-0.59-0.781-0.741C11.741,0.73,11.08,0.34,9.993,0.293L9.456,0.201
		C8.484,0.049,8.05-0.111,7.096,0.105C6.371,0.27,5.585,0.555,4.899,0.846C4.04,1.212,3.272,1.6,2.654,2.281
		C2.479,2.475,2.11,2.84,1.922,3.022c-0.447,0.431-0.797,1.082-1.074,1.62c-0.33,0.644-0.527,1.275-0.55,2.034
		C0.29,6.892,0.144,7.102,0.085,7.319C0.046,7.462,0.021,7.618,0.042,7.761c0.059,0.418,0.138,0.834,0.22,1.248
		c0.043,0.219,0.071,0.452,0.174,0.647c0.199,0.377,0.034,0.805,0.281,1.157c0.24,0.344,0.513,0.876,0.776,1.196
		c0.267,0.324,0.638,0.446,0.936,0.734c0.481,0.465,1.009,0.888,1.489,1.355c0.45,0.438,0.835,0.935,1.296,1.357
		c1.08,0.992,1.431,2.268,1.656,3.624c-0.526,0.431-1.114,0.499-1.688,0.775c-0.361,0.174-0.868,0.373-1.194,0.593
		c-0.509,0.344-1.115,0.523-1.592,0.917c-0.291,0.239-0.613,0.574-0.91,0.81c-0.557,0.438-0.985,0.805-1.251,1.455
		c-0.059,0.145-0.104,0.505-0.171,0.646c-0.199,0.421,0.132-0.25,0.103,0.208c-0.029,0.433,0.01-0.428-0.085-0.007
		c-0.063,0.273,0.005,0.439,0.24,0.583c0.545-0.294,1.041,0.156,1.574,0.122c0.006-0.188,0.01-0.155,0.019-0.048l0.004,0.045
		l0.012,0.14l0.193-0.053c0.167-0.555,0.378-1.095,0.648-1.617c0.236-0.456,0.649-0.735,1.082-0.977
		c0.515-0.287,1.062-0.526,1.606-0.765c0.771-0.339,1.554-0.651,2.326-0.986c0.263-0.114,0.514-0.133,0.779-0.029
		c0.139,0.055,0.277,0.11,0.421,0.149c0.329,0.088,0.657,0.206,0.993,0.237c0.507,0.048,1.019,0.023,1.429-0.143
		c0.362,0.15,0.657,0.285,0.963,0.393c0.42,0.15,0.862,0.253,1.27,0.425c0.798,0.332,1.577,0.695,2.363,1.049
		c0.757,0.338,1.135,0.943,1.336,1.668C18.141,24.696,18.805,24.454,19.489,24.064"/>
	<path clip-path="url(#SVGID_2_)" fill="#4E4C4C" d="M8.693,10.321c-0.102,0.065-0.192,0.125-0.267,0.173
		c-0.487-0.106-0.732-0.671-1.272-0.616c-0.381,0.505-0.077,1.018-0.069,1.519c0.302,0.453,0.45,1.046,1.137,1.205
		c0.332-0.031,0.562-0.318,0.825-0.548c0.112-0.098,0.203-0.236,0.41-0.123c-0.002,0.601-0.157,1.164-0.526,1.661
		c-0.207,0.276-0.463,0.457-0.832,0.416l-0.17,0.043c-0.708-0.537-1.297-1.185-1.73-1.975c-0.167-0.304-0.278-0.614-0.268-0.969
		c0.013-0.519-0.006-1.036,0.132-1.549c0.174-0.646,0.784-1.116,1.45-1.073l0.235,0.051C8.353,8.815,8.776,9.6,8.693,10.321"/>
	<path clip-path="url(#SVGID_2_)" fill="#4E4C4C" d="M11.288,9.469c-0.039-0.239,0.058-0.472,0.175-0.682l0.213-0.163
		c0.11-0.053,0.225-0.103,0.339-0.118c0.234-0.031,0.477-0.078,0.683,0.141c0.161,0.247,0.241,0.546,0.238,0.899
		c-0.029,0.145-0.083,0.281-0.132,0.416l-0.089,0.16c-0.099,0.114-0.196,0.235-0.306,0.321c-0.111,0.087-0.235,0.092-0.363,0.037
		c-0.14-0.06-0.286-0.088-0.428-0.137l-0.096-0.081l-0.147-0.19C11.279,9.895,11.25,9.693,11.288,9.469
		C11.249,9.229,11.288,9.629,11.288,9.469"/>
</g>
</svg>
