<?xml version="1.0" encoding="utf-8"?>
<!-- Generator: Adobe Illustrator 15.1.0, SVG Export Plug-In . SVG Version: 6.00 Build 0)  -->
<!DOCTYPE svg PUBLIC "-//W3C//DTD SVG 1.1//EN" "http://www.w3.org/Graphics/SVG/1.1/DTD/svg11.dtd">
<svg version="1.1" id="Ebene_1" xmlns="http://www.w3.org/2000/svg" xmlns:xlink="http://www.w3.org/1999/xlink" x="0px" y="0px"
	 viewBox="0 0 86.771 93.419" enable-background="new 0 0 86.771 93.419" xml:space="preserve">
<g>
	<defs>
		<rect id="SVGID_1_" width="86.772" height="93.419"/>
	</defs>
	<clipPath id="SVGID_2_">
		<use xlink:href="#SVGID_1_"  overflow="visible"/>
	</clipPath>
	<path clip-path="url(#SVGID_2_)" fill="#333132" d="M85.997,44.041c-4.737-3.12-8.319-5.891-11.147-8.625
		c-1.048-0.479-2.089-1.028-2.962-1.722c-0.576-0.457-1.401-0.956-2.276-1.483c-1.405-0.848-2.999-1.81-4.199-2.998
		c-0.464-0.389-2.809-1.736-3.81-2.312c-0.616-0.354-1.137-0.653-1.451-0.846c-1.321-0.823-2.803-1.575-4.371-2.371
		c-0.764-0.388-1.528-0.777-2.279-1.174c-1.836-0.969-2.938-1.884-3.827-2.618c-0.977-0.81-1.516-1.256-2.903-1.736
		c-2.212-0.76-3.522-2.04-4.105-2.735c-0.857-1.026-2.697-1.951-4.645-2.93c-0.924-0.465-1.837-0.927-2.686-1.406
		c-0.776-0.436-1.382-0.878-1.917-1.269c-0.429-0.314-0.839-0.612-1.156-0.763l-1.746-0.512l-0.433-0.21
		c-1.423-0.692-3.101-1.59-4.722-2.457c-1.503-0.804-3.052-1.633-4.326-2.26l-2.838-0.817l-0.754-0.686
		c-0.671-0.61-1.635-1.072-3.436-1.649c-1.442-0.464-2.324-0.481-2.863-0.454C9.728,0.082,8.274,0.214,6.737,0.354
		C5.569,0.461,4.401,0.568,3.229,0.652c-0.767,1.021-1.327,2.05-1.703,3.084L0.974,16.893v12.25l1.914,4l-0.957,7.75v5.817v4.683
		l-0.957,7v2.5l0.957,3v3v4.75l-0.957,2v2.5v3.25v3.25c0,0-0.752,3.25-0.957,4c-0.205,0.75,1.436,3.5,1.436,3.5l0.108,0.135
		c0.149,0.659,0.584,1.206,1.308,1.639l0.019,0.023l0.011-0.005c0.525,0.307,1.182,0.562,2.001,0.75
		c3.931,0.901,6.777,0.969,9.515,0.225l0.01-0.003c0.49-0.132,0.979-0.259,1.465-0.386c2.321-0.603,4.154-1.079,5.522-1.986
		c1.991-1.323,4.19-2.424,6.317-3.488c1.229-0.616,2.39-1.197,3.481-1.805c0.413-0.229,0.86-0.543,1.333-0.876
		c1.347-0.948,3.136-2.208,6.049-2.861l0.527-0.317c0.785-0.485,1.526-0.944,2.173-1.407c1.46-1.044,2.905-2.096,4.351-3.147
		c2.269-1.651,4.614-3.358,7-5.018c2.621-1.824,5.278-3.629,7.936-5.433c2.553-1.731,5.104-3.463,7.621-5.213
		c0.732-0.507,1.43-1.095,2.169-1.72c0.759-0.641,1.544-1.303,2.456-1.957c1.619-1.162,3.298-2.299,4.923-3.397l0.822-0.557
		c1.727-1.463,3.715-2.848,5.914-4.121l0.058-0.041c0.551-0.385,1.114-0.707,1.659-0.99c0.168-0.542,0.367-1.048,0.55-1.518
		c0.007-0.017,0.014-0.035,0.021-0.052C86.451,45.73,86.194,44.878,85.997,44.041"/>
</g>
</svg>
