<?xml version="1.0" encoding="utf-8"?>
<!-- Generator: Adobe Illustrator 15.1.0, SVG Export Plug-In . SVG Version: 6.00 Build 0)  -->
<!DOCTYPE svg PUBLIC "-//W3C//DTD SVG 1.1//EN" "http://www.w3.org/Graphics/SVG/1.1/DTD/svg11.dtd">
<svg version="1.1" id="Ebene_1" xmlns="http://www.w3.org/2000/svg" xmlns:xlink="http://www.w3.org/1999/xlink" x="0px" y="0px"
	 width="611.99px" height="615.52px" viewBox="0 0 611.99 615.52" enable-background="new 0 0 611.99 615.52" xml:space="preserve">
<g>
	<defs>
		<rect id="SVGID_1_" width="611.99" height="615.52"/>
	</defs>
	<clipPath id="SVGID_2_">
		<use xlink:href="#SVGID_1_"  overflow="visible"/>
	</clipPath>
	<path clip-path="url(#SVGID_2_)" d="M600.766,549.736l-184.31-185.368c26.679-37.72,42.528-83.729,42.528-133.548
		C458.985,103.35,356.232,0,229.493,0C102.753,0,0,103.35,0,230.82s102.753,230.82,229.493,230.82
		c49.53,0,95.271-15.944,132.78-42.777l184.31,185.366c7.482,7.521,17.292,11.291,27.102,11.291c9.812,0,19.62-3.77,27.083-11.291
		C615.731,589.188,615.731,564.777,600.766,549.736 M354.135,319.763l-15.042,21.272l-21.158,15.139
		c-26.083,18.658-56.667,28.525-88.441,28.525c-84.365,0-152.995-69.035-152.995-153.88c0-84.846,68.63-153.88,152.995-153.88
		s152.996,69.034,152.996,153.88C382.506,262.769,372.697,293.526,354.135,319.763"/>
</g>
</svg>
