<?xml version="1.0" encoding="utf-8"?>
<!-- Generator: Adobe Illustrator 15.1.0, SVG Export Plug-In  -->
<!DOCTYPE svg PUBLIC "-//W3C//DTD SVG 1.1//EN" "http://www.w3.org/Graphics/SVG/1.1/DTD/svg11.dtd" [
	<!ENTITY ns_flows "http://ns.adobe.com/Flows/1.0/">
]>
<svg version="1.1"
	 xmlns="http://www.w3.org/2000/svg" xmlns:xlink="http://www.w3.org/1999/xlink" xmlns:a="http://ns.adobe.com/AdobeSVGViewerExtensions/3.0/"
	 x="0px" y="0px" width="100%" height="100%" viewBox="0 0 53 93" overflow="visible" enable-background="new 0 0 53 93"
	 xml:space="preserve">
<defs>
</defs>
<g>
	<defs>
		<rect id="SVGID_1_" x="0" width="52.641" height="93.419"/>
	</defs>
	<clipPath id="SVGID_2_">
		<use xlink:href="#SVGID_1_"  overflow="visible"/>
	</clipPath>
	<path clip-path="url(#SVGID_2_)" fill="#FFFFFF" d="M44.389,0.513c-0.3,0.132-0.601,0.259-0.898,0.386
		c-1.425,0.602-2.549,1.079-3.389,1.986c-1.221,1.322-2.569,2.424-3.876,3.487C35.472,6.989,34.76,7.57,34.09,8.178
		c-0.253,0.229-0.527,0.543-0.817,0.876c-0.826,0.947-1.925,2.208-3.712,2.86l-0.322,0.318c-0.482,0.485-0.937,0.944-1.333,1.407
		c-0.896,1.044-1.783,2.096-2.67,3.146c-1.392,1.652-2.831,3.359-4.295,5.019c-1.608,1.824-3.239,3.629-4.869,5.433
		c-1.566,1.731-3.131,3.462-4.676,5.212c-0.449,0.507-0.878,1.096-1.331,1.72c-0.466,0.642-0.947,1.304-1.507,1.957
		c-0.993,1.162-2.023,2.3-3.02,3.398L5.033,40.08c-1.061,1.463-2.28,2.849-3.629,4.121l-0.036,0.042
		c-0.337,0.385-0.683,0.707-1.018,0.99c-0.103,0.542-0.225,1.048-0.337,1.517C0.009,46.769,0.005,46.785,0,46.804
		c0.197,0.884,0.355,1.736,0.475,2.574c2.908,3.119,5.105,5.891,6.84,8.625c0.643,0.479,1.282,1.028,1.818,1.721
		c0.353,0.459,0.86,0.957,1.396,1.484c0.862,0.848,1.84,1.81,2.576,2.998c0.285,0.389,1.724,1.736,2.338,2.312
		c0.378,0.354,0.697,0.653,0.89,0.847c0.811,0.822,1.72,1.575,2.682,2.371c0.469,0.389,0.938,0.777,1.398,1.173
		c1.127,0.97,1.804,1.884,2.349,2.619c0.599,0.81,0.93,1.256,1.781,1.735c1.358,0.761,2.161,2.041,2.519,2.736
		c0.526,1.024,1.655,1.95,2.851,2.93c0.566,0.464,1.127,0.926,1.647,1.406c0.477,0.435,0.849,0.877,1.176,1.268
		c0.265,0.314,0.516,0.613,0.711,0.764l1.07,0.512l0.267,0.211c0.873,0.691,1.901,1.59,2.896,2.457
		c0.922,0.803,1.872,1.633,2.654,2.258l1.741,0.818l0.463,0.686c0.412,0.611,1.003,1.072,2.107,1.648
		c0.886,0.465,1.427,0.482,1.757,0.454c0.869-0.073,1.761-0.206,2.703-0.346c0.718-0.106,1.434-0.214,2.153-0.298
		c1.132-2.457,1.574-4.963,1.307-7.465c-0.057-0.524-0.694-1.238-1.371-1.994c-0.095-0.09-0.289-0.246-0.508-0.426
		c-0.922-0.765-2.13-1.765-2.726-3.012c-1.843-1.453-3.592-3.279-5.312-5.545c-1.369-1.004-2.367-2.386-2.928-4.053
		c-1.273-1.485-2.265-3.087-2.956-4.292c-1.338-1.427-2.939-3.003-4.787-4.194c-0.666-0.429-1.271-0.939-1.809-1.521
		c-2.014-0.746-3.603-2.188-4.505-4.096c-0.496-0.545-0.915-1.156-1.254-1.824l-1.328-1.262c-0.235-0.223-0.47-0.438-0.704-0.654
		c-0.637-0.582-1.295-1.187-1.928-1.891c-2.508-2.785,0.582-5.687,1.598-6.64c0.184-0.173,0.364-0.34,0.521-0.499
		c1.691-1.705,3.405-3.38,5.12-5.055l0.142-0.139c0.79-1.086,1.67-2.124,2.622-3.092c1.748-3.498,4.544-6.704,8.323-9.54
		c1.016-1.559,1.992-3.206,2.941-4.803c1.083-1.823,2.202-3.708,3.409-5.526c0.069-0.104,0.14-0.2,0.215-0.293
		c0.612-1.12,1.354-2.049,2.212-2.773c0.528-0.77,1.286-1.402,2.026-2.022c0.163-0.138,0.317-0.263,0.438-0.371
		c1.1-1.701,1.764-3.189,2.146-4.8c0.509-2.151-0.14-3.581-1.931-4.251c-2.411-0.902-4.157-0.969-5.838-0.225L44.389,0.513z"/>
</g>
</svg>
