<?xml version="1.0" encoding="utf-8"?>
<!-- Generator: Adobe Illustrator 15.1.0, SVG Export Plug-In . SVG Version: 6.00 Build 0)  -->
<!DOCTYPE svg PUBLIC "-//W3C//DTD SVG 1.1//EN" "http://www.w3.org/Graphics/SVG/1.1/DTD/svg11.dtd">
<svg version="1.1" id="Ebene_1" xmlns="http://www.w3.org/2000/svg" xmlns:xlink="http://www.w3.org/1999/xlink" x="0px" y="0px" viewBox="0 0 93.419 52.642" enable-background="new 0 0 93.419 52.642" xml:space="preserve">
<g>
	<defs>
		<rect id="SVGID_1_" y="0" width="93.419" height="52.641"/>
	</defs>
	<clipPath id="SVGID_2_">
		<use xlink:href="#SVGID_1_"  overflow="visible"/>
	</clipPath>
	<path clip-path="url(#SVGID_2_)" fill="#e6b414" d="M92.906,44.389c-0.132-0.3-0.259-0.601-0.386-0.898
		c-0.602-1.425-1.079-2.549-1.986-3.389c-1.322-1.221-2.424-2.569-3.487-3.876c-0.617-0.754-1.198-1.466-1.806-2.136
		c-0.229-0.253-0.543-0.527-0.876-0.817c-0.947-0.826-2.208-1.925-2.86-3.712l-0.318-0.322c-0.485-0.482-0.944-0.937-1.407-1.333
		c-1.044-0.896-2.096-1.784-3.146-2.67c-1.652-1.392-3.359-2.831-5.019-4.295c-1.824-1.608-3.629-3.239-5.433-4.869
		c-1.731-1.566-3.462-3.131-5.212-4.676c-0.507-0.449-1.096-0.878-1.72-1.331c-0.642-0.466-1.304-0.947-1.957-1.507
		c-1.162-0.993-2.3-2.023-3.398-3.02l-0.556-0.504c-1.463-1.061-2.849-2.28-4.121-3.629l-0.042-0.036
		c-0.385-0.337-0.707-0.683-0.99-1.018c-0.542-0.103-1.048-0.225-1.517-0.337C46.65,0.009,46.634,0.005,46.615,0
		c-0.884,0.197-1.737,0.355-2.575,0.475c-3.119,2.908-5.89,5.105-8.624,6.84c-0.48,0.643-1.029,1.282-1.722,1.818
		c-0.458,0.353-0.956,0.86-1.484,1.396c-0.848,0.862-1.809,1.84-2.998,2.576c-0.389,0.285-1.736,1.724-2.311,2.338
		c-0.354,0.378-0.654,0.697-0.847,0.89c-0.822,0.811-1.575,1.72-2.371,2.682c-0.388,0.469-0.777,0.938-1.173,1.398
		c-0.969,1.127-1.884,1.804-2.619,2.349c-0.81,0.599-1.256,0.93-1.735,1.781c-0.761,1.358-2.041,2.161-2.736,2.519
		c-1.025,0.526-1.951,1.655-2.93,2.851c-0.464,0.566-0.926,1.127-1.406,1.647c-0.435,0.477-0.878,0.849-1.268,1.176
		C9.502,33,9.204,33.251,9.053,33.446l-0.512,1.07l-0.21,0.267c-0.692,0.873-1.59,1.901-2.457,2.896
		c-0.804,0.922-1.633,1.872-2.259,2.654l-0.818,1.741l-0.685,0.463C1.5,42.95,1.039,43.541,0.462,44.646
		c-0.465,0.886-0.482,1.427-0.454,1.757c0.073,0.869,0.206,1.761,0.346,2.703c0.107,0.718,0.214,1.434,0.298,2.153
		c2.457,1.132,4.963,1.574,7.465,1.307c0.524-0.057,1.238-0.694,1.994-1.371c0.09-0.095,0.246-0.289,0.426-0.508
		c0.764-0.922,1.764-2.13,3.011-2.726c1.453-1.843,3.279-3.592,5.545-5.312c1.004-1.369,2.386-2.367,4.053-2.928
		c1.485-1.273,3.087-2.265,4.292-2.956c1.427-1.338,3.003-2.939,4.194-4.787c0.429-0.666,0.939-1.271,1.522-1.809
		c0.746-2.014,2.188-3.602,4.096-4.505c0.545-0.496,1.155-0.915,1.824-1.254l1.262-1.328c0.222-0.235,0.437-0.47,0.653-0.704
		c0.583-0.637,1.187-1.295,1.891-1.928c2.786-2.508,5.687,0.582,6.64,1.598c0.173,0.184,0.34,0.364,0.499,0.521
		c1.705,1.691,3.38,3.405,5.055,5.12l0.139,0.142c1.086,0.79,2.124,1.67,3.092,2.622c3.498,1.748,6.704,4.544,9.54,8.323
		c1.559,1.016,3.206,1.992,4.803,2.941c1.823,1.083,3.708,2.202,5.526,3.409c0.104,0.069,0.2,0.14,0.293,0.215
		c1.12,0.612,2.049,1.354,2.773,2.212c0.77,0.528,1.402,1.286,2.022,2.026c0.138,0.163,0.263,0.317,0.371,0.438
		c1.701,1.1,3.189,1.764,4.8,2.146c2.151,0.509,3.581-0.14,4.251-1.931c0.902-2.411,0.969-4.157,0.225-5.838L92.906,44.389z"/>
</g>
</svg>
