<?xml version="1.0" encoding="utf-8"?>
<!-- Generator: Adobe Illustrator 15.1.0, SVG Export Plug-In  -->
<!DOCTYPE svg PUBLIC "-//W3C//DTD SVG 1.1//EN" "http://www.w3.org/Graphics/SVG/1.1/DTD/svg11.dtd" [
	<!ENTITY ns_flows "http://ns.adobe.com/Flows/1.0/">
]>
<svg version="1.1"
	 xmlns="http://www.w3.org/2000/svg" xmlns:xlink="http://www.w3.org/1999/xlink" xmlns:a="http://ns.adobe.com/AdobeSVGViewerExtensions/3.0/"
	 x="0px" y="0px" width="53px" height="93px" viewBox="0 0 53 93" overflow="visible" enable-background="new 0 0 53 93"
	 xml:space="preserve">
<defs>
</defs>
<g>
	<defs>
		<rect id="SVGID_1_" width="52.641" height="93.419"/>
	</defs>
	<clipPath id="SVGID_2_">
		<use xlink:href="#SVGID_1_"  overflow="visible"/>
	</clipPath>
	<path clip-path="url(#SVGID_2_)" fill="#FFFFFF" d="M8.253,92.906c0.3-0.132,0.601-0.259,0.898-0.386
		c1.425-0.602,2.549-1.079,3.389-1.986c1.221-1.322,2.569-2.424,3.876-3.487c0.754-0.617,1.466-1.198,2.136-1.806
		c0.253-0.229,0.527-0.543,0.817-0.876c0.826-0.947,1.925-2.208,3.712-2.86l0.322-0.318c0.482-0.485,0.937-0.944,1.333-1.407
		c0.896-1.044,1.783-2.096,2.67-3.146c1.393-1.652,2.832-3.359,4.295-5.019c1.608-1.824,3.24-3.629,4.869-5.433
		c1.566-1.731,3.131-3.462,4.676-5.212c0.449-0.507,0.879-1.096,1.332-1.72c0.466-0.642,0.947-1.304,1.507-1.957
		c0.993-1.162,2.022-2.3,3.021-3.398l0.504-0.556c1.061-1.463,2.279-2.849,3.629-4.121l0.035-0.042
		c0.338-0.385,0.684-0.707,1.019-0.99c0.103-0.542,0.225-1.048,0.337-1.517c0.004-0.019,0.008-0.035,0.013-0.054
		c-0.196-0.884-0.354-1.736-0.475-2.574c-2.908-3.119-5.104-5.891-6.841-8.625c-0.643-0.479-1.281-1.028-1.817-1.721
		c-0.353-0.459-0.86-0.957-1.396-1.484c-0.862-0.848-1.84-1.81-2.576-2.998c-0.285-0.389-1.725-1.736-2.338-2.312
		c-0.379-0.354-0.697-0.653-0.891-0.847c-0.811-0.822-1.72-1.575-2.682-2.371c-0.469-0.389-0.938-0.777-1.398-1.173
		c-1.127-0.97-1.804-1.884-2.349-2.619c-0.599-0.81-0.931-1.256-1.781-1.735c-1.358-0.761-2.161-2.041-2.519-2.736
		c-0.526-1.024-1.655-1.95-2.851-2.93c-0.566-0.464-1.127-0.926-1.647-1.406c-0.477-0.435-0.849-0.877-1.176-1.268
		c-0.265-0.314-0.516-0.613-0.711-0.764l-1.07-0.512L17.858,8.33c-0.873-0.691-1.901-1.59-2.896-2.457
		C14.04,5.07,13.09,4.24,12.308,3.615l-1.741-0.818l-0.463-0.686C9.691,1.5,9.101,1.039,7.996,0.463
		C7.11-0.002,6.569-0.02,6.239,0.009C5.37,0.082,4.479,0.215,3.536,0.354C2.818,0.461,2.103,0.568,1.383,0.652
		C0.251,3.109-0.191,5.615,0.076,8.117c0.057,0.524,0.694,1.238,1.371,1.994c0.095,0.09,0.289,0.246,0.508,0.426
		c0.922,0.765,2.13,1.765,2.726,3.012c1.843,1.453,3.592,3.279,5.312,5.545c1.369,1.004,2.367,2.386,2.928,4.053
		c1.273,1.485,2.265,3.087,2.956,4.292c1.338,1.427,2.939,3.003,4.787,4.194c0.666,0.429,1.271,0.939,1.809,1.521
		c2.014,0.746,3.603,2.188,4.505,4.096c0.496,0.545,0.915,1.156,1.254,1.824l1.328,1.262c0.235,0.223,0.471,0.438,0.704,0.654
		c0.638,0.582,1.295,1.187,1.929,1.891c2.508,2.785-0.582,5.687-1.599,6.64c-0.185,0.173-0.364,0.34-0.521,0.499
		c-1.691,1.705-3.405,3.38-5.12,5.055l-0.142,0.139c-0.79,1.086-1.67,2.124-2.622,3.092c-1.748,3.498-4.544,6.704-8.323,9.54
		c-1.016,1.559-1.992,3.206-2.941,4.803c-1.083,1.823-2.202,3.708-3.409,5.526c-0.069,0.104-0.14,0.2-0.215,0.293
		c-0.612,1.12-1.354,2.049-2.212,2.773c-0.528,0.77-1.286,1.402-2.026,2.022c-0.163,0.138-0.317,0.263-0.438,0.371
		c-1.1,1.701-1.764,3.189-2.146,4.8c-0.509,2.151,0.14,3.581,1.931,4.251c2.411,0.902,4.157,0.969,5.838,0.225L8.253,92.906z"/>
</g>
</svg>
